<svg xmlns="http://www.w3.org/2000/svg" xmlns:xlink="http://www.w3.org/1999/xlink" width="1920" zoomAndPan="magnify" viewBox="0 0 1440 809.999993" height="1080" preserveAspectRatio="xMidYMid meet" version="1.0"><defs><filter x="0%" y="0%" width="100%" height="100%" id="22ddfdb3f2"><feColorMatrix values="0 0 0 0 1 0 0 0 0 1 0 0 0 0 1 0 0 0 1 0" color-interpolation-filters="sRGB"/></filter><mask id="f1605ddb87"><g filter="url(#22ddfdb3f2)"><rect x="-144" width="1728" fill="#000000" y="-80.999999" height="971.999992" fill-opacity="0.4"/></g></mask><clipPath id="d19c212c0f"><path d="M 321 451 L 348 451 L 348 477.941406 L 321 477.941406 Z M 321 451 " clip-rule="nonzero"/></clipPath><clipPath id="87b29f3da3"><path d="M 719 0.191406 L 728 0.191406 L 728 9 L 719 9 Z M 719 0.191406 " clip-rule="nonzero"/></clipPath><clipPath id="94a892f738"><path d="M 703 74 L 740.878906 74 L 740.878906 112 L 703 112 Z M 703 74 " clip-rule="nonzero"/></clipPath><clipPath id="c8577cd0b7"><rect x="0" width="741" y="0" height="478"/></clipPath><mask id="47d6ccaa21"><g filter="url(#22ddfdb3f2)"><rect x="-144" width="1728" fill="#000000" y="-80.999999" height="971.999992" fill-opacity="0.4"/></g></mask><clipPath id="f167b1209f"><path d="M 0.703125 1.070312 L 87.703125 1.070312 L 87.703125 75.320312 L 0.703125 75.320312 Z M 0.703125 1.070312 " clip-rule="nonzero"/></clipPath><clipPath id="3ea27b4cb6"><rect x="0" width="89" y="0" height="76"/></clipPath><mask id="9b3ac795d1"><g filter="url(#22ddfdb3f2)"><rect x="-144" width="1728" fill="#000000" y="-80.999999" height="971.999992" fill-opacity="0.4"/></g></mask><clipPath id="0c701f6d7a"><path d="M 1 0.078125 L 166 0.078125 L 166 242 L 1 242 Z M 1 0.078125 " clip-rule="nonzero"/></clipPath><clipPath id="ba73bfcb72"><path d="M 0.625 0.078125 L 166.375 0.078125 L 166.375 242 L 0.625 242 Z M 0.625 0.078125 " clip-rule="nonzero"/></clipPath><clipPath id="e2b72165b7"><rect x="0" width="167" y="0" height="242"/></clipPath></defs><rect x="-144" width="1728" fill="#ffffff" y="-80.999999" height="971.999992" fill-opacity="1"/><rect x="-144" width="1728" fill="#10151b" y="-80.999999" height="971.999992" fill-opacity="1"/><g mask="url(#f1605ddb87)"><g transform="matrix(1, 0, 0, 1, 618, 231)"><g clip-path="url(#c8577cd0b7)"><path fill="#9badd6" d="M 478.316406 326.8125 L 482.601562 321.085938 L 476.871094 325.367188 L 475.277344 314.292969 L 473.675781 325.367188 L 467.949219 321.085938 L 472.234375 326.8125 L 461.160156 328.410156 L 472.234375 330.007812 L 467.949219 335.738281 L 473.675781 331.449219 L 475.277344 342.523438 L 476.871094 331.449219 L 482.601562 335.738281 L 478.316406 330.007812 L 489.390625 328.410156 Z M 478.316406 326.8125 " fill-opacity="1" fill-rule="nonzero"/><path fill="#9badd6" d="M 430.125 352.132812 L 433.402344 345.769531 L 428.464844 350.949219 L 425.050781 340.292969 L 425.316406 351.476562 L 418.949219 348.203125 L 424.132812 353.140625 L 413.476562 356.554688 L 424.660156 356.292969 L 421.386719 362.652344 L 426.324219 357.476562 L 429.738281 368.128906 L 429.476562 356.945312 L 435.835938 360.21875 L 430.660156 355.28125 L 441.3125 351.867188 Z M 430.125 352.132812 " fill-opacity="1" fill-rule="nonzero"/><path fill="#9badd6" d="M 518.429688 278.230469 L 525.070312 275.566406 L 517.945312 276.246094 L 522.34375 265.953125 L 515.21875 274.585938 L 512.554688 267.945312 L 513.234375 275.066406 L 502.945312 270.671875 L 511.574219 277.796875 L 504.933594 280.460938 L 512.054688 279.78125 L 507.664062 290.070312 L 514.785156 281.441406 L 517.449219 288.082031 L 516.769531 280.957031 L 527.058594 285.351562 Z M 518.429688 278.230469 " fill-opacity="1" fill-rule="nonzero"/><path fill="#9badd6" d="M 513.261719 407.796875 L 517.550781 402.066406 L 511.820312 406.355469 L 510.222656 395.28125 L 508.625 406.355469 L 502.894531 402.066406 L 507.183594 407.796875 L 496.109375 409.394531 L 507.183594 410.992188 L 502.894531 416.722656 L 508.625 412.433594 L 510.222656 423.511719 L 511.820312 412.433594 L 517.550781 416.722656 L 513.261719 410.992188 L 524.339844 409.394531 Z M 513.261719 407.796875 " fill-opacity="1" fill-rule="nonzero"/><path fill="#9badd6" d="M 407.433594 409.109375 L 413.617188 405.503906 L 406.664062 407.21875 L 409.515625 396.394531 L 403.726562 405.96875 L 400.121094 399.789062 L 401.832031 406.738281 L 391.011719 403.890625 L 400.589844 409.679688 L 394.40625 413.285156 L 401.355469 411.574219 L 398.507812 422.394531 L 404.296875 412.816406 L 407.898438 418.996094 L 406.1875 412.050781 L 417.007812 414.898438 Z M 407.433594 409.109375 " fill-opacity="1" fill-rule="nonzero"/><path fill="#9badd6" d="M 210.015625 405.175781 L 215.136719 392.074219 L 206.523438 403.195312 L 197.703125 383.050781 L 200.476562 404.867188 L 187.375 399.742188 L 198.492188 408.359375 L 178.351562 417.179688 L 200.164062 414.40625 L 195.046875 427.507812 L 203.65625 416.386719 L 212.476562 436.53125 L 209.707031 414.71875 L 222.804688 419.835938 L 211.6875 411.226562 L 231.832031 402.402344 Z M 210.015625 405.175781 " fill-opacity="1" fill-rule="nonzero"/><path fill="#9badd6" d="M 532.910156 224.175781 L 536.6875 213.738281 L 530.117188 222.683594 L 522.75 206.964844 L 525.375 224.121094 L 514.9375 220.347656 L 523.882812 226.917969 L 508.167969 234.28125 L 525.324219 231.65625 L 521.546875 242.097656 L 528.121094 233.152344 L 535.484375 248.867188 L 532.859375 231.710938 L 543.296875 235.484375 L 534.347656 228.914062 L 550.066406 221.546875 Z M 532.910156 224.175781 " fill-opacity="1" fill-rule="nonzero"/><path fill="#9badd6" d="M 518.058594 142.050781 L 520.492188 135.324219 L 516.253906 141.09375 L 511.507812 130.960938 L 513.199219 142.019531 L 506.46875 139.585938 L 512.238281 143.820312 L 502.105469 148.570312 L 513.164062 146.875 L 510.730469 153.605469 L 514.96875 147.839844 L 519.714844 157.96875 L 518.023438 146.910156 L 524.753906 149.34375 L 518.988281 145.109375 L 529.117188 140.359375 Z M 518.058594 142.050781 " fill-opacity="1" fill-rule="nonzero"/><path fill="#9badd6" d="M 531.621094 365.464844 L 534.21875 358.796875 L 529.84375 364.457031 L 525.347656 354.210938 L 526.765625 365.308594 L 520.097656 362.707031 L 525.761719 367.085938 L 515.515625 371.582031 L 526.613281 370.164062 L 524.011719 376.832031 L 528.390625 371.171875 L 532.886719 381.417969 L 531.46875 370.320312 L 538.132812 372.917969 L 532.476562 368.539062 L 542.71875 364.042969 Z M 531.621094 365.464844 " fill-opacity="1" fill-rule="nonzero"/><path fill="#9badd6" d="M 646.195312 291.859375 L 652.582031 283.394531 L 644.0625 289.714844 L 641.761719 273.289062 L 639.328125 289.695312 L 630.863281 283.308594 L 637.179688 291.824219 L 620.757812 294.125 L 637.160156 296.558594 L 630.773438 305.027344 L 639.292969 298.707031 L 641.59375 315.128906 L 644.027344 298.726562 L 652.496094 305.113281 L 646.175781 296.59375 L 662.597656 294.296875 Z M 646.195312 291.859375 " fill-opacity="1" fill-rule="nonzero"/><path fill="#9badd6" d="M 456.304688 288.632812 L 457.679688 284.65625 L 455.238281 288.082031 L 452.367188 282.171875 L 453.453125 288.652344 L 449.480469 287.277344 L 452.902344 289.71875 L 446.992188 292.59375 L 453.472656 291.503906 L 452.097656 295.480469 L 454.539062 292.054688 L 457.414062 297.96875 L 456.324219 291.484375 L 460.300781 292.859375 L 456.878906 290.417969 L 462.789062 287.546875 Z M 456.304688 288.632812 " fill-opacity="1" fill-rule="nonzero"/><path fill="#9badd6" d="M 441.195312 261.222656 L 443.710938 257.855469 L 440.347656 260.375 L 439.410156 253.867188 L 438.46875 260.375 L 435.101562 257.855469 L 437.621094 261.222656 L 431.113281 262.164062 L 437.621094 263.101562 L 435.101562 266.46875 L 438.46875 263.949219 L 439.410156 270.457031 L 440.347656 263.949219 L 443.710938 266.46875 L 441.195312 263.101562 L 447.699219 262.164062 Z M 441.195312 261.222656 " fill-opacity="1" fill-rule="nonzero"/><path fill="#9badd6" d="M 410.738281 223.582031 L 413.257812 220.21875 L 409.890625 222.734375 L 408.953125 216.230469 L 408.015625 222.734375 L 404.648438 220.21875 L 407.164062 223.582031 L 400.660156 224.519531 L 407.164062 225.457031 L 404.648438 228.824219 L 408.015625 226.308594 L 408.953125 232.816406 L 409.890625 226.308594 L 413.257812 228.824219 L 410.738281 225.457031 L 417.246094 224.519531 Z M 410.738281 223.582031 " fill-opacity="1" fill-rule="nonzero"/><path fill="#9badd6" d="M 400.785156 296.949219 L 404.089844 294.34375 L 400.183594 295.910156 L 400.957031 289.382812 L 398.371094 295.425781 L 395.769531 292.128906 L 397.335938 296.027344 L 390.804688 295.261719 L 396.851562 297.839844 L 393.554688 300.445312 L 397.453125 298.878906 L 396.683594 305.410156 L 399.265625 299.363281 L 401.871094 302.664062 L 400.304688 298.761719 L 406.832031 299.53125 Z M 400.785156 296.949219 " fill-opacity="1" fill-rule="nonzero"/><path fill="#9badd6" d="M 387.519531 362.792969 L 390.65625 358.597656 L 386.460938 361.734375 L 385.292969 353.625 L 384.125 361.734375 L 379.929688 358.597656 L 383.066406 362.792969 L 374.957031 363.960938 L 383.066406 365.128906 L 379.929688 369.324219 L 384.125 366.1875 L 385.292969 374.296875 L 386.460938 366.1875 L 390.65625 369.324219 L 387.519531 365.128906 L 395.628906 363.960938 Z M 387.519531 362.792969 " fill-opacity="1" fill-rule="nonzero"/><path fill="#9badd6" d="M 359.378906 405.105469 L 361.898438 401.734375 L 358.53125 404.257812 L 357.59375 397.746094 L 356.65625 404.257812 L 353.289062 401.734375 L 355.804688 405.105469 L 349.300781 406.042969 L 355.804688 406.980469 L 353.289062 410.347656 L 356.65625 407.828125 L 357.59375 414.332031 L 358.53125 407.828125 L 361.898438 410.347656 L 359.378906 406.980469 L 365.886719 406.042969 Z M 359.378906 405.105469 " fill-opacity="1" fill-rule="nonzero"/><path fill="#9badd6" d="M 464.101562 367.476562 L 467.542969 365.058594 L 463.558594 366.40625 L 464.6875 359.929688 L 461.777344 365.824219 L 459.359375 362.386719 L 460.707031 366.367188 L 454.230469 365.238281 L 460.121094 368.152344 L 456.683594 370.570312 L 460.667969 369.21875 L 459.539062 375.695312 L 462.449219 369.800781 L 464.871094 373.242188 L 463.519531 369.261719 L 469.996094 370.386719 Z M 464.101562 367.476562 " fill-opacity="1" fill-rule="nonzero"/><path fill="#9badd6" d="M 534.640625 319.960938 L 538.28125 317.859375 L 534.199219 318.847656 L 535.898438 312.496094 L 532.472656 318.105469 L 530.371094 314.464844 L 531.359375 318.550781 L 525.007812 316.851562 L 530.617188 320.277344 L 526.976562 322.375 L 531.066406 321.390625 L 529.363281 327.738281 L 532.789062 322.128906 L 534.890625 325.769531 L 533.902344 321.683594 L 540.25 323.386719 Z M 534.640625 319.960938 " fill-opacity="1" fill-rule="nonzero"/><path fill="#9badd6" d="M 493.726562 309.355469 L 495.640625 306.796875 L 493.082031 308.707031 L 492.367188 303.769531 L 491.65625 308.707031 L 489.101562 306.796875 L 491.011719 309.355469 L 486.070312 310.066406 L 491.011719 310.777344 L 489.101562 313.335938 L 491.65625 311.425781 L 492.367188 316.363281 L 493.082031 311.425781 L 495.640625 313.335938 L 493.726562 310.777344 L 498.671875 310.066406 Z M 493.726562 309.355469 " fill-opacity="1" fill-rule="nonzero"/><path fill="#9badd6" d="M 464.589844 188.503906 L 466.5 185.945312 L 463.941406 187.859375 L 463.230469 182.917969 L 462.519531 187.859375 L 459.960938 185.945312 L 461.871094 188.503906 L 456.933594 189.214844 L 461.871094 189.929688 L 459.960938 192.488281 L 462.519531 190.574219 L 463.230469 195.515625 L 463.941406 190.574219 L 466.5 192.488281 L 464.589844 189.929688 L 469.527344 189.214844 Z M 464.589844 188.503906 " fill-opacity="1" fill-rule="nonzero"/><path fill="#9badd6" d="M 396.984375 349.164062 L 398.894531 346.609375 L 396.339844 348.523438 L 395.628906 343.578125 L 394.917969 348.523438 L 392.359375 346.609375 L 394.269531 349.164062 L 389.328125 349.878906 L 394.269531 350.59375 L 392.359375 353.148438 L 394.917969 351.234375 L 395.628906 356.179688 L 396.339844 351.234375 L 398.894531 353.148438 L 396.984375 350.59375 L 401.925781 349.878906 Z M 396.984375 349.164062 " fill-opacity="1" fill-rule="nonzero"/><path fill="#9badd6" d="M 364.199219 291.484375 L 366.113281 288.925781 L 363.554688 290.839844 L 362.84375 285.898438 L 362.128906 290.839844 L 359.574219 288.925781 L 361.484375 291.484375 L 356.542969 292.199219 L 361.484375 292.910156 L 359.574219 295.464844 L 362.128906 293.550781 L 362.84375 298.496094 L 363.554688 293.550781 L 366.113281 295.464844 L 364.199219 292.910156 L 369.144531 292.199219 Z M 364.199219 291.484375 " fill-opacity="1" fill-rule="nonzero"/><path fill="#9badd6" d="M 429.355469 387.511719 L 431.265625 384.957031 L 428.707031 386.871094 L 427.996094 381.929688 L 427.285156 386.871094 L 424.726562 384.957031 L 426.640625 387.511719 L 421.695312 388.226562 L 426.640625 388.941406 L 424.726562 391.496094 L 427.285156 389.582031 L 427.996094 394.527344 L 428.707031 389.582031 L 431.265625 391.496094 L 429.355469 388.941406 L 434.292969 388.226562 Z M 429.355469 387.511719 " fill-opacity="1" fill-rule="nonzero"/><path fill="#9badd6" d="M 477.652344 455.683594 L 479.566406 453.125 L 477.007812 455.039062 L 476.292969 450.097656 L 475.582031 455.039062 L 473.027344 453.125 L 474.9375 455.683594 L 469.996094 456.398438 L 474.9375 457.109375 L 473.027344 459.664062 L 475.582031 457.75 L 476.292969 462.695312 L 477.007812 457.75 L 479.566406 459.664062 L 477.652344 457.109375 L 482.59375 456.398438 Z M 477.652344 455.683594 " fill-opacity="1" fill-rule="nonzero"/><path fill="#9badd6" d="M 615.039062 393.8125 L 616.949219 391.257812 L 614.394531 393.167969 L 613.679688 388.226562 L 612.96875 393.167969 L 610.410156 391.257812 L 612.324219 393.8125 L 607.382812 394.527344 L 612.324219 395.238281 L 610.410156 397.792969 L 612.96875 395.882812 L 613.679688 400.824219 L 614.394531 395.882812 L 616.949219 397.792969 L 615.039062 395.238281 L 619.976562 394.527344 Z M 615.039062 393.8125 " fill-opacity="1" fill-rule="nonzero"/><path fill="#9badd6" d="M 420.246094 156.347656 L 422.15625 153.792969 L 419.601562 155.707031 L 418.890625 150.761719 L 418.175781 155.707031 L 415.621094 153.792969 L 417.53125 156.347656 L 412.589844 157.0625 L 417.53125 157.773438 L 415.621094 160.332031 L 418.175781 158.417969 L 418.890625 163.359375 L 419.601562 158.417969 L 422.15625 160.332031 L 420.246094 157.773438 L 425.1875 157.0625 Z M 420.246094 156.347656 " fill-opacity="1" fill-rule="nonzero"/><path fill="#9badd6" d="M 225.015625 316.761719 L 229.300781 311.03125 L 223.570312 315.320312 L 221.972656 304.242188 L 220.378906 315.320312 L 214.644531 311.03125 L 218.929688 316.761719 L 207.859375 318.355469 L 218.929688 319.957031 L 214.644531 325.683594 L 220.378906 321.398438 L 221.972656 332.472656 L 223.570312 321.398438 L 229.300781 325.683594 L 225.015625 319.957031 L 236.089844 318.355469 Z M 225.015625 316.761719 " fill-opacity="1" fill-rule="nonzero"/><path fill="#9badd6" d="M 114.859375 348.277344 L 119.148438 342.546875 L 113.417969 346.832031 L 111.820312 335.757812 L 110.222656 346.832031 L 104.492188 342.546875 L 108.78125 348.277344 L 97.707031 349.871094 L 108.78125 351.46875 L 104.492188 357.199219 L 110.222656 352.914062 L 111.820312 363.988281 L 113.417969 352.914062 L 119.148438 357.199219 L 114.859375 351.46875 L 125.9375 349.871094 Z M 114.859375 348.277344 " fill-opacity="1" fill-rule="nonzero"/><path fill="#9badd6" d="M 176.828125 342.082031 L 180.101562 335.71875 L 175.164062 340.894531 L 171.746094 330.238281 L 172.011719 341.425781 L 165.652344 338.148438 L 170.828125 343.089844 L 160.175781 346.503906 L 171.359375 346.238281 L 168.085938 352.601562 L 173.023438 347.421875 L 176.4375 358.078125 L 176.171875 346.894531 L 182.535156 350.167969 L 177.355469 345.230469 L 188.011719 341.816406 Z M 176.828125 342.082031 " fill-opacity="1" fill-rule="nonzero"/><path fill="#9badd6" d="M 98.667969 246.351562 L 105.308594 243.6875 L 98.1875 244.367188 L 102.582031 234.078125 L 95.460938 242.710938 L 92.792969 236.070312 L 93.476562 243.191406 L 83.1875 238.796875 L 91.8125 245.917969 L 85.171875 248.585938 L 92.296875 247.902344 L 87.898438 258.191406 L 95.023438 249.566406 L 97.691406 256.207031 L 97.007812 249.082031 L 107.296875 253.476562 Z M 98.667969 246.351562 " fill-opacity="1" fill-rule="nonzero"/><g clip-path="url(#d19c212c0f)"><path fill="#9badd6" d="M 338.019531 464.402344 L 344.199219 460.800781 L 337.253906 462.511719 L 340.101562 451.691406 L 334.3125 461.265625 L 330.707031 455.082031 L 332.417969 462.03125 L 321.597656 459.183594 L 331.171875 464.972656 L 324.992188 468.578125 L 331.941406 466.867188 L 329.089844 477.683594 L 334.882812 468.109375 L 338.488281 474.292969 L 336.773438 467.347656 L 347.59375 470.191406 Z M 338.019531 464.402344 " fill-opacity="1" fill-rule="nonzero"/></g><path fill="#9badd6" d="M 398.667969 453.605469 L 402.957031 447.875 L 397.222656 452.160156 L 395.628906 441.082031 L 394.03125 452.160156 L 388.300781 447.875 L 392.585938 453.605469 L 381.511719 455.203125 L 392.585938 456.796875 L 388.300781 462.527344 L 394.03125 458.242188 L 395.628906 469.3125 L 397.222656 458.242188 L 402.957031 462.527344 L 398.667969 456.796875 L 409.742188 455.203125 Z M 398.667969 453.605469 " fill-opacity="1" fill-rule="nonzero"/><path fill="#9badd6" d="M 74.617188 283.488281 L 79.308594 270.523438 L 71.144531 281.632812 L 62 262.117188 L 65.257812 283.421875 L 52.292969 278.730469 L 63.40625 286.890625 L 43.886719 296.042969 L 65.195312 292.78125 L 60.507812 305.742188 L 68.667969 294.632812 L 77.816406 314.152344 L 74.550781 292.84375 L 87.515625 297.535156 L 76.40625 289.375 L 95.921875 280.226562 Z M 74.617188 283.488281 " fill-opacity="1" fill-rule="nonzero"/><path fill="#9badd6" d="M 330.078125 308.753906 L 336.203125 293.042969 L 325.886719 306.382812 L 315.289062 282.238281 L 318.636719 308.394531 L 302.921875 302.265625 L 316.261719 312.582031 L 292.121094 323.175781 L 318.273438 319.835938 L 312.148438 335.546875 L 322.460938 322.203125 L 333.058594 346.351562 L 329.714844 320.195312 L 345.425781 326.324219 L 332.085938 316.007812 L 356.230469 305.414062 Z M 330.078125 308.753906 " fill-opacity="1" fill-rule="nonzero"/><path fill="#9badd6" d="M 316.066406 421.222656 L 319.203125 417.027344 L 315.007812 420.164062 L 313.839844 412.058594 L 312.671875 420.164062 L 308.476562 417.027344 L 311.613281 421.222656 L 303.503906 422.394531 L 311.613281 423.558594 L 308.476562 427.757812 L 312.671875 424.621094 L 313.839844 432.726562 L 315.007812 424.621094 L 319.203125 427.757812 L 316.066406 423.558594 L 324.175781 422.394531 Z M 316.066406 421.222656 " fill-opacity="1" fill-rule="nonzero"/><path fill="#9badd6" d="M 281.117188 463.75 L 283.632812 460.386719 L 280.269531 462.902344 L 279.328125 456.398438 L 278.390625 462.902344 L 275.023438 460.386719 L 277.542969 463.75 L 271.035156 464.6875 L 277.542969 465.625 L 275.023438 468.992188 L 278.390625 466.472656 L 279.328125 472.980469 L 280.269531 466.472656 L 283.632812 468.992188 L 281.117188 465.625 L 287.621094 464.6875 Z M 281.117188 463.75 " fill-opacity="1" fill-rule="nonzero"/><path fill="#9badd6" d="M 248.566406 367.191406 L 251.082031 363.828125 L 247.71875 366.34375 L 246.78125 359.839844 L 245.84375 366.34375 L 242.476562 363.828125 L 244.992188 367.191406 L 238.488281 368.128906 L 244.992188 369.066406 L 242.476562 372.433594 L 245.84375 369.917969 L 246.78125 376.421875 L 247.71875 369.917969 L 251.082031 372.433594 L 248.566406 369.066406 L 255.070312 368.128906 Z M 248.566406 367.191406 " fill-opacity="1" fill-rule="nonzero"/><path fill="#9badd6" d="M 210.804688 357.425781 L 214.238281 355.003906 L 210.257812 356.355469 L 211.386719 349.878906 L 208.472656 355.773438 L 206.054688 352.332031 L 207.40625 356.316406 L 200.929688 355.1875 L 206.824219 358.097656 L 203.382812 360.515625 L 207.367188 359.171875 L 206.238281 365.644531 L 209.148438 359.75 L 211.566406 363.1875 L 210.21875 359.210938 L 216.695312 360.335938 Z M 210.804688 357.425781 " fill-opacity="1" fill-rule="nonzero"/><path fill="#9badd6" d="M 281.34375 309.910156 L 284.984375 307.804688 L 280.894531 308.792969 L 282.597656 302.445312 L 279.171875 308.054688 L 277.070312 304.414062 L 278.058594 308.5 L 271.707031 306.796875 L 277.316406 310.222656 L 273.675781 312.324219 L 277.761719 311.339844 L 276.058594 317.6875 L 279.488281 312.078125 L 281.585938 315.71875 L 280.601562 311.632812 L 286.949219 313.335938 Z M 281.34375 309.910156 " fill-opacity="1" fill-rule="nonzero"/><path fill="#9badd6" d="M 257.300781 283.96875 L 259.210938 281.410156 L 256.65625 283.324219 L 255.945312 278.378906 L 255.230469 283.324219 L 252.671875 281.410156 L 254.585938 283.96875 L 249.644531 284.679688 L 254.585938 285.394531 L 252.671875 287.949219 L 255.230469 286.035156 L 255.945312 290.976562 L 256.65625 286.035156 L 259.210938 287.949219 L 257.300781 285.394531 L 262.242188 284.679688 Z M 257.300781 283.96875 " fill-opacity="1" fill-rule="nonzero"/><path fill="#9badd6" d="M 41.949219 219.8125 L 43.863281 217.253906 L 41.308594 219.164062 L 40.59375 214.226562 L 39.878906 219.164062 L 37.324219 217.253906 L 39.238281 219.8125 L 34.296875 220.523438 L 39.238281 221.234375 L 37.324219 223.792969 L 39.878906 221.882812 L 40.59375 226.824219 L 41.308594 221.882812 L 43.863281 223.792969 L 41.949219 221.234375 L 46.894531 220.523438 Z M 41.949219 219.8125 " fill-opacity="1" fill-rule="nonzero"/><path fill="#9badd6" d="M 331.832031 369.410156 L 333.742188 366.855469 L 331.1875 368.765625 L 330.472656 363.828125 L 329.761719 368.765625 L 327.203125 366.855469 L 329.117188 369.410156 L 324.175781 370.125 L 329.117188 370.835938 L 327.203125 373.394531 L 329.761719 371.480469 L 330.472656 376.421875 L 331.1875 371.480469 L 333.742188 373.394531 L 331.832031 370.835938 L 336.773438 370.125 Z M 331.832031 369.410156 " fill-opacity="1" fill-rule="nonzero"/><path fill="#9badd6" d="M 372.367188 265.195312 L 373.148438 263.070312 L 371.796875 264.890625 L 370.308594 261.671875 L 370.828125 265.179688 L 368.703125 264.398438 L 370.523438 265.746094 L 367.308594 267.234375 L 370.8125 266.714844 L 370.03125 268.839844 L 371.382812 267.023438 L 372.867188 270.234375 L 372.351562 266.734375 L 374.476562 267.515625 L 372.65625 266.164062 L 375.871094 264.675781 Z M 372.367188 265.195312 " fill-opacity="1" fill-rule="nonzero"/><path fill="#9badd6" d="M 316.078125 265.195312 L 316.859375 263.070312 L 315.507812 264.890625 L 314.019531 261.671875 L 314.539062 265.179688 L 312.414062 264.398438 L 314.234375 265.746094 L 311.019531 267.234375 L 314.519531 266.714844 L 313.742188 268.839844 L 315.09375 267.023438 L 316.578125 270.234375 L 316.0625 266.734375 L 318.1875 267.515625 L 316.367188 266.164062 L 319.582031 264.675781 Z M 316.078125 265.195312 " fill-opacity="1" fill-rule="nonzero"/><path fill="#9badd6" d="M 128.117188 403.105469 L 128.898438 400.980469 L 127.546875 402.800781 L 126.058594 399.582031 L 126.578125 403.085938 L 124.453125 402.308594 L 126.273438 403.65625 L 123.058594 405.144531 L 126.5625 404.625 L 125.78125 406.75 L 127.132812 404.933594 L 128.617188 408.144531 L 128.101562 404.644531 L 130.226562 405.421875 L 128.40625 404.074219 L 131.621094 402.585938 Z M 128.117188 403.105469 " fill-opacity="1" fill-rule="nonzero"/><path fill="#9badd6" d="M 126.457031 232.71875 L 127.238281 230.589844 L 125.886719 232.410156 L 124.398438 229.195312 L 124.917969 232.699219 L 122.792969 231.917969 L 124.613281 233.265625 L 121.398438 234.757812 L 124.902344 234.234375 L 124.121094 236.363281 L 125.46875 234.546875 L 126.957031 237.757812 L 126.4375 234.253906 L 128.5625 235.035156 L 126.746094 233.6875 L 129.960938 232.195312 Z M 126.457031 232.71875 " fill-opacity="1" fill-rule="nonzero"/><path fill="#9badd6" d="M 572.125 143.707031 L 572.902344 141.578125 L 571.550781 143.398438 L 570.066406 140.183594 L 570.585938 143.6875 L 568.457031 142.90625 L 570.277344 144.257812 L 567.066406 145.746094 L 570.566406 145.226562 L 569.785156 147.351562 L 571.136719 145.53125 L 572.625 148.746094 L 572.105469 145.242188 L 574.234375 146.023438 L 572.414062 144.675781 L 575.625 143.1875 Z M 572.125 143.707031 " fill-opacity="1" fill-rule="nonzero"/><g clip-path="url(#87b29f3da3)"><path fill="#9badd6" d="M 724.078125 3.710938 L 724.855469 1.585938 L 723.503906 3.402344 L 722.019531 0.191406 L 722.539062 3.691406 L 720.410156 2.914062 L 722.230469 4.261719 L 719.015625 5.75 L 722.519531 5.230469 L 721.738281 7.359375 L 723.089844 5.539062 L 724.578125 8.753906 L 724.058594 5.25 L 726.183594 6.03125 L 724.367188 4.679688 L 727.578125 3.191406 Z M 724.078125 3.710938 " fill-opacity="1" fill-rule="nonzero"/></g><path fill="#9badd6" d="M 106.878906 291.484375 L 108.789062 288.925781 L 106.234375 290.839844 L 105.523438 285.898438 L 104.808594 290.839844 L 102.253906 288.925781 L 104.164062 291.484375 L 99.222656 292.199219 L 104.164062 292.910156 L 102.253906 295.464844 L 104.808594 293.550781 L 105.523438 298.496094 L 106.234375 293.550781 L 108.789062 295.464844 L 106.878906 292.910156 L 111.820312 292.199219 Z M 106.878906 291.484375 " fill-opacity="1" fill-rule="nonzero"/><path fill="#9badd6" d="M 138.863281 320.238281 L 140.773438 317.679688 L 138.21875 319.59375 L 137.507812 314.652344 L 136.792969 319.59375 L 134.234375 317.679688 L 136.148438 320.238281 L 131.207031 320.953125 L 136.148438 321.664062 L 134.234375 324.21875 L 136.792969 322.308594 L 137.507812 327.25 L 138.21875 322.308594 L 140.773438 324.21875 L 138.863281 321.664062 L 143.804688 320.953125 Z M 138.863281 320.238281 " fill-opacity="1" fill-rule="nonzero"/><path fill="#9badd6" d="M 217.148438 272.574219 L 219.0625 270.019531 L 216.503906 271.933594 L 215.792969 266.988281 L 215.078125 271.933594 L 212.523438 270.019531 L 214.433594 272.574219 L 209.496094 273.289062 L 214.433594 274 L 212.523438 276.558594 L 215.078125 274.644531 L 215.792969 279.585938 L 216.503906 274.644531 L 219.0625 276.558594 L 217.148438 274 L 222.089844 273.289062 Z M 217.148438 272.574219 " fill-opacity="1" fill-rule="nonzero"/><path fill="#9badd6" d="M 81.332031 211.519531 L 83.246094 208.960938 L 80.691406 210.875 L 79.976562 205.929688 L 79.261719 210.875 L 76.707031 208.960938 L 78.621094 211.519531 L 73.675781 212.234375 L 78.621094 212.945312 L 76.707031 215.5 L 79.261719 213.585938 L 79.976562 218.53125 L 80.691406 213.585938 L 83.246094 215.5 L 81.332031 212.945312 L 86.277344 212.234375 Z M 81.332031 211.519531 " fill-opacity="1" fill-rule="nonzero"/><path fill="#9badd6" d="M 166.945312 378.511719 L 168.859375 375.953125 L 166.300781 377.863281 L 165.585938 372.925781 L 164.875 377.863281 L 162.320312 375.953125 L 164.230469 378.511719 L 159.289062 379.222656 L 164.230469 379.933594 L 162.320312 382.492188 L 164.875 380.578125 L 165.585938 385.519531 L 166.300781 380.578125 L 168.859375 382.492188 L 166.945312 379.933594 L 171.886719 379.222656 Z M 166.945312 378.511719 " fill-opacity="1" fill-rule="nonzero"/><path fill="#9badd6" d="M 288.308594 352.148438 L 290.222656 349.59375 L 287.664062 351.503906 L 286.949219 346.5625 L 286.238281 351.503906 L 283.679688 349.59375 L 285.59375 352.148438 L 280.652344 352.859375 L 285.59375 353.574219 L 283.679688 356.132812 L 286.238281 354.21875 L 286.949219 359.160156 L 287.664062 354.21875 L 290.222656 356.132812 L 288.308594 353.574219 L 293.25 352.859375 Z M 288.308594 352.148438 " fill-opacity="1" fill-rule="nonzero"/><path fill="#9badd6" d="M 273.066406 397.035156 L 274.976562 394.480469 L 272.421875 396.394531 L 271.707031 391.449219 L 270.996094 396.394531 L 268.4375 394.480469 L 270.351562 397.035156 L 265.410156 397.746094 L 270.351562 398.460938 L 268.4375 401.019531 L 270.996094 399.105469 L 271.707031 404.046875 L 272.421875 399.105469 L 274.976562 401.019531 L 273.066406 398.460938 L 278.007812 397.746094 Z M 273.066406 397.035156 " fill-opacity="1" fill-rule="nonzero"/><path fill="#9badd6" d="M 644.394531 114.988281 L 650.800781 106.425781 L 642.238281 112.832031 L 639.851562 96.28125 L 637.464844 112.832031 L 628.902344 106.425781 L 635.308594 114.988281 L 618.761719 117.375 L 635.308594 119.761719 L 628.902344 128.324219 L 637.464844 121.921875 L 639.851562 138.46875 L 642.238281 121.921875 L 650.800781 128.324219 L 644.394531 119.761719 L 660.941406 117.375 Z M 644.394531 114.988281 " fill-opacity="1" fill-rule="nonzero"/><path fill="#9badd6" d="M 685.164062 141.9375 L 689.449219 136.210938 L 683.71875 140.496094 L 682.121094 129.421875 L 680.527344 140.496094 L 674.796875 136.210938 L 679.082031 141.9375 L 668.007812 143.539062 L 679.082031 145.132812 L 674.796875 150.863281 L 680.527344 146.578125 L 682.121094 157.652344 L 683.71875 146.578125 L 689.449219 150.863281 L 685.164062 145.132812 L 696.238281 143.539062 Z M 685.164062 141.9375 " fill-opacity="1" fill-rule="nonzero"/><g clip-path="url(#94a892f738)"><path fill="#9badd6" d="M 727.1875 93.476562 L 737.527344 89.328125 L 726.4375 90.386719 L 733.277344 74.367188 L 722.1875 87.800781 L 718.039062 77.460938 L 719.097656 88.554688 L 703.078125 81.707031 L 716.511719 92.800781 L 706.171875 96.949219 L 717.261719 95.890625 L 710.417969 111.914062 L 721.511719 98.476562 L 725.660156 108.816406 L 724.601562 97.726562 L 740.621094 104.566406 Z M 727.1875 93.476562 " fill-opacity="1" fill-rule="nonzero"/></g><path fill="#9badd6" d="M 575.65625 365.378906 L 579.941406 359.652344 L 574.214844 363.933594 L 572.613281 352.859375 L 571.019531 363.933594 L 565.289062 359.652344 L 569.574219 365.378906 L 558.5 366.976562 L 569.574219 368.574219 L 565.289062 374.304688 L 571.019531 370.015625 L 572.613281 381.089844 L 574.214844 370.015625 L 579.941406 374.304688 L 575.65625 368.574219 L 586.730469 366.976562 Z M 575.65625 365.378906 " fill-opacity="1" fill-rule="nonzero"/><path fill="#9badd6" d="M 614.28125 224.234375 L 620.464844 220.632812 L 613.515625 222.34375 L 616.363281 211.523438 L 610.574219 221.097656 L 606.96875 214.917969 L 608.679688 221.867188 L 597.863281 219.015625 L 607.4375 224.804688 L 601.253906 228.414062 L 608.203125 226.699219 L 605.355469 237.519531 L 611.144531 227.941406 L 614.746094 234.125 L 613.035156 227.179688 L 623.855469 230.023438 Z M 614.28125 224.234375 " fill-opacity="1" fill-rule="nonzero"/><path fill="#9badd6" d="M 560.273438 189.226562 L 564.558594 183.496094 L 558.824219 187.78125 L 557.230469 176.707031 L 555.632812 187.78125 L 549.902344 183.496094 L 554.1875 189.226562 L 543.117188 190.824219 L 554.1875 192.421875 L 549.902344 198.152344 L 555.632812 193.863281 L 557.230469 204.9375 L 558.824219 193.863281 L 564.558594 198.152344 L 560.273438 192.421875 L 571.34375 190.824219 Z M 560.273438 189.226562 " fill-opacity="1" fill-rule="nonzero"/><path fill="#9badd6" d="M 705.402344 38.027344 L 707.835938 31.300781 L 703.601562 37.066406 L 698.851562 26.933594 L 700.542969 37.996094 L 693.816406 35.558594 L 699.582031 39.796875 L 689.453125 44.542969 L 700.511719 42.851562 L 698.078125 49.582031 L 702.3125 43.8125 L 707.0625 53.945312 L 705.367188 42.886719 L 712.09375 45.320312 L 706.328125 41.082031 L 716.460938 36.335938 Z M 705.402344 38.027344 " fill-opacity="1" fill-rule="nonzero"/><path fill="#9badd6" d="M 594.015625 323.042969 L 596.613281 316.378906 L 592.238281 322.039062 L 587.742188 311.792969 L 589.160156 322.890625 L 582.492188 320.292969 L 588.152344 324.667969 L 577.90625 329.164062 L 589.007812 327.746094 L 586.40625 334.414062 L 590.785156 328.75 L 595.277344 338.996094 L 593.863281 327.898438 L 600.527344 330.5 L 594.867188 326.121094 L 605.113281 321.628906 Z M 594.015625 323.042969 " fill-opacity="1" fill-rule="nonzero"/><path fill="#9badd6" d="M 17.183594 194.703125 L 19.785156 188.039062 L 15.40625 193.699219 L 10.910156 183.453125 L 12.328125 194.550781 L 5.660156 191.953125 L 11.320312 196.328125 L 1.078125 200.824219 L 12.175781 199.40625 L 9.574219 206.070312 L 13.953125 200.410156 L 18.449219 210.65625 L 17.03125 199.5625 L 23.695312 202.160156 L 18.035156 197.78125 L 28.28125 193.289062 Z M 17.183594 194.703125 " fill-opacity="1" fill-rule="nonzero"/><path fill="#9badd6" d="M 672.710938 109.070312 L 674.085938 105.097656 L 671.644531 108.519531 L 668.769531 102.609375 L 669.859375 109.089844 L 665.882812 107.71875 L 669.308594 110.15625 L 663.394531 113.03125 L 669.878906 111.945312 L 668.503906 115.917969 L 670.945312 112.496094 L 673.820312 118.40625 L 672.730469 111.921875 L 676.707031 113.296875 L 673.28125 110.859375 L 679.195312 107.984375 Z M 672.710938 109.070312 " fill-opacity="1" fill-rule="nonzero"/><path fill="#9badd6" d="M 648.042969 76.351562 L 650.558594 72.984375 L 647.195312 75.5 L 646.257812 68.996094 L 645.316406 75.5 L 641.949219 72.984375 L 644.46875 76.351562 L 637.960938 77.289062 L 644.46875 78.226562 L 641.949219 81.59375 L 645.316406 79.074219 L 646.257812 85.582031 L 647.195312 79.074219 L 650.558594 81.59375 L 648.042969 78.226562 L 654.546875 77.289062 Z M 648.042969 76.351562 " fill-opacity="1" fill-rule="nonzero"/><path fill="#9badd6" d="M 607.636719 112.074219 L 610.9375 109.46875 L 607.03125 111.039062 L 607.804688 104.511719 L 605.21875 110.554688 L 602.613281 107.253906 L 604.183594 111.15625 L 597.65625 110.386719 L 603.699219 112.96875 L 600.402344 115.574219 L 604.300781 114.007812 L 603.535156 120.535156 L 606.113281 114.492188 L 608.71875 117.789062 L 607.152344 113.886719 L 613.679688 114.65625 Z M 607.636719 112.074219 " fill-opacity="1" fill-rule="nonzero"/><path fill="#9badd6" d="M 594.367188 177.917969 L 597.503906 173.722656 L 593.308594 176.859375 L 592.140625 168.753906 L 590.972656 176.859375 L 586.777344 173.722656 L 589.914062 177.917969 L 581.804688 179.085938 L 589.914062 180.257812 L 586.777344 184.453125 L 590.972656 181.3125 L 592.140625 189.421875 L 593.308594 181.3125 L 597.503906 184.453125 L 594.367188 180.257812 L 602.476562 179.085938 Z M 594.367188 177.917969 " fill-opacity="1" fill-rule="nonzero"/><path fill="#9badd6" d="M 698.023438 240.484375 L 700.542969 237.117188 L 697.175781 239.632812 L 696.238281 233.128906 L 695.300781 239.632812 L 691.933594 237.117188 L 694.449219 240.484375 L 687.945312 241.421875 L 694.449219 242.359375 L 691.933594 245.726562 L 695.300781 243.207031 L 696.238281 249.714844 L 697.175781 243.207031 L 700.542969 245.726562 L 698.023438 242.359375 L 704.53125 241.421875 Z M 698.023438 240.484375 " fill-opacity="1" fill-rule="nonzero"/><path fill="#9badd6" d="M 597.035156 277.542969 L 600.675781 275.441406 L 596.589844 276.425781 L 598.292969 270.078125 L 594.867188 275.6875 L 592.761719 272.046875 L 593.75 276.132812 L 587.402344 274.429688 L 593.011719 277.859375 L 589.371094 279.960938 L 593.457031 278.972656 L 591.757812 285.320312 L 595.179688 279.710938 L 597.28125 283.351562 L 596.296875 279.265625 L 602.644531 280.96875 Z M 597.035156 277.542969 " fill-opacity="1" fill-rule="nonzero"/><path fill="#9badd6" d="M 704.3125 115.445312 L 706.222656 112.886719 L 703.667969 114.800781 L 702.953125 109.859375 L 702.242188 114.800781 L 699.6875 112.886719 L 701.597656 115.445312 L 696.65625 116.15625 L 701.597656 116.871094 L 699.6875 119.429688 L 702.242188 117.515625 L 702.953125 122.457031 L 703.667969 117.515625 L 706.222656 119.429688 L 704.3125 116.871094 L 709.253906 116.15625 Z M 704.3125 115.445312 " fill-opacity="1" fill-rule="nonzero"/><path fill="#9badd6" d="M 662.4375 39.675781 L 664.347656 37.117188 L 661.789062 39.03125 L 661.078125 34.089844 L 660.367188 39.03125 L 657.808594 37.117188 L 659.71875 39.675781 L 654.78125 40.386719 L 659.71875 41.101562 L 657.808594 43.660156 L 660.367188 41.746094 L 661.078125 46.6875 L 661.789062 41.746094 L 664.347656 43.660156 L 662.4375 41.101562 L 667.375 40.386719 Z M 662.4375 39.675781 " fill-opacity="1" fill-rule="nonzero"/><path fill="#9badd6" d="M 688.367188 76.574219 L 690.28125 74.019531 L 687.722656 75.933594 L 687.007812 70.988281 L 686.296875 75.933594 L 683.742188 74.019531 L 685.652344 76.574219 L 680.710938 77.289062 L 685.652344 78.003906 L 683.742188 80.558594 L 686.296875 78.644531 L 687.007812 83.589844 L 687.722656 78.644531 L 690.28125 80.558594 L 688.367188 78.003906 L 693.308594 77.289062 Z M 688.367188 76.574219 " fill-opacity="1" fill-rule="nonzero"/><path fill="#9badd6" d="M 612.214844 150.050781 L 614.125 147.496094 L 611.570312 149.40625 L 610.859375 144.464844 L 610.148438 149.40625 L 607.589844 147.496094 L 609.5 150.050781 L 604.558594 150.761719 L 609.5 151.476562 L 607.589844 154.035156 L 610.148438 152.121094 L 610.859375 157.0625 L 611.570312 152.121094 L 614.125 154.035156 L 612.214844 151.476562 L 617.15625 150.761719 Z M 612.214844 150.050781 " fill-opacity="1" fill-rule="nonzero"/><path fill="#9badd6" d="M 558.589844 267.832031 L 560.5 265.277344 L 557.941406 267.1875 L 557.230469 262.246094 L 556.519531 267.1875 L 553.960938 265.277344 L 555.871094 267.832031 L 550.933594 268.542969 L 555.871094 269.257812 L 553.960938 271.8125 L 556.519531 269.902344 L 557.230469 274.84375 L 557.941406 269.902344 L 560.5 271.8125 L 558.589844 269.257812 L 563.527344 268.542969 Z M 558.589844 267.832031 " fill-opacity="1" fill-rule="nonzero"/><path fill="#9badd6" d="M 636.203125 202.640625 L 638.113281 200.085938 L 635.554688 202 L 634.84375 197.054688 L 634.132812 202 L 631.574219 200.085938 L 633.484375 202.640625 L 628.546875 203.351562 L 633.484375 204.066406 L 631.574219 206.625 L 634.132812 204.710938 L 634.84375 209.652344 L 635.554688 204.710938 L 638.113281 206.625 L 636.203125 204.066406 L 641.140625 203.351562 Z M 636.203125 202.640625 " fill-opacity="1" fill-rule="nonzero"/><path fill="#9badd6" d="M 655.324219 236.804688 L 657.234375 234.25 L 654.679688 236.164062 L 653.96875 231.21875 L 653.253906 236.164062 L 650.699219 234.25 L 652.609375 236.804688 L 647.667969 237.519531 L 652.609375 238.234375 L 650.699219 240.789062 L 653.253906 238.875 L 653.96875 243.820312 L 654.679688 238.875 L 657.234375 240.789062 L 655.324219 238.234375 L 660.265625 237.519531 Z M 655.324219 236.804688 " fill-opacity="1" fill-rule="nonzero"/><path fill="#9badd6" d="M 688.367188 296.683594 L 690.28125 294.125 L 687.722656 296.039062 L 687.007812 291.097656 L 686.296875 296.039062 L 683.742188 294.125 L 685.652344 296.683594 L 680.710938 297.394531 L 685.652344 298.105469 L 683.742188 300.664062 L 686.296875 298.753906 L 687.007812 303.691406 L 687.722656 298.753906 L 690.28125 300.664062 L 688.367188 298.105469 L 693.308594 297.394531 Z M 688.367188 296.683594 " fill-opacity="1" fill-rule="nonzero"/><path fill="#9badd6" d="M 730.953125 130.777344 L 732.867188 128.222656 L 730.308594 130.132812 L 729.597656 125.191406 L 728.882812 130.132812 L 726.324219 128.222656 L 728.238281 130.777344 L 723.296875 131.488281 L 728.238281 132.203125 L 726.324219 134.761719 L 728.882812 132.847656 L 729.597656 137.789062 L 730.308594 132.847656 L 732.867188 134.761719 L 730.953125 132.203125 L 735.894531 131.488281 Z M 730.953125 130.777344 " fill-opacity="1" fill-rule="nonzero"/></g></g></g><g mask="url(#47d6ccaa21)"><g transform="matrix(1, 0, 0, 1, 901, 415)"><g clip-path="url(#3ea27b4cb6)"><g clip-path="url(#f167b1209f)"><path fill="#9badd6" d="M 39.597656 58.511719 C 38.992188 58.351562 38.410156 58.664062 37.808594 59.09375 C 33.992188 61.824219 30.019531 64.3125 26.03125 66.785156 C 24.472656 67.75 22.855469 68.621094 21.238281 69.480469 C 19.808594 70.238281 18.382812 70.996094 16.929688 71.703125 C 14.328125 72.964844 11.660156 74.058594 8.835938 74.738281 C 7.640625 75.023438 6.433594 75.234375 5.203125 75.214844 C 4.28125 75.199219 3.382812 75.046875 2.566406 74.582031 C 1.449219 73.941406 0.917969 72.941406 0.808594 71.6875 C 0.703125 70.539062 0.964844 69.4375 1.296875 68.351562 C 1.785156 66.753906 2.523438 65.265625 3.339844 63.816406 C 5.199219 60.511719 7.433594 57.472656 9.839844 54.550781 C 11.164062 52.945312 12.539062 51.378906 13.984375 49.878906 C 14.671875 49.167969 15.355469 48.449219 16.050781 47.738281 C 16.480469 47.296875 16.824219 46.78125 17.222656 46.3125 C 17.382812 46.109375 17.550781 45.917969 17.730469 45.730469 C 17.886719 45.582031 17.902344 45.457031 17.804688 45.261719 C 17.191406 44.066406 16.675781 42.828125 16.257812 41.550781 C 15.667969 39.730469 15.292969 37.871094 15.132812 35.964844 C 14.832031 32.4375 15.273438 29.003906 16.4375 25.664062 C 17.46875 22.675781 19.027344 19.992188 21.105469 17.613281 C 23.15625 15.253906 25.554688 13.332031 28.355469 11.9375 C 28.851562 11.699219 29.320312 11.414062 29.757812 11.085938 C 30.292969 10.675781 30.898438 10.445312 31.511719 10.214844 C 33.472656 9.480469 35.503906 9.046875 37.589844 8.84375 C 40.789062 8.539062 43.910156 8.921875 46.964844 9.890625 C 48.671875 10.429688 50.242188 11.265625 51.757812 12.203125 C 52.511719 12.664062 53.265625 13.121094 53.96875 13.65625 C 54.152344 13.792969 54.285156 13.796875 54.484375 13.679688 C 57.15625 12.09375 59.816406 10.496094 62.46875 8.878906 C 63.890625 8.007812 65.371094 7.257812 66.910156 6.625 C 67.734375 6.292969 68.492188 5.804688 69.332031 5.507812 C 71.457031 4.761719 73.441406 3.6875 75.550781 2.90625 C 77.539062 2.175781 79.546875 1.511719 81.65625 1.246094 C 82.878906 1.09375 84.101562 1.074219 85.289062 1.488281 C 86.769531 2 87.71875 3.300781 87.785156 4.867188 C 87.847656 6.253906 87.511719 7.558594 87.039062 8.839844 C 86.28125 10.894531 85.199219 12.785156 84.027344 14.625 C 82.125 17.617188 79.964844 20.425781 77.691406 23.144531 C 76.230469 24.890625 74.726562 26.601562 73.175781 28.273438 C 71.976562 29.574219 70.75 30.851562 69.519531 32.125 C 68.6875 32.980469 67.84375 33.828125 66.996094 34.667969 C 66.175781 35.480469 65.335938 36.273438 64.503906 37.074219 C 64.367188 37.199219 64.285156 37.351562 64.257812 37.535156 C 63.835938 40.019531 63.082031 42.402344 61.960938 44.660156 C 60.894531 46.828125 59.542969 48.792969 57.90625 50.566406 C 54.523438 54.214844 50.386719 56.570312 45.582031 57.785156 C 44.085938 58.15625 42.566406 58.386719 41.027344 58.46875 C 40.601562 58.492188 40.171875 58.503906 39.597656 58.511719 Z M 16.683594 34.332031 C 16.671875 34.882812 16.742188 35.882812 16.871094 36.882812 C 17.277344 40.039062 18.277344 42.988281 19.898438 45.722656 C 21.144531 47.820312 22.671875 49.683594 24.480469 51.316406 C 25.054688 51.835938 25.660156 52.316406 26.28125 52.777344 C 26.421875 52.882812 26.523438 52.898438 26.660156 52.769531 C 26.925781 52.523438 27.191406 52.28125 27.5 52.097656 C 27.78125 51.929688 28.074219 51.777344 28.339844 51.585938 C 29.589844 50.703125 30.863281 49.859375 32.273438 49.246094 C 33.394531 48.757812 34.375 48.019531 35.414062 47.386719 C 35.8125 47.144531 36.199219 46.882812 36.574219 46.601562 C 37.34375 46.015625 38.109375 45.421875 38.863281 44.820312 C 40.023438 43.894531 41.300781 43.132812 42.558594 42.347656 C 43.320312 41.871094 44.089844 41.40625 44.789062 40.847656 C 45.738281 40.089844 46.652344 39.285156 47.585938 38.5 C 49.28125 37.074219 50.949219 35.617188 52.589844 34.128906 C 53.972656 32.878906 55.34375 31.617188 56.703125 30.339844 C 58.34375 28.792969 59.957031 27.21875 61.546875 25.617188 C 61.675781 25.484375 61.695312 25.371094 61.628906 25.199219 C 61.253906 24.230469 60.828125 23.285156 60.347656 22.363281 C 59.378906 20.523438 58.15625 18.863281 56.75 17.335938 C 55.777344 16.28125 54.640625 15.421875 53.464844 14.621094 C 52.84375 14.199219 52.199219 13.816406 51.535156 13.46875 C 50.382812 12.863281 49.148438 12.460938 47.910156 12.078125 C 45.519531 11.339844 43.078125 10.910156 40.570312 10.878906 C 39.59375 10.867188 38.621094 10.910156 37.648438 11.007812 C 35.660156 11.207031 33.722656 11.648438 31.847656 12.335938 C 31.234375 12.550781 30.613281 12.714844 29.976562 12.835938 C 29.835938 12.863281 29.703125 12.882812 29.578125 12.957031 C 29.378906 13.074219 29.171875 13.1875 28.96875 13.304688 C 26.628906 14.613281 24.539062 16.238281 22.734375 18.230469 C 21.414062 19.691406 20.292969 21.289062 19.375 23.03125 C 17.59375 26.425781 16.679688 30.035156 16.683594 34.332031 Z M 9.933594 56.921875 C 9.863281 56.984375 9.84375 57 9.832031 57.015625 C 8.332031 58.972656 6.84375 60.941406 5.523438 63.027344 C 4.449219 64.734375 3.457031 66.484375 2.742188 68.378906 C 2.359375 69.382812 2.089844 70.414062 2.128906 71.503906 C 2.167969 72.652344 2.769531 73.410156 3.875 73.703125 C 4.589844 73.890625 5.316406 73.890625 6.039062 73.839844 C 7.425781 73.738281 8.765625 73.410156 10.082031 72.972656 C 13.976562 71.679688 17.695312 69.988281 21.257812 67.964844 C 24.578125 66.082031 27.851562 64.125 31.027344 62 C 31.882812 61.425781 32.777344 60.917969 33.625 60.332031 C 35.097656 59.316406 36.449219 58.152344 37.90625 57.121094 C 38.777344 56.5 39.636719 55.863281 40.496094 55.226562 C 43.125 53.269531 45.710938 51.253906 48.242188 49.175781 C 49.632812 48.039062 51.019531 46.902344 52.382812 45.734375 C 53.558594 44.722656 54.738281 43.710938 55.914062 42.699219 C 56.488281 42.203125 57.039062 41.6875 57.617188 41.199219 C 57.890625 40.96875 58.03125 40.636719 58.285156 40.390625 C 58.828125 39.863281 59.390625 39.359375 59.96875 38.867188 C 60.664062 38.277344 61.351562 37.675781 62 37.03125 C 62.609375 36.429688 63.195312 35.796875 63.847656 35.242188 C 64.941406 34.3125 66.03125 33.378906 67.03125 32.347656 C 67.382812 31.980469 67.742188 31.621094 68.117188 31.28125 C 68.425781 31.003906 68.765625 30.75 68.988281 30.402344 C 69.242188 30.007812 69.574219 29.691406 69.890625 29.359375 C 70.945312 28.253906 71.980469 27.128906 73.011719 26 C 74.679688 24.164062 76.296875 22.28125 77.851562 20.351562 C 79.984375 17.703125 82 14.972656 83.695312 12.023438 C 84.507812 10.613281 85.234375 9.164062 85.734375 7.609375 C 86.007812 6.765625 86.1875 5.90625 86.140625 5.011719 C 86.113281 4.542969 86.003906 4.101562 85.710938 3.71875 C 85.292969 3.171875 84.6875 2.96875 84.042969 2.875 C 82.976562 2.71875 81.910156 2.832031 80.859375 3.039062 C 78.792969 3.441406 76.828125 4.152344 74.894531 4.953125 C 74.78125 5 74.667969 5.054688 74.554688 5.105469 C 74.605469 5.128906 74.65625 5.132812 74.707031 5.121094 C 75.347656 5.011719 75.984375 4.910156 76.636719 5.003906 C 76.734375 5.019531 76.867188 5.007812 76.890625 5.128906 C 76.921875 5.269531 76.78125 5.296875 76.6875 5.347656 C 76.425781 5.480469 76.136719 5.542969 75.859375 5.648438 C 76.410156 5.648438 76.957031 5.671875 77.492188 5.800781 C 78.328125 6 79.039062 6.382812 79.476562 7.160156 C 79.882812 7.878906 79.933594 8.660156 79.851562 9.457031 C 79.722656 10.722656 79.265625 11.894531 78.734375 13.039062 C 77.734375 15.183594 76.457031 17.164062 75.066406 19.070312 C 72.578125 22.480469 69.792969 25.640625 66.882812 28.691406 C 65.625 30.007812 64.347656 31.300781 63.042969 32.566406 C 61.175781 34.386719 59.273438 36.167969 57.328125 37.902344 C 54.539062 40.394531 51.679688 42.800781 48.753906 45.125 C 44.945312 48.160156 41.035156 51.066406 36.976562 53.761719 C 34.070312 55.695312 31.117188 57.550781 28.054688 59.222656 C 25.53125 60.601562 22.988281 61.925781 20.3125 62.992188 C 18.371094 63.761719 16.425781 64.492188 14.335938 64.753906 C 13.417969 64.871094 12.5 64.890625 11.597656 64.644531 C 10.300781 64.292969 9.578125 63.414062 9.453125 62.09375 C 9.394531 61.492188 9.511719 60.914062 9.613281 60.332031 C 9.628906 60.238281 9.714844 60.125 9.507812 60.164062 C 9.398438 60.183594 9.363281 60.078125 9.375 59.984375 C 9.386719 59.886719 9.40625 59.785156 9.429688 59.6875 C 9.550781 59.1875 9.769531 58.722656 9.953125 58.238281 C 9.890625 58.304688 9.832031 58.375 9.785156 58.453125 C 9.105469 59.488281 8.460938 60.550781 7.75 61.570312 C 7.714844 61.621094 7.679688 61.671875 7.640625 61.71875 C 7.609375 61.769531 7.566406 61.78125 7.515625 61.753906 C 7.464844 61.726562 7.449219 61.6875 7.476562 61.632812 C 7.496094 61.574219 7.519531 61.515625 7.542969 61.460938 C 7.992188 60.3125 8.597656 59.25 9.242188 58.207031 C 9.488281 57.808594 9.761719 57.429688 9.933594 56.921875 Z M 10.773438 58.527344 C 10.535156 58.875 10.300781 59.222656 10.066406 59.570312 C 10.023438 59.636719 9.992188 59.707031 9.96875 59.785156 C 9.730469 60.460938 9.621094 61.15625 9.632812 61.871094 C 9.65625 63.148438 10.402344 64.050781 11.648438 64.292969 C 12.605469 64.480469 13.5625 64.421875 14.511719 64.265625 C 16.300781 63.976562 18.023438 63.445312 19.703125 62.78125 C 22.847656 61.535156 25.847656 59.984375 28.773438 58.285156 C 32.335938 56.21875 35.773438 53.964844 39.136719 51.59375 C 42.46875 49.246094 45.722656 46.800781 48.902344 44.253906 C 51.238281 42.375 53.53125 40.441406 55.773438 38.457031 C 57.992188 36.5 60.164062 34.496094 62.285156 32.433594 C 65.070312 29.742188 67.742188 26.941406 70.265625 24.003906 C 72.425781 21.488281 74.480469 18.898438 76.261719 16.101562 C 77.160156 14.691406 77.996094 13.246094 78.589844 11.675781 C 78.9375 10.753906 79.214844 9.8125 79.203125 8.808594 C 79.191406 7.527344 78.5625 6.71875 77.308594 6.433594 C 76.429688 6.234375 75.542969 6.335938 74.65625 6.410156 C 73.859375 6.476562 73.199219 6.859375 72.503906 7.195312 C 72.683594 7.214844 72.859375 7.207031 73.035156 7.21875 C 73.507812 7.238281 73.964844 7.328125 74.367188 7.601562 C 75.128906 8.113281 75.300781 8.871094 75.207031 9.71875 C 75.128906 10.457031 74.863281 11.144531 74.546875 11.808594 C 73.777344 13.449219 72.75 14.933594 71.691406 16.394531 C 70.609375 17.894531 69.433594 19.320312 68.238281 20.734375 C 67.144531 22.023438 66.054688 23.320312 64.839844 24.503906 C 64.089844 25.234375 63.402344 26.019531 62.785156 26.863281 C 62.308594 27.519531 61.777344 28.136719 61.15625 28.664062 C 60.59375 29.136719 60.03125 29.605469 59.511719 30.125 C 58.890625 30.746094 58.304688 31.410156 57.621094 31.972656 C 57.054688 32.4375 56.476562 32.890625 55.925781 33.371094 C 55.53125 33.714844 55.191406 34.113281 54.796875 34.460938 C 54.074219 35.101562 53.3125 35.699219 52.59375 36.34375 C 50.734375 38.015625 48.835938 39.632812 46.917969 41.230469 C 44.164062 43.535156 41.34375 45.75 38.492188 47.933594 C 35.363281 50.328125 32.082031 52.507812 28.875 54.792969 C 28.398438 55.132812 27.949219 55.523438 27.371094 55.691406 C 25.101562 57.175781 22.769531 58.550781 20.316406 59.707031 C 18.960938 60.347656 17.605469 60.988281 16.167969 61.429688 C 15.21875 61.71875 14.261719 61.960938 13.25 61.925781 C 12.015625 61.878906 11.207031 61.0625 11.203125 59.832031 C 11.199219 59.695312 11.203125 59.558594 11.203125 59.421875 C 11.078125 59.558594 10.972656 59.707031 10.878906 59.863281 C 10.839844 59.921875 10.796875 59.984375 10.710938 59.960938 C 10.628906 59.941406 10.613281 59.863281 10.609375 59.792969 C 10.609375 59.707031 10.613281 59.625 10.621094 59.539062 C 10.652344 59.195312 10.71875 58.859375 10.773438 58.527344 Z M 72.789062 8.609375 C 72.332031 8.609375 71.886719 8.703125 71.449219 8.816406 C 69.988281 9.199219 68.601562 9.785156 67.246094 10.445312 C 63.863281 12.09375 60.710938 14.128906 57.597656 16.230469 C 57.53125 16.28125 57.464844 16.335938 57.410156 16.402344 C 57.34375 16.464844 57.332031 16.542969 57.410156 16.605469 C 57.515625 16.6875 57.511719 16.5625 57.546875 16.519531 C 57.640625 16.402344 57.757812 16.371094 57.871094 16.46875 C 57.988281 16.5625 57.996094 16.710938 57.875 16.789062 C 57.691406 16.910156 57.800781 16.976562 57.890625 17.070312 C 58.351562 17.554688 58.804688 18.050781 59.230469 18.570312 C 60.621094 20.257812 61.796875 22.082031 62.703125 24.074219 C 62.816406 24.324219 62.828125 24.324219 63.015625 24.128906 C 63.5 23.621094 63.980469 23.109375 64.464844 22.601562 C 65.84375 21.148438 67.207031 19.679688 68.496094 18.144531 C 69.796875 16.585938 71.066406 15.003906 72.148438 13.285156 C 72.730469 12.359375 73.277344 11.414062 73.621094 10.367188 C 73.738281 10.003906 73.839844 9.632812 73.816406 9.242188 C 73.796875 8.894531 73.644531 8.710938 73.300781 8.652344 C 73.132812 8.628906 72.960938 8.617188 72.789062 8.609375 Z M 63.050781 38.507812 C 59.40625 41.847656 55.714844 45.121094 51.914062 48.265625 C 48.113281 51.410156 44.207031 54.417969 40.265625 57.394531 C 45.640625 57.402344 50.429688 55.738281 54.628906 52.402344 C 59.136719 48.816406 61.96875 44.1875 63.050781 38.507812 Z M 13.742188 60.609375 C 14.023438 60.621094 14.34375 60.570312 14.664062 60.5 C 16.0625 60.195312 17.367188 59.625 18.644531 59.007812 C 21.210938 57.769531 23.605469 56.222656 26.046875 54.757812 C 26.230469 54.648438 26.191406 54.59375 26.039062 54.492188 C 24.769531 53.648438 23.589844 52.695312 22.492188 51.632812 C 21.574219 50.75 20.742188 49.792969 19.988281 48.765625 C 19.855469 48.585938 19.792969 48.601562 19.648438 48.761719 C 19.328125 49.121094 19.15625 49.570312 18.859375 49.949219 C 17.714844 51.417969 16.527344 52.855469 15.453125 54.378906 C 14.554688 55.648438 13.699219 56.941406 13.058594 58.363281 C 12.835938 58.863281 12.636719 59.375 12.625 59.933594 C 12.621094 60.253906 12.746094 60.417969 13.042969 60.535156 C 13.253906 60.617188 13.472656 60.605469 13.742188 60.609375 Z M 39.796875 44.875 C 39.699219 44.855469 39.660156 44.902344 39.621094 44.933594 C 39.148438 45.292969 38.691406 45.671875 38.207031 46.015625 C 36.597656 47.148438 34.902344 48.144531 33.234375 49.183594 C 32.957031 49.363281 32.664062 49.507812 32.351562 49.617188 C 31.804688 49.796875 31.320312 50.089844 30.863281 50.433594 C 30.707031 50.550781 30.546875 50.660156 30.378906 50.761719 C 29.363281 51.363281 28.441406 52.105469 27.421875 52.695312 C 27.253906 52.792969 27.101562 52.917969 26.941406 53.027344 C 26.832031 53.101562 26.824219 53.160156 26.9375 53.234375 C 27.070312 53.316406 27.199219 53.40625 27.328125 53.492188 C 27.722656 53.75 27.625 53.746094 27.996094 53.5 C 31.730469 51.015625 35.324219 48.347656 38.867188 45.605469 C 39.171875 45.371094 39.476562 45.128906 39.796875 44.875 Z M 39.796875 44.875 " fill-opacity="1" fill-rule="nonzero"/></g><path fill="#9badd6" d="M 54.8125 18.566406 C 54.855469 19.375 54.617188 20.117188 54.285156 20.84375 C 53.402344 22.78125 52.109375 24.417969 50.605469 25.90625 C 49.332031 27.164062 47.972656 28.320312 46.609375 29.476562 C 46.25 29.785156 45.867188 30.070312 45.492188 30.363281 C 45.445312 30.398438 45.378906 30.496094 45.320312 30.414062 C 45.269531 30.339844 45.378906 30.304688 45.425781 30.261719 C 47.308594 28.742188 49.089844 27.105469 50.765625 25.359375 C 51.890625 24.179688 52.925781 22.945312 53.621094 21.445312 C 54.113281 20.386719 54.347656 19.261719 54.5625 18.125 C 54.589844 18 54.554688 17.765625 54.695312 17.773438 C 54.867188 17.785156 54.789062 18.011719 54.808594 18.144531 C 54.816406 18.285156 54.820312 18.425781 54.8125 18.566406 Z M 54.8125 18.566406 " fill-opacity="1" fill-rule="nonzero"/><path fill="#9badd6" d="M 40.316406 42.820312 C 40.839844 42.550781 41.300781 42.230469 41.753906 41.90625 C 42.351562 41.476562 42.953125 41.0625 43.574219 40.675781 C 43.835938 40.515625 44.074219 40.328125 44.285156 40.105469 C 44.59375 39.785156 44.933594 39.496094 45.296875 39.242188 C 45.390625 39.167969 45.476562 39.09375 45.5625 39.011719 C 45.605469 38.96875 45.636719 38.890625 45.710938 38.9375 C 45.773438 38.980469 45.777344 39.054688 45.757812 39.128906 C 45.714844 39.292969 45.617188 39.421875 45.507812 39.546875 C 44.960938 40.164062 44.363281 40.730469 43.617188 41.089844 C 42.785156 41.492188 42.019531 42 41.238281 42.484375 C 41.027344 42.613281 40.796875 42.714844 40.574219 42.828125 C 40.507812 42.859375 40.441406 42.914062 40.316406 42.820312 Z M 40.316406 42.820312 " fill-opacity="1" fill-rule="nonzero"/><path fill="#9badd6" d="M 19.980469 39.101562 C 22.386719 38.941406 24.703125 38.476562 27.035156 37.902344 C 26.992188 38.046875 26.898438 38.050781 26.824219 38.074219 C 25.246094 38.566406 23.636719 38.929688 22 39.152344 C 21.414062 39.230469 20.820312 39.238281 20.226562 39.21875 C 20.121094 39.230469 20.039062 39.191406 19.980469 39.101562 Z M 19.980469 39.101562 " fill-opacity="1" fill-rule="nonzero"/><path fill="#9badd6" d="M 32.46875 40.320312 C 32.414062 40.339844 32.359375 40.335938 32.339844 40.269531 C 32.328125 40.226562 32.359375 40.199219 32.398438 40.179688 C 32.714844 40.039062 33.019531 39.851562 33.382812 39.847656 C 33.46875 39.847656 33.597656 39.796875 33.625 39.90625 C 33.648438 40.011719 33.511719 40.039062 33.433594 40.078125 C 33.132812 40.242188 32.8125 40.320312 32.46875 40.320312 Z M 32.46875 40.320312 " fill-opacity="1" fill-rule="nonzero"/><path fill="#9badd6" d="M 57.070312 45.4375 C 57.042969 45.476562 57.007812 45.515625 56.976562 45.5625 C 56.519531 46.195312 55.886719 46.648438 55.320312 47.175781 C 54.722656 47.738281 54.027344 48.179688 53.398438 48.707031 C 52.734375 49.261719 52.148438 49.898438 51.582031 50.558594 C 51.429688 50.734375 51.261719 50.898438 51.097656 51.0625 C 51.066406 51.097656 51.023438 51.171875 50.964844 51.109375 C 50.917969 51.054688 50.976562 51.007812 51.011719 50.96875 C 51.898438 50.003906 52.699219 48.960938 53.699219 48.105469 C 54.550781 47.375 55.316406 46.542969 56.175781 45.820312 C 56.398438 45.632812 56.621094 45.449219 56.902344 45.355469 C 56.976562 45.332031 57.054688 45.300781 57.070312 45.4375 Z M 57.070312 45.4375 " fill-opacity="1" fill-rule="nonzero"/></g></g></g><g mask="url(#9b3ac795d1)"><g transform="matrix(1, 0, 0, 1, 1193, 568)"><g clip-path="url(#e2b72165b7)"><g clip-path="url(#0c701f6d7a)"><path fill="#9badd6" d="M 29.59375 66.175781 C 30.371094 68.503906 32.605469 61.851562 33.390625 65.042969 C 34.589844 68.777344 28.578125 68.28125 29.617188 71.863281 C 30.023438 76.117188 30.570312 80.359375 30.484375 84.644531 C 30.730469 87.765625 32.832031 90.175781 34.292969 92.664062 C 36.820312 94.5 40.453125 93.113281 42.554688 91.1875 C 44.917969 89.234375 45.152344 85.945312 47.5 83.898438 C 49.285156 81.050781 50.515625 77.980469 52.683594 75.3125 C 53.882812 71.863281 56.109375 68.648438 56.496094 64.839844 C 56.925781 61.714844 57.972656 58.683594 57.855469 55.496094 C 58.164062 51.726562 58.171875 47.90625 57.394531 44.195312 C 57.789062 40.8125 61.320312 38.992188 63.3125 36.570312 C 64.441406 35.179688 65.046875 35.347656 66.214844 33.707031 C 69.355469 32.046875 70.746094 29.460938 73.847656 27.953125 C 78.546875 24.789062 83.652344 22.027344 89.242188 20.875 C 91.84375 19.816406 94.917969 20.332031 97.617188 20.003906 C 100.199219 20.960938 103.203125 20.941406 105.414062 22.652344 C 107.765625 24.320312 109.898438 26.265625 112.035156 28.1875 C 113.042969 30.972656 115.4375 32.984375 116.367188 35.824219 C 118.800781 40.605469 120.34375 45.765625 121.765625 50.914062 C 123.820312 59.273438 124.988281 67.941406 124.132812 76.542969 C 123.816406 80.066406 122.835938 83.503906 122.082031 86.949219 C 118.46875 99.40625 110.164062 109.816406 101.21875 118.929688 C 96.425781 123.625 91.195312 127.851562 86.125 132.246094 C 77.328125 139.125 69.421875 147.085938 60.402344 153.699219 C 54.726562 158.988281 48.445312 163.582031 42.820312 168.933594 C 36.605469 174.53125 30.847656 180.625 25.480469 187.027344 C 22.902344 189.757812 21.003906 193.039062 18.597656 195.910156 C 15.183594 200.828125 12.152344 206.011719 9.316406 211.277344 C 5.535156 219.582031 2.316406 228.304688 1.648438 237.480469 C 0.789062 246.050781 2.039062 254.660156 4.253906 262.933594 C 5.625 269.734375 8.199219 276.21875 11.554688 282.277344 C 13.417969 285.328125 14.765625 288.726562 16.910156 291.582031 C 18.566406 293.238281 19.421875 295.75 21.113281 297.136719 C 22.460938 298.246094 23.742188 299.742188 24.722656 301.136719 C 27.34375 302.203125 28.445312 305.515625 31.128906 306.570312 C 34.152344 310.023438 38.417969 312.175781 42.640625 313.796875 C 45.035156 314.609375 46.777344 316.746094 49.65625 316.738281 C 52.382812 317.457031 54.519531 318.003906 57.246094 318.941406 C 58.640625 319.226562 60.480469 319.296875 60.546875 319.738281 C 61.859375 318.730469 60.546875 320.90625 61.644531 319.84375 C 64.398438 321.078125 67.738281 320.453125 70.589844 321.628906 C 73.757812 322.003906 77.011719 322.023438 80.113281 322.117188 C 82.652344 322.167969 85.648438 322.539062 88.535156 322.261719 C 91.800781 322 94.238281 322.386719 97.402344 321.378906 C 99.542969 322.460938 102.324219 321.117188 104.351562 320.398438 C 107 320.371094 109.214844 319.492188 111.800781 318.96875 C 114.75 318.65625 117.207031 316.988281 120.023438 316.15625 C 122.375 315.066406 124.949219 314.324219 127.136719 312.90625 C 130.261719 311.558594 133.390625 309.714844 136.050781 307.558594 C 138.222656 306.320312 140.429688 305.070312 141.960938 303.023438 C 144.253906 300.949219 146.390625 298.863281 148.726562 296.609375 C 150.375 293.890625 153.035156 291.851562 154.351562 288.929688 C 155.90625 286.167969 157.710938 283.46875 158.765625 280.429688 C 160.347656 276.71875 162.03125 273.023438 162.738281 269.023438 C 163.277344 266.777344 163.832031 264.535156 164.371094 262.292969 C 164.882812 259.386719 165.324219 256.328125 165.3125 253.222656 C 165.488281 250.164062 165.996094 247.148438 165.546875 244.070312 C 165.480469 240.867188 164.617188 237.703125 164.296875 234.515625 C 163.640625 230.78125 162.992188 227.023438 161.355469 223.566406 C 159.78125 219.457031 158.394531 215.230469 155.773438 211.636719 C 154.015625 208.5 152.375 205.265625 149.929688 202.578125 C 146.875 198.496094 142.96875 195.203125 139.328125 191.667969 C 132.777344 187.039062 125.941406 182.640625 118.242188 180.183594 C 110.164062 177.121094 101.113281 176.769531 92.863281 179.355469 C 84.085938 182.261719 75.746094 186.550781 68.234375 191.933594 C 59.269531 198.847656 53.527344 209.539062 52.285156 220.757812 C 52.367188 222.792969 51.019531 227.3125 53.5 227.679688 C 55.300781 225.488281 55.867188 222.496094 57.46875 220.140625 C 59.289062 217.488281 60.9375 214.984375 63.382812 212.839844 C 66.054688 210.773438 68.09375 208.589844 71.015625 207.042969 C 74.34375 205.992188 77.3125 203.996094 80.722656 203.25 C 84.328125 202.847656 87.820312 201.488281 91.496094 201.796875 C 90.710938 202.421875 93.972656 201.089844 93.511719 202.082031 C 96.152344 201.695312 98.699219 201.640625 101.324219 202.023438 C 106.894531 201.949219 112.285156 203.777344 117.402344 205.792969 C 118.914062 207.496094 121.367188 207.542969 122.445312 208.730469 C 123.167969 209.976562 125.269531 209.503906 124.914062 211.179688 C 127.742188 211.242188 128.261719 215.09375 130.664062 216.542969 C 132.621094 219.226562 134.441406 222.09375 135.964844 225.058594 C 137.015625 228.078125 138.683594 230.871094 139.140625 234.074219 C 140.886719 240.632812 141.644531 247.566406 140.539062 254.292969 C 139.925781 262.152344 136.980469 269.71875 132.898438 276.40625 C 129.308594 282.210938 124.105469 286.882812 118.367188 290.484375 C 115.867188 291.253906 113.75 292.773438 111.230469 293.519531 C 105.125 295.132812 99.019531 296.960938 92.671875 297.289062 C 86.636719 297.660156 80.503906 297.644531 74.542969 296.582031 L 64.203125 294.367188 C 61.695312 292.742188 58.675781 292.101562 56.097656 290.582031 C 51.363281 288.289062 46.832031 285.367188 43.078125 281.6875 C 39.59375 277.675781 35.261719 274.179688 33.183594 269.136719 C 31.53125 266.003906 30.335938 262.644531 29.449219 259.234375 C 28.5 256.421875 28.246094 253.289062 28.214844 250.414062 C 27.910156 248.5 27.773438 245.988281 27.957031 244.546875 C 28.550781 241.738281 28.472656 238.25 29.363281 235.273438 C 30.71875 229.53125 32.101562 223.71875 34.863281 218.460938 C 36.570312 214.398438 39.027344 210.707031 41.164062 206.867188 C 42.367188 204.859375 43.671875 202.882812 45.351562 201.234375 C 46.390625 198.808594 48.539062 197.132812 49.78125 194.894531 C 52.636719 192.605469 54.625 189.371094 57.394531 186.945312 C 61.152344 183.226562 65.035156 179.628906 69.019531 176.15625 C 71.457031 173.945312 74.570312 172.828125 76.855469 170.496094 C 78.363281 168.230469 81.152344 168.261719 83.019531 166.414062 C 85.777344 164.605469 88.398438 162.429688 91.648438 161.59375 C 94.640625 160.554688 97.304688 158.949219 100.152344 157.640625 C 102.550781 155.933594 104.660156 155.207031 107.074219 153.410156 C 108.992188 151.980469 111.011719 150.917969 112.90625 149.121094 C 115.65625 147.003906 118.378906 144.804688 120.746094 142.285156 C 123.265625 141.558594 123.9375 137.972656 126.351562 137.042969 C 126.925781 136.011719 127.460938 135.082031 128.066406 135.316406 C 127.820312 133.53125 129.519531 134.90625 129.855469 133.082031 C 132.492188 130.4375 134.523438 127.371094 136.722656 124.378906 C 139.015625 121.738281 140.625 118.761719 142.363281 115.777344 C 144.554688 113.300781 145.097656 109.894531 147.171875 107.347656 C 148.539062 104.597656 149.277344 101.582031 150.484375 98.757812 C 151.832031 95.410156 152.003906 91.789062 153.414062 88.488281 C 153.847656 85.644531 154.734375 82.910156 154.300781 80.019531 C 153.984375 78.390625 155.410156 75.324219 154.792969 75.082031 C 154.902344 72.449219 155.183594 69.957031 154.566406 66.964844 C 153.9375 63.777344 154 60.46875 152.9375 57.347656 C 152.078125 54.609375 151.878906 50.96875 150.191406 48.945312 C 149.253906 46.601562 148.726562 44.148438 147.695312 41.828125 C 144.621094 36.203125 141.804688 30.382812 137.785156 25.34375 C 134.246094 20.722656 129.871094 16.839844 125.445312 13.105469 C 121.925781 10.453125 117.902344 8.574219 113.988281 6.59375 C 102.101562 1.148438 88.226562 -0.863281 75.53125 2.792969 C 61.480469 7.15625 50.09375 17.660156 42.433594 29.984375 C 38.382812 36.035156 35.34375 42.667969 32.238281 49.226562 C 30.0625 53.675781 26.976562 58.257812 27.660156 63.441406 C 27.847656 64.582031 28.503906 65.691406 29.59375 66.175781 Z M 112.597656 30.160156 C 112.300781 30.917969 113.308594 29.816406 112.597656 30.160156 Z M 154.804688 69.832031 C 154.503906 70.589844 155.515625 69.488281 154.804688 69.832031 Z M 106.125 71.238281 L 106.25 71.730469 Z M 97.121094 201.796875 C 96.824219 202.554688 97.832031 201.453125 97.121094 201.796875 Z M 115.128906 205.171875 C 114.832031 205.929688 115.839844 204.828125 115.128906 205.171875 Z M 58.011719 219.523438 C 57.714844 220.28125 58.722656 219.179688 58.011719 219.523438 Z M 41.691406 239.21875 L 42.058594 238.851562 Z M 11.867188 283.675781 C 11.570312 284.433594 12.578125 283.332031 11.867188 283.675781 Z M 116.253906 317.722656 C 115.957031 318.480469 116.964844 317.378906 116.253906 317.722656 Z M 62.792969 320.253906 C 62.496094 321.011719 63.503906 319.910156 62.792969 320.253906 Z M 78.832031 322.222656 C 78.535156 322.980469 79.542969 321.878906 78.832031 322.222656 Z M 81.929688 322.222656 C 81.628906 322.980469 82.636719 321.878906 81.929688 322.222656 Z M 81.929688 322.222656 " fill-opacity="1" fill-rule="nonzero"/></g><g clip-path="url(#ba73bfcb72)"><path stroke-linecap="butt" transform="matrix(0.281372, 0, 0, 0.281372, -7.612983, -88.703687)" fill="none" stroke-linejoin="miter" d="M 132.233189 550.443543 C 134.995879 558.717728 142.936875 535.075216 145.72733 546.417514 C 149.989368 559.689529 128.623646 557.926405 132.316487 570.656989 C 133.760304 585.775424 135.703905 600.852211 135.398482 616.081709 C 136.273102 627.174115 143.742081 635.73984 148.934271 644.583222 C 157.916482 651.108167 170.827542 646.179751 178.296522 639.335501 C 186.695652 632.394071 187.528624 620.704702 195.872223 613.430083 C 202.216691 603.309477 206.589792 592.397549 214.29478 582.915555 C 218.556818 570.656989 226.470049 559.231394 227.844452 545.695605 C 229.371566 534.589316 233.092173 523.816216 232.675687 512.487802 C 233.772433 499.090841 233.800199 485.513403 231.03751 472.324686 C 232.439679 460.302128 244.989785 453.832715 252.070044 445.225341 C 256.082191 440.283043 258.234034 440.880006 262.385009 435.049204 C 273.54683 429.148989 278.489128 419.958535 289.512119 414.59975 C 306.213201 403.354633 324.3581 393.539451 344.224474 389.444007 C 353.470459 385.681751 364.396271 387.514289 373.989327 386.348129 C 383.165898 389.74943 393.841818 389.680015 401.699518 395.760708 C 410.057 401.68869 417.637042 408.602355 425.230967 415.432722 C 428.812745 425.331202 437.322938 432.480875 440.627059 442.573715 C 449.276081 459.566337 454.759812 477.905596 459.813173 496.203206 C 467.115558 525.912528 471.266533 556.718596 468.226186 587.288656 C 467.101675 599.810996 463.617077 612.027914 460.937685 624.272597 C 448.096038 668.54504 418.581076 705.542864 386.789325 737.931578 C 369.755055 754.618777 351.165904 769.640033 333.145951 785.258251 C 301.881748 809.705969 273.782838 837.999239 241.727313 861.502922 C 221.555516 880.300316 199.231876 896.62656 179.240556 915.64608 C 157.152925 935.540219 136.689588 957.197482 117.614537 979.951491 C 108.451849 989.65561 101.704779 1001.317214 93.152936 1011.521116 C 81.019316 1028.999638 70.246216 1047.422194 60.167259 1066.136291 C 46.72865 1095.651253 35.289172 1126.651681 32.915203 1159.262521 C 29.860974 1189.721517 34.303489 1220.319343 42.175071 1249.723242 C 47.047956 1273.893302 56.196761 1296.938851 68.122138 1318.471168 C 74.744263 1329.313683 79.53385 1341.391772 87.15554 1351.540143 C 93.041873 1357.426476 96.08222 1366.353155 102.093499 1371.281571 C 106.883086 1375.224303 111.436664 1380.541439 114.921262 1385.49762 C 124.236662 1389.287641 128.151628 1401.060307 137.689154 1404.80868 C 148.434488 1417.081129 163.594572 1424.730585 178.601945 1430.491972 C 187.112138 1433.379607 193.303894 1440.973532 203.535563 1440.945766 C 213.225799 1443.500213 220.819724 1445.443813 230.509961 1448.7757 C 235.466142 1449.789149 242.00497 1450.03904 242.240978 1451.607804 C 246.90562 1448.026025 242.240978 1455.758779 246.142062 1451.982641 C 255.929479 1456.369625 267.799325 1454.148367 277.933814 1458.327108 C 289.192814 1459.659863 300.757237 1459.729277 311.780228 1460.062466 C 320.804088 1460.242943 331.452242 1461.561815 341.711676 1460.576132 C 353.317748 1459.64598 361.980653 1461.020383 373.22577 1457.438605 C 380.833578 1461.284157 390.718175 1456.508453 397.923379 1453.954007 C 407.335959 1453.856827 415.207541 1450.733183 424.397995 1448.87288 C 434.879555 1447.762251 443.611874 1441.83427 453.621417 1438.87722 C 461.978899 1435.003902 471.127704 1432.366158 478.902106 1427.32668 C 490.008395 1422.537093 501.128567 1415.984383 510.582795 1408.321044 C 518.301665 1403.920177 526.145482 1399.477661 531.587563 1392.203042 C 539.736802 1384.831243 547.330727 1377.417795 555.632678 1369.407385 C 561.491245 1359.744914 570.945474 1352.49806 575.623998 1342.11368 C 581.149376 1332.298498 587.563258 1322.705441 591.31163 1311.904575 C 596.934189 1298.715858 602.917702 1285.582671 605.4305 1271.366622 C 607.346335 1263.383977 609.317701 1255.415215 611.233536 1247.446453 C 613.05219 1237.117604 614.620954 1226.247324 614.579305 1215.21045 C 615.204034 1204.34017 617.008806 1193.622601 615.412277 1182.682907 C 615.176268 1171.298961 612.108156 1160.053844 610.969761 1148.725429 C 608.637441 1135.453415 606.332886 1122.098102 600.515967 1109.811771 C 594.921174 1095.207001 589.992759 1080.185746 580.677359 1067.413514 C 574.430072 1056.265577 568.59927 1044.770568 559.908599 1035.21916 C 549.052202 1020.71157 535.169341 1009.008318 522.230515 996.444329 C 498.948957 979.993139 474.653951 964.361038 447.290832 955.628719 C 418.581076 944.744556 386.414488 943.495098 357.093886 952.685552 C 325.899098 963.014401 296.25919 978.257782 269.562448 997.388364 C 237.701283 1021.961028 217.293478 1059.958418 212.878728 1099.829994 C 213.170268 1107.062964 208.380681 1123.125434 217.196298 1124.430423 C 223.596296 1116.642138 225.609311 1106.007867 231.301284 1097.636502 C 237.770697 1088.210039 243.629264 1079.311126 252.319935 1071.689435 C 261.815812 1064.345402 269.062665 1056.584882 279.447045 1051.087269 C 291.275243 1047.35278 301.826217 1040.258638 313.945954 1037.607012 C 326.759835 1036.177077 339.171113 1031.345841 352.234885 1032.442587 C 349.444429 1034.663845 361.036618 1029.92979 359.398441 1033.456036 C 368.783255 1032.081633 377.83488 1031.887273 387.164162 1033.247793 C 406.961122 1032.984019 426.11947 1039.481198 444.306017 1046.644754 C 449.678684 1052.697681 458.397121 1052.864276 462.228791 1057.084665 C 464.79712 1061.513298 472.266099 1059.833472 471.002759 1065.789219 C 481.05395 1066.011345 482.90037 1079.699846 491.43833 1084.850387 C 498.393643 1094.387912 504.863056 1104.577932 510.277372 1115.115023 C 514.011861 1125.846475 519.939843 1135.77272 521.564138 1147.156666 C 527.769776 1170.46599 530.463051 1195.108067 526.534202 1219.014354 C 524.354593 1246.94667 513.886916 1273.837771 499.379326 1297.605229 C 486.620977 1318.23516 468.129006 1334.839061 447.735084 1347.639059 C 438.850053 1350.373983 431.325542 1355.774415 422.371097 1358.426042 C 400.672186 1364.159663 378.973274 1370.656842 356.413626 1371.823003 C 334.964606 1373.141874 313.168514 1373.086343 291.983269 1369.310205 L 255.235336 1361.438623 C 246.322539 1355.663353 235.591088 1353.386563 226.4284 1347.986131 C 209.602373 1339.836891 193.498254 1329.452511 180.156825 1316.374856 C 167.773313 1302.117158 152.37722 1289.691998 144.991539 1271.769225 C 139.119088 1260.63517 134.870933 1248.69591 131.719524 1236.576173 C 128.345988 1226.580513 127.443602 1215.446458 127.33254 1205.228673 C 126.249676 1198.426071 125.763776 1189.499392 126.416271 1184.376616 C 128.526466 1174.394839 128.248808 1161.997444 131.414101 1151.418704 C 136.231453 1131.010899 141.145986 1110.353202 150.961169 1091.666872 C 157.027979 1077.228696 165.760298 1064.109393 173.354223 1050.462541 C 177.630144 1043.32675 182.26702 1036.302023 188.23665 1030.443455 C 191.929491 1021.822199 199.565064 1015.866452 203.979814 1007.911572 C 214.128185 999.776216 221.194561 988.281207 231.03751 979.659951 C 244.392822 966.443467 258.192385 953.657352 272.352903 941.315489 C 281.015809 933.45779 292.080449 929.487292 300.201922 921.199224 C 305.560707 913.147165 315.473069 913.258227 322.109077 906.691634 C 331.910376 900.26387 341.225776 892.531116 352.776316 889.560184 C 363.410587 885.867343 372.878699 880.161487 382.999304 875.510729 C 391.523381 869.443919 399.020125 866.861707 407.599733 860.475591 C 414.416218 855.394464 421.593657 851.618326 428.326845 845.23221 C 438.100379 837.707699 447.776733 829.891648 456.189746 820.937203 C 465.144191 818.354991 467.532043 805.610525 476.111651 802.306404 C 478.152432 798.641329 480.054384 795.337208 482.206227 796.17018 C 481.331607 789.825712 487.370652 794.712479 488.564578 788.229183 C 497.935509 778.830486 505.154596 767.932441 512.970647 757.298169 C 521.119886 747.913355 526.839625 737.334615 533.017498 726.72811 C 540.805783 717.926376 542.7355 705.820521 550.107299 696.768896 C 554.966301 686.995362 557.590161 676.277794 561.879965 666.240485 C 566.669552 654.342874 567.280398 641.473462 572.292111 629.742444 C 573.833109 619.635722 576.984518 609.917719 575.44352 599.644402 C 574.319009 593.855249 579.386253 582.957203 577.192761 582.096466 C 577.581481 572.739418 578.581047 563.882153 576.387555 553.247881 C 574.152414 541.919467 574.37454 530.160684 570.598402 519.068278 C 567.544173 509.336393 566.836147 496.397566 560.838751 489.206244 C 557.506864 480.876528 555.632678 472.158091 551.967603 463.911672 C 541.041791 443.920352 531.032249 423.23489 516.746785 405.325999 C 504.168913 388.902575 488.620109 375.103012 472.890828 361.830997 C 460.38237 352.404534 446.083024 345.726878 432.172397 338.688268 C 389.926852 319.33556 340.61493 312.185886 295.495632 325.180244 C 245.558982 340.6874 205.090443 378.018412 177.866153 421.818838 C 163.469626 443.323389 152.668761 466.896487 141.631886 490.20581 C 133.899133 506.018389 122.931673 522.302985 125.361173 540.725541 C 126.027551 544.779336 128.359871 548.722069 132.233189 550.443543 Z M 427.230099 422.443567 C 426.175001 425.136842 429.756779 421.221875 427.230099 422.443567 Z M 577.234409 563.437901 C 576.165429 566.131176 579.76109 562.216209 577.234409 563.437901 Z M 404.226198 568.435731 L 404.67045 570.184971 Z M 372.226204 1032.442587 C 371.171107 1035.135862 374.752885 1031.220896 372.226204 1032.442587 Z M 436.226192 1044.437379 C 435.171095 1047.130654 438.752873 1043.215687 436.226192 1044.437379 Z M 233.231002 1095.44301 C 232.175904 1098.136285 235.757682 1094.221318 233.231002 1095.44301 Z M 175.228409 1165.440394 L 176.533398 1164.135405 Z M 69.232767 1323.441233 C 68.17767 1326.134508 71.759448 1322.219541 69.232767 1323.441233 Z M 440.224456 1444.444247 C 439.169359 1447.137522 442.751137 1443.222556 440.224456 1444.444247 Z M 250.223623 1453.440341 C 249.168526 1456.133616 252.750304 1452.218649 250.223623 1453.440341 Z M 307.22665 1460.437303 C 306.171552 1463.130578 309.75333 1459.215611 307.22665 1460.437303 Z M 318.235758 1460.437303 C 317.166778 1463.130578 320.748556 1459.215611 318.235758 1460.437303 Z M 318.235758 1460.437303 " stroke="#000000" stroke-width="1" stroke-opacity="1" stroke-miterlimit="4"/></g></g></g></g></svg>