<svg xmlns="http://www.w3.org/2000/svg" xmlns:xlink="http://www.w3.org/1999/xlink" width="1920" zoomAndPan="magnify" viewBox="0 0 1440 809.999993" height="1080" preserveAspectRatio="xMidYMid meet" version="1.0"><defs><filter x="0%" y="0%" width="100%" height="100%" id="03816d0229"><feColorMatrix values="0 0 0 0 1 0 0 0 0 1 0 0 0 0 1 0 0 0 1 0" color-interpolation-filters="sRGB"/></filter><mask id="51aefc6375"><g filter="url(#03816d0229)"><rect x="-144" width="1728" fill="#000000" y="-80.999999" height="971.999992" fill-opacity="0.4"/></g></mask><clipPath id="93c9b72d3f"><path d="M 1 0.121094 L 497 0.121094 L 497 507 L 1 507 Z M 1 0.121094 " clip-rule="nonzero"/></clipPath><clipPath id="a54461c604"><rect x="0" width="498" y="0" height="507"/></clipPath></defs><rect x="-144" width="1728" fill="#ffffff" y="-80.999999" height="971.999992" fill-opacity="1"/><rect x="-144" width="1728" fill="#10151b" y="-80.999999" height="971.999992" fill-opacity="1"/><g mask="url(#51aefc6375)"><g transform="matrix(1, 0, 0, 1, 888, 303)"><g clip-path="url(#a54461c604)"><g clip-path="url(#93c9b72d3f)"><path fill="#9badd6" d="M 472.277344 118.359375 L 273.496094 6.632812 C 258.417969 -1.804688 239.699219 -1.804688 224.621094 6.632812 L 25.839844 118.359375 C 10.621094 126.886719 1.167969 142.886719 1.167969 160.042969 L 1.167969 383.492188 C 1.167969 400.644531 10.621094 416.644531 25.839844 425.175781 L 224.621094 536.902344 C 232.183594 541.144531 240.621094 543.265625 249.058594 543.265625 C 257.496094 543.265625 265.933594 541.144531 273.496094 536.902344 L 472.277344 425.175781 C 487.496094 416.644531 496.945312 400.644531 496.945312 383.492188 L 496.945312 160.042969 C 496.945312 142.886719 487.496094 126.886719 472.277344 118.359375 Z M 249.058594 413.417969 C 170.949219 413.417969 107.40625 349.878906 107.40625 271.765625 C 107.40625 193.65625 170.949219 130.117188 249.058594 130.117188 C 293.691406 130.117188 334.914062 150.820312 361.707031 186.09375 L 309.96875 216.019531 C 294.429688 199.003906 272.34375 189.136719 249.058594 189.136719 C 203.5 189.136719 166.429688 226.210938 166.429688 271.765625 C 166.429688 317.324219 203.5 354.394531 249.058594 354.394531 C 272.34375 354.394531 294.429688 344.527344 309.96875 327.515625 L 361.707031 357.441406 C 334.914062 392.714844 293.691406 413.417969 249.058594 413.417969 Z M 390.707031 283.570312 L 367.101562 283.570312 L 367.101562 307.179688 L 343.492188 307.179688 L 343.492188 283.570312 L 319.882812 283.570312 L 319.882812 259.960938 L 343.492188 259.960938 L 343.492188 236.355469 L 367.101562 236.355469 L 367.101562 259.960938 L 390.707031 259.960938 Z M 473.339844 283.570312 L 449.730469 283.570312 L 449.730469 307.179688 L 426.121094 307.179688 L 426.121094 283.570312 L 402.511719 283.570312 L 402.511719 259.960938 L 426.121094 259.960938 L 426.121094 236.355469 L 449.730469 236.355469 L 449.730469 259.960938 L 473.339844 259.960938 Z M 473.339844 283.570312 " fill-opacity="1" fill-rule="nonzero"/></g></g></g></g></svg>