<?xml version="1.0" encoding="UTF-8" standalone="no"?>
<svg
   width="1200"
   zoomAndPan="magnify"
   viewBox="0 0 900 899.99999"
   height="1200"
   preserveAspectRatio="xMidYMid"
   version="1.0"
   id="svg110"
   sodipodi:docname="background_glue_small.svg"
   inkscape:version="1.4 (e7c3feb100, 2024-10-09)"
   xmlns:inkscape="http://www.inkscape.org/namespaces/inkscape"
   xmlns:sodipodi="http://sodipodi.sourceforge.net/DTD/sodipodi-0.dtd"
   xmlns="http://www.w3.org/2000/svg"
   xmlns:svg="http://www.w3.org/2000/svg">
  <sodipodi:namedview
     id="namedview110"
     pagecolor="#505050"
     bordercolor="#eeeeee"
     borderopacity="1"
     inkscape:showpageshadow="0"
     inkscape:pageopacity="0"
     inkscape:pagecheckerboard="0"
     inkscape:deskcolor="#d1d1d1"
     inkscape:zoom="0.90555556"
     inkscape:cx="984.47853"
     inkscape:cy="732.14724"
     inkscape:window-width="3840"
     inkscape:window-height="2160"
     inkscape:window-x="1920"
     inkscape:window-y="0"
     inkscape:window-maximized="1"
     inkscape:current-layer="svg110" />
  <defs
     id="defs9">
    <filter
       x="0"
       y="0"
       width="1"
       height="1"
       id="33a072fe4b">
      <feColorMatrix
         values="0 0 0 0 1 0 0 0 0 1 0 0 0 0 1 0 0 0 1 0"
         color-interpolation-filters="sRGB"
         id="feColorMatrix1" />
    </filter>
    <clipPath
       id="df02ff1866">
      <path
         d="m 964,300.25 h 145 V 509.5 H 964 Z m 0,0"
         clip-rule="nonzero"
         id="path1" />
    </clipPath>
    <clipPath
       id="4f39a07b8e">
      <path
         d="M 331,301 H 490.87109 V 506 H 331 Z m 0,0"
         clip-rule="nonzero"
         id="path2" />
    </clipPath>
    <clipPath
       id="7a08f84de2">
      <path
         d="m 330.37109,300.25 h 160.5 V 507 h -160.5 z m 0,0"
         clip-rule="nonzero"
         id="path3" />
    </clipPath>
    <clipPath
       id="993204c22e">
      <path
         d="M 536,300.25 H 711 V 509 H 536 Z m 0,0"
         clip-rule="nonzero"
         id="path4" />
    </clipPath>
    <clipPath
       id="4be2ce1dc4">
      <path
         d="M 536,300.25 H 712 V 509.5 H 536 Z m 0,0"
         clip-rule="nonzero"
         id="path5" />
    </clipPath>
    <clipPath
       id="59bef4f08c">
      <path
         d="M 754,300.25 H 918 V 509 H 754 Z m 0,0"
         clip-rule="nonzero"
         id="path6" />
    </clipPath>
    <mask
       id="51a5c7f9d4">
      <g
         filter="url(#33a072fe4b)"
         id="g6">
        <rect
           x="-144"
           width="1728"
           fill="#000000"
           y="-81"
           height="972"
           fill-opacity="0.3"
           id="rect6" />
      </g>
    </mask>
    <clipPath
       id="242fe22f0e">
      <path
         d="M 0.902344,1 H 998 V 503.38672 H 0.902344 Z m 0,0"
         clip-rule="nonzero"
         id="path7" />
    </clipPath>
    <clipPath
       id="424c03cfec">
      <path
         d="m 935,380 h 63 v 11 h -63 z m 0,0"
         clip-rule="nonzero"
         id="path8" />
    </clipPath>
    <clipPath
       id="5170b1f28f">
      <path
         d="M 971.02734,313.16016 H 998 V 323 h -26.97266 z m 0,0"
         clip-rule="nonzero"
         id="path9" />
    </clipPath>
    <clipPath
       id="e465b17a3a">
      <rect
         x="0"
         width="998"
         y="0"
         height="504"
         id="rect9" />
    </clipPath>
  </defs>
  <rect
     x="-455.41104"
     width="1728"
     fill="#ffffff"
     y="-12.257669"
     height="972"
     fill-opacity="1"
     id="rect10" />
  <rect
     x="-455.41104"
     width="1728"
     fill="#10151b"
     y="-12.257669"
     height="972"
     fill-opacity="1"
     id="rect11" />
  <path
     fill="#fdfdfd"
     d="m 761.10976,536.7924 c 1.17921,0.62083 2.52838,0.82547 3.70768,0.62083 0.3295,0 0.66939,0 1.00581,-0.2081 0.67631,-0.20462 1.34223,-1.65093 1.85207,-4.54353 0.84279,-4.34237 3.02444,-9.71138 4.20365,-12.81208 l 3.03137,-6.81877 2.68447,-5.7852 0.50291,-1.03357 c 4.03718,-7.85234 5.71929,-12.60398 4.87997,-14.46301 -1.3457,-2.47987 -12.94386,-1.4463 -18.49668,0.62083 -4.03718,1.65094 -20.68871,12.18778 -25.73863,15.70122 -8.06743,4.95973 -21.18814,10.12757 -31.95044,10.95303 -9.58653,1.03357 -14.80293,0.82547 -15.30583,-0.41273 V 438.8532 l 8.74721,0.41273 c 9.24655,0.62084 16.65153,1.4463 22.19742,2.68797 5.7193,1.23819 11.60855,3.30534 17.82729,6.40257 5.55282,2.06714 10.42933,6.40603 14.96941,10.12758 1.00581,0.61736 3.70075,3.09723 7.90779,7.0234 1.5088,1.2382 2.52154,1.85904 2.8545,1.85904 1.51564,0 4.3736,-2.89261 4.3736,-4.75165 -0.66938,-4.75164 -6.38522,-12.60397 -8.91368,-18.18454 -2.52146,-4.95628 -7.22802,-19.21465 -8.24085,-30.16423 0,-2.68796 -1.51564,-4.54699 -3.6972,-2.27523 -5.7193,5.7852 -16.98795,10.74494 -29.26597,11.98661 -5.88924,0.82547 -14.46642,1.0301 -21.36156,1.4463 h -7.39796 v -54.34207 c 0.67631,-0.62084 4.3736,-0.82894 11.09871,-0.4162 6.89505,0.4162 12.10799,1.03356 15.98215,1.8625 6.39215,1.65093 15.63533,6.40604 18.99967,10.53684 3.19429,3.71807 7.23147,7.23151 11.77848,10.33221 8.24075,6.81877 27.07394,9.09053 28.58958,3.50997 0.16302,-1.03356 -0.50291,-3.09724 -2.18503,-5.98984 -1.34924,-2.06713 -2.52847,-4.75164 -3.03137,-5.37248 -2.85788,-5.9933 -5.37941,-11.5704 -7.39796,-16.94287 -2.01863,-5.16784 -3.19784,-8.88591 -3.69729,-11.15768 -0.51329,-1.85902 -1.01619,-3.30533 -1.35262,-3.72154 -0.3295,-0.20462 -1.67875,0.2081 -3.86377,1.44632 -2.69486,1.86249 -5.7193,2.27522 -13.45369,2.89259 -3.53427,0 -6.05572,0 -11.94506,0.2081 h -8.24075 c -5.21292,0 -14.796,0.2081 -22.70378,0.41274 h -39.35537 c -1.84864,0 -3.0244,0.20809 -3.36431,0.62083 -0.67285,0.82546 0,4.1308 1.85558,6.61067 1.67867,2.27177 2.6845,4.75164 3.02439,7.02687 0.33643,2.27176 0.50291,8.05698 0.50291,17.35562 v 2.68449 c 0.33644,79.96623 0.33644,120.67076 0,122.5298 -0.3399,2.06714 -1.50873,4.95974 -3.70073,8.67781 -3.0244,4.75163 -3.36082,6.61066 -2.01857,7.2315 h 39.52875 c 22.87027,0 38.00617,0.20811 45.40412,0.62083 7.57145,0.62084 12.61445,1.44631 15.14281,2.8926 z m 0,0"
     fill-opacity="1"
     fill-rule="nonzero"
     id="path11"
     style="stroke-width:0.999998" />
  <g
     clip-path="url(#df02ff1866)"
     id="g12"
     transform="matrix(0.88789708,0,0,0.88789708,-200.69434,86.104873)"
     style="stroke-width:1.12625">
    <path
       stroke-linecap="butt"
       transform="matrix(0.77586,0,0,0.953186,-2106.373,280.49725)"
       fill="none"
       stroke-linejoin="round"
       d="m 4111.0674,238.24572 c 1.7118,0.73356 3.6703,0.97535 5.3821,0.73356 0.4783,0 0.9717,0 1.4601,-0.24588 0.9818,-0.24179 1.9484,-1.9507 2.6885,-5.36851 1.2235,-5.13082 4.3903,-11.47467 6.1021,-15.13837 l 4.4004,-8.05685 3.8969,-6.83563 0.73,-1.22123 c 5.8605,-9.27809 8.3023,-14.89249 7.0839,-17.08907 -1.9535,-2.93013 -18.7896,-1.7089 -26.8503,0.73356 -5.8604,1.9507 -30.0322,14.40072 -37.3627,18.55209 -11.7108,5.86028 -30.7573,11.96644 -46.38,12.94179 -13.9161,1.22123 -21.4883,0.97534 -22.2183,-0.48768 v -94.23983 l 12.6976,0.48768 c 13.4226,0.73356 24.1717,1.7089 32.2223,3.17602 8.3023,1.46302 16.8513,3.90549 25.8785,7.56509 8.0607,2.44246 15.1395,7.56918 21.73,11.96644 1.46,0.72946 5.372,3.6596 11.4792,8.29865 2.1901,1.46302 3.6602,2.19658 4.1436,2.19658 2.2001,0 6.3488,-3.41782 6.3488,-5.6144 -0.9717,-5.61439 -9.269,-14.89248 -12.9393,-21.48632 -3.6603,-5.85618 -10.4924,-22.70345 -11.9625,-35.641142 0,-3.176025 -2.2002,-5.372605 -5.3671,-2.688351 -8.3023,6.835625 -24.6601,12.695903 -42.4831,14.163023 -8.549,0.97535 -20.9999,1.21713 -31.009,1.70891 h -10.739 V 42.446868 c 0.9817,-0.733559 6.3488,-0.979445 16.1111,-0.491772 10.0091,0.491772 17.5763,1.221233 23.2001,2.200678 9.279,1.950694 22.6966,7.569184 27.5803,12.450017 4.637,4.39316 10.4974,8.544532 17.098,12.20823 11.9625,8.056858 39.3011,10.741111 41.5013,4.147274 0.2366,-1.221233 -0.73,-3.6596 -3.1719,-7.077413 -1.9585,-2.442466 -3.6703,-5.614392 -4.4003,-6.347952 -4.1487,-7.08151 -7.8089,-13.67125 -10.7391,-20.019201 -2.9303,-6.106164 -4.6421,-10.499324 -5.3671,-13.183577 -0.7451,-2.19658 -1.4752,-3.905486 -1.9635,-4.397257 -0.4783,-0.241788 -2.4368,0.245885 -5.6087,1.708906 -3.912,2.200678 -8.3023,2.688351 -19.5298,3.417812 -5.1304,0 -8.7906,0 -17.3396,0.245886 h -11.9625 c -7.5673,0 -21.4782,0.245886 -32.9574,0.487674 h -57.1292 c -2.6835,0 -4.3903,0.245885 -4.8837,0.733559 -0.9767,0.975347 0,4.880833 2.6936,7.810972 2.4368,2.684253 3.8969,5.614392 4.3903,8.302744 0.4883,2.684253 0.73,9.519878 0.73,20.506875 v 3.171926 c 0.4884,94.485711 0.4884,142.580971 0,144.777551 -0.4934,2.44247 -2.1901,5.86028 -5.3721,10.25344 -4.3902,5.61439 -4.8786,7.81097 -2.9302,8.54453 h 57.3809 c 33.1991,0 55.1707,0.24589 65.9098,0.73356 10.9908,0.73356 18.3113,1.70891 21.9817,3.41781 z m 0,0"
       stroke="#073e36"
       stroke-width="2.08358"
       stroke-opacity="1"
       stroke-miterlimit="2"
       id="path12" />
  </g>
  <g
     clip-path="url(#4f39a07b8e)"
     id="g13"
     transform="matrix(0.88789708,0,0,0.88789708,-200.69434,86.104873)"
     style="stroke-width:1.12625">
    <path
       fill="#fdfdfd"
       d="m 354.53125,472.67187 c 5.90625,7.73047 14.08984,14.99219 24.18359,21.31641 21.14063,12.17969 44.37891,14.51953 69.89453,7.26172 8.76172,-2.34375 15.24219,-3.51563 19.23829,-3.75 4.1875,-0.23438 8.0039,0.46875 11.42968,2.34375 2.47266,1.40625 4.1875,2.10937 5.14063,2.10937 1.33203,0 2.48047,-3.04687 1.71484,-4.21875 -0.95312,-2.33984 -4.57031,-38.17578 -4.57031,-54.80468 -0.1875,-7.73047 -0.1875,-12.88282 0.37891,-15.22657 0.57031,-2.34375 2.28906,-5.15234 5.14062,-8.43359 1.71875,-2.10547 3.05078,-4.21484 3.05078,-5.15234 -0.38281,-1.8711 -3.8125,-2.33985 -9.52344,-1.8711 -4.38281,0.70313 -14.66406,0.70313 -30.66406,0.46485 -15.80469,-0.46485 -24.94922,-0.9336 -27.03906,-1.63672 -3.81641,-1.40625 -5.90625,-3.51563 -7.62109,-7.4961 -2.28516,-6.79296 -0.1875,-13.35156 4.57031,-14.51953 0.38281,-0.46875 1.33594,0.70313 0.57031,3.27735 -0.95312,2.57812 0,5.15234 2.66797,7.49609 2.66797,2.33984 5.33594,2.80859 7.99609,1.40625 5.14063,-3.51562 6.66797,-12.17969 2.86328,-18.73828 -2.48046,-4.44922 -6.10156,-6.79297 -11.24218,-7.26172 -5.14063,-0.46875 -9.32813,1.17188 -12.56641,4.91797 -4.00391,4.44922 -5.90625,10.53906 -6.09375,17.80078 0,4.44922 0.75781,8.19922 2.08984,11.24219 2.47266,4.91797 5.71094,8.90234 9.91016,11.94531 4.375,2.8125 7.99609,3.51563 19.60938,4.21484 6.47656,0.23438 10.09375,0.70313 10.85937,1.40625 0.95313,0.46875 1.33203,2.10938 1.33203,4.6875 -0.1914,3.7461 0.375,14.51954 1.14063,24.58985 0.95312,11.94531 1.53125,20.3789 1.53125,25.29687 v 4.6836 l -4.57422,1.64062 c -19.61719,6.32422 -38.85547,-1.17187 -54.08985,-19.67578 -7.62109,-9.60156 -13.51953,-20.375 -17.90234,-32.32031 -7.61328,-19.44141 -9.71484,-32.08985 -10.09766,-53.8711 0,-22.2539 2.66797,-36.53906 10.09766,-48.95312 4,-7.26172 9.32813,-12.64844 16,-16.16016 8.375,-3.98437 21.14063,-3.75 31.98828,0.70313 4.38672,2.33984 10.85938,7.72656 18.28516,16.39453 13.90234,15.92578 24.3789,22.25 36.3789,22.01562 5.33204,0 8.375,-0.70312 9.14063,-2.33984 0.95312,-1.17187 -0.38281,-3.28125 -3.42578,-7.73047 -6.09766,-8.66797 -13.52735,-23.89062 -16,-36.07031 -1.33203,-4.91797 -2.47266,-5.15234 -4.95313,-2.34375 -5.14062,5.38672 -14.28125,5.15234 -27.04297,-0.23438 -5.71093,-2.33984 -10.28125,-3.98046 -13.51953,-4.68359 -3.23828,-0.70312 -7.62109,-1.17187 -12.94922,-1.17187 -8.0039,0 -14.48046,0.70312 -19.23828,2.34375 -4.75781,1.40625 -10.09375,4.21484 -15.61718,8.43359 -10.28125,7.72656 -22.09375,20.60937 -29.13672,35.13281 -4.76563,9.36719 -8.19141,20.375 -10.28907,33.02344 -2.08984,12.64844 -2.47265,25.0625 -1.14062,37.00781 0.95312,9.13281 3.42578,18.97266 7.42969,29.04297 4,10.07031 8.94531,18.73828 14.66406,26.46484 z m 0,0"
       fill-opacity="1"
       fill-rule="nonzero"
       id="path13"
       style="stroke-width:1.12625" />
  </g>
  <g
     clip-path="url(#7a08f84de2)"
     id="g14"
     transform="matrix(0.88789708,0,0,0.88789708,-200.69434,86.104873)"
     style="stroke-width:1.12625">
    <path
       stroke-linecap="butt"
       transform="matrix(0.780089,0,0,0.959368,-4195.6656,323.20477)"
       fill="none"
       stroke-linejoin="round"
       d="m 5832.9198,155.79746 c 7.5713,8.05788 18.0619,15.62715 31.0011,22.21922 27.1003,12.69553 56.8895,15.13447 89.5981,7.56927 11.2317,-2.44302 19.5391,-3.66452 24.6617,-3.90882 5.368,-0.24431 10.2602,0.4886 14.6518,2.44301 3.1697,1.46581 5.3679,2.19871 6.5897,2.19871 1.7076,0 3.1798,-3.17592 2.1983,-4.39742 -1.2218,-2.43895 -5.8587,-39.79264 -5.8587,-57.12582 -0.2404,-8.05788 -0.2404,-13.42844 0.4857,-15.87145 0.7311,-2.44302 2.9344,-5.37056 6.5898,-8.79078 2.2033,-2.194645 3.9108,-4.393358 3.9108,-5.370564 -0.4907,-1.950339 -4.8872,-2.438942 -12.2081,-1.950339 -5.6184,0.732904 -18.7979,0.732904 -39.3084,0.484531 -20.2601,-0.484531 -31.9826,-0.973134 -34.6615,-1.706039 -4.8923,-1.465808 -7.5713,-3.664521 -9.7695,-7.813574 -2.9294,-7.08067 -0.2404,-13.917039 5.8587,-15.134474 0.4907,-0.488603 1.7125,0.732904 0.731,3.416148 -1.2218,2.687316 0,5.37056 3.4201,7.813575 3.4201,2.438942 6.8402,2.927545 10.2503,1.465808 6.5897,-3.664521 8.5477,-12.695531 3.6704,-19.5319 -3.1797,-4.637656 -7.8216,-7.08067 -14.4114,-7.569273 -6.5898,-0.488603 -11.9578,1.221507 -16.1089,5.126258 -5.1327,4.637656 -7.5713,10.985422 -7.8117,18.554695 0,4.637656 0.9715,8.546479 2.679,11.718326 3.1697,5.126258 7.3209,9.279383 12.7039,12.451232 5.6083,2.93162 10.2502,3.66452 25.1374,4.39335 8.3023,0.2443 12.9392,0.73291 13.9206,1.46581 1.2219,0.4886 1.7076,2.19871 1.7076,4.88603 -0.2454,3.90475 0.4807,15.13447 1.4622,25.63129 1.2218,12.45123 1.9629,21.24201 1.9629,26.36827 v 4.88196 l -5.8637,1.71011 c -25.1474,6.59207 -49.8091,-1.22151 -69.3381,-20.50911 -9.7695,-10.00821 -17.3307,-21.23794 -22.9491,-33.68917 -9.7595,-20.264801 -12.4535,-33.448935 -12.9442,-56.152682 0,-23.196422 3.4201,-38.086595 12.9442,-51.026428 5.1276,-7.569274 11.9578,-13.184135 20.5105,-16.844585 10.736,-4.153124 27.1003,-3.908823 41.0059,0.732904 5.6234,2.438943 13.9207,8.053805 23.4399,17.088886 17.8215,16.600283 31.2514,23.192351 46.6343,22.948049 6.8351,0 10.7359,-0.732904 11.7174,-2.438943 1.2218,-1.221507 -0.4907,-3.42022 -4.3915,-8.057876 -7.8167,-9.035081 -17.3408,-24.90246 -20.5105,-37.597992 -1.7076,-5.126258 -3.1697,-5.37056 -6.3495,-2.443014 -6.5898,5.614862 -18.3072,5.37056 -34.6665,-0.244301 -7.3209,-2.438943 -13.1796,-4.149053 -17.3307,-4.881958 -4.1512,-0.732904 -9.7695,-1.221507 -16.5997,-1.221507 -10.2602,0 -18.5626,0.732905 -24.6616,2.443015 -6.0991,1.465808 -12.9393,4.393354 -20.0198,8.79078 -13.1796,8.053804 -28.3221,21.48224 -37.3505,36.620786 -6.1091,9.763914 -10.5006,21.237939 -13.1896,34.422073 -2.679,13.184135 -3.1697,26.123968 -1.4622,38.575198 1.2218,9.519615 4.3916,19.776205 9.5242,30.273025 5.1276,10.49681 11.467,19.5319 18.7979,27.5857 z m 0,0"
       stroke="#073e36"
       stroke-width="2.08358"
       stroke-opacity="1"
       stroke-miterlimit="2"
       id="path14" />
  </g>
  <g
     clip-path="url(#993204c22e)"
     id="g15"
     transform="matrix(0.88789708,0,0,0.88789708,-200.69434,86.104873)"
     style="stroke-width:1.12625">
    <path
       fill="#fefefe"
       d="m 628.73828,501.34766 c 23.64844,1.19531 41.72656,3.82031 54.13672,7.64062 0.78125,0 4.10547,-1.67187 4.78906,-7.64062 1.17188,-5.25 11.23828,-27.21094 18.3711,-36.76172 7.62109,-9.78516 5.96093,-11.9336 -8.10938,-10.98047 -14.07031,0.95703 -27.46094,6.44531 -47.6875,19.09765 -7.13281,4.53516 -7.62109,5.01172 -14.75391,7.87891 -4.10546,1.42969 -10.75,2.625 -20.32812,3.81641 -9.28125,0.95703 -18.17578,1.19531 -25.99219,0.95703 l -0.48828,-26.73828 -0.48828,-34.375 -0.48828,-35.08985 c -0.19531,-9.54687 -0.19531,-20.52734 -0.19531,-33.17968 0.19531,-12.65235 0.48828,-24.58985 1.17187,-35.8086 0.97656,-8.59375 4.78906,-10.98047 8.30469,-13.1289 0.29687,-0.23829 0.29687,-0.23829 0.48828,-0.23829 3.12891,-2.14843 3.12891,-4.77343 3.12891,-5.96875 h -62.53907 c -0.39062,2.625 0.48828,4.77344 2.92969,5.96875 3.03125,1.67188 5.47266,5.96875 6.64453,13.36719 0.29297,1.4336 0.6836,44.40235 0.29297,81.40235 v 34.85156 c 0,10.74219 0,18.14453 -0.29297,22.19922 -0.19531,25.0664 -3.125,34.61718 -9.08594,37.24218 -2.64062,1.19141 -1.85546,4.29688 0,4.53516 22.96485,0 39.37891,-0.23828 61.07422,0 11.04297,0.23828 20.8125,0.47656 29.11719,0.95313 z m 0,0"
       fill-opacity="1"
       fill-rule="nonzero"
       id="path15"
       style="stroke-width:1.12625" />
  </g>
  <g
     clip-path="url(#4be2ce1dc4)"
     id="g16"
     transform="matrix(0.88789708,0,0,0.88789708,-200.69434,86.104873)"
     style="stroke-width:1.12625">
    <path
       stroke-linecap="butt"
       transform="matrix(0.977185,0,0,0.977775,-11078.526,273.57663)"
       fill="none"
       stroke-linejoin="round"
       d="m 11980.598,232.94835 c 24.2,1.22248 42.7,3.90715 55.4,7.8143 0.8,0 4.202,-1.70988 4.901,-7.8143 1.199,-5.36933 11.501,-27.82945 18.8,-37.59733 7.799,-10.00757 6.1,-12.20485 -8.298,-11.23006 -14.399,0.97879 -28.103,6.59182 -48.801,19.53176 -7.3,4.63824 -7.799,5.12563 -15.099,8.05799 -4.201,1.46219 -11.001,2.68467 -20.802,3.90316 -9.498,0.97878 -18.601,1.22248 -26.599,0.97878 l -0.5,-27.34605 -0.5,-35.15636 -0.5,-35.88744 c -0.199,-9.76388 -0.199,-20.993942 -0.199,-33.933879 0.199,-12.939936 0.499,-25.14878 1.199,-36.622536 0.999,-8.789089 4.901,-11.230059 8.498,-13.427332 0.304,-0.243697 0.304,-0.243697 0.5,-0.243697 3.202,-2.197272 3.202,-4.88194 3.202,-6.104422 h -63.999 c -0.4,2.684667 0.5,4.88194 2.998,6.104422 3.102,1.709877 5.6,6.104422 6.8,13.671029 0.299,1.46618 0.699,45.411626 0.299,83.252645 v 35.64376 c 0,10.98636 0,18.55696 -0.299,22.70381 -0.2,25.63618 -3.198,35.40405 -9.298,38.08872 -2.703,1.21849 -1.899,4.39454 0,4.63824 23.501,0 40.298,-0.2437 62.5,0 11.301,0.2437 21.298,0.4874 29.797,0.97479 z m 0,0"
       stroke="#5e877e"
       stroke-width="1.12625"
       stroke-opacity="1"
       stroke-miterlimit="2"
       id="path16" />
  </g>
  <g
     clip-path="url(#59bef4f08c)"
     id="g17"
     transform="matrix(0.88789708,0,0,0.88789708,-200.69434,86.104873)"
     style="stroke-width:1.12625">
    <path
       stroke-linecap="butt"
       transform="matrix(1.002425,0,0,0.999761,-20950.195,212.02256)"
       fill-opacity="1"
       fill="#fefefe"
       fill-rule="nonzero"
       stroke-linejoin="round"
       d="m 21712.198,295.79421 c 18.104,1.21904 35.402,0.24224 53.701,-4.39559 10.701,-2.93038 16.601,-4.63782 25.201,-9.5218 4.298,-2.44199 7.801,-5.12623 10.202,-8.30277 4.898,-6.10302 8.596,-16.35547 7.599,-29.04991 -0.3,-10.4986 -3.001,-36.86427 -8.601,-79.10484 -1.2,-9.76405 -1.699,-19.5281 -1.399,-29.5383 0.499,-10.01021 1.699,-17.82457 3.597,-23.4392 2.202,-6.83366 5.202,-12.694437 8.803,-17.332263 l 0.499,-0.488398 c 0.701,-1.222949 1.5,-1.953592 1.699,-2.199745 1.699,-2.438082 1.699,-3.661031 -0.499,-3.661031 h -59.5 c -1.8,0 0.199,2.44199 5.299,7.325969 6.399,5.856868 10.802,13.182838 15.701,27.830868 1.399,4.14943 3.102,10.25245 5.101,18.30906 1.897,8.06052 3.398,15.38258 4.099,21.48561 3.199,20.9972 6.102,43.948 8.6,68.60232 1.699,15.14034 -0.499,26.12343 -6.901,33.20325 -6.098,6.59533 -16.596,10.987 -31.498,13.67514 -10.7,1.70744 -21.401,1.70744 -32.203,-0.24615 -10.498,-2.19584 -18.498,-7.07982 -23.895,-14.64803 -5.105,-7.81046 -5.604,-18.79746 -3.402,-37.11043 1.2,-9.27565 1.699,-14.64803 1.699,-16.11323 l 2.899,-26.36567 4.4,-35.64524 c 1.5,-9.76405 3.402,-19.04361 5.599,-28.07702 1.699,-7.56821 3.702,-14.15963 5.9,-20.75105 0.702,-1.21904 2.404,-2.930386 5.401,-5.614621 4.302,-3.907184 5.802,-5.860776 4.1,-5.860776 h -69.8 c -1.2,0 -0.499,1.222949 1.703,3.418786 4.598,4.637827 7.096,7.568214 7.299,8.545011 1.5,2.44199 1.999,15.86707 0.997,25.87728 -0.997,12.20994 -1.999,21.73175 -2.899,29.54221 l -8.6,70.80207 c -0.199,12.93669 -2.198,23.92369 1.703,35.88749 2.198,6.10302 5.397,11.22924 9.999,15.62482 7.1,7.07982 21,12.20605 30.099,14.15964 4.602,0.97679 10.202,1.95359 17.298,3.17654 z m 0,0"
       stroke="#5e877e"
       stroke-width="1.12625"
       stroke-opacity="1"
       stroke-miterlimit="2"
       id="path17" />
  </g>
  <g
     mask="url(#51a5c7f9d4)"
     id="g110"
     transform="matrix(0.88789708,0,0,0.88789708,-200.69434,86.104873)"
     style="stroke-width:1.12625">
    <g
       transform="translate(442,80)"
       id="g109"
       style="stroke-width:1.12625">
      <g
         clip-path="url(#e465b17a3a)"
         id="g108"
         style="stroke-width:1.12625">
        <path
           fill="#c7daf5"
           d="m 647.62109,58.53125 c 0.32032,1.5 -0.6914,1.664062 -1.76172,1.761719 -4.82812,-5.152344 -13.09765,-6.867188 -18.5,-11.449219 -4.35156,0.292969 -11.76953,-0.949219 -13.21093,-6.167969 -20.58985,-4.511719 -42.25782,-19.796875 -68.70703,-18.496093 5.82031,-5.378907 15.14843,-3.335938 22.90234,-1.761719 28.01172,5.6875 56.43359,24.855469 79.27734,36.113281"
           fill-opacity="1"
           fill-rule="evenodd"
           id="path18"
           style="stroke-width:1.12625" />
        <path
           fill="#c7daf5"
           d="m 640.56641,109.61719 c -1.03125,3.52734 -6.28516,0.37109 -6.16016,-2.64063 2.11719,0.36328 1.91016,-1.60547 4.40234,-0.8789 0.1211,1.64062 0.58203,2.9414 1.75782,3.51953"
           fill-opacity="1"
           fill-rule="evenodd"
           id="path19"
           style="stroke-width:1.12625" />
        <path
           fill="#c7daf5"
           d="m 607.97656,57.652344 c -4.55078,-1.027344 -5.34765,-5.804688 -11.44922,-5.285156 0.23047,-3.625 -7.35156,-2.574219 -5.28125,-5.285157 -2.40625,-0.07813 -1.77343,1.464844 -3.52343,0 -5.76172,-2.3125 -13.12891,-4.945312 -21.14063,-6.167969 -4.71094,-0.714843 -11.67969,1.175782 -14.09375,-3.519531 21.00391,-2.800781 40.34766,8.148438 55.48828,16.734375 v 3.523438"
           fill-opacity="1"
           fill-rule="evenodd"
           id="path20"
           style="stroke-width:1.12625" />
        <path
           fill="#c7daf5"
           d="m 498.75781,123.71484 c -3.4414,-16.42968 -28.15625,-17.59765 -36.11328,-5.28515 -0.83203,10.8125 7.06641,12.89453 8.80859,21.13672 -6.14843,-3.42188 -16.41015,-12.14453 -14.97265,-22.01953 0.82812,-5.70704 9.92578,-12.00782 16.73437,-13.21094 12.96875,-2.29297 24.9961,8.14062 31.70703,14.97656 -0.0234,3.49609 -3.42578,3.61328 -6.16406,4.40234"
           fill-opacity="1"
           fill-rule="evenodd"
           id="path21"
           style="stroke-width:1.12625" />
        <path
           fill="#c7daf5"
           d="m 418.60156,101.69531 c 5.98047,1.94141 16.42188,7.1875 25.54688,1.75782 6.42187,-3.816411 13.59375,-14.492192 13.21093,-18.496099 -0.42578,-4.445312 -4.53906,-3.550781 -5.28125,-7.925781 18.83594,-1.601562 8.26954,22.816406 -1.76562,29.94531 -2.31641,0.3125 -3.92969,1.98828 -7.04688,3.52344 -10.25781,-0.48828 -27.98437,2.39063 -24.66406,-8.80469"
           fill-opacity="1"
           fill-rule="evenodd"
           id="path22"
           style="stroke-width:1.12625" />
        <path
           fill="#c7daf5"
           d="m 425.64844,159.82812 c 0.53515,9.74219 8.76562,11.78907 10.57031,20.25782 -6.20703,-4.71485 -19.86328,-11.64844 -16.73438,-23.78125 2.27735,-8.82813 28.96485,-16.1211 37.875,-7.92969 2.72266,2.50391 2.7461,7.30859 1.76172,7.92969 -2.5664,1.61328 -5.18359,-5.16016 -9.6875,-6.16797 -10.42187,-2.32813 -18.57031,3.76562 -23.78515,9.6914"
           fill-opacity="1"
           fill-rule="evenodd"
           id="path23"
           style="stroke-width:1.12625" />
        <path
           fill="#c7daf5"
           d="m 427.41406,195.94141 c -5.95703,2.1914 -10.57812,-6.71094 -18.49609,-7.04688 -10.53906,-0.44531 -16.50391,7.0625 -17.6211,14.09375 -2.09375,13.16406 13.00782,18.82422 14.97266,27.30859 -7.85156,-4.70703 -19.88281,-12.39062 -21.13672,-22.90625 -2.93359,-24.58203 32.44531,-30.48046 42.28125,-11.44921"
           fill-opacity="1"
           fill-rule="evenodd"
           id="path24"
           style="stroke-width:1.12625" />
        <path
           fill="#c7daf5"
           d="m 374.5625,160.70703 c 11.21875,0.10547 21.81641,7.50391 32.58984,0 10.62891,-7.39844 15.24219,-31.99219 0,-37.875 -3.58984,1.6836 -10.69531,1.20703 -14.09375,-1.76172 3.29297,-4.76562 10.64063,0.23047 13.21094,-3.52343 26.57813,7.65234 18.30859,49.35937 -6.16406,51.96874 -7.04688,0.75 -21.54297,-1.03906 -25.54297,-8.80859"
           fill-opacity="1"
           fill-rule="evenodd"
           id="path25"
           style="stroke-width:1.12625" />
        <path
           fill="#c7daf5"
           d="m 395.69922,248.78906 c -4.29297,2.13281 -5.33985,-6.53906 -10.56641,-7.92578 -11.64453,-3.08203 -22.77344,3.40234 -24.66406,10.57031 -3.61719,13.71485 12.87891,24.48438 16.73437,33.46875 -10.34765,-3.73047 -29.71484,-25.78515 -20.25781,-40.51562 7.33985,-11.4336 38.01953,-15.16406 38.75391,4.40234"
           fill-opacity="1"
           fill-rule="evenodd"
           id="path26"
           style="stroke-width:1.12625" />
        <path
           fill="#c7daf5"
           d="m 387.77344,129 c -11.70313,7.96484 -14.52344,24.81641 -22.89844,36.10937 -2.01953,-11.11718 9.10547,-20.53906 10.56641,-28.18359 4.96875,-1.78125 4.63281,-8.87891 12.33203,-7.92578"
           fill-opacity="1"
           fill-rule="evenodd"
           id="path27"
           style="stroke-width:1.12625" />
        <path
           fill="#c7daf5"
           d="m 342.85547,215.32031 c 16.4414,3.1836 36.75781,-6.53515 33.46484,-23.78515 -1.80469,-9.48829 -11.55078,-8.30469 -18.49219,-14.08985 47.27735,-5.35547 15.38672,65.60938 -14.97265,37.875"
           fill-opacity="1"
           fill-rule="evenodd"
           id="path28"
           style="stroke-width:1.12625" />
        <path
           fill="#c7daf5"
           d="m 336.6875,217.96094 c -1.74219,-12.70703 6.87109,-30.05078 15.85156,-37.875 -2.3164,12.10547 -11.27344,25.10547 -15.85156,37.875"
           fill-opacity="1"
           fill-rule="evenodd"
           id="path29"
           style="stroke-width:1.12625" />
        <path
           fill="#c7daf5"
           d="m 319.07031,266.40625 c 3.71485,-5.23828 7.71094,-1.09375 12.33203,-2.64063 9.59375,-3.21093 17.00391,-16.04687 12.32813,-24.66406 -2.51172,-4.64062 -6.56641,-2.85937 -10.57031,-7.92578 35.91796,-3.38281 9.5039,55.49609 -14.08985,35.23047"
           fill-opacity="1"
           fill-rule="evenodd"
           id="path30"
           style="stroke-width:1.12625" />
        <path
           fill="#c7daf5"
           d="m 319.94922,256.71875 c -4.76563,-5.99219 4.23828,-12.88672 6.16797,-19.37891 1.28906,-4.33203 -0.8125,-11.375 6.16406,-12.33203 1.18359,12.39844 -7.76563,22.14063 -12.33203,31.71094"
           fill-opacity="1"
           fill-rule="evenodd"
           id="path31"
           style="stroke-width:1.12625" />
        <path
           fill="#c7daf5"
           d="m 297.05078,298.11328 c -3.35547,-8.07031 3.95313,-23.59375 14.09375,-26.42187 -2.25,7.79687 -10.17578,17.3789 -14.09375,26.42187"
           fill-opacity="1"
           fill-rule="evenodd"
           id="path32"
           style="stroke-width:1.12625" />
        <path
           fill="#c7daf5"
           d="m 307.61719,402.05469 c 0.48047,-20.32813 -35.30078,-22.63672 -38.75391,-6.16407 -1.89453,9.01954 8.80078,16.52735 5.28125,21.14063 0.73828,2.01562 5.75781,2.06641 3.52344,4.40234 -4.85938,0.35157 -6.125,-5.85156 -7.92188,-8.80859 -2.50781,-4.13281 -5.57031,-7.91016 -6.16797,-12.33203 -3.26953,-24.16406 32.83985,-25.98047 44.92188,-11.44922 3.18359,3.82422 5.29297,10.38281 -0.88281,13.21094"
           fill-opacity="1"
           fill-rule="evenodd"
           id="path33"
           style="stroke-width:1.12625" />
        <path
           fill="#c7daf5"
           d="m 80.367188,385.32031 c -0.769532,6.34375 5.511718,5.64453 9.6875,7.04688 0.765624,3.40625 -2.152344,3.13281 -2.640626,5.28125 -7.949218,1.19922 -8.96875,-4.53516 -13.210937,-7.04688 1.582031,-2.23047 1.304687,-6.32422 6.164063,-5.28125"
           fill-opacity="1"
           fill-rule="evenodd"
           id="path34"
           style="stroke-width:1.12625" />
        <path
           fill="#c7daf5"
           d="m 60.988281,371.22266 c -5.078125,-3.72657 -7.246093,-10.36719 -16.734375,-9.6836 0.738282,-1.02344 1.160156,-2.36328 0.882813,-4.40625 9.070312,-3.21484 21.507812,5.44922 15.851562,14.08985"
           fill-opacity="1"
           fill-rule="evenodd"
           id="path35"
           style="stroke-width:1.12625" />
        <g
           clip-path="url(#242fe22f0e)"
           id="g36"
           style="stroke-width:1.12625">
          <path
             fill="#c7daf5"
             d="m 1003.1328,491.12891 c -4.67186,1.55859 -10.36327,4.44921 -15.27733,4.84375 -13.94922,1.11718 -28.30469,2.07812 -42.01563,-1.5586 -10.4414,-2.77344 -22.13281,-4.96484 -31.84765,-9.12109 -3.37891,-1.44141 -7.27344,-2.11719 -10.76953,-3.28516 -8,-2.67187 -15.84375,-5.78906 -23.51954,-9.27344 -6.26562,-2.83984 -14.39453,-5.60546 -19.80859,-9.90234 -28.91016,-22.98437 -59.06641,-47.60547 -76.63281,-81.91797 -8.28516,-16.1875 -15.98828,-32.41015 -23.78125,-49.32422 C 752.58984,308.07812 742.50781,285.78125 734.82031,262 727.26172,238.63281 721.80469,213.45703 711.03906,192.41797 686.49609,144.46484 656.83594,104.62109 612.38281,77.03125 597.86719,73.648438 584.25391,63.464844 569.22656,60.292969 512.27734,48.289062 449.66797,59.757812 410.67578,90.242188 c -2.70703,-0.617188 -1.69141,-0.617188 -4.40625,0 -14.26562,11.859372 -28.60547,23.652342 -37.87109,40.515622 40.5,-90.796872 147.48047,-142.777341 266.00781,-117.148435 34.48828,7.460937 60.58594,21.246094 86.32031,36.996094 C 788.99609,92.390625 834.125,155.75 880.15234,219.72266 c 13.95703,19.39843 28.8125,38.33593 46.30078,54.69921 23.39844,21.89063 57.67188,47.07813 91.99608,41.31641 1.2227,-0.20703 2.4297,-0.53125 3.6328,-0.88672 0.016,-2.57422 0,-5.14844 0,-7.72265 -0.8906,1.32031 -4.2812,3 -6.0039,3.58984 -2.5937,0.89062 -6.289,0.73828 -9.0078,0.50391 -8.79686,-0.76954 -18.12108,-3.5625 -26.26561,-6.41797 -19.23437,-6.73438 -35.00781,-20.10938 -49.04687,-34.49219 -6.75,-6.91406 -13.16016,-14.13672 -19.76172,-21.17578 -5.03906,-5.36328 -8.90625,-9.73438 -12.96875,-15.82422 -1.22656,-1.85156 -2.52344,-2.62891 -4.125,-4.20703 -4.53125,-4.46094 -8.05078,-10.67578 -11.69922,-15.86328 -7.27344,-10.31641 -14.34375,-20.80078 -22.42578,-30.51563 -2.88672,-3.16406 -5.70703,-6.4375 -8.42969,-9.89062 -9.35547,-11.85157 -20.28125,-25.20313 -28.58203,-39.45313 C 795.15625,97.15625 755.1875,67.804688 719.24219,41.527344 c -4.33594,-1.882813 -8.41016,-4.113282 -11.86328,-6.84375 -0.2461,0.01953 -0.4961,0.05078 -0.7461,0.06641 C 652.71875,2.488281 548.82422,-12.90625 486.42578,17.132812 c -13.67187,1.285157 -25.35937,10.40625 -37.04297,17.03125 -0.41406,0.277344 -0.74609,0.597657 -1.19922,0.855469 -21.01953,12.050781 -38.23437,27.394531 -54.70312,45.058594 -0.82422,0.882813 -1.6875,1.585937 -2.55469,2.246094 -6.77344,8.371093 -13.0625,17.21875 -19.00391,26.417971 -0.21093,-0.0977 -0.41796,-0.1836 -0.625,-0.26953 -0.85156,1.65625 -1.64453,3.34375 -2.49609,5 0.46484,0.1875 0.94531,0.375 1.35547,0.55078 -8.32031,17.03125 -23.07422,32.51562 -29.94922,51.08593 -3.00391,8.13672 -3.47266,15.38282 -7.04687,22.90235 -9.40625,19.82422 -20.24219,40.26953 -28.1836,60.77734 -12.89062,33.3086 -32.05859,62.57031 -49.32422,89.84375 -30.19922,32.67969 -58.24609,54.30078 -106.58203,62.53906 -18.78125,3.20313 -35.61718,-3.11328 -48.4414,-10.57031 -4.718754,-2.73828 -10.718754,-5.99219 -14.09766,-8.80469 -7.722656,-6.44921 -9.242188,-14.58984 -14.09375,-22.90234 -1.785156,-3.06641 -5.988281,-7.20703 -8.804688,-11.45312 -2.808593,-4.22266 -5.285156,-9.78516 -7.925781,-12.33204 -12.140625,-11.67187 -65.597656,-13.5664 -52.851562,11.45313 16.5,-3.11719 27.484375,10.01562 39.632812,14.08984 0.617188,-5.62109 -6.804687,-7.83984 -5.28125,-11.44922 5.261719,-0.44921 6.835938,7.75 10.570313,3.52344 C 42.25,334.67187 19.828125,346.66797 8.140625,338.63281 c 10.8125,-9.58203 34.984375,-5.5664 44.039063,1.76563 12.394531,13.66797 15.949218,35.15625 29.949218,46.68359 5.519532,4.54297 13.78125,8.57422 21.140624,12.33203 11.02735,5.625 23.33203,8.27735 37.875,8.80469 -6.57812,11.25391 9.99219,20.72266 22.01953,22.02344 -7.64453,5.27343 -3.52734,19.80859 3.52735,22.89843 2.59375,-7.05859 -3.58594,-8.10156 -2.64844,-15.85546 9.52344,-7.14063 27.08984,-2.10547 30.83203,7.04687 0.55469,3.30469 -7.89453,5.65625 -3.52344,7.05078 5.60938,0.91016 6.99219,-2.40234 9.6875,-4.40625 -0.94531,-12.0625 -11.76172,-17.65234 -21.13672,-18.49609 11.37891,-3.39063 8.83594,-23.86328 -0.88672,-27.3086 -3.41406,5.27735 5.01172,8.60547 3.52735,15.85547 -2.83594,13.875 -35.3086,9.09766 -37.875,-3.52343 4.8789,-0.23438 1.54687,-4.125 0,-5.28516 17.69922,-2.26563 32.47656,-7.45313 46.68359,-13.21094 1.08203,16.14063 18.45703,23.73438 33.47266,20.25781 -8.19922,7 -6.01172,26.80469 4.40234,29.94922 -7.55469,-8.29687 -4.42187,-35.1914 13.21094,-32.58984 4.35156,0.64062 10.83203,8.25781 13.21484,13.21094 1.4336,2.97656 -0.43359,8.69922 4.40235,8.80859 5.625,-5.71094 -4.55469,-22.33594 -13.21094,-26.42578 -3.0625,-1.44531 -6.33594,-0.94531 -8.80859,-1.75781 8.86718,-8.06641 2.6289,-30.94532 -9.69141,-31.71094 5.47656,6.91016 11.80859,20.3125 4.40625,29.94531 -12.07813,10.83985 -36.09766,6.10938 -36.99609,-11.45312 17.64843,-5.25 28.5664,-17.23438 42.28125,-26.41797 12.9375,22.35547 56.25,12.45703 45.80468,-18.5 -1.45703,-4.30469 -4.45312,-5.85156 -7.92968,-9.69141 4.16015,-4.35156 8.58984,-8.4375 13.21093,-12.32812 17.28516,7.27343 33.8711,-6.58203 33.47266,-25.54297 -2.69531,-3.17578 -3.11328,-4.6875 -3.52344,-8.8125 -3.29687,-1.5625 -9.44922,-12.39844 -12.33203,-3.51953 1.375,2.16015 3.96484,2.72656 6.16797,5.28515 10.24609,11.90235 -4.59766,32.54688 -20.26172,29.06641 -2.73437,-0.54297 4.53906,-5.63672 0,-5.28516 -12.43359,3.5625 -16.59375,16.42578 -27.30469,25.54297 7.75391,-0.70703 11.45313,2.64063 14.09375,7.04297 0.52735,10.49219 -2.73437,21.42188 -13.21484,23.78906 -11.44141,2.57813 -17.67188,-5.86328 -26.42188,-7.04687 -0.53515,-0.0508 -1.04296,-0.13281 -0.88281,-0.88281 31.82813,-33.64844 60.4961,-75.15235 74.875,-123.32032 0.64844,-1.40234 4.30469,0.20703 3.51953,-2.64062 7.01172,-19.70313 14.8711,-38.5625 26.42188,-53.73047 2.6875,-16.8125 16.21094,-27.55469 24.66797,-40.51563 7.96875,-12.21875 13.57031,-25.98437 24.66015,-36.11718 29.29688,-26.746096 80.64063,-50.343752 128.60157,-46.67969 2.53515,11.332031 -17.71485,17.644531 -30.82813,14.972656 -5.09766,-1.039062 -9.41016,-6.761718 -13.21094,-3.523437 7.5,15.882812 55.59766,10.074219 51.08594,-12.332031 19.10938,1.523437 45.22266,2.65625 59.01563,12.332031 -1.53516,10.957031 -10.88672,10.726562 -22.01954,10.570312 -8.26953,-3.277343 -8.76953,-8.523437 -12.33203,-13.210937 -9.26172,9.222656 9.03907,19.539062 22.01563,18.496094 10.60156,-0.855469 16.80859,-5.664063 17.61719,-14.976563 2.24609,2.167969 6.80078,2.011719 8.8125,4.40625 -19.62891,6.761719 9.85937,31.265625 20.25781,21.140625 -2.77735,-4.601562 -12.81641,-0.26562 -17.61719,-4.40625 -0.54687,-4.152344 -3.99609,-5.398438 -4.40234,-9.6875 1.1289,-2.171875 6.5039,-4.035156 4.5039,-5.964844 45.72266,24.054684 75.28907,64.269534 98.54688,110.781254 -16.53516,-21.625 -29.25781,-47.06641 -51.96094,-62.53516 3.05859,0.30859 7.80469,-0.0156 5.28125,-2.64453 -6.44922,-6.9375 -25.48828,-21.91797 -30.82812,-8.80859 7.71093,-2.07032 20.34765,2.66015 25.54687,10.57031 -17.47266,-2.78906 -30.60156,-9.91797 -40.51953,-20.25781 -3.21094,-0.27344 -5.73438,0.13671 -7.92969,0.88281 -1.1875,-6.49219 -7.25,-5.9375 -12.33203,-8.808596 0.0547,0.02734 -0.87891,-2.644532 -0.87891,-2.644532 -4.85156,-4.390624 -14.75781,-4.382812 -19.3789,0 8.71875,1.746094 22.91406,2.761718 27.30469,11.453128 -19.36719,3.40234 -28.79688,-10.83594 -42.27735,-5.28906 -5.57422,-23.679692 -61.94531,-21.019536 -42.28125,7.04687 3.30469,-7.19531 0.71094,-14.507812 7.92578,-17.617188 10.84375,-4.667968 25.23828,3.332032 29.06641,11.453128 -7.37891,5.20312 -15.875,8.08984 -24.66016,10.57031 -2.30078,0.64844 -6.61328,-0.19141 -8.80859,0.87891 -3.71484,1.8125 -6.11328,7.02734 -9.69141,9.6914 -8.08593,6.02344 -18.46484,6.12891 -28.18359,10.57031 -3.11328,1.41797 -4.09375,5.85938 -8.80859,5.28125 0.78125,8.94922 -5.28125,10.36719 -8.8086,15.85547 -3.59375,5.59766 -4.84375,10.6211 -7.92578,13.21094 -4.13281,3.47266 -9.03125,4.41797 -14.09766,6.16797 -4.35156,10.28906 -9.05859,22.78516 -16.73046,31.71094 -3.42579,3.98047 -9.14063,5.71093 -10.57032,9.6875 -1.55468,4.3164 1.59766,8.38281 0.87891,13.21484 -1.57031,10.59375 -13.07031,18.57422 -13.21094,27.30469 -3.07422,1.98047 -9.86719,4.5 -11.45312,9.6875 -1.96875,6.4375 1.77343,15.62109 0,22.01953 -2.40235,8.66406 -8.54688,11.17578 -12.33203,16.73828 -8.89454,-21.125 -46.91407,-12.16797 -40.51563,11.45313 2.67188,9.85937 13.26953,20.76562 19.375,24.66015 -3.10547,-12.66015 -14.69531,-16.27344 -14.97266,-29.0664 -0.32031,-14.71485 27.41016,-19.9336 34.35157,-3.52344 -7.89844,4.35937 -6.23828,16.04687 -9.6875,24.66015 -4.34766,10.86329 -11.66797,17.40625 -19.37891,24.66407 -2.18359,-5.74219 -6.66016,-9.19141 -9.6875,-14.09375 -31.75,-16.00391 -39.23437,26.05859 -18.49609,38.75781 -3.60938,-11.71875 -9.31641,-21.94922 -5.28516,-32.58984 5.75391,-1.21875 8.84375,-4.33594 14.97266,-3.52344 6.19922,0.82031 12.08203,7.14453 13.21093,13.21484 2.41797,12.94531 -8.72265,16.75391 -11.44921,28.1836 -7.20313,2.48437 -10.42188,8.95703 -17.6211,11.44921 -2.875,9.91016 -15.52344,13.16016 -23.77734,18.5 -10.77735,6.96875 -19.71094,17.8086 -30.82813,22.01954 -4.67187,1.76953 -10.70703,1.61718 -15.85547,3.52343 -8.42968,3.11719 -15.03906,8.61328 -22.90234,9.69141 -4.12109,0.5625 -8.79297,-0.68359 -13.21094,0 -5.59765,0.85937 -12.96093,4.85547 -20.26172,5.28125 -20.75,1.21094 -30.25781,-2.77344 -46.67968,-8.80469 -13.27735,-4.88281 -19.48047,-8.85547 -22.90235,-18.5 6.03516,-6.73828 13.625,-1.41406 18.4961,4.40235 2.29297,2.74609 2.49218,7.54296 6.16406,7.92968 6.62891,-8.8789 -7.03125,-16.66015 -13.21094,-21.14062 2.16016,-3.32422 8.08985,-6.89844 5.28516,-12.33203 -6.50781,0.93359 -6.13281,6.82031 -11.44922,7.04687 -7.94141,0.33985 -13.46094,-7.01172 -18.49609,-12.32812 -1.234379,-3.24219 3.82812,-7.33594 0,-5.28907 -17.371098,2.63282 6.30859,21.12891 13.21093,22.01954 -0.94921,4.04296 -5.05078,4.93359 -6.16796,8.8125 -11.261724,-6.05079 -28.835942,-12.23438 -24.664068,-28.1836 -4.613281,-1.85547 -3.351562,-7.99219 -10.570312,-8.8125 -7.023438,-10.29687 -10.449219,-24.19531 -23.777344,-28.18359 -0.242187,6.69922 5.878906,10.64062 9.6875,15.85156 6.445313,8.82422 12.242188,19.70313 16.734375,28.1875 7.683594,14.51953 16.339844,24.5 32.589849,27.30469 6.16015,11.49219 17.55078,16.36328 31.71093,22.01953 7.07031,2.82422 15.03125,5.70312 21.13672,6.16406 16.90625,1.28125 32.02734,-3.11328 47.56641,-5.28125 3.52734,-0.49219 7.05078,0.4961 10.57031,0 10.54297,-1.48437 19.39453,-6.51562 27.30469,-10.57031 29.43359,-5.98828 40.52734,-25.17969 64.29687,-36.11328 13.46875,-16.1875 32.07422,-27.24219 38.76172,-50.20703 4.69531,-3.78516 9.15234,-6.41797 12.33203,-10.57032 2.76563,-3.61328 9.08203,-14.04687 10.57031,-17.61718 2.51563,-6.03907 1.22266,-13.61719 4.39844,-19.37891 2.13281,-3.85937 7.62891,-6.37891 10.57422,-10.57031 7.14063,-10.17578 8.70313,-21.90235 8.80469,-36.9961 10.98047,-12.77343 25.28515,-26.03125 22.90234,-49.32421 6.55078,-6.96485 14.90625,-14.13282 20.25781,-23.78125 3.79688,-6.82813 4.21485,-17.46094 12.95704,-18.32813 3.39062,-3.83203 6.75781,-7.65625 9.75,-11.94141 3.64843,-5.23046 7.67968,-9.80859 12.22265,-14.04296 0.3125,-1.22266 0.89844,-2.35547 2.06641,-3.25391 0.35547,0.10547 0.72656,0.18359 1.08594,0.28906 0.33203,-0.26953 0.57421,-0.60156 0.91406,-0.86328 1.8789,-1.46484 3.91797,-2.60937 5.90234,-3.86328 -0.83984,-0.3125 -1.78515,-0.52344 -2.61328,-0.84375 13.94922,-6.60547 31.19141,-9.91016 39.63281,-22.02344 16,-3.08593 28.48438,-9.6875 43.16016,-14.09375 13.39453,10.89063 31.53125,3.25 45.80469,7.92969 6.46093,2.11719 12.92968,9.96875 20.26172,13.21094 5.5664,2.46484 12.3164,2.20312 16.73437,4.40625 6.05469,3.01562 26.03125,24.86328 30.82813,31.95312 13.53515,13.35547 24.48046,30.01172 32.3125,47.35938 0.38671,0 0.76562,-0.0469 1.16015,-0.0391 2.30078,0.043 10.6211,28.08985 11.75781,31.27735 3.87891,10.91406 18.70313,54.85937 22.50391,65.82422 4.94531,14.25781 11.27734,28.91406 17.30859,42.89062 5.05469,11.71094 10.83594,23.11719 17.39844,34.0586 12.58985,20.99218 28.10938,40.20312 46.29688,56.60546 1.6289,1.46485 3.27343,2.91016 4.93359,4.32813 13.4375,8.80469 25.95703,18.30078 38.78125,27.38281 28.73047,15.85156 64.47656,24.92188 101.02734,29.22266 10.37891,-1.85156 20.72266,-3.875 30.95313,-6.48438 0.3789,-1.92578 0.7539,-3.84765 1.1328,-5.77343"
             fill-opacity="1"
             fill-rule="nonzero"
             id="path36"
             style="stroke-width:1.12625" />
        </g>
        <g
           clip-path="url(#424c03cfec)"
           id="g37"
           style="stroke-width:1.12625">
          <path
             fill="#c7daf5"
             d="m 1019.2969,383.32422 c -21.23049,4.33203 -43.33206,5.94531 -63.39065,0.23047 -2.84766,-1.08985 -0.67578,2.85156 -3.52344,1.76562 -1.75,-2.03125 0.21875,-0.98047 0.87891,-2.64453 -5.41797,-1.68359 -9.20703,2.98438 -12.32813,-2.64453 0.42969,4.58984 -5.07812,-1.69141 -5.28515,0.88281 25.22265,11.33594 55.48437,12.33985 83.15236,6.83594 0.1836,-1.47656 0.3164,-2.94922 0.4961,-4.42578"
             fill-opacity="1"
             fill-rule="evenodd"
             id="path37"
             style="stroke-width:1.12625" />
        </g>
        <g
           clip-path="url(#5170b1f28f)"
           id="g38"
           style="stroke-width:1.12625">
          <path
             fill="#c7daf5"
             d="m 1024.9336,321.98047 c 0.09,-1.41797 0.125,-2.83203 0.207,-4.25 -17.0469,2.23437 -34.38669,1.01562 -52.76169,-4.16406 -0.66407,-0.1875 -1.16016,0.85937 -0.48438,1.15234 16.02344,6.96484 34.82417,9.30859 53.03907,7.26172"
             fill-opacity="1"
             fill-rule="evenodd"
             id="path38"
             style="stroke-width:1.12625" />
        </g>
        <path
           fill="#c7daf5"
           d="m 382.17969,132.74609 c -0.86719,0.76172 0.30468,2.32813 1.25,1.6211 6.0039,-4.45703 13.65625,1.22265 13.92187,8 0.19141,4.96875 -3.94531,5.54297 -7.78515,6.35156 -2.28125,0.48047 -9.16407,2.75 -9.9961,-1.23828 -0.3164,-1.4961 -2.35937,-1.5586 -3.09375,-0.40235 -3.3789,5.32422 3.66016,7.875 7.8125,7.40625 5.66016,-0.64062 14.63281,-1.4414 16.85938,-7.75781 3.86718,-10.93359 -9.79688,-22.01562 -18.96875,-13.98047"
           fill-opacity="1"
           fill-rule="evenodd"
           id="path39"
           style="stroke-width:1.12625" />
        <path
           fill="#c7daf5"
           d="m 445.32812,91.203125 c 2.25391,3.328125 -6.07031,6.46875 -8.30468,6.738281 -2.16407,0.261719 -4.44141,-0.02344 -6.35938,-1.128906 -0.16015,-0.08984 -0.30078,-0.214844 -0.45312,-0.324219 5.125,-2.71875 10.35156,-5.226562 15.6875,-7.5 -0.71094,0.457031 -1.09375,1.441407 -0.57032,2.214844 z m 97.08985,-18.300781 c -10.32031,-1.851563 -20.96485,-2.414063 -31.6836,-1.96875 0.97266,-1.917969 1.0625,-3.945313 -0.57031,-5.652344 -0.6289,-0.65625 -1.65234,-0.578125 -2.29297,0 -1.10937,0.996094 -1.09765,2.023438 -1.59765,3.355469 -0.35938,0.96875 -0.90625,1.855469 -1.58203,2.617187 -3.03125,0.238282 -6.0586,0.554688 -9.08594,0.957032 -1.52735,-1.140626 -2.76953,-2.808594 -3.67578,-4.539063 -0.54297,-1.03125 -2.12891,-0.523437 -2.13672,0.578125 -0.0117,1.71875 0.55469,3.277344 1.4414,4.640625 -21.91015,3.472656 -43.49218,11.074219 -62.73828,21.648437 -0.89843,-1.667968 -0.92968,-3.6875 0.92188,-4.96875 1.03125,-0.710937 0.14453,-2.242187 -0.98828,-1.683593 -3.14453,1.558593 -4.40235,4.949219 -3.02344,8.21875 -8.08984,4.746091 -15.77734,9.933591 -22.84375,15.558591 -0.76953,0.61328 0.25781,1.95703 1.0625,1.375 7.45703,-5.38281 15.19141,-10.33203 23.19531,-14.765622 2.38281,2.707032 6.41016,3.867192 9.91016,3.730472 4.46484,-0.17578 9.34765,-2.308598 11.94531,-6.089848 1.67578,-2.433593 2.09375,-7.152343 -1.92187,-7.191406 -0.25,-0.0039 -0.47657,0.08594 -0.69141,0.195313 7.54297,-3.203125 15.27344,-5.988281 23.22656,-8.207031 8.32422,-2.320313 16.58203,-3.847657 24.84766,-4.878907 2.3164,1.570313 5.22656,2.339844 7.92969,1.851563 1.63281,-0.296875 3.82421,-1.484375 5.67968,-3.097656 11.34375,-0.671876 22.76953,-0.566407 34.46485,-0.132813 0.87109,0.03125 1.09375,-1.394531 0.20703,-1.550781"
           fill-opacity="1"
           fill-rule="evenodd"
           id="path40"
           style="stroke-width:1.12625" />
        <path
           fill="#c7daf5"
           d="m 574.09766,76.511719 c -1.00782,-0.28125 -1.82032,-0.835938 -2.48829,-1.527344 1.94922,0.449219 3.89844,0.945313 5.84766,1.488281 -1.04687,0.285156 -2.13281,0.382813 -3.35937,0.03906 z m 17.44531,2.679687 c -2.57031,-1.542968 -5.32031,-2.78125 -8.14063,-3.863281 -0.26953,-0.371094 -0.69922,-0.589844 -1.24218,-0.488281 -3.94922,-1.40625 -8.06641,-2.433594 -12.27344,-3.066406 -0.23828,-0.960938 -0.32813,-1.96875 -0.21875,-2.9375 0.17187,-1.570313 -2.20313,-1.738282 -2.64844,-0.359376 -0.3125,0.964844 -0.43359,1.949219 -0.44922,2.921876 -6.76172,-0.710938 -13.61328,-0.601563 -20.07422,0.199218 -0.62109,0.07813 -0.66015,1.042969 0,1.003906 7.20313,-0.398437 13.85938,0.199219 20.375,1.398438 0.69141,2.699219 2.4961,5.078125 5.17969,6.363281 3.20703,1.527344 9.03125,1.167969 11.01563,-2.222656 2.58203,0.8125 5.17968,1.660156 7.83593,2.574219 0.91016,0.3125 1.42969,-1.042969 0.64063,-1.523438"
           fill-opacity="1"
           fill-rule="evenodd"
           id="path41"
           style="stroke-width:1.12625" />
        <path
           fill="#c7daf5"
           d="m 637.41016,110.72656 c -5.625,-6.1875 -14.10938,-9.98828 -22.21094,-12.718748 -0.008,-0.351562 -0.10547,-0.703124 -0.39063,-0.972656 -1.3164,-1.246094 -3.26562,-1.410156 -4.57812,-2.804687 -1.28516,-1.363281 -2.11328,-3.519531 -1.85938,-5.402344 0.21875,-1.613281 -1.85547,-2.238281 -2.46093,-0.679687 -1.09766,2.824218 -0.52344,5.71875 1.2539,8.140624 1.375,1.875 4.35938,4.226568 6.83985,3.25 7.95312,3.441408 14.74609,8.351568 22.46484,12.402348 0.78516,0.41406 1.53906,-0.5586 0.94141,-1.21485"
           fill-opacity="1"
           fill-rule="evenodd"
           id="path42"
           style="stroke-width:1.12625" />
        <path
           fill="#c7daf5"
           d="m 538.84375,99.046875 c -2.58203,-2.878906 -6.94922,-3.183594 -10.51563,-2.382813 -3.30859,0.738282 -6.37109,3.144532 -6.72656,6.691408 -0.27344,2.75781 1.13281,6.35547 4.38672,5.87891 0.71484,-0.10157 1.14844,-1.03907 0.95313,-1.67579 -0.4375,-1.39453 -1.52344,-2.41015 -0.95313,-3.96484 0.74609,-2.04297 3.34766,-2.57422 5.27344,-2.62891 2.17969,-0.0625 4.16797,0.40235 4.78906,2.75 0.45313,1.71875 0.13281,3.36329 1.39063,4.75391 0.57812,0.64453 1.48437,0.47266 2.08593,0 2.66016,-2.07031 1.23828,-7.28125 -0.68359,-9.421875"
           fill-opacity="1"
           fill-rule="evenodd"
           id="path43"
           style="stroke-width:1.12625" />
        <path
           fill="#c7daf5"
           d="m 488.51562,121.73047 c -1.72265,-7.08203 -10.55859,-7.95703 -16.625,-6.58984 -7.98828,1.80078 -7.00781,12.79687 -5.35937,18.94531 0.35937,1.34375 2.18359,1.21484 2.59766,0 0.6875,-2.00782 1.03906,-3.94141 1.22265,-6.05078 0.20313,-2.39844 -0.39844,-5.74219 1.29297,-7.50391 2.92188,-3.05078 12.66016,-2.20312 14.32813,1.90234 0.625,1.53125 2.95312,0.99219 2.54296,-0.70312"
           fill-opacity="1"
           fill-rule="evenodd"
           id="path44"
           style="stroke-width:1.12625" />
        <path
           fill="#c7daf5"
           d="m 447.80078,160.29687 c -2.38281,-5.35156 -10,-6.49218 -14.17578,-2.53906 -2.01953,1.91016 -2.98438,4.79297 -2.80859,7.53906 0.17578,2.73438 1.5,6.32813 4.69921,6.32813 0.83594,-0.004 1.67188,-0.74609 1.6211,-1.62109 -0.0977,-1.64454 -1.06641,-2.71875 -1.40235,-4.28516 -0.33203,-1.54297 -0.0273,-3.28516 1.01954,-4.5 2.28515,-2.66016 6.62109,-1.37109 8.57031,0.99219 1.23047,1.49218 3.14453,-0.41407 2.47656,-1.91407"
           fill-opacity="1"
           fill-rule="evenodd"
           id="path45"
           style="stroke-width:1.12625" />
        <path
           fill="#c7daf5"
           d="m 413.99219,198.95312 c -5.71485,-3.84765 -14.25782,-1.82031 -16.90625,4.79688 -2.20703,5.50391 1.1875,16.41406 8.61718,15.12891 1.65235,-0.28516 1.71875,-2.30469 0.88672,-3.35547 -1.2539,-1.57813 -3.09375,-2.30078 -4.16797,-4.10938 -1.01562,-1.71094 -1.5039,-3.75 -0.96093,-5.70703 1.25781,-4.56641 7.16406,-6.38281 11.11718,-4.32422 1.60938,0.83594 2.91407,-1.42187 1.41407,-2.42969"
           fill-opacity="1"
           fill-rule="evenodd"
           id="path46"
           style="stroke-width:1.12625" />
        <path
           fill="#c7daf5"
           d="m 352.96094,184.72266 c -1.42188,0.53906 -0.88672,2.59765 0.63281,2.29687 2.01172,-0.40625 3.68359,2.55078 4.15625,4.01953 0.34375,1.0586 0.59375,2.17188 0.79687,3.26172 0.71485,3.83203 1.28907,8.46875 -3.02343,10.59375 -4.23828,2.09375 -9.40625,1.38281 -13.94141,1.64063 -2.53516,0.14453 -3.17578,3.76171 -0.61328,4.5039 6.55859,1.89844 21.39844,0.41406 22.40625,-8.17187 0.64453,-5.49219 -1.60547,-21.48047 -10.41406,-18.14453"
           fill-opacity="1"
           fill-rule="evenodd"
           id="path47"
           style="stroke-width:1.12625" />
        <path
           fill="#c7daf5"
           d="m 387.69922,247.20312 c -5.45313,-6.12109 -16.90625,0.23047 -18.90625,6.80469 -2.52344,8.31641 6.11328,18.35156 14.7539,16.41797 1.41797,-0.31641 1.3086,-2.05078 0.36329,-2.77344 -3.94532,-3.03125 -9.76954,-3.8125 -10.63672,-9.70703 -0.48828,-3.32031 1.23437,-5.67578 3.93359,-7.45703 2.19922,-1.45312 6.02344,-3.32031 8.42188,-1.21484 1.41796,1.23828 3.32812,-0.66016 2.07031,-2.07032"
           fill-opacity="1"
           fill-rule="evenodd"
           id="path48"
           style="stroke-width:1.12625" />
        <path
           fill="#c7daf5"
           d="m 327.77734,234.38672 c -1.29297,-1.20313 -3.21484,0.69922 -1.94531,1.94531 4.44531,4.35938 6.92188,8.61719 3.60156,14.73828 -2.91797,5.38672 -6.4414,6.35938 -12.04297,7.42969 -1.21875,0.23437 -1.5625,1.92969 -0.71875,2.73047 6.10547,5.83984 13.88282,-2.54297 16.52344,-7.96094 3.78125,-7.74219 0.32813,-13.53516 -5.41797,-18.88281"
           fill-opacity="1"
           fill-rule="evenodd"
           id="path49"
           style="stroke-width:1.12625" />
        <path
           fill="#c7daf5"
           d="m 305.72656,294.35156 c -2.8125,-2.47265 -6.52344,-2.55078 -9.41406,-0.29687 -1.11328,0.87109 0.30469,2.51562 1.46094,1.89062 3.83203,-2.0625 6.88672,1.74219 6.49609,5.26953 -0.33594,3.01563 -2.4375,5.23047 -4.71484,7.02344 -1.94532,1.53906 -4.69141,3.68359 -7.23828,3.78906 -1.61719,0.0664 -3.08204,-0.63672 -4.5625,-1.29297 1.66406,-3.0039 3.26562,-6.04296 4.85156,-9.0664 0.5039,-0.96094 -0.9336,-1.8086 -1.46094,-0.85547 -1.70703,3.10156 -3.46094,6.18359 -5.28516,9.22656 -0.36328,-0.11328 -0.71875,-0.2539 -1.09375,-0.30859 -1.375,-0.19531 -3.09375,1.22656 -2.05859,2.67578 0.30859,0.42969 0.64453,0.78516 0.97656,1.14844 -5.08593,8.07812 -10.79297,15.75 -17.77734,22.32812 -9.84766,9.27735 -21.57813,16 -30.82813,25.9375 -0.85937,0.92578 0.44922,2.21875 1.38282,1.38281 10.77734,-9.70703 23.65234,-16.9414 33.75,-27.42187 5.97265,-6.19531 10.78906,-13.32422 15.10937,-20.75 7.33985,5.27734 18.70313,-1.41406 22.12891,-9.13281 1.67578,-3.78125 1.57031,-8.65625 -1.72266,-11.54688"
           fill-opacity="1"
           fill-rule="evenodd"
           id="path50"
           style="stroke-width:1.12625" />
        <path
           fill="#c7daf5"
           d="m 360.58203,311.58984 c 0.98828,1.08985 2.98047,-0.38281 2.07031,-1.59375 -5.43359,-7.25781 -15.61328,-0.92187 -18.32422,5.7461 -3.01562,7.42578 3.12891,13.08203 9.91016,14.71093 -3.02734,10.35157 -8.04297,18.8086 -17.58984,24.25 -1.11328,0.63282 -0.35157,2.28907 0.85156,2.01563 11.77344,-2.66016 16.55859,-15.26172 19.25,-25.74609 1.23828,0.004 2.45312,-0.0117 3.60547,-0.19922 1.42969,-0.23047 1.67187,-2.5 0.41015,-3.11719 -4.03515,-1.97656 -11.21093,-2.02734 -12.33984,-7.42578 -1.07031,-5.125 7.45703,-13.79297 12.15625,-8.64063"
           fill-opacity="1"
           fill-rule="evenodd"
           id="path51"
           style="stroke-width:1.12625" />
        <path
           fill="#c7daf5"
           d="m 334.54687,357.30078 c -2.65625,-9.39062 -14.33203,-1.5625 -16.70703,3.96875 -1.60937,3.75391 -1.25781,8.12891 1.53516,11.25 2.11719,2.37109 6.54297,4.66797 9.09766,1.71484 0.7539,-0.86718 0.54296,-1.90234 -0.32813,-2.5664 -1.15625,-0.87891 -2.60547,-1.00781 -3.80469,-1.80078 -1.6289,-1.07813 -2.58593,-2.88282 -2.5039,-4.85157 0.14062,-3.29687 7.5039,-12.0625 10.11718,-6.625 0.70704,1.46875 3.02735,0.42969 2.59375,-1.08984"
           fill-opacity="1"
           fill-rule="evenodd"
           id="path52"
           style="stroke-width:1.12625" />
        <path
           fill="#c7daf5"
           d="m 273.17187,349.41406 c -1.4414,-3.95312 -6.14843,-7.33984 -9.76562,-3.77344 -1.55859,1.53516 0.47656,4.32032 2.37891,3.08204 3.88281,-2.52735 3.625,6.67578 3.38671,8.10546 -0.46875,2.78516 -0.98046,5.63672 -3.9414,6.66016 -4.79688,1.66016 -12.03516,-1.86719 -12.51172,-7.09766 -0.16016,-1.80468 -2.88672,-1.875 -2.86719,0 0.10156,9.29297 14.71875,16.45313 21.08985,8.39454 2.91015,-3.67579 3.80859,-11.03907 2.23046,-15.3711"
           fill-opacity="1"
           fill-rule="evenodd"
           id="path53"
           style="stroke-width:1.12625" />
        <path
           fill="#c7daf5"
           d="M 622.74609,104.97266 C 598.83203,94.730469 572.44531,88.25 546.43359,87.269531 c -1.10937,-0.04297 -1.09765,1.660157 0,1.71875 26.44922,1.484375 50.29297,11.249999 75.67188,17.503909 0.87109,0.21484 1.54297,-1.13672 0.64062,-1.51953"
           fill-opacity="1"
           fill-rule="evenodd"
           id="path54"
           style="stroke-width:1.12625" />
        <path
           fill="#c7daf5"
           d="m 543.05469,83.957031 c -8.77344,-1.921875 -18.48438,-0.0039 -26.84766,2.816407 -1.26562,0.425781 -0.74219,2.414062 0.55859,2.019531 8.73438,-2.660157 17.05079,-2.640625 26.03516,-2.949219 1.03906,-0.03516 1.35156,-1.648438 0.25391,-1.886719"
           fill-opacity="1"
           fill-rule="evenodd"
           id="path55"
           style="stroke-width:1.12625" />
        <path
           fill="#c7daf5"
           d="m 484.70703,91.152344 c -7.37109,0.226562 -14.94922,4.324218 -20.72266,8.625 -1.09375,0.812496 -0.0508,2.671876 1.08204,1.859376 6.28515,-4.492189 12.70703,-6.175782 19.91406,-8.457032 1.07812,-0.34375 0.92969,-2.066407 -0.27344,-2.027344"
           fill-opacity="1"
           fill-rule="evenodd"
           id="path56"
           style="stroke-width:1.12625" />
        <path
           fill="#c7daf5"
           d="m 482.82812,100.07422 c -4.1875,0.54297 -8.4375,2.6875 -12.41796,4.07422 -1.25782,0.43359 -0.7461,2.41406 0.55859,2.01562 4.00391,-1.22656 8.74609,-1.98047 12.42187,-4.00781 0.91016,-0.5 0.57032,-2.230469 -0.5625,-2.08203"
           fill-opacity="1"
           fill-rule="evenodd"
           id="path57"
           style="stroke-width:1.12625" />
        <path
           fill="#c7daf5"
           d="m 443.91016,121.41016 c -3.66797,1.67187 -7.16407,3.64843 -10.4375,6.00781 -2.46094,1.77344 -5.41407,3.63672 -6.54688,6.54687 -0.19141,0.49219 0.40234,1.10157 0.89844,0.90235 2.89062,-1.16797 5.0039,-3.92188 7.4375,-5.82422 2.98828,-2.33984 6.21094,-4.29688 9.60156,-6 1.09766,-0.55469 0.13672,-2.13281 -0.95312,-1.63281"
           fill-opacity="1"
           fill-rule="evenodd"
           id="path58"
           style="stroke-width:1.12625" />
        <path
           fill="#c7daf5"
           d="m 444.22656,125.8125 c -2.91406,2.24609 -5.72265,4.60547 -8.375,7.16016 -2.35156,2.26953 -5.42578,4.77343 -6.64844,7.85546 -0.39062,0.98438 0.9336,1.89844 1.76954,1.35938 2.6875,-1.73047 4.64453,-4.92188 6.875,-7.21875 2.48437,-2.55859 5.12109,-4.95313 7.875,-7.21875 1.0664,-0.87891 -0.38282,-2.78906 -1.4961,-1.9375"
           fill-opacity="1"
           fill-rule="evenodd"
           id="path59"
           style="stroke-width:1.12625" />
        <path
           fill="#c7daf5"
           d="m 444.33203,133.28906 c -4.73047,2.79688 -9.48828,6.45703 -11.85937,11.54688 -0.40625,0.86718 0.60156,1.73047 1.35156,1.04297 3.89844,-3.57813 7.32422,-7.42969 11.86719,-10.25782 1.46875,-0.91797 0.14062,-3.21484 -1.35938,-2.33203"
           fill-opacity="1"
           fill-rule="evenodd"
           id="path60"
           style="stroke-width:1.12625" />
        <path
           fill="#c7daf5"
           d="m 461.15625,143.86719 c -1.79297,7.03515 -6.07031,11.46484 -10.79688,16.65625 -0.69921,0.76562 0.16797,1.83203 1.07813,1.39453 6.51172,-3.125 10.23437,-10.78125 11.625,-17.52735 0.25781,-1.23437 -1.58984,-1.76953 -1.90625,-0.52343"
           fill-opacity="1"
           fill-rule="evenodd"
           id="path61"
           style="stroke-width:1.12625" />
        <path
           fill="#c7daf5"
           d="m 507.40234,115.41797 c -2.9375,2.43359 -5.42578,5.19531 -8.72656,7.19922 -3.28125,1.99609 -6.80859,3.27344 -10.57031,4 -1.23438,0.23437 -0.6836,2.02343 0.51172,1.85156 7.49218,-1.07422 16.51953,-4.88281 20.25,-11.92187 0.51172,-0.96875 -0.66407,-1.79688 -1.46485,-1.12891"
           fill-opacity="1"
           fill-rule="evenodd"
           id="path62"
           style="stroke-width:1.12625" />
        <path
           fill="#c7daf5"
           d="m 421.61719,192.04687 c -0.21485,-0.92187 -1.79688,-0.74609 -1.6875,0.23047 0.96484,8.66407 -6.03516,12.62891 -10.64453,18.51172 -0.86719,1.10938 0.19921,2.87891 1.59765,2.07031 7.13281,-4.12109 12.67969,-12.46093 10.73438,-20.8125"
           fill-opacity="1"
           fill-rule="evenodd"
           id="path63"
           style="stroke-width:1.12625" />
        <path
           fill="#c7daf5"
           d="m 402.8125,226.37109 c -1.05469,5.00391 -1.90234,9.67578 -4.25781,14.30469 -2.33203,4.58984 -5.80469,8.03516 -9.05469,11.93359 -0.96875,1.16016 0.24219,3.01954 1.6875,2.1836 8.86328,-5.14063 14.90625,-18 14.07422,-28.09375 -0.10938,-1.3086 -2.14063,-1.80078 -2.44922,-0.32813"
           fill-opacity="1"
           fill-rule="evenodd"
           id="path64"
           style="stroke-width:1.12625" />
        <path
           fill="#c7daf5"
           d="m 381.32031,274.78906 c -0.20703,-1.28515 -2.37109,-0.99609 -2.28125,0.3086 0.9375,13.45312 -5.84375,23.21093 -15.87109,31.28906 -1.07813,0.86719 0.0859,2.90625 1.3789,2.375 13,-5.34375 18.91407,-20.79297 16.77344,-33.97266"
           fill-opacity="1"
           fill-rule="evenodd"
           id="path65"
           style="stroke-width:1.12625" />
        <path
           fill="#c7daf5"
           d="m 336.29297,199.86719 c -10.33203,21.54297 -20.9961,42.89843 -30.71485,64.73437 -0.54296,1.22266 1.19922,2.30469 1.83204,1.07031 10.91406,-21.32031 20.47656,-43.17578 30.07031,-65.10937 0.34765,-0.79688 -0.80078,-1.50391 -1.1875,-0.69531"
           fill-opacity="1"
           fill-rule="evenodd"
           id="path66"
           style="stroke-width:1.12625" />
        <path
           fill="#c7daf5"
           d="m 12.210938,337.67578 c -1.152344,0.40234 -0.691407,2.20313 0.507812,1.85156 16.292969,-4.73047 28.847656,2.80469 38.785156,15.0586 0.511719,0.6289 1.636719,-0.0469 1.367188,-0.79297 C 46.898438,337.3125 27.53125,332.30078 12.210938,337.67578"
           fill-opacity="1"
           fill-rule="evenodd"
           id="path67"
           style="stroke-width:1.12625" />
        <path
           fill="#c7daf5"
           d="m 49.570312,362.02344 c -3.542968,-3.22657 -7.492187,-5.67969 -11.898437,-7.55078 -1.335937,-0.56641 -2.503906,1.22656 -1.171875,2.00781 3.828125,2.23437 7.398438,4.94531 10.523438,8.08984 2.523437,2.53906 4.582031,7.15625 7.824218,8.62891 0.800782,0.36328 1.714844,-0.0625 1.75,-1 0.121094,-3.85547 -4.398437,-7.78125 -7.027344,-10.17578"
           fill-opacity="1"
           fill-rule="evenodd"
           id="path68"
           style="stroke-width:1.12625" />
        <path
           fill="#c7daf5"
           d="m 115.91797,411.75391 c -2.53906,-1.60938 -15.83203,-1.85547 -13.77344,-7.125 0.59375,-1.51563 -1.73828,-2.35938 -2.542968,-1.07032 -1.941406,3.11719 -0.167968,6.51172 2.839848,8.08985 1.80078,0.94531 3.88672,1.47656 5.83984,1.97656 2.33203,0.59766 4.94531,1.44141 7.30078,0.69922 1.16797,-0.36719 1.36328,-1.91016 0.33594,-2.57031"
           fill-opacity="1"
           fill-rule="evenodd"
           id="path69"
           style="stroke-width:1.12625" />
        <path
           fill="#c7daf5"
           d="m 227.27734,382.16016 c -1.07812,-0.0625 -1.71875,1.05859 -1.51953,2 0.50781,2.40625 1.15235,4.26953 0.0352,6.63281 -0.86719,1.83984 -2.16016,4.32031 -4.05078,5.23828 -3.73438,1.8125 -11.62891,-0.74219 -13.54688,-4.26563 -0.71094,-1.30468 -3.05859,-0.39453 -2.46484,1.03907 0.97656,2.34375 3.14453,4.39843 5.78125,5.83984 -0.13281,-0.0234 -0.23438,-0.0937 -0.39063,-0.0625 -12.57031,2.53125 -24.88281,5.80859 -37.51172,7.89844 -0.125,-0.82031 -0.33984,-1.61719 -0.67968,-2.35938 -0.47266,-1.02343 -1.98438,-0.85937 -2.5,0 -0.52735,0.875 -0.84766,1.9375 -1.11328,3.04297 -0.71485,0.10156 -1.41016,0.25 -2.125,0.33985 -1.3086,0.16406 -1.35547,2.22656 0,2.09375 0.52734,-0.0508 1.05859,-0.10938 1.58593,-0.16016 -0.64843,2.64844 -1.59375,5.04297 -4.99609,5.27734 -4.31641,0.29688 -8.80469,-2.49609 -11.30078,-5.80078 -1.04688,-1.38281 -3.35156,-0.17187 -2.40235,1.40625 3.09766,5.1211 9.05079,9.49219 15.35938,8.60156 4.64062,-0.65234 7.86719,-5.35546 8.24609,-10.0039 12.91016,-1.4336 25.90625,-3.5625 37.96094,-8.42578 0.78906,-0.31641 0.80859,-1.16016 0.375,-1.6211 4.25781,2.16407 9.54688,2.76953 13,0.4375 4,-2.70312 11.30469,-16.59765 2.25781,-17.14843"
           fill-opacity="1"
           fill-rule="evenodd"
           id="path70"
           style="stroke-width:1.12625" />
        <path
           fill="#c7daf5"
           d="m 175.62109,445.27344 c 0.94922,-2.94922 3.42188,-3.41016 5.88282,-1.73047 1.57031,1.0664 3.60937,2.51172 4.58593,4.20703 1.28125,2.22266 0.13282,3.25 -0.26172,5.43359 -0.0703,0.36328 0.0195,0.78125 0.1836,1.15625 -2.45313,0.0508 -4.89844,0.082 -7.34375,0.10157 0.53125,-0.74219 0.42578,-1.96094 -0.66797,-2.13672 -0.60938,-0.0977 -1.19922,-0.21875 -1.79688,-0.33594 -0.57812,-2.16406 -1.27343,-4.54297 -0.58203,-6.69531 z m 24.0586,8.8164 c -3.34375,0.0234 -6.70313,0.0937 -10.06641,0.16797 1.64844,-1.54297 1.83594,-4.48437 1.07813,-6.71094 -1.1875,-3.49218 -5.125,-6.5664 -8.3086,-8.20312 -3.33984,-1.71875 -7.03906,-0.89844 -9.1914,2.25781 -2.53907,3.71875 -1.54297,8.36719 0.0273,12.26563 0.082,0.19531 0.19531,0.38281 0.32812,0.55468 -16.4375,-0.20312 -32.53515,-2.21484 -46.95312,-11.82031 -0.73047,-0.48437 -1.38281,0.66797 -0.67969,1.16016 21.66406,15.23437 48.64844,15.89453 74.00781,12.1289 1.03907,-0.15234 0.76563,-1.80859 -0.24218,-1.80078"
           fill-opacity="1"
           fill-rule="evenodd"
           id="path71"
           style="stroke-width:1.12625" />
        <path
           fill="#c7daf5"
           d="m 260.38672,430.26562 c -17.25391,9.60547 -35.54297,17.41407 -55.25781,20.0625 -0.64063,0.0859 -0.67579,1.08985 0,1.03516 20.32031,-1.70312 39.59765,-7.32422 55.99609,-19.83203 0.72656,-0.55469 0.10937,-1.73438 -0.73828,-1.26563"
           fill-opacity="1"
           fill-rule="evenodd"
           id="path72"
           style="stroke-width:1.12625" />
        <path
           fill="#c7daf5"
           d="m 293.66016,411.02344 c -2.375,-0.86328 -5.08985,-0.17578 -7.6211,-0.88282 -2.80859,-0.78125 -7.68359,-1.96875 -7.11328,-5.75781 0.84375,-5.57031 8.875,-11.40234 14.14453,-8.78515 1.44531,0.71875 2.6875,-1.34375 1.27344,-2.17579 -7.65234,-4.51171 -18.96094,2.65625 -20.08203,11.02344 -0.67969,5.03906 2.91797,7.67578 7.10547,9.36719 3.69922,1.49219 10.6914,4.14062 13.29687,-0.32422 0.58203,-0.99609 0,-2.10156 -1.0039,-2.46484"
           fill-opacity="1"
           fill-rule="evenodd"
           id="path73"
           style="stroke-width:1.12625" />
        <path
           fill="#c7daf5"
           d="m 254.94141,421.78125 c -3.15235,-3.71094 -8.52344,-5.46094 -13.28516,-5.04688 -2.04297,0.17969 -4.41797,0.625 -6.05469,1.94532 -1.87109,1.50781 -1.875,3.92187 -1.83984,6.13672 0.0625,4.29687 1.02344,8.68359 5.02734,10.91796 1.45313,0.81641 2.61719,-1.26953 1.28516,-2.19921 -2.38281,-1.67969 -2.66016,-4.57422 -2.60156,-7.25 0.082,-3.83985 2.09375,-5.46875 5.76562,-5.3711 2.42188,0.0664 4.88281,0.86328 6.84375,2.30078 1.58984,1.16797 3.79297,4.09375 2.36719,6.16407 -0.82813,1.19921 0.72265,2.24218 1.78125,1.78515 4.09765,-1.78125 3.23437,-6.41015 0.71094,-9.38281"
           fill-opacity="1"
           fill-rule="evenodd"
           id="path74"
           style="stroke-width:1.12625" />
        <path
           fill="#c7daf5"
           d="m 102.80469,420.59375 c -1.84375,-2.81641 -5.894534,-4.42188 -8.453128,-6.63281 -3.136718,-2.71094 -5.761718,-5.78907 -7.96875,-9.30469 -0.890624,-1.41406 -3.117187,-0.12891 -2.253906,1.32031 2.21875,3.69922 4.871094,7.22656 7.988282,10.22266 2.4375,2.34375 6.144531,6.05469 9.687502,6.14453 0.85156,0.0195 1.48047,-1.01172 1,-1.75"
           fill-opacity="1"
           fill-rule="evenodd"
           id="path75"
           style="stroke-width:1.12625" />
        <path
           fill="#c7daf5"
           d="m 81.980469,390.40625 c -7.1875,-14.51953 -16.433594,-27.60547 -26.90625,-39.9375 -0.539063,-0.63672 -1.429688,0.27734 -0.910157,0.91406 10.121094,12.39063 18.828126,25.76172 26.996094,39.50391 0.316406,0.52734 1.085938,0.0625 0.820313,-0.48047"
           fill-opacity="1"
           fill-rule="evenodd"
           id="path76"
           style="stroke-width:1.12625" />
        <path
           fill="#c7daf5"
           d="m 220.84766,411.24219 c -16.50782,2.35156 -32.79688,6.92578 -48.90235,11.15625 -0.95312,0.25 -0.54687,1.64843 0.40235,1.46484 16.35156,-3.15625 33.01953,-6.06641 48.91796,-11.10156 0.99219,-0.3125 0.5625,-1.66016 -0.41796,-1.51953"
           fill-opacity="1"
           fill-rule="evenodd"
           id="path77"
           style="stroke-width:1.12625" />
        <path
           fill="#c7daf5"
           d="m 214.03516,421.97656 c -10.38672,1.74219 -20.52735,6.13672 -30.53125,9.36328 -0.96094,0.3086 -0.56641,1.79297 0.42187,1.52344 10.22266,-2.81641 21.16406,-4.74609 30.89453,-9.02734 1.13281,-0.4961 0.26172,-2.03516 -0.78515,-1.85938"
           fill-opacity="1"
           fill-rule="evenodd"
           id="path78"
           style="stroke-width:1.12625" />
        <path
           fill="#c7daf5"
           d="m 262.78125,384.3125 c -4.05078,1.89062 -7.46875,5.21094 -11.00391,7.91016 -3.61328,2.75781 -7.24609,5.45703 -10.97656,8.05468 -0.76172,0.53125 -0.0625,1.77735 0.73828,1.26172 4.03125,-2.59765 8.08594,-5.17969 12.05078,-7.88672 3.49219,-2.38672 7.51172,-4.71875 10.23438,-7.99218 0.63281,-0.75782 -0.14063,-1.76954 -1.04297,-1.34766"
           fill-opacity="1"
           fill-rule="evenodd"
           id="path79"
           style="stroke-width:1.12625" />
        <path
           fill="#c7daf5"
           d="m 302.89062,344.92969 c -2.5664,3.57812 -5.35156,6.97265 -8.35156,10.19531 -2.35156,2.53125 -6.19922,4.94141 -7.66015,8.04687 -0.30079,0.63672 0.21093,1.62891 1.01953,1.32813 3.52343,-1.3125 6.23828,-5.48828 8.64062,-8.27734 2.84375,-3.30079 5.45313,-6.79297 7.9375,-10.36329 0.67969,-0.97656 -0.90625,-1.875 -1.58594,-0.92968"
           fill-opacity="1"
           fill-rule="evenodd"
           id="path80"
           style="stroke-width:1.12625" />
        <path
           fill="#c7daf5"
           d="m 313.05469,335.00391 c -5.87891,9.92578 -13.20313,18.61718 -19.64063,28.11718 -0.83984,1.24219 1.0586,2.6875 2.07422,1.59766 7.73828,-8.29688 13.64063,-18.93359 19.19922,-28.75781 0.60156,-1.0625 -1.01172,-2.00391 -1.63281,-0.95703"
           fill-opacity="1"
           fill-rule="evenodd"
           id="path81"
           style="stroke-width:1.12625" />
        <path
           fill="#c7daf5"
           d="m 309.92969,354.10547 c -3.15625,2.73828 -5.94532,5.80859 -8.34375,9.22656 -1.92578,2.75 -4.71094,6.29297 -4.19141,9.79297 0.10547,0.71875 1.17578,1.13672 1.75,0.71094 2.56641,-1.89844 3.46875,-5.58203 5.14844,-8.25782 2.17578,-3.46093 4.84375,-6.5039 7.84375,-9.26171 1.49219,-1.3711 -0.70313,-3.51563 -2.20703,-2.21094"
           fill-opacity="1"
           fill-rule="evenodd"
           id="path82"
           style="stroke-width:1.12625" />
        <path
           fill="#c7daf5"
           d="m 528.40625,17.246094 c -36.10547,3.644531 -70.51172,20.246094 -99.83594,40.929687 -0.8789,0.621094 -0.0625,2.074219 0.85156,1.460938 C 459.875,39.175781 493.42578,27.878906 528.59375,18.625 c 0.74219,-0.195312 0.62109,-1.460938 -0.1875,-1.378906"
           fill-opacity="1"
           fill-rule="evenodd"
           id="path83"
           style="stroke-width:1.12625" />
        <path
           fill="#c7daf5"
           d="m 535.96094,28.960938 c -9.07422,-2.453126 -20.26563,0.90625 -28.91407,3.734374 -1.18359,0.386719 -0.69531,2.234376 0.51954,1.882813 5.1875,-1.519531 10.46875,-2.625 15.85546,-3.160156 4.19532,-0.414063 8.41407,-0.253907 12.53907,-1.210938 0.625,-0.148437 0.59765,-1.082031 0,-1.246093"
           fill-opacity="1"
           fill-rule="evenodd"
           id="path84"
           style="stroke-width:1.12625" />
        <path
           fill="#c7daf5"
           d="m 531.47266,39.105469 c -6.66407,-1.335938 -14.27735,0.08594 -20.78907,1.710937 -1.44922,0.367188 -0.83593,2.585938 0.61719,2.242188 6.71484,-1.585938 13.11328,-1.320313 19.88281,-1.816406 1.14844,-0.08203 1.57422,-1.882813 0.28907,-2.136719"
           fill-opacity="1"
           fill-rule="evenodd"
           id="path85"
           style="stroke-width:1.12625" />
        <path
           fill="#c7daf5"
           d="m 670.41797,106.71484 c -16.44531,-21.843746 -42.7461,-34.671871 -69.34375,-38.699215 -0.71485,-0.105469 -1.03906,0.976563 -0.30469,1.109375 27.23828,4.914062 49.14063,19.226562 68.37109,38.58203 0.63282,0.63281 1.85157,-0.23047 1.27735,-0.99219"
           fill-opacity="1"
           fill-rule="evenodd"
           id="path86"
           style="stroke-width:1.12625" />
        <path
           fill="#c7daf5"
           d="M 974.44531,469.08984 C 922.84766,472 873.77344,457.47656 834.21875,423.46484 797.69922,392.06641 773.19531,348.72656 760.52734,302.60156 c -0.17578,-0.64062 -1.16406,-0.37109 -0.99609,0.27344 12.35547,48.0625 37.22656,93.65234 75.70312,125.73047 37.52735,31.29687 90.3086,51.32422 139.47657,42.42578 1.09765,-0.19531 0.84375,-2.00391 -0.26563,-1.94141"
           fill-opacity="1"
           fill-rule="evenodd"
           id="path87"
           style="stroke-width:1.12625" />
        <path
           fill="#c7daf5"
           d="m 774.19922,170.61328 c -0.55469,-0.66016 -1.45313,0.27734 -0.9336,0.93359 15.15625,19.15235 25.73829,40.5 34.08204,63.3711 0.29687,0.8164 1.55468,0.5 1.32421,-0.36719 -6.30468,-23.71484 -18.80468,-45.21094 -34.47265,-63.9375"
           fill-opacity="1"
           fill-rule="evenodd"
           id="path88"
           style="stroke-width:1.12625" />
        <path
           fill="#c7daf5"
           d="m 913.17969,367.78906 c -31.1211,-25.44922 -65.25782,-50.4375 -74.59766,-92.01562 -0.16406,-0.70703 -1.21484,-0.40235 -1.07812,0.29687 7.76171,41.33203 41.44531,70.57031 74.73437,92.92969 0.72266,0.48437 1.62891,-0.65234 0.94141,-1.21094"
           fill-opacity="1"
           fill-rule="evenodd"
           id="path89"
           style="stroke-width:1.12625" />
        <path
           fill="#c7daf5"
           d="m 914.33984,351.54297 c -7.78125,-6.38281 -16.46093,-11.5 -24.04297,-18.20313 -8.28125,-7.32422 -15.66015,-15.50781 -22.28125,-24.34375 -0.59765,-0.80078 -1.96484,-0.0391 -1.36718,0.79297 11.76562,16.35156 27.89843,34.71875 46.78906,42.92188 0.69922,0.30468 1.62109,-0.58203 0.90234,-1.16797"
           fill-opacity="1"
           fill-rule="evenodd"
           id="path90"
           style="stroke-width:1.12625" />
        <path
           fill="#c7daf5"
           d="m 926.85547,339.36328 c -17.14453,-6.83594 -31.66797,-15.76172 -41.625,-31.77734 -0.66016,-1.0625 -2.34766,-0.082 -1.6836,0.98437 9.5586,15.37891 24.75,28.75391 43,31.92969 0.75391,0.12891 1.01172,-0.85547 0.3086,-1.13672"
           fill-opacity="1"
           fill-rule="evenodd"
           id="path91"
           style="stroke-width:1.12625" />
        <path
           fill="#c7daf5"
           d="M 935.41406,321.76172 C 916.48828,312.48437 899.52344,302.96875 884.79297,287.5 c -0.57813,-0.60156 -1.47656,0.30469 -0.91406,0.91406 13.71875,14.91016 31.29687,28.78516 50.91015,34.8125 0.85938,0.26563 1.44531,-1.05859 0.625,-1.46484"
           fill-opacity="1"
           fill-rule="evenodd"
           id="path92"
           style="stroke-width:1.12625" />
        <path
           fill="#c7daf5"
           d="m 958.73437,314.85156 c -12.7539,-8.59375 -26.76953,-15.19531 -39.53515,-23.83594 -14.17969,-9.59375 -27,-20.73046 -37.21485,-34.53515 -0.57421,-0.77344 -1.89062,-0.0274 -1.30859,0.76953 18.64844,25.78906 48.11719,46.51562 77.07422,59.28516 1.13281,0.5 2.04297,-0.96875 0.98437,-1.6836"
           fill-opacity="1"
           fill-rule="evenodd"
           id="path93"
           style="stroke-width:1.12625" />
        <path
           fill="#c7daf5"
           d="m 915.88672,439.41797 c -44.90625,-9.13672 -76.55078,-36.07422 -103.86328,-68.65235 -16.25782,-26.15234 -31.50782,-51.36718 -42.78516,-80.25781 -10.79687,-27.64844 -19.08203,-56.19531 -27.67578,-84.58203 -0.082,-0.26172 -0.47266,-0.15234 -0.40625,0.11328 7.69141,30.96485 15.91406,61.87891 27.35937,91.70703 4.88672,12.73438 10.33204,25.80078 16.80469,38.29297 -2.58203,-3.5664 -5.15234,-7.14062 -7.71875,-10.72265 -0.375,-0.51954 -1.23047,-0.0547 -0.875,0.51171 31.22266,50.59375 74.39453,109.81641 138.85938,115.79297 1.2539,0.11719 1.53125,-1.95312 0.30078,-2.20312"
           fill-opacity="1"
           fill-rule="nonzero"
           id="path94"
           style="stroke-width:1.12625" />
        <path
           fill="#c7daf5"
           d="m 903.91406,416.95312 c -14.01172,-6.17578 -27.40625,-11.30859 -39.44531,-21.14062 -0.93359,-0.76172 -2.28125,0.53516 -1.34375,1.34766 11.28125,9.77734 24.75391,19.41796 39.64453,22.5039 1.53906,0.31641 2.77344,-1.99609 1.14453,-2.71094"
           fill-opacity="1"
           fill-rule="nonzero"
           id="path95"
           style="stroke-width:1.12625" />
        <path
           fill="#c7daf5"
           d="m 993.69922,437.70703 c -4.125,-0.94531 -8.44141,-0.76172 -12.64844,-1.17578 -5.35156,-0.53125 -10.62109,-1.45313 -15.86719,-2.62891 -1.40234,-0.3125 -2,1.79688 -0.58984,2.16407 8.90234,2.32812 19.84766,5.49218 29.10547,4.13281 1.28515,-0.1875 1.17969,-2.22266 0,-2.49219"
           fill-opacity="1"
           fill-rule="nonzero"
           id="path96"
           style="stroke-width:1.12625" />
        <path
           fill="#c7daf5"
           d="m 984.93359,446.00391 c -2.52734,-0.34766 -5.01953,0.0976 -7.55468,0.23828 -2.80469,0.16015 -5.60938,0.15625 -8.41407,0.0391 -1.92578,-0.0781 -1.875,2.80469 0,2.96484 4.91407,0.41797 11.27735,1.2461 15.96875,-0.58984 1.08203,-0.42578 1.50782,-2.44922 0,-2.65234"
           fill-opacity="1"
           fill-rule="nonzero"
           id="path97"
           style="stroke-width:1.12625" />
        <path
           fill="#c7daf5"
           d="m 983.20703,458.28516 c -1.29687,0.0156 -2.49219,0.23437 -3.75781,0.48437 -1.73828,0.34375 -1,2.99609 0.73047,2.65234 1.15234,-0.22656 2.23047,-0.45703 3.32812,-0.89062 1.12891,-0.44531 1.08203,-2.26563 -0.30078,-2.24609"
           fill-opacity="1"
           fill-rule="nonzero"
           id="path98"
           style="stroke-width:1.12625" />
        <path
           fill="#c7daf5"
           d="m 483.0625,49.398438 c -36.70703,1.554687 -70.96094,25.160156 -93.92969,52.363282 -0.6289,0.74219 0.42969,1.82031 1.07813,1.07422 25.17968,-29.050784 56.97656,-41.906252 93.09765,-51.64844 0.97266,-0.261719 0.80078,-1.832031 -0.24609,-1.789062"
           fill-opacity="1"
           fill-rule="nonzero"
           id="path99"
           style="stroke-width:1.12625" />
        <path
           fill="#c7daf5"
           d="m 346.96094,264.09766 c -5.91016,7.76171 -13.73438,17.28125 -15.80469,27.01953 -0.22266,1.04297 1.17969,2.15625 1.98437,1.15625 3.08985,-3.86328 4.96875,-8.57813 7.42188,-12.85157 2.73047,-4.77343 5.74609,-9.36328 8.96094,-13.83203 1.125,-1.5625 -1.42969,-2.98047 -2.5625,-1.49218"
           fill-opacity="1"
           fill-rule="nonzero"
           id="path100"
           style="stroke-width:1.12625" />
        <path
           fill="#c7daf5"
           d="m 351.98437,269.33594 c -1.40625,9.45312 -6.23828,17.71093 -12.05859,25.12109 -0.75391,0.96094 0.38672,2.14453 1.34766,1.34766 8.01953,-6.64453 11.57812,-16.01563 12.78906,-26.1875 0.14453,-1.17188 -1.90234,-1.46094 -2.07813,-0.28125"
           fill-opacity="1"
           fill-rule="nonzero"
           id="path101"
           style="stroke-width:1.12625" />
        <path
           fill="#c7daf5"
           d="m 864.00391,217.23047 c -0.88672,-2.4375 -2.92579,-4.21094 -4.58594,-6.14453 -2.13672,-2.49219 -4.13281,-5.09375 -6.03906,-7.76172 -0.76563,-1.06641 -2.54688,-0.0742 -1.79297,1.04687 1.78906,2.66797 3.65625,5.27344 5.60547,7.82422 1.625,2.12891 3.22265,4.70703 5.69531,5.89844 0.54297,0.25781 1.36328,-0.18359 1.11719,-0.86328"
           fill-opacity="1"
           fill-rule="nonzero"
           id="path102"
           style="stroke-width:1.12625" />
        <path
           fill="#c7daf5"
           d="m 684.14453,122.86719 c -0.59766,-0.82422 -1.90234,-0.11328 -1.38672,0.8125 3.28125,5.87109 6.49219,12.26562 11.10938,17.21875 0.48047,0.51172 1.52734,-0.0195 1.23828,-0.71875 -2.57031,-6.26953 -7,-11.85938 -10.96094,-17.3125"
           fill-opacity="1"
           fill-rule="nonzero"
           id="path103"
           style="stroke-width:1.12625" />
        <path
           fill="#c7daf5"
           d="m 684.86328,101.99219 c -0.50391,-0.60547 -1.57031,0.20703 -1.10547,0.84765 15.44141,21.07422 26.32031,43.60547 37.26172,67.17188 0.51172,1.09765 2.27344,0.3164 1.9375,-0.81641 -7.30078,-24.72656 -21.80859,-47.46484 -38.09375,-67.20312"
           fill-opacity="1"
           fill-rule="nonzero"
           id="path104"
           style="stroke-width:1.12625" />
        <path
           fill="#c7daf5"
           d="m 813.11328,350.45703 c -13.79297,-17.38281 -24.39844,-35.09375 -30.23437,-56.69531 -0.28907,-1.05469 -1.89063,-0.61328 -1.63282,0.44922 5.10938,21.37109 14.82813,41.95312 30.4375,57.67968 0.94141,0.95313 2.22266,-0.4375 1.42969,-1.43359"
           fill-opacity="1"
           fill-rule="nonzero"
           id="path105"
           style="stroke-width:1.12625" />
        <path
           fill="#c7daf5"
           d="M 861.78906,380.51953 C 846.98828,364.19922 831.17187,350.14844 818.75,331.64844 c -12.22656,-18.20703 -21.81641,-37.82813 -28.5,-58.71875 -0.30078,-0.92578 -1.75,-0.53907 -1.47266,0.40625 11.78907,40.05078 35.28125,85.88281 71.44922,109.21093 1.27735,0.82422 2.51563,-0.97656 1.5625,-2.02734"
           fill-opacity="1"
           fill-rule="nonzero"
           id="path106"
           style="stroke-width:1.12625" />
        <path
           fill="#c7daf5"
           d="M 739.63672,80.640625 C 688.46484,27.136719 607.54297,2.0625 535.04687,15.59375 534.21094,15.75 534.39062,17.191406 535.25,17.089844 610.41016,8.1875 681.6875,32.003906 737.36328,82.917969 c 1.52734,1.394531 3.71484,-0.773438 2.27344,-2.277344"
           fill-opacity="1"
           fill-rule="evenodd"
           id="path107"
           style="stroke-width:1.12625" />
        <path
           fill="#c7daf5"
           d="m 770.24219,108.21875 c -1.53907,-2.86719 -4.67969,-5.16797 -7.10157,-7.28125 -2.54687,-2.226562 -5.21093,-4.300781 -7.96484,-6.265625 -0.66016,-0.464844 -1.51953,0.625 -0.87109,1.132813 2.73437,2.144531 5.375,4.410152 7.86718,6.839842 2.25782,2.20313 4.1875,5.08203 6.76954,6.87891 0.82031,0.57422 1.71875,-0.52344 1.30078,-1.30469"
           fill-opacity="1"
           fill-rule="evenodd"
           id="path108"
           style="stroke-width:1.12625" />
      </g>
    </g>
  </g>
</svg>
