<svg xmlns="http://www.w3.org/2000/svg" xmlns:xlink="http://www.w3.org/1999/xlink" width="1920" zoomAndPan="magnify" viewBox="0 0 1440 809.999993" height="1080" preserveAspectRatio="xMidYMid meet" version="1.0"><defs><filter x="0%" y="0%" width="100%" height="100%" id="1e488d47e9"><feColorMatrix values="0 0 0 0 1 0 0 0 0 1 0 0 0 0 1 0 0 0 1 0" color-interpolation-filters="sRGB"/></filter><mask id="f4fe20bf5c"><g filter="url(#1e488d47e9)"><rect x="-144" width="1728" fill="#000000" y="-80.999999" height="971.999992" fill-opacity="0.4"/></g></mask><clipPath id="6d6f706644"><path d="M 1.234375 1.792969 L 530 1.792969 L 530 512 L 1.234375 512 Z M 1.234375 1.792969 " clip-rule="nonzero"/></clipPath><clipPath id="b6bca3eb9c"><rect x="0" width="531" y="0" height="512"/></clipPath></defs><rect x="-144" width="1728" fill="#ffffff" y="-80.999999" height="971.999992" fill-opacity="1"/><rect x="-144" width="1728" fill="#10151b" y="-80.999999" height="971.999992" fill-opacity="1"/><g mask="url(#f4fe20bf5c)"><g transform="matrix(1, 0, 0, 1, 874, 298)"><g clip-path="url(#b6bca3eb9c)"><g clip-path="url(#6d6f706644)"><path fill="#9badd6" d="M 527.992188 258.648438 L 504.164062 245.410156 L 504.164062 240.113281 L 522.699219 221.578125 C 525.34375 218.933594 525.34375 213.636719 522.699219 210.988281 L 520.050781 208.339844 L 496.21875 200.398438 C 496.21875 197.75 496.21875 195.101562 493.574219 195.101562 L 509.460938 173.921875 C 512.109375 171.273438 512.109375 165.976562 506.8125 163.328125 C 506.8125 163.328125 504.164062 163.328125 504.164062 160.683594 L 477.6875 155.386719 C 477.6875 152.738281 475.039062 152.738281 475.039062 150.089844 L 485.628906 126.261719 L 485.628906 118.316406 C 482.984375 115.671875 480.335938 115.671875 477.6875 115.671875 L 451.210938 115.671875 C 451.210938 115.671875 451.210938 113.023438 448.5625 113.023438 L 453.855469 86.546875 C 453.855469 81.25 451.210938 78.601562 448.5625 78.601562 L 445.914062 78.601562 L 419.4375 83.898438 C 419.4375 81.25 416.789062 81.25 414.140625 78.601562 L 414.140625 52.125 C 414.140625 46.828125 411.496094 44.183594 406.199219 44.183594 L 403.550781 44.183594 L 379.722656 54.773438 L 377.074219 54.773438 L 371.777344 28.296875 C 371.777344 23 366.480469 20.351562 363.832031 23 L 361.1875 23 L 340.007812 38.886719 C 337.359375 38.886719 334.710938 38.886719 334.710938 36.238281 L 326.765625 12.410156 C 324.117188 9.761719 321.472656 7.113281 316.175781 7.113281 C 316.175781 7.113281 313.527344 7.113281 313.527344 9.761719 L 292.34375 28.296875 L 287.050781 28.296875 L 273.8125 7.113281 C 271.164062 1.816406 265.867188 1.816406 260.574219 1.816406 L 257.925781 4.464844 L 244.6875 28.296875 L 239.390625 28.296875 L 220.855469 9.761719 C 218.210938 7.113281 212.914062 7.113281 210.265625 9.761719 L 207.617188 12.410156 L 199.675781 36.238281 C 197.027344 36.238281 194.378906 36.238281 194.378906 38.886719 L 173.199219 23 C 167.902344 20.351562 162.605469 20.351562 159.960938 25.648438 L 159.960938 28.296875 L 154.664062 54.773438 C 154.664062 54.773438 152.015625 54.773438 149.367188 57.421875 L 125.539062 46.828125 C 122.890625 44.183594 117.59375 46.828125 114.949219 49.476562 L 114.949219 78.601562 C 114.949219 81.25 112.300781 81.25 112.300781 83.898438 L 85.824219 78.601562 C 80.527344 75.953125 77.878906 78.601562 77.878906 83.898438 L 77.878906 86.546875 L 83.175781 113.023438 C 80.527344 113.023438 80.527344 115.671875 77.878906 115.671875 L 51.402344 115.671875 C 46.105469 115.671875 43.460938 118.316406 43.460938 123.613281 L 43.460938 126.261719 L 54.050781 150.089844 L 54.050781 155.386719 L 27.574219 160.683594 C 22.277344 160.683594 19.628906 165.976562 19.628906 168.625 L 19.628906 171.273438 L 35.515625 192.453125 C 35.515625 195.101562 35.515625 197.75 32.867188 197.75 L 11.6875 208.339844 C 9.039062 210.988281 6.390625 213.636719 6.390625 218.933594 C 6.390625 218.933594 6.390625 221.578125 9.039062 221.578125 L 27.574219 240.113281 L 27.574219 245.410156 L 6.390625 258.648438 C 1.09375 261.296875 1.09375 266.589844 1.09375 269.238281 L 3.742188 271.886719 L 27.574219 287.773438 L 27.574219 293.070312 L 9.039062 311.605469 C 6.390625 314.25 6.390625 319.546875 9.039062 322.195312 L 11.6875 324.839844 L 35.515625 332.785156 C 35.515625 335.429688 35.515625 338.078125 38.164062 338.078125 L 22.277344 359.261719 C 19.628906 361.910156 19.628906 367.203125 24.925781 369.851562 C 24.925781 369.851562 27.574219 369.851562 27.574219 372.5 L 54.050781 377.796875 C 54.050781 380.445312 56.699219 380.445312 56.699219 383.09375 L 46.105469 406.921875 C 43.460938 409.570312 46.105469 414.863281 48.753906 417.511719 L 77.878906 417.511719 C 80.527344 417.511719 80.527344 420.160156 83.175781 420.160156 L 77.878906 446.636719 C 77.878906 451.933594 80.527344 454.582031 83.175781 454.582031 L 85.824219 454.582031 L 112.300781 449.285156 C 112.300781 451.933594 114.949219 451.933594 117.59375 454.582031 L 117.59375 481.058594 C 117.59375 486.351562 120.242188 489 125.539062 489 L 128.1875 489 L 152.015625 478.410156 L 154.664062 478.410156 L 159.960938 504.886719 C 159.960938 510.183594 165.253906 512.832031 167.902344 510.183594 L 170.550781 510.183594 L 191.730469 494.296875 C 194.378906 494.296875 197.027344 494.296875 197.027344 496.941406 L 204.972656 520.773438 C 207.617188 523.421875 210.265625 526.070312 215.5625 526.070312 C 215.5625 526.070312 218.210938 526.070312 218.210938 523.421875 L 239.390625 504.886719 L 244.6875 504.886719 L 257.925781 526.070312 C 260.574219 528.714844 265.867188 531.363281 268.515625 528.714844 L 271.164062 526.070312 L 284.402344 504.886719 L 289.699219 504.886719 L 308.234375 523.421875 C 310.878906 526.070312 316.175781 526.070312 318.824219 523.421875 L 321.472656 520.773438 L 329.414062 496.941406 C 332.0625 496.941406 334.710938 496.941406 334.710938 494.296875 L 355.890625 510.183594 C 358.539062 512.832031 363.832031 512.832031 366.480469 507.535156 C 366.480469 507.535156 366.480469 504.886719 369.132812 504.886719 L 374.425781 478.410156 C 377.074219 478.410156 377.074219 475.761719 379.722656 475.761719 L 403.550781 486.351562 C 406.199219 489 411.496094 486.351562 414.140625 483.707031 L 414.140625 454.582031 L 419.4375 449.285156 L 445.914062 454.582031 C 451.210938 454.582031 453.855469 451.933594 453.855469 449.285156 L 453.855469 446.636719 L 448.5625 420.160156 L 453.855469 414.863281 L 480.335938 414.863281 C 485.628906 414.863281 488.277344 412.21875 488.277344 406.921875 L 488.277344 404.273438 L 477.6875 380.445312 C 477.6875 377.796875 480.335938 377.796875 480.335938 375.148438 L 506.8125 369.851562 C 512.109375 369.851562 514.753906 364.558594 512.109375 361.910156 L 512.109375 359.261719 L 496.21875 338.078125 L 498.867188 332.785156 L 522.699219 324.839844 C 525.34375 322.195312 527.992188 319.546875 527.992188 314.25 C 527.992188 314.25 527.992188 311.605469 525.34375 311.605469 L 504.164062 293.070312 L 504.164062 287.773438 L 525.34375 274.53125 C 530.640625 271.886719 530.640625 266.589844 527.992188 258.648438 C 527.992188 261.296875 527.992188 261.296875 527.992188 258.648438 Z M 377.074219 443.992188 C 369.132812 441.34375 363.832031 433.398438 363.832031 425.453125 C 366.480469 417.511719 374.425781 412.21875 382.367188 412.21875 C 390.3125 414.863281 395.605469 422.808594 395.605469 430.75 C 395.605469 441.34375 387.664062 446.636719 377.074219 443.992188 Z M 371.777344 393.683594 C 363.832031 391.035156 355.890625 396.328125 355.890625 404.273438 L 345.300781 441.34375 C 321.472656 451.933594 294.992188 457.226562 265.867188 457.226562 C 236.746094 457.226562 210.265625 451.933594 183.789062 438.691406 L 175.847656 401.625 C 173.199219 393.683594 167.902344 388.386719 159.960938 391.035156 L 128.1875 398.976562 C 122.890625 393.683594 117.59375 385.738281 112.300781 380.445312 L 271.164062 380.445312 C 273.8125 380.445312 273.8125 380.445312 273.8125 377.796875 L 273.8125 322.195312 C 273.8125 319.546875 273.8125 319.546875 271.164062 319.546875 L 226.152344 319.546875 L 226.152344 285.125 L 276.460938 285.125 C 281.753906 285.125 300.289062 285.125 308.234375 311.605469 C 310.878906 319.546875 313.527344 346.023438 318.824219 353.964844 C 321.472656 361.910156 334.710938 380.445312 347.949219 380.445312 L 430.027344 380.445312 C 424.730469 388.386719 419.4375 393.683594 411.496094 401.625 Z M 152.015625 443.992188 C 144.074219 446.636719 136.128906 441.34375 133.480469 430.75 C 130.835938 422.808594 136.128906 414.863281 146.722656 412.21875 C 157.3125 409.570312 162.605469 414.863281 165.253906 425.453125 C 165.253906 433.398438 159.960938 441.34375 152.015625 443.992188 Z M 91.117188 200.398438 C 93.765625 208.339844 91.117188 218.933594 83.175781 221.578125 C 75.230469 224.226562 64.640625 221.578125 61.992188 213.636719 C 59.34375 205.695312 61.992188 195.101562 69.9375 192.453125 C 80.527344 189.808594 88.46875 192.453125 91.117188 200.398438 Z M 72.585938 242.761719 L 107.003906 229.523438 C 114.949219 226.875 117.59375 218.933594 114.949219 210.988281 L 107.003906 195.101562 L 133.480469 195.101562 L 133.480469 319.546875 L 80.527344 319.546875 C 72.585938 293.070312 69.9375 269.238281 72.585938 242.761719 Z M 220.855469 232.171875 L 220.855469 195.101562 L 287.050781 195.101562 C 289.699219 195.101562 310.878906 197.75 310.878906 213.636719 C 310.878906 226.875 294.992188 232.171875 281.753906 232.171875 Z M 459.152344 263.941406 L 459.152344 277.183594 L 437.972656 277.183594 C 435.324219 277.183594 435.324219 277.183594 435.324219 279.832031 L 435.324219 287.773438 C 435.324219 308.957031 422.085938 314.25 411.496094 314.25 C 400.90625 314.25 390.3125 308.957031 387.664062 303.660156 C 382.367188 269.238281 371.777344 263.941406 355.890625 250.707031 C 374.425781 237.464844 395.605469 218.933594 395.605469 195.101562 C 395.605469 168.625 377.074219 152.738281 366.480469 144.796875 C 347.949219 134.203125 329.414062 131.558594 324.117188 131.558594 L 122.890625 131.558594 C 152.015625 99.785156 189.085938 78.601562 231.449219 70.660156 L 255.277344 97.136719 C 260.574219 102.433594 268.515625 102.433594 276.460938 97.136719 L 302.9375 70.660156 C 358.539062 81.25 406.199219 115.671875 435.324219 165.976562 L 416.789062 208.339844 C 414.140625 216.285156 416.789062 224.226562 424.730469 226.875 L 459.152344 242.761719 Z M 255.277344 52.125 C 260.574219 46.828125 271.164062 46.828125 276.460938 52.125 C 281.753906 57.421875 281.753906 68.011719 276.460938 73.308594 C 268.515625 81.25 260.574219 81.25 252.628906 73.308594 C 247.335938 68.011719 249.984375 60.066406 255.277344 52.125 Z M 437.972656 200.398438 C 440.621094 192.453125 451.210938 189.808594 459.152344 192.453125 C 467.097656 195.101562 469.746094 205.695312 467.097656 213.636719 C 464.449219 221.578125 453.855469 224.226562 445.914062 221.578125 C 437.972656 218.933594 435.324219 208.339844 437.972656 200.398438 Z M 437.972656 200.398438 " fill-opacity="1" fill-rule="nonzero"/></g></g></g></g></svg>