<svg xmlns="http://www.w3.org/2000/svg" xmlns:xlink="http://www.w3.org/1999/xlink" width="1920" zoomAndPan="magnify" viewBox="0 0 1440 809.999993" height="1080" preserveAspectRatio="xMidYMid meet" version="1.0"><rect x="-144" width="1728" fill="#ffffff" y="-80.999999" height="971.999992" fill-opacity="1"/><rect x="-144" width="1728" fill="#10151b" y="-80.999999" height="971.999992" fill-opacity="1"/><path fill="#9badd6" d="M 1399.402344 655.398438 C 1397.328125 621.167969 1390.484375 586.734375 1365.175781 561.84375 C 1363.722656 560.390625 1352.523438 547.320312 1333.851562 535.703125 C 1323.273438 529.273438 1316.84375 525.539062 1305.433594 521.183594 C 1256.683594 502.515625 1179.519531 521.597656 1143.007812 554.375 C 1132.636719 563.710938 1141.558594 554.789062 1129.316406 567.441406 C 1113.550781 583.832031 1102.972656 601.878906 1083.472656 618.679688 C 1082.644531 619.300781 1080.984375 620.339844 1079.117188 621.792969 C 1078.082031 622.621094 1077.042969 623.242188 1074.347656 624.902344 C 1067.085938 616.605469 1060.449219 610.796875 1061.484375 611.628906 C 1056.300781 607.0625 1058.375 608.101562 1051.941406 602.914062 C 1049.660156 601.046875 1042.816406 595.65625 1029.953125 585.488281 C 1023.316406 580.304688 1015.640625 574.910156 1007.34375 569.515625 C 1009.625 567.859375 1011.699219 565.992188 1013.773438 563.710938 C 1024.769531 551.886719 1030.785156 543.171875 1034.519531 527.613281 C 1036.179688 521.183594 1035.96875 517.65625 1036.179688 514.546875 C 1022.070312 523.257812 1010.664062 523.671875 997.386719 532.800781 C 989.917969 537.78125 983.488281 544.003906 978.300781 551.46875 C 974.777344 549.394531 971.457031 547.113281 967.929688 544.832031 C 971.871094 540.683594 978.09375 537.363281 989.089844 528.859375 C 988.257812 529.480469 993.03125 525.539062 995.3125 523.882812 C 1001.742188 518.902344 1014.8125 502.929688 1020.414062 490.898438 C 1024.5625 482.1875 1026.429688 472.019531 1026.84375 462.0625 C 1028.089844 464.761719 1029.125 466.835938 1030.578125 469.738281 C 1031.40625 471.398438 1039.496094 485.503906 1041.363281 488.203125 C 1089.90625 562.050781 1178.273438 543.378906 1212.707031 483.84375 C 1216.648438 482.1875 1217.894531 481.5625 1225.15625 482.394531 C 1239.46875 483.84375 1273.074219 495.875 1300.871094 483.222656 C 1307.921875 479.902344 1306.886719 480.527344 1306.261719 480.734375 C 1310.410156 478.453125 1319.332031 472.644531 1322.441406 470.15625 C 1329.703125 464.347656 1335.097656 456.671875 1338.207031 452.523438 C 1341.941406 447.335938 1342.980469 448.164062 1338 447.335938 C 1338 447.335938 1320.367188 443.394531 1310.410156 443.601562 C 1289.253906 444.015625 1281.578125 446.714844 1281.785156 446.714844 C 1266.847656 450.449219 1267.058594 452.316406 1270.582031 448.789062 C 1276.597656 442.773438 1282.199219 433.851562 1284.6875 429.703125 C 1287.386719 427.628906 1287.59375 426.59375 1293.816406 424.933594 C 1307.921875 420.785156 1325.140625 417.671875 1339.246094 404.398438 C 1344.847656 399.625 1350.238281 390.289062 1351.898438 384.898438 C 1352.105469 383.859375 1352.3125 384.273438 1350.238281 384.691406 C 1322.234375 391.535156 1312.902344 396.515625 1297.550781 408.546875 C 1292.15625 412.695312 1292.363281 416.429688 1295.890625 405.847656 C 1298.796875 397.34375 1298.796875 392.78125 1304.1875 387.800781 C 1314.976562 377.84375 1325.96875 364.566406 1331.570312 350.878906 C 1334.472656 344.03125 1338 335.527344 1338.625 328.058594 C 1340.90625 301.714844 1326.175781 275.992188 1326.175781 275.992188 C 1308.542969 297.359375 1288.214844 309.597656 1289.046875 348.804688 C 1289.460938 366.851562 1291.742188 368.925781 1295.476562 383.652344 C 1296.722656 389.667969 1295.890625 389.460938 1294.855469 394.230469 C 1289.875 415.183594 1281.578125 428.667969 1269.339844 443.394531 C 1279.710938 420.785156 1276.808594 389.253906 1266.851562 372.867188 C 1255.855469 354.820312 1248.59375 349.839844 1233.867188 340.503906 C 1230.546875 378.882812 1225.777344 403.773438 1248.386719 437.378906 C 1252.953125 444.015625 1257.101562 448.789062 1259.175781 451.277344 C 1260.417969 452.730469 1260.625 451.898438 1259.175781 453.351562 C 1247.144531 463.722656 1230.960938 472.644531 1214.78125 478.867188 C 1217.480469 473.679688 1219.554688 468.289062 1221.421875 462.480469 C 1226.8125 445.054688 1228.265625 413.523438 1219.554688 388.007812 C 1212.707031 367.472656 1206.691406 360.628906 1199.433594 351.085938 C 1175.160156 319.140625 1156.90625 317.894531 1134.503906 285.949219 C 1127.867188 276.613281 1119.570312 259.191406 1120.8125 247.78125 C 1124.546875 227.453125 1160.847656 202.351562 1136.371094 146.964844 C 1131.183594 135.140625 1127.449219 129.125 1119.984375 111.699219 C 1117.078125 104.855469 1112.929688 89.917969 1102.765625 87.636719 C 1081.398438 81 1072.894531 100.085938 1066.878906 116.472656 C 1060.449219 134.105469 1047.585938 147.585938 1042.195312 165.84375 C 1030.371094 206.707031 1053.808594 215.003906 1054.433594 246.742188 C 1055.054688 278.894531 1059.410156 294.867188 1068.125 313.332031 C 1074.554688 327.023438 1080.777344 333.039062 1087.414062 341.75 C 1117.285156 379.917969 1164.582031 398.171875 1159.8125 434.683594 C 1157.945312 448.789062 1147.574219 461.234375 1133.675781 464.761719 C 1118.324219 468.703125 1106.707031 460.613281 1096.128906 450.863281 C 1070.820312 423.6875 1077.042969 396.304688 1048.210938 353.988281 C 1041.988281 344.863281 1025.183594 328.679688 1010.871094 319.761719 C 989.710938 306.277344 952.996094 297.566406 918.144531 303.789062 C 894.707031 307.9375 869.8125 318.515625 852.386719 335.113281 C 837.660156 349.21875 830.605469 356.6875 821.066406 373.902344 C 800.941406 410.621094 805.507812 451.898438 822.101562 488.410156 C 819.40625 486.128906 817.539062 484.882812 817.539062 484.882812 C 817.332031 484.675781 815.878906 483.222656 815.046875 482.601562 C 812.972656 491.9375 807.375 507.492188 816.5 543.796875 C 817.746094 548.980469 822.722656 561.84375 829.984375 574.703125 C 835.378906 584.453125 846.164062 595.449219 831.644531 580.511719 C 830.191406 579.058594 820.441406 567.441406 816.5 562.257812 C 802.1875 542.550781 801.773438 547.113281 795.964844 531.347656 C 785.386719 502.101562 766.714844 484.054688 734.976562 477.621094 C 732.074219 477 731.660156 477 730.828125 476.792969 C 734.5625 491.9375 726.679688 532.800781 788.703125 542.964844 C 797.210938 544.417969 796.378906 541.304688 811.523438 561.636719 C 837.453125 596.484375 828.738281 571.175781 780.613281 563.917969 C 768.375 562.050781 759.457031 562.671875 749.289062 564.125 C 737.050781 565.785156 731.242188 568.480469 720.042969 573.457031 C 739.542969 583.832031 769.203125 621.167969 814.839844 599.597656 C 815.257812 599.390625 816.914062 598.765625 815.671875 599.179688 C 823.761719 596.277344 829.777344 592.75 836.621094 592.128906 C 839.941406 591.921875 836.828125 591.921875 847.617188 598.972656 C 859.855469 607.269531 862.96875 608.101562 880.183594 616.191406 C 872.09375 616.605469 860.894531 620.132812 853.839844 622.828125 C 845.335938 626.355469 850.9375 625.320312 842.222656 623.660156 C 829.984375 621.585938 812.558594 623.035156 797.625 629.882812 C 781.027344 637.351562 782.480469 641.082031 769.414062 652.492188 C 782.480469 655.191406 811.316406 671.164062 841.1875 639.425781 C 843.675781 636.933594 848.03125 631.125 849.691406 629.46875 C 852.800781 626.769531 865.664062 622.828125 869.605469 621.585938 C 857.574219 633.824219 849.277344 645.648438 849.898438 662.863281 C 850.3125 675.519531 853.632812 682.988281 855.292969 688.378906 C 860.0625 684.4375 869.191406 678.628906 875.207031 665.5625 C 878.730469 657.886719 881.84375 642.328125 879.5625 631.125 C 879.5625 631.125 877.695312 623.660156 876.035156 620.339844 C 883.296875 619.09375 888.273438 619.511719 887.238281 619.511719 C 887.859375 619.511719 903.210938 626.355469 914.203125 629.261719 C 936.398438 634.859375 947.394531 635.277344 945.527344 635.066406 C 981.621094 638.386719 966.480469 630.710938 944.699219 649.382812 C 943.660156 648.136719 942.625 646.683594 941.378906 645.648438 C 932.25 637.351562 920.21875 636.105469 909.433594 639.839844 C 904.871094 641.5 895.949219 645.855469 895.949219 645.855469 C 898.023438 647.101562 899.890625 648.757812 899.269531 648.34375 C 900.929688 649.589844 900.304688 648.34375 898.023438 652.285156 C 895.121094 657.054688 895.121094 661.621094 896.363281 664.109375 C 895.328125 672.40625 898.644531 681.328125 902.378906 685.476562 C 902.378906 685.890625 902.378906 686.097656 902.378906 686.511719 C 903.210938 689.003906 904.664062 691.078125 906.527344 692.734375 C 884.75 718.664062 873.132812 758.078125 880.808594 795.417969 C 888.273438 831.71875 914.410156 866.15625 951.75 875.28125 C 984.734375 883.164062 1005.269531 881.296875 1034.105469 868.4375 C 1046.964844 862.628906 1060.863281 852.878906 1071.648438 840.015625 C 1083.058594 826.535156 1091.355469 816.785156 1101.3125 795.832031 C 1108.574219 780.273438 1112.929688 760.152344 1113.550781 738.789062 C 1135.957031 747.085938 1155.664062 782.347656 1199.640625 782.347656 C 1200.675781 782.140625 1206.898438 782.140625 1213.953125 779.445312 C 1216.027344 778.617188 1215.40625 779.445312 1213.539062 776.332031 C 1202.75 760.152344 1194.867188 747.5 1175.371094 737.957031 C 1165.828125 733.394531 1153.171875 730.488281 1142.59375 729.867188 C 1140.726562 729.867188 1140.726562 730.28125 1145.914062 728.207031 C 1165.621094 720.53125 1164.789062 719.910156 1170.597656 717.214844 C 1179.3125 713.894531 1182.421875 720.742188 1206.898438 730.699219 C 1213.125 733.394531 1223.496094 735.261719 1229.097656 735.261719 C 1236.5625 735.261719 1242.164062 734.015625 1246.9375 732.5625 C 1249.011719 731.941406 1260.832031 727.171875 1260.210938 726.757812 C 1260.210938 726.757812 1250.460938 720.949219 1249.425781 720.324219 C 1251.914062 719.703125 1264.359375 706.632812 1260.417969 698.335938 C 1259.382812 696.261719 1259.382812 697.09375 1260.003906 696.46875 C 1264.984375 689.417969 1266.851562 679.460938 1262.492188 672.199219 C 1261.871094 671.164062 1261.457031 670.539062 1260.210938 668.464844 C 1258.96875 666.597656 1258.550781 665.5625 1256.894531 663.902344 C 1257.308594 661.621094 1256.476562 659.753906 1255.234375 657.886719 C 1247.144531 645.648438 1242.578125 641.085938 1227.4375 640.046875 C 1226.191406 640.046875 1227.4375 640.046875 1225.15625 638.386719 C 1219.96875 634.238281 1214.78125 634.859375 1208.558594 635.898438 C 1206.691406 636.105469 1206.277344 636.105469 1202.335938 637.972656 C 1197.148438 640.460938 1199.226562 639.425781 1196.113281 642.121094 C 1195.492188 642.535156 1195.074219 642.742188 1194.246094 643.78125 C 1193.210938 645.023438 1193.417969 644.609375 1192.792969 645.234375 C 1192.585938 645.234375 1186.15625 646.476562 1182.007812 653.324219 C 1180.554688 655.8125 1181.800781 655.398438 1179.3125 651.25 C 1174.539062 643.367188 1177.445312 648.34375 1170.390625 638.59375 C 1170.183594 638.179688 1170.390625 638.179688 1169.5625 640.046875 C 1165.414062 648.136719 1154.832031 661.207031 1161.886719 681.121094 C 1165.828125 691.90625 1174.332031 701.863281 1171.011719 710.785156 C 1170.390625 712.648438 1168.9375 713.273438 1168.523438 713.6875 C 1157.53125 718.875 1156.285156 720.324219 1141.140625 725.304688 C 1131.183594 728.621094 1121.644531 730.699219 1113.761719 731.941406 C 1113.761719 729.660156 1113.550781 727.171875 1113.550781 724.890625 C 1114.382812 724.472656 1115.003906 723.851562 1115.628906 723.4375 C 1126.621094 715.347656 1133.257812 707.050781 1139.066406 696.261719 C 1145.707031 683.609375 1146.742188 670.957031 1146.121094 657.886719 C 1146.121094 655.605469 1145.707031 650.832031 1145.289062 645.855469 C 1151.722656 637.558594 1158.566406 629.050781 1166.863281 620.753906 C 1185.949219 602.085938 1213.332031 589.640625 1216.648438 587.773438 C 1218.929688 586.527344 1227.023438 584.246094 1229.71875 583.625 C 1275.355469 572.214844 1325.140625 602.085938 1329.289062 647.929688 C 1330.535156 663.074219 1327.007812 682.777344 1322.027344 693.980469 C 1307.300781 726.546875 1283.238281 751.441406 1253.160156 770.109375 C 1234.074219 782.140625 1211.671875 786.707031 1190.097656 792.515625 C 1127.242188 808.902344 1078.496094 846.03125 1059.824219 904.53125 C 1058.996094 901.625 1058.167969 898.515625 1056.921875 895.195312 C 1054.847656 888.972656 1052.152344 886.277344 1049.246094 883.164062 C 1049.246094 883.164062 1047.171875 886.691406 1045.304688 888.972656 C 1033.273438 904.738281 1027.050781 907.019531 1020.828125 925.273438 C 1018.132812 933.15625 1017.714844 937.929688 1017.714844 943.113281 C 1017.300781 949.335938 1017.921875 958.257812 1018.339844 961.367188 C 1018.753906 964.894531 1018.339844 960.953125 1015.640625 955.5625 C 1009.832031 943.320312 1013.980469 929.839844 1004.023438 914.695312 C 990.335938 891.878906 964.613281 890.425781 948.640625 886.484375 C 940.550781 884.410156 937.644531 882.75 937.644531 883.164062 C 938.058594 892.292969 942.832031 901.625 947.394531 909.507812 C 960.878906 932.535156 977.886719 935.230469 995.105469 941.453125 C 1000.292969 943.320312 1007.136719 947.679688 1007.757812 948.300781 C 1010.457031 950.996094 1007.964844 950.789062 1013.980469 962.820312 C 1005.890625 956.183594 990.542969 949.542969 978.511719 949.335938 C 976.4375 949.335938 971.457031 949.753906 968.347656 950.375 C 962.746094 951.621094 955.484375 955.769531 954.03125 956.804688 C 948.015625 961.992188 943.867188 964.894531 938.058594 971.324219 C 959.21875 974.230469 968.136719 982.113281 993.445312 981.28125 C 1007.136719 980.867188 1012.324219 974.230469 1020.621094 975.058594 C 1029.332031 988.128906 1036.179688 994.558594 1053.1875 1000.160156 C 1053.601562 1000.367188 1054.226562 1000.574219 1054.847656 1000.574219 C 1058.167969 1014.472656 1064.183594 1027.125 1068.539062 1040.816406 C 1072.273438 1052.433594 1088.039062 1075.875 1094.882812 1083.136719 C 1109.613281 1099.316406 1120.605469 1107.613281 1136.578125 1116.742188 C 1135.75 1115.703125 1144.460938 1122.964844 1158.773438 1123.585938 C 1162.09375 1123.792969 1164.789062 1122.757812 1167.070312 1120.472656 C 1171.011719 1116.324219 1162.714844 1111.554688 1158.566406 1108.441406 C 1143.007812 1096.410156 1126.621094 1070.273438 1116.871094 1053.058594 C 1115.835938 1051.191406 1114.796875 1049.117188 1113.761719 1047.25 C 1120.191406 1050.566406 1126.621094 1053.679688 1134.296875 1054.921875 C 1150.269531 1057.621094 1160.640625 1057.621094 1175.785156 1052.226562 C 1182.007812 1049.945312 1184.910156 1047.871094 1187.609375 1046.417969 C 1172.671875 1039.574219 1165.828125 1030.445312 1150.890625 1024.222656 C 1136.371094 1018.207031 1120.398438 1016.960938 1104.632812 1020.902344 C 1104.21875 1019.246094 1103.804688 1017.585938 1103.59375 1015.925781 C 1108.988281 1012.191406 1114.175781 1009.496094 1119.359375 1006.175781 C 1127.035156 1005.136719 1132.429688 1009.078125 1149.648438 1014.886719 C 1148.609375 1014.472656 1154.625 1016.339844 1157.320312 1017.378906 C 1164.996094 1019.867188 1185.742188 1021.941406 1198.808594 1019.867188 C 1213.332031 1017.585938 1227.230469 1009.703125 1238.636719 1000.574219 C 1233.039062 998.5 1219.96875 991.238281 1200.675781 987.507812 C 1187.609375 984.808594 1167.902344 986.054688 1154.625 987.300781 C 1158.980469 984.808594 1158.359375 985.222656 1163.753906 981.90625 C 1200.46875 960.953125 1172.671875 974.023438 1201.714844 961.367188 C 1213.953125 955.976562 1230.960938 943.53125 1238.222656 931.914062 C 1249.21875 911.375 1253.160156 898.308594 1244.859375 874.867188 C 1244.238281 873 1244.238281 873.414062 1244.03125 873.414062 C 1227.644531 888.558594 1230.753906 884.410156 1223.703125 891.253906 C 1195.90625 918.222656 1189.683594 952.863281 1185.117188 962.613281 C 1184.496094 963.652344 1184.496094 963.445312 1183.875 963.859375 C 1167.488281 975.265625 1156.285156 981.492188 1140.933594 989.582031 C 1148.402344 980.867188 1174.746094 955.769531 1179.3125 933.363281 C 1181.175781 924.238281 1178.273438 908.886719 1175.785156 903.285156 C 1176.199219 904.117188 1175.160156 901.835938 1175.371094 902.25 C 1174.125 899.550781 1174.539062 899.96875 1173.710938 900.796875 C 1165.414062 908.058594 1160.226562 915.523438 1155.457031 924.03125 C 1152.136719 930.046875 1145.5 947.261719 1144.046875 951.621094 C 1136.371094 975.058594 1138.03125 972.363281 1134.917969 987.089844 C 1134.710938 988.542969 1133.675781 992.484375 1132.636719 993.730469 C 1123.511719 998.292969 1111.0625 1004.101562 1102.351562 1010.324219 C 1099.445312 991.863281 1099.863281 972.570312 1102.972656 955.144531 C 1104.632812 946.226562 1115.417969 917.390625 1127.660156 904.117188 C 1129.734375 901.835938 1136.578125 892.707031 1145.707031 885.445312 C 1157.53125 876.113281 1166.65625 870.511719 1185.742188 863.042969 C 1252.328125 836.492188 1297.964844 842.507812 1359.574219 768.660156 C 1385.710938 737.542969 1401.683594 695.640625 1399.402344 655.398438 Z M 1326.382812 283.875 C 1332.191406 297.773438 1335.304688 320.175781 1334.683594 324.324219 C 1334.683594 324.738281 1334.472656 327.023438 1334.472656 327.851562 C 1333.644531 338.636719 1324.933594 359.589844 1311.863281 373.695312 C 1304.1875 381.992188 1306.886719 378.675781 1303.566406 382.199219 C 1301.90625 383.859375 1302.320312 384.066406 1302.945312 381.371094 C 1305.433594 371 1305.226562 347.558594 1307.921875 332.832031 C 1312.484375 307.109375 1320.992188 304.824219 1326.382812 283.875 Z M 1293.402344 351.292969 C 1292.15625 321.421875 1301.078125 308.558594 1321.820312 286.777344 C 1316.636719 302.960938 1313.9375 300.882812 1307.09375 321.007812 C 1301.285156 338.015625 1302.527344 367.472656 1300.246094 379.089844 C 1299.417969 382.824219 1299.832031 381.992188 1299.210938 380.125 C 1297.550781 374.316406 1294.230469 368.71875 1293.402344 351.292969 Z M 1318.292969 398.796875 C 1325.347656 394.855469 1341.734375 390.707031 1346.089844 389.046875 C 1346.296875 389.046875 1346.507812 388.632812 1342.773438 393.816406 C 1330.117188 412.070312 1302.113281 416.84375 1290.082031 422.027344 C 1296.71875 412.070312 1307.714844 404.8125 1318.292969 398.796875 Z M 1246.519531 355.027344 C 1250.460938 358.761719 1251.085938 360.003906 1253.367188 362.703125 C 1276.804688 387.800781 1275.355469 424.519531 1264.152344 446.089844 C 1263.738281 446.921875 1256.0625 424.101562 1253.78125 414.355469 C 1242.578125 367.886719 1248.386719 382.199219 1240.710938 349.632812 C 1240.917969 349.425781 1246.519531 354.820312 1246.519531 355.027344 Z M 1236.976562 399.625 C 1233.660156 377.429688 1235.320312 373.902344 1237.1875 350.671875 C 1237.394531 352.121094 1239.46875 358.96875 1240.503906 366.019531 C 1242.996094 382.199219 1247.765625 411.035156 1255.027344 430.117188 C 1255.027344 430.328125 1260.832031 446.089844 1260.832031 446.089844 C 1249.839844 433.851562 1239.46875 416.011719 1236.976562 399.625 Z M 1255.027344 461.648438 C 1257.308594 459.988281 1261.042969 456.257812 1270.789062 453.144531 C 1287.800781 447.75 1296.71875 446.921875 1313.316406 447.128906 C 1316.84375 447.335938 1331.570312 449.617188 1331.363281 449.824219 C 1323.894531 453.972656 1310.203125 463.929688 1295.890625 468.289062 C 1284.066406 472.019531 1279.503906 472.019531 1270.375 473.058594 C 1264.359375 473.679688 1231.378906 475.960938 1231.378906 475.753906 C 1241.128906 470.570312 1238.222656 473.265625 1255.027344 461.648438 Z M 1231.585938 479.074219 C 1245.484375 477.828125 1270.167969 478.039062 1285.105469 474.925781 C 1313.9375 469.117188 1336.964844 448.582031 1330.117188 455.011719 C 1326.59375 458.539062 1318.5 468.910156 1304.8125 476.378906 C 1292.363281 483.015625 1277.429688 487.578125 1250.046875 482.808594 C 1227.644531 479.074219 1227.851562 479.488281 1231.585938 479.074219 Z M 790.363281 539.644531 C 761.738281 534.667969 742.03125 523.882812 737.050781 494.632812 C 736.429688 481.5625 731.242188 479.902344 748.046875 505.417969 C 749.5 507.492188 761.53125 523.257812 775.21875 531.554688 C 788.082031 539.4375 794.304688 540.476562 790.363281 539.644531 Z M 793.269531 536.535156 C 762.152344 523.257812 752.402344 505.832031 737.464844 481.5625 C 737.882812 481.5625 738.089844 481.769531 738.503906 481.769531 C 767.753906 490.691406 782.066406 503.136719 793.476562 534.667969 C 794.71875 537.570312 795.34375 537.363281 793.269531 536.535156 Z M 816.5 595.03125 C 812.972656 596.277344 813.804688 596.070312 811.523438 597.105469 C 807.375 599.179688 795.34375 601.671875 791.191406 602.085938 C 771.488281 604.160156 753.648438 592.542969 739.332031 581.964844 C 730.414062 575.324219 729.167969 575.53125 731.242188 575.949219 C 744.105469 578.4375 761.945312 588.1875 781.859375 592.75 C 810.484375 598.972656 828.324219 590.054688 816.5 595.03125 Z M 809.03125 590.675781 C 775.84375 592.542969 758.832031 578.851562 732.28125 572.628906 C 734.355469 571.800781 750.949219 566.820312 765.261719 566.820312 C 778.539062 566.820312 795.34375 570.347656 805.714844 574.289062 C 820.855469 580.097656 824.382812 583 832.058594 587.355469 C 832.679688 587.566406 814.632812 590.46875 809.03125 590.675781 Z M 839.113281 636.3125 C 825.628906 652.285156 806.957031 654.773438 808.617188 654.359375 C 798.246094 656.640625 791.191406 654.773438 781.027344 652.285156 C 776.671875 651.25 783.933594 652.285156 795.132812 649.796875 C 803.226562 648.136719 802.601562 648.550781 807.789062 647.308594 C 837.660156 639.632812 847.203125 626.769531 839.113281 636.3125 Z M 840.148438 630.089844 C 810.691406 646.476562 789.535156 646.890625 777.917969 648.964844 C 785.800781 643.15625 781.027344 643.988281 795.132812 635.277344 C 810.070312 627.183594 832.472656 625.320312 843.46875 628.222656 C 841.808594 628.84375 841.808594 629.050781 840.148438 630.089844 Z M 855.5 675.105469 C 854.046875 669.296875 853.425781 662.65625 854.253906 655.191406 C 855.914062 642.949219 863.175781 634.652344 871.265625 625.527344 C 869.605469 637.140625 859.027344 669.296875 857.367188 674.480469 C 855.707031 680.496094 856.742188 679.875 855.5 675.105469 Z M 870.433594 665.976562 C 868.984375 668.878906 864.625 674.6875 862.34375 677.386719 C 861.308594 678.421875 860.269531 679.460938 859.648438 680.082031 C 858.609375 681.121094 867.324219 656.019531 871.265625 642.535156 C 875.621094 627.394531 874.167969 626.976562 875.414062 631.335938 C 877.695312 640.253906 876.65625 652.90625 870.433594 665.976562 Z M 1006.929688 652.285156 C 1004.023438 652.699219 996.558594 653.53125 995.933594 653.53125 C 994.277344 653.738281 992.199219 654.152344 990.75 654.359375 C 990.75 653.738281 990.957031 652.90625 990.957031 652.285156 C 991.371094 649.171875 991.164062 644.816406 990.125 640.046875 C 989.089844 635.691406 987.015625 634.652344 987.84375 634.445312 C 991.992188 637.972656 998.007812 641.5 1008.382812 651.664062 C 1009.003906 652.078125 1009.210938 651.871094 1006.929688 652.285156 Z M 986.183594 639.425781 C 988.050781 644.816406 988.050781 649.796875 987.222656 654.773438 C 985.5625 654.980469 983.695312 655.191406 981.828125 655.605469 C 986.601562 639.007812 984.320312 635.484375 986.183594 639.425781 Z M 978.09375 656.226562 C 974.570312 656.847656 971.25 657.472656 967.722656 658.300781 C 970.003906 649.589844 974.570312 641.914062 982.035156 636.933594 C 981.414062 643.78125 979.960938 650.210938 978.09375 656.226562 Z M 1030.578125 525.957031 C 1027.671875 536.535156 1024.769531 541.304688 1021.035156 547.738281 C 1015.640625 556.863281 1009.210938 563.085938 1003.402344 567.441406 C 998.839844 564.539062 994.277344 561.636719 989.503906 558.730469 C 999.667969 546.492188 1012.324219 536.742188 1027.671875 526.578125 C 1032.027344 523.257812 1031.40625 522.222656 1030.578125 525.957031 Z M 1021.242188 525.746094 C 1032.027344 520.976562 1005.890625 533.007812 986.183594 556.65625 C 984.527344 555.617188 982.867188 554.582031 981.207031 553.542969 C 990.957031 540.0625 1005.269531 533.007812 1021.242188 525.746094 Z M 966.6875 537.988281 C 965.027344 539.855469 965.855469 540.683594 967.101562 524.710938 C 968.136719 522.222656 967.308594 517.65625 978.09375 499.609375 C 995.726562 470.15625 1012.738281 460.820312 1019.789062 455.011719 C 1020.621094 454.390625 1020.414062 454.390625 1019.582031 456.464844 C 1012.113281 474.925781 1012.113281 481.148438 989.503906 512.058594 C 977.886719 526.992188 966.6875 537.988281 966.6875 537.988281 Z M 959.21875 409.582031 C 946.980469 384.691406 927.6875 374.941406 936.816406 379.710938 C 943.660156 383.445312 949.675781 387.800781 954.65625 393.816406 C 970.421875 413.9375 972.496094 432.609375 968.554688 457.914062 C 969.382812 436.757812 965.855469 422.859375 959.21875 409.582031 Z M 964.820312 462.273438 C 957.972656 452.523438 939.511719 429.910156 934.117188 410.203125 C 929.347656 392.363281 930.382812 389.253906 928.101562 377.429688 C 957.765625 401.078125 967.101562 427.628906 964.820312 462.273438 Z M 1019.582031 480.734375 C 1015.433594 496.085938 999.046875 515.167969 987.015625 525.125 C 986.394531 525.746094 987.84375 524.296875 977.265625 532.179688 C 994.691406 512.058594 991.992188 514.960938 999.875 503.34375 C 1000.292969 502.929688 1008.796875 490.691406 1012.945312 481.769531 C 1020.414062 465.382812 1022.695312 455.839844 1022.488281 457.914062 C 1022.695312 463.308594 1021.863281 472.644531 1019.582031 480.734375 Z M 1004.441406 413.9375 C 1013.152344 431.984375 1018.132812 442.773438 1021.242188 450.03125 C 1014.8125 454.183594 1004.648438 460.613281 994.066406 471.191406 C 984.527344 480.527344 974.570312 497.535156 968.34375 509.359375 C 968.761719 504.175781 968.554688 505.003906 968.96875 498.574219 C 971.871094 456.464844 967.308594 486.75 973.117188 455.632812 C 975.398438 442.566406 974.570312 421.40625 968.96875 408.753906 C 958.386719 389.046875 949.882812 378.464844 927.894531 372.242188 C 955.277344 366.851562 987.429688 378.257812 1004.441406 413.9375 Z M 923.953125 373.074219 C 927.066406 393.195312 925.613281 388.839844 927.273438 398.171875 C 934.117188 436.34375 959.632812 460.820312 965.027344 469.945312 C 965.441406 470.984375 965.441406 470.777344 965.441406 471.605469 C 965.855469 491.519531 964.820312 504.382812 962.953125 521.597656 C 959.839844 510.398438 953.617188 474.71875 937.644531 458.539062 C 931.007812 451.898438 916.695312 445.882812 910.679688 444.640625 C 911.507812 444.847656 909.226562 444.433594 909.433594 444.433594 C 906.527344 444.015625 907.152344 443.808594 907.152344 445.054688 C 908.601562 456.046875 911.921875 464.347656 916.484375 473.058594 C 919.597656 479.28125 930.175781 494.21875 933.082031 497.742188 C 948.429688 517.242188 946.980469 514.339844 957.558594 524.917969 C 958.597656 525.957031 961.292969 529.066406 961.914062 530.519531 C 961.5 533.421875 961.085938 536.742188 960.671875 540.0625 C 923.953125 515.789062 888.066406 486.128906 879.355469 442.359375 C 871.886719 406.679688 894.703125 380.542969 923.953125 373.074219 Z M 932.042969 467.871094 C 919.390625 451.070312 911.714844 449.203125 918.976562 452.105469 C 938.683594 460.199219 947.601562 478.867188 953.203125 499.609375 C 962.746094 534.460938 953.203125 496.292969 932.042969 467.871094 Z M 954.238281 516.207031 C 944.492188 506.664062 927.6875 484.675781 921.464844 474.097656 C 914.828125 462.6875 912.753906 453.144531 912.542969 453.144531 C 911.921875 451.277344 911.507812 451.070312 914.410156 453.972656 C 936.816406 475.339844 941.378906 489.859375 954.238281 516.207031 Z M 844.503906 587.773438 C 824.796875 561.636719 820.234375 545.871094 816.914062 523.257812 C 815.878906 516.207031 815.046875 501.269531 816.914062 491.726562 C 836.828125 527.40625 836.621094 553.128906 846.785156 590.675781 C 846.164062 589.847656 845.335938 588.808594 844.503906 587.773438 Z M 847.410156 576.363281 C 841.1875 551.46875 839.320312 526.578125 822.308594 494.632812 C 821.0625 492.558594 821.0625 492.765625 821.6875 493.179688 C 823.761719 495.046875 825.628906 496.914062 827.496094 498.78125 C 828.117188 499.816406 828.53125 500.648438 829.15625 501.683594 C 833.097656 508.945312 837.453125 515.375 841.808594 521.597656 C 845.542969 531.761719 847.824219 543.796875 847.824219 558.9375 C 847.824219 559.144531 847.410156 573.457031 847.410156 576.363281 Z M 958.386719 632.164062 C 937.4375 630.296875 917.9375 627.808594 895.949219 618.679688 C 885.578125 614.324219 865.042969 604.988281 863.382812 603.953125 C 853.21875 598.558594 850.726562 598.351562 851.144531 570.96875 C 851.351562 558.523438 852.800781 546.90625 848.652344 530.519531 C 888.480469 579.472656 941.171875 594.824219 984.109375 631.125 C 983.074219 631.125 982.035156 631.335938 981.207031 631.335938 C 977.472656 631.542969 971.664062 632.992188 958.386719 632.164062 Z M 974.570312 637.351562 C 979.753906 635.691406 970.210938 638.59375 965.648438 651.25 C 964.613281 653.945312 963.988281 656.433594 963.160156 659.132812 C 959.839844 659.960938 956.523438 660.996094 953.410156 662.035156 C 953.203125 661.207031 952.996094 660.375 952.789062 659.753906 C 951.957031 657.265625 950.714844 654.566406 947.1875 651.871094 C 953.203125 647.722656 958.179688 642.742188 974.570312 637.351562 Z M 946.980469 657.472656 C 947.1875 656.226562 946.980469 656.226562 947.601562 657.265625 C 948.429688 658.714844 949.261719 660.789062 950.089844 663.28125 C 949.054688 663.695312 947.808594 664.109375 946.773438 664.523438 C 946.566406 662.035156 946.773438 659.753906 946.980469 657.472656 Z M 943.246094 655.191406 C 943.246094 657.472656 942.414062 659.960938 942.832031 666.183594 C 935.15625 669.503906 927.6875 673.652344 921.050781 678.628906 C 920.21875 678.214844 919.804688 677.800781 918.976562 676.347656 C 916.277344 671.371094 919.183594 666.390625 921.464844 661.207031 C 922.5 659.960938 921.257812 660.996094 927.6875 660.996094 C 937.4375 660.789062 943.246094 654.980469 943.246094 655.191406 Z M 906.738281 644.609375 C 915.035156 641.707031 915.035156 642.121094 918.769531 641.914062 C 926.652344 641.707031 931.835938 641.914062 939.925781 649.175781 C 939.097656 648.964844 925.613281 645.441406 917.9375 645.023438 C 905.90625 644.402344 905.699219 645.023438 906.738281 644.609375 Z M 937.230469 652.078125 C 941.171875 653.113281 940.964844 652.285156 937.851562 654.152344 C 926.859375 660.996094 915.449219 656.226562 905.492188 647.929688 C 918.976562 648.34375 924.367188 648.757812 937.230469 652.078125 Z M 899.683594 657.679688 C 900.511719 654.980469 902.796875 652.078125 903.417969 651.457031 C 908.8125 655.8125 915.242188 658.921875 917.730469 659.753906 C 917.9375 659.753906 918.144531 659.546875 917.316406 660.996094 C 916.070312 663.070312 904.453125 664.523438 899.683594 662.449219 C 899.0625 661.414062 899.269531 658.921875 899.683594 657.679688 Z M 900.097656 666.183594 C 904.039062 667.222656 908.601562 667.222656 914.410156 665.976562 C 915.65625 665.769531 915.65625 665.5625 915.242188 666.390625 C 912.960938 671.785156 914.410156 677.800781 918.144531 681.121094 C 917.523438 681.535156 916.902344 682.15625 916.277344 682.570312 C 914.828125 683.816406 913.375 685.269531 912.128906 686.511719 C 911.300781 686.304688 910.46875 686.097656 909.640625 685.890625 C 908.601562 685.683594 906.738281 684.023438 906.527344 683.816406 C 901.757812 678.835938 900.722656 672.40625 900.097656 666.183594 Z M 909.019531 689.625 C 909.019531 689.832031 909.019531 689.832031 909.019531 689.625 C 909.019531 689.832031 909.019531 689.832031 909.019531 689.625 Z M 1047.792969 759.53125 C 1041.570312 794.589844 1005.890625 820.101562 984.320312 819.480469 C 971.25 819.066406 962.121094 812.84375 954.863281 803.09375 C 946.148438 791.269531 945.527344 776.957031 947.1875 763.265625 C 948.015625 756.210938 951.75 747.707031 955.484375 741.691406 C 970.835938 719.082031 1008.796875 720.53125 1031.613281 714.933594 C 1032.238281 714.722656 1043.4375 713.480469 1047.378906 711.820312 C 1051.113281 737.128906 1049.453125 749.988281 1047.792969 759.53125 Z M 1246.933594 728.207031 C 1230.753906 732.773438 1223.910156 731.734375 1209.390625 727.378906 C 1203.996094 725.71875 1183.25 714.933594 1183.25 714.933594 C 1195.699219 717.628906 1205.863281 721.15625 1221.421875 724.890625 C 1238.429688 729.039062 1248.800781 727.792969 1246.933594 728.207031 Z M 1248.179688 725.097656 C 1246.933594 724.890625 1236.976562 724.265625 1236.769531 724.265625 C 1221.628906 723.230469 1195.285156 712.859375 1183.667969 711.199219 C 1177.234375 710.367188 1176.820312 712.234375 1181.386719 709.332031 C 1186.15625 706.21875 1197.148438 702.902344 1209.390625 704.558594 C 1220.796875 706.425781 1236.148438 715.96875 1245.484375 722.398438 C 1249.425781 725.304688 1250.875 725.304688 1248.179688 725.097656 Z M 1251.914062 690.039062 C 1248.179688 690.246094 1249.011719 690.867188 1248.800781 690.039062 C 1248.386719 688.171875 1246.726562 686.304688 1245.691406 685.683594 C 1241.128906 682.15625 1237.808594 683.816406 1235.113281 682.363281 C 1233.867188 681.742188 1234.488281 682.984375 1235.113281 678.835938 C 1236.976562 667.636719 1233.867188 666.183594 1228.679688 659.546875 C 1228.472656 659.339844 1228.265625 659.339844 1229.304688 659.339844 C 1234.074219 660.167969 1232.828125 661.828125 1239.261719 664.316406 C 1244.652344 666.597656 1241.75 664.316406 1245.898438 668.878906 C 1250.875 674.6875 1252.535156 681.328125 1252.121094 689.003906 C 1251.707031 690.039062 1252.121094 690.039062 1251.914062 690.039062 Z M 1243.203125 692.113281 C 1239.882812 693.980469 1234.28125 700.410156 1228.265625 701.242188 C 1227.4375 698.75 1226.398438 695.847656 1224.945312 693.773438 C 1229.304688 690.246094 1229.925781 690.453125 1231.792969 687.757812 C 1233.453125 685.476562 1232.621094 685.476562 1233.246094 685.890625 C 1237.394531 688.171875 1240.917969 685.683594 1244.652344 690.246094 C 1245.691406 691.699219 1244.859375 691.285156 1243.203125 692.113281 Z M 1230.132812 667.222656 C 1232.207031 670.125 1231.792969 670.953125 1231.585938 674.894531 C 1231.378906 678.835938 1230.132812 685.269531 1227.019531 687.550781 C 1222.25 691.078125 1222.871094 690.867188 1222.664062 690.660156 C 1217.480469 685.683594 1211.464844 684.851562 1204.617188 686.304688 C 1204.824219 686.097656 1204.824219 685.683594 1205.03125 684.851562 C 1206.898438 678.007812 1206.898438 678.835938 1206.484375 675.726562 C 1205.863281 665.355469 1201.714844 667.636719 1206.691406 662.863281 C 1209.183594 660.375 1210.839844 658.09375 1213.121094 655.8125 C 1213.121094 655.8125 1215.199219 656.847656 1214.988281 656.640625 C 1216.441406 657.472656 1219.347656 657.886719 1221.628906 658.300781 C 1224.324219 660.582031 1225.570312 660.582031 1230.132812 667.222656 Z M 1205.03125 690.453125 C 1212.292969 688.792969 1218.929688 690.453125 1222.457031 697.300781 C 1223.703125 699.582031 1225.363281 704.765625 1225.777344 705.804688 C 1225.984375 707.050781 1208.972656 695.847656 1189.269531 701.65625 C 1186.363281 702.484375 1186.570312 702.277344 1184.496094 703.109375 C 1179.933594 705.183594 1180.554688 704.976562 1180.554688 704.765625 C 1180.554688 704.765625 1179.101562 700.824219 1178.894531 700.203125 C 1181.386719 694.601562 1184.703125 690.660156 1191.757812 689.832031 C 1196.113281 689.417969 1198.1875 691.90625 1205.03125 690.453125 Z M 1256.269531 706.425781 C 1254.609375 709.953125 1250.460938 715.761719 1245.898438 718.25 C 1244.652344 717.214844 1229.925781 708.292969 1229.71875 708.085938 C 1229.71875 707.878906 1229.925781 706.632812 1229.71875 705.390625 C 1229.511719 704.144531 1232 706.839844 1242.785156 697.507812 C 1243.410156 696.882812 1244.445312 696.054688 1245.898438 695.226562 C 1253.160156 692.734375 1253.574219 693.773438 1256.269531 698.542969 C 1257.722656 701.449219 1258.34375 701.449219 1256.269531 706.425781 Z M 1257.722656 671.785156 C 1258.550781 673.238281 1259.382812 674.273438 1260.210938 676.140625 C 1261.664062 680.289062 1261.457031 687.136719 1257.722656 693.359375 C 1257.515625 692.941406 1256.683594 691.90625 1255.855469 691.285156 C 1256.0625 690.867188 1256.476562 683.609375 1255.441406 679.875 C 1253.78125 673.445312 1252.328125 670.746094 1246.933594 664.9375 C 1250.460938 664.523438 1250.667969 664.109375 1253.574219 665.5625 C 1256.890625 669.503906 1255.648438 668.257812 1257.722656 671.785156 Z M 1227.230469 643.574219 C 1229.71875 643.988281 1237.808594 643.574219 1245.277344 651.039062 C 1248.59375 654.359375 1252.742188 661.207031 1252.742188 660.996094 C 1249.425781 659.339844 1244.859375 662.449219 1240.089844 660.375 C 1237.1875 659.132812 1236.148438 657.886719 1234.488281 656.847656 C 1230.132812 654.152344 1222.664062 655.605469 1216.648438 653.113281 C 1225.363281 647.722656 1223.289062 648.757812 1227.230469 643.574219 Z M 1196.527344 646.476562 C 1197.359375 645.648438 1200.261719 642.949219 1201.921875 642.328125 C 1207.316406 640.253906 1204.617188 640.046875 1213.953125 639.007812 C 1218.308594 638.59375 1221.421875 640.046875 1223.496094 641.914062 C 1221.214844 644.816406 1222.25 645.023438 1216.648438 648.550781 C 1210.632812 652.285156 1210.425781 652.90625 1201.921875 662.242188 C 1200.882812 660.789062 1199.847656 659.546875 1199.015625 657.679688 C 1198.394531 656.226562 1195.699219 647.515625 1196.527344 646.476562 Z M 1182.214844 661.207031 C 1183.25 658.921875 1183.875 658.300781 1185.117188 656.226562 C 1186.984375 653.113281 1189.269531 650.210938 1192.792969 649.175781 C 1194.660156 656.019531 1194.039062 657.679688 1198.1875 663.695312 C 1202.542969 669.710938 1202.542969 674.6875 1202.75 676.761719 C 1203.164062 679.253906 1201.921875 679.046875 1200.675781 686.304688 C 1200.46875 686.925781 1200.882812 686.925781 1199.433594 686.71875 C 1197.359375 686.304688 1194.867188 685.476562 1192.378906 685.683594 C 1186.363281 686.097656 1180.761719 689.003906 1177.859375 694.394531 C 1175.992188 681.328125 1177.859375 671.164062 1182.214844 661.207031 Z M 1171.636719 691.492188 C 1169.355469 686.925781 1162.300781 676.96875 1163.960938 663.488281 C 1164.582031 657.679688 1165.828125 656.019531 1166.65625 653.945312 C 1167.070312 652.90625 1168.523438 648.964844 1168.523438 649.796875 C 1164.996094 668.257812 1172.878906 693.773438 1171.636719 691.492188 Z M 1171.636719 650.832031 C 1172.257812 646.0625 1172.050781 646.476562 1172.257812 646.890625 C 1173.292969 648.757812 1172.464844 646.890625 1174.953125 651.25 C 1175.992188 653.113281 1175.992188 653.324219 1176.613281 654.566406 C 1178.894531 658.300781 1178.066406 658.09375 1178.6875 659.339844 C 1174.746094 667.429688 1173.710938 673.445312 1173.292969 680.289062 C 1173.292969 680.082031 1169.769531 664.316406 1171.636719 650.832031 Z M 1173.503906 741.070312 C 1189.476562 748.328125 1200.054688 761.8125 1208.351562 774.675781 C 1200.675781 772.601562 1184.082031 764.925781 1177.234375 761.191406 C 1159.394531 751.648438 1146.742188 741.691406 1122.058594 734.636719 C 1141.140625 731.734375 1158.566406 734.429688 1173.503906 741.070312 Z M 1206.691406 777.785156 C 1164.582031 781.519531 1145.5 752.269531 1121.644531 738.789062 C 1152.964844 747.5 1175.371094 769.074219 1206.691406 777.785156 Z M 1138.03125 689.003906 C 1133.050781 701.242188 1124.753906 712.027344 1113.34375 720.117188 C 1112.308594 708.292969 1110.234375 696.261719 1106.707031 684.4375 C 1109.820312 682.15625 1108.988281 682.984375 1111.0625 681.535156 C 1123.507812 673.027344 1132.636719 662.035156 1141.972656 650.003906 C 1142.800781 661.828125 1143.214844 676.347656 1138.03125 689.003906 Z M 949.46875 904.945312 C 942.207031 890.839844 949.675781 906.8125 965.234375 915.730469 C 967.101562 916.769531 974.570312 921.746094 980.378906 925.066406 C 987.015625 928.800781 999.046875 935.644531 1004.023438 941.039062 C 982.660156 929.628906 967.308594 933.570312 949.46875 904.945312 Z M 1003.816406 935.855469 C 989.296875 923.199219 958.804688 913.867188 943.867188 889.386719 C 942.625 887.519531 942.207031 887.726562 946.355469 889.386719 C 964.820312 896.027344 1000.292969 892.914062 1007.964844 936.269531 C 1008.589844 943.113281 1009.832031 941.246094 1003.816406 935.855469 Z M 950.089844 965.101562 C 951.128906 964.480469 957.972656 958.050781 971.042969 954.523438 C 974.152344 953.695312 982.453125 953.902344 984.320312 954.109375 C 991.992188 954.730469 1001.328125 959.085938 1007.757812 963.234375 C 1011.078125 965.308594 1007.136719 963.234375 1004.441406 962.199219 C 991.992188 957.425781 981.414062 957.21875 970.210938 959.292969 C 959.011719 961.160156 949.675781 965.308594 950.089844 965.101562 Z M 1012.945312 972.15625 C 1004.234375 975.265625 1003.402344 975.890625 994.898438 976.925781 C 992.410156 977.132812 979.960938 977.132812 970.628906 975.058594 C 970.003906 974.851562 966.269531 974.230469 964.613281 973.816406 C 962.539062 973.398438 953.203125 970.496094 947.808594 969.667969 C 967.929688 962.40625 984.734375 957.425781 1004.648438 965.726562 C 1005.0625 965.933594 1008.589844 967.382812 1013.980469 970.496094 C 1016.054688 971.742188 1015.433594 971.117188 1012.945312 972.15625 Z M 1054.433594 897.476562 C 1055.46875 899.34375 1057.128906 905.152344 1057.542969 912.828125 C 1056.09375 918.636719 1054.847656 924.652344 1053.808594 930.875 C 1053.1875 934.816406 1052.773438 938.757812 1052.359375 942.90625 C 1049.246094 949.542969 1044.269531 955.976562 1036.800781 961.367188 C 1037.007812 961.160156 1034.726562 963.027344 1033.894531 963.441406 C 1033.894531 963.441406 1028.503906 966.96875 1028.089844 967.175781 C 1033.894531 955.558594 1046.757812 944.359375 1052.359375 926.933594 C 1056.714844 913.035156 1054.226562 897.476562 1054.433594 897.476562 Z M 1021.863281 939.378906 C 1021.65625 940.832031 1022.28125 931.289062 1026.636719 920.503906 C 1032.652344 906.605469 1041.777344 901.003906 1049.246094 888.972656 C 1049.453125 888.765625 1051.945312 897.890625 1051.527344 909.507812 C 1050.285156 939.585938 1033.6875 947.46875 1024.148438 967.589844 C 1022.902344 961.992188 1021.035156 944.359375 1021.863281 939.378906 Z M 1033.273438 984.1875 C 1032.238281 983.148438 1026.636719 977.132812 1026.429688 975.683594 C 1025.183594 968.628906 1040.949219 968.214844 1051.945312 952.449219 C 1051.320312 965.933594 1051.945312 979.414062 1054.019531 992.484375 C 1054.226562 993.730469 1054.433594 994.972656 1054.640625 996.21875 C 1047.171875 994.351562 1039.289062 990.203125 1033.273438 984.1875 Z M 1245.070312 888.351562 C 1245.691406 896.234375 1245.691406 903.492188 1243.203125 910.960938 C 1235.320312 935.230469 1220.796875 947.46875 1197.566406 958.050781 C 1215.40625 947.054688 1225.15625 936.476562 1232.621094 923.613281 C 1246.519531 899.34375 1244.03125 877.976562 1245.070312 888.351562 Z M 1218.101562 903.078125 C 1230.132812 889.179688 1233.453125 888.351562 1241.957031 879.84375 C 1239.054688 917.597656 1222.042969 940.003906 1191.964844 957.425781 C 1196.320312 946.433594 1204.824219 918.429688 1218.101562 903.078125 Z M 1227.4375 1003.269531 C 1223.078125 1006.175781 1214.988281 1010.738281 1207.105469 1013.4375 C 1191.964844 1018.621094 1167.070312 1015.511719 1151.929688 1010.945312 C 1151.097656 1010.738281 1153.171875 1011.359375 1140.726562 1006.796875 C 1167.277344 1010.117188 1163.128906 1009.496094 1177.234375 1009.703125 C 1177.859375 1009.703125 1192.585938 1010.117188 1202.335938 1008.664062 C 1220.175781 1005.761719 1229.511719 1002.234375 1227.4375 1003.269531 Z M 1174.953125 913.867188 C 1179.101562 934.816406 1168.523438 952.65625 1154.625 968.628906 C 1130.769531 995.804688 1157.320312 966.761719 1169.144531 933.363281 C 1175.992188 913.65625 1173.292969 905.984375 1174.953125 913.867188 Z M 1158.152344 927.972656 C 1163.753906 916.148438 1170.597656 909.09375 1170.597656 908.886719 C 1171.84375 907.433594 1171.84375 906.8125 1171.011719 910.960938 C 1165.621094 941.246094 1156.078125 953.277344 1141.347656 978.585938 C 1143.839844 965.308594 1152.757812 938.964844 1158.152344 927.972656 Z M 1141.347656 994.144531 C 1144.046875 993.523438 1147.363281 990.410156 1168.316406 989.371094 C 1202.542969 987.714844 1219.96875 996.632812 1228.472656 999.121094 C 1229.511719 999.539062 1229.304688 999.328125 1227.230469 999.746094 C 1207.523438 1003.6875 1202.542969 1007.421875 1164.167969 1005.554688 C 1145.5 1004.101562 1130.148438 1000.988281 1130.148438 1000.988281 C 1127.660156 1000.78125 1127.449219 1002.027344 1141.347656 994.144531 Z M 1175.578125 1047.457031 C 1165.203125 1050.980469 1159.605469 1051.1875 1152.136719 1051.605469 C 1131.183594 1052.640625 1118.324219 1044.757812 1111.476562 1041.023438 C 1110.027344 1037.707031 1108.988281 1034.386719 1107.746094 1030.859375 C 1130.5625 1029.617188 1150.0625 1035.425781 1173.503906 1045.171875 C 1178.6875 1047.25 1179.3125 1046.210938 1175.578125 1047.457031 Z M 1116.457031 1022.148438 C 1137.199219 1019.660156 1153.171875 1028.785156 1170.597656 1039.78125 C 1182.214844 1047.039062 1146.949219 1025.257812 1109.609375 1027.335938 C 1108.574219 1027.335938 1107.535156 1027.542969 1106.707031 1027.542969 C 1106.5 1026.503906 1106.085938 1025.46875 1105.878906 1024.222656 C 1109.820312 1023.183594 1113.550781 1022.5625 1116.457031 1022.148438 Z M 1116.457031 1022.148438 " fill-opacity="1" fill-rule="nonzero"/><path fill="#9badd6" d="M 1079.738281 562.671875 C 1078.289062 562.464844 1077.042969 562.050781 1076.007812 561.84375 C 1076.007812 561.636719 1075.382812 559.351562 1075.382812 559.351562 C 1072.6875 548.566406 1071.859375 546.90625 1070.613281 546.699219 C 1068.539062 546.285156 1068.125 547.945312 1064.390625 559.144531 C 1064.183594 559.976562 1063.976562 560.597656 1063.558594 562.257812 C 1056.507812 564.332031 1052.566406 564.953125 1050.492188 565.992188 C 1048.832031 566.820312 1048.832031 568.894531 1050.90625 569.726562 C 1050.90625 569.726562 1062.316406 573.042969 1062.523438 573.042969 C 1065.21875 573.667969 1063.558594 572.007812 1066.878906 582.792969 C 1067.707031 585.28125 1068.539062 588.808594 1070.820312 587.980469 C 1072.6875 587.355469 1072.6875 584.453125 1074.140625 580.304688 C 1074.96875 577.398438 1074.96875 575.949219 1075.589844 573.042969 C 1086.171875 569.726562 1090.734375 569.515625 1090.113281 566.820312 C 1089.695312 564.125 1083.265625 563.292969 1079.738281 562.671875 Z M 1079.738281 562.671875 " fill-opacity="1" fill-rule="nonzero"/><path fill="#9badd6" d="M 975.605469 272.050781 C 975.605469 272.050781 987.015625 275.371094 987.222656 275.371094 C 989.917969 275.992188 988.261719 274.332031 991.578125 285.121094 C 992.410156 287.609375 993.238281 291.136719 995.519531 290.304688 C 997.386719 289.683594 997.386719 286.777344 998.839844 282.628906 C 999.667969 279.726562 999.667969 278.273438 1000.292969 275.371094 C 1010.871094 272.050781 1015.433594 271.84375 1014.8125 269.148438 C 1014.398438 266.449219 1007.757812 265.621094 1004.441406 264.996094 C 1002.988281 264.789062 1001.742188 264.375 1000.707031 264.167969 C 1000.707031 263.960938 1000.082031 261.679688 1000.082031 261.679688 C 997.386719 250.890625 996.558594 249.234375 995.3125 249.023438 C 993.238281 248.609375 992.824219 250.269531 989.089844 261.472656 C 988.882812 262.300781 988.675781 262.921875 988.261719 264.582031 C 981.207031 266.65625 977.265625 267.28125 975.191406 268.316406 C 973.53125 269.148438 973.53125 271.222656 975.605469 272.050781 Z M 975.605469 272.050781 " fill-opacity="1" fill-rule="nonzero"/><path fill="#9badd6" d="M 1293.195312 634.859375 C 1291.742188 634.652344 1290.496094 634.238281 1289.460938 634.03125 C 1289.460938 633.824219 1288.839844 631.542969 1288.839844 631.542969 C 1286.140625 620.753906 1285.3125 619.09375 1284.066406 618.886719 C 1281.992188 618.472656 1281.578125 620.132812 1277.84375 631.335938 C 1277.636719 632.164062 1277.429688 632.785156 1277.015625 634.445312 C 1269.960938 636.519531 1266.019531 637.140625 1263.945312 638.179688 C 1262.285156 639.007812 1262.285156 641.082031 1264.359375 641.914062 C 1264.359375 641.914062 1275.769531 645.234375 1275.976562 645.234375 C 1278.671875 645.855469 1277.015625 644.195312 1280.332031 654.980469 C 1281.164062 657.472656 1281.992188 660.996094 1284.273438 660.167969 C 1286.140625 659.546875 1286.140625 656.640625 1287.59375 652.492188 C 1288.421875 649.589844 1288.421875 648.136719 1289.046875 645.234375 C 1299.625 641.914062 1304.1875 641.707031 1303.566406 639.007812 C 1303.152344 636.3125 1296.511719 635.484375 1293.195312 634.859375 Z M 1293.195312 634.859375 " fill-opacity="1" fill-rule="nonzero"/><path fill="#9badd6" d="M 1001.535156 769.695312 C 1000.082031 769.488281 998.839844 769.074219 997.800781 768.867188 C 997.800781 768.660156 997.179688 766.375 997.179688 766.375 C 994.484375 755.589844 993.652344 753.929688 992.410156 753.722656 C 990.335938 753.308594 989.917969 754.96875 986.183594 766.167969 C 985.976562 767 985.769531 767.621094 985.355469 769.28125 C 978.300781 771.355469 974.363281 771.976562 972.285156 773.015625 C 970.628906 773.84375 970.628906 775.917969 972.703125 776.75 C 972.703125 776.75 984.109375 780.066406 984.320312 780.066406 C 987.015625 780.691406 985.355469 779.03125 988.675781 789.816406 C 989.503906 792.304688 990.335938 795.832031 992.617188 795.003906 C 994.484375 794.378906 994.484375 791.476562 995.933594 787.328125 C 996.765625 784.421875 996.765625 782.972656 997.386719 780.066406 C 1007.964844 776.75 1012.53125 776.539062 1011.90625 773.84375 C 1011.492188 771.148438 1004.855469 770.523438 1001.535156 769.695312 Z M 1001.535156 769.695312 " fill-opacity="1" fill-rule="nonzero"/><path fill="#9badd6" d="M 1134.089844 779.445312 C 1126.207031 777.578125 1123.09375 788.78125 1130.5625 791.269531 C 1139.273438 794.171875 1142.179688 781.3125 1134.089844 779.445312 Z M 1134.089844 779.445312 " fill-opacity="1" fill-rule="nonzero"/><path fill="#9badd6" d="M 1103.804688 427.421875 C 1102.351562 430.535156 1104.011719 434.476562 1107.535156 435.71875 C 1111.269531 436.964844 1114.796875 434.890625 1115.625 431.777344 C 1117.492188 423.273438 1106.5 420.578125 1103.804688 427.421875 Z M 1103.804688 427.421875 " fill-opacity="1" fill-rule="nonzero"/><path fill="#9badd6" d="M 1159.394531 260.226562 C 1151.515625 258.359375 1148.402344 269.5625 1155.871094 272.050781 C 1164.582031 274.953125 1167.488281 262.09375 1159.394531 260.226562 Z M 1159.394531 260.226562 " fill-opacity="1" fill-rule="nonzero"/><path fill="#9badd6" d="M 1202.75 166.878906 C 1207.730469 165.636719 1208.765625 156.507812 1201.921875 155.054688 C 1199.226562 154.433594 1196.113281 155.46875 1194.660156 158.582031 C 1192.792969 162.730469 1196.113281 168.332031 1202.75 166.878906 Z M 1202.75 166.878906 " fill-opacity="1" fill-rule="nonzero"/><path fill="#9badd6" d="M 1024.5625 229.109375 C 1016.679688 227.242188 1013.566406 238.445312 1021.035156 240.933594 C 1029.953125 243.839844 1032.652344 230.976562 1024.5625 229.109375 Z M 1024.5625 229.109375 " fill-opacity="1" fill-rule="nonzero"/><path fill="#9badd6" d="M 888.898438 596.898438 C 893.046875 598.351562 896.78125 595.65625 897.195312 591.714844 C 897.609375 586.941406 893.253906 584.246094 889.519531 585.074219 C 882.882812 586.527344 883.089844 594.824219 888.898438 596.898438 Z M 888.898438 596.898438 " fill-opacity="1" fill-rule="nonzero"/><path fill="#9badd6" d="M 1015.433594 736.921875 C 1007.550781 735.054688 1004.441406 746.253906 1011.90625 748.746094 C 1020.828125 751.648438 1023.523438 738.789062 1015.433594 736.921875 Z M 1015.433594 736.921875 " fill-opacity="1" fill-rule="nonzero"/><path fill="#9badd6" d="M 1233.035156 604.988281 C 1225.15625 603.121094 1222.042969 614.324219 1229.511719 616.8125 C 1238.429688 619.925781 1241.128906 606.855469 1233.035156 604.988281 Z M 1233.035156 604.988281 " fill-opacity="1" fill-rule="nonzero"/><path fill="#9badd6" d="M 1331.984375 494.632812 C 1324.101562 492.765625 1320.992188 503.96875 1328.457031 506.457031 C 1337.378906 509.359375 1340.074219 496.292969 1331.984375 494.632812 Z M 1331.984375 494.632812 " fill-opacity="1" fill-rule="nonzero"/><path fill="#9badd6" d="M 1223.289062 289.683594 C 1219.554688 283.253906 1219.347656 270.183594 1225.984375 260.847656 C 1229.511719 256.90625 1229.925781 256.699219 1232.828125 254.832031 C 1237.601562 251.722656 1241.75 250.476562 1244.652344 250.0625 C 1247.351562 249.648438 1251.914062 249.648438 1254.402344 250.683594 C 1249.839844 245.292969 1238.429688 240.726562 1226.398438 242.59375 C 1196.941406 247.367188 1190.71875 279.519531 1201.089844 295.90625 C 1214.574219 317.480469 1244.859375 316.859375 1255.855469 300.882812 C 1247.972656 304.410156 1231.378906 302.960938 1223.289062 289.683594 Z M 1223.289062 289.683594 " fill-opacity="1" fill-rule="nonzero"/></svg>