<svg xmlns="http://www.w3.org/2000/svg" xmlns:xlink="http://www.w3.org/1999/xlink" width="1920" zoomAndPan="magnify" viewBox="0 0 1440 809.999993" height="1080" preserveAspectRatio="xMidYMid meet" version="1.0"><defs><filter x="0%" y="0%" width="100%" height="100%" id="d5e3314773"><feColorMatrix values="0 0 0 0 1 0 0 0 0 1 0 0 0 0 1 0 0 0 1 0" color-interpolation-filters="sRGB"/></filter><mask id="7df0f9c6a7"><g filter="url(#d5e3314773)"><rect x="-144" width="1728" fill="#000000" y="-80.999999" height="971.999992" fill-opacity="0.4"/></g></mask><clipPath id="f528fc5600"><path d="M 810 401 L 845 401 L 845 436 L 810 436 Z M 810 401 " clip-rule="nonzero"/></clipPath><clipPath id="624914dde6"><path d="M -0.0078125 396.558594 L 889.515625 -184.980469 L 1264.621094 388.785156 L 375.097656 970.324219 Z M -0.0078125 396.558594 " clip-rule="nonzero"/></clipPath><clipPath id="030634a180"><path d="M -0.0078125 396.558594 L 889.515625 -184.980469 L 1264.621094 388.785156 L 375.097656 970.324219 Z M -0.0078125 396.558594 " clip-rule="nonzero"/></clipPath><clipPath id="d440112936"><path d="M 775 471 L 806 471 L 806 502 L 775 502 Z M 775 471 " clip-rule="nonzero"/></clipPath><clipPath id="ac26e653bc"><path d="M -0.0078125 396.558594 L 889.515625 -184.980469 L 1264.621094 388.785156 L 375.097656 970.324219 Z M -0.0078125 396.558594 " clip-rule="nonzero"/></clipPath><clipPath id="2dcda3c308"><path d="M -0.0078125 396.558594 L 889.515625 -184.980469 L 1264.621094 388.785156 L 375.097656 970.324219 Z M -0.0078125 396.558594 " clip-rule="nonzero"/></clipPath><clipPath id="8a3806c3d2"><path d="M 815 306 L 857 306 L 857 347 L 815 347 Z M 815 306 " clip-rule="nonzero"/></clipPath><clipPath id="a28e2c092d"><path d="M -0.0078125 396.558594 L 889.515625 -184.980469 L 1264.621094 388.785156 L 375.097656 970.324219 Z M -0.0078125 396.558594 " clip-rule="nonzero"/></clipPath><clipPath id="0c81acbd1b"><path d="M -0.0078125 396.558594 L 889.515625 -184.980469 L 1264.621094 388.785156 L 375.097656 970.324219 Z M -0.0078125 396.558594 " clip-rule="nonzero"/></clipPath><clipPath id="a9a2cb0407"><path d="M 916 471 L 951 471 L 951 505 L 916 505 Z M 916 471 " clip-rule="nonzero"/></clipPath><clipPath id="3ab6b08e8b"><path d="M -0.0078125 396.558594 L 889.515625 -184.980469 L 1264.621094 388.785156 L 375.097656 970.324219 Z M -0.0078125 396.558594 " clip-rule="nonzero"/></clipPath><clipPath id="9686a4fd80"><path d="M -0.0078125 396.558594 L 889.515625 -184.980469 L 1264.621094 388.785156 L 375.097656 970.324219 Z M -0.0078125 396.558594 " clip-rule="nonzero"/></clipPath><clipPath id="fbfd927074"><path d="M 785 551 L 826 551 L 826 592 L 785 592 Z M 785 551 " clip-rule="nonzero"/></clipPath><clipPath id="300a4e3ac8"><path d="M -0.0078125 396.558594 L 889.515625 -184.980469 L 1264.621094 388.785156 L 375.097656 970.324219 Z M -0.0078125 396.558594 " clip-rule="nonzero"/></clipPath><clipPath id="931dced833"><path d="M -0.0078125 396.558594 L 889.515625 -184.980469 L 1264.621094 388.785156 L 375.097656 970.324219 Z M -0.0078125 396.558594 " clip-rule="nonzero"/></clipPath><clipPath id="52706bf572"><path d="M 537 698 L 598 698 L 598 758 L 537 758 Z M 537 698 " clip-rule="nonzero"/></clipPath><clipPath id="8f35d8404f"><path d="M -0.0078125 396.558594 L 889.515625 -184.980469 L 1264.621094 388.785156 L 375.097656 970.324219 Z M -0.0078125 396.558594 " clip-rule="nonzero"/></clipPath><clipPath id="023b4a63eb"><path d="M -0.0078125 396.558594 L 889.515625 -184.980469 L 1264.621094 388.785156 L 375.097656 970.324219 Z M -0.0078125 396.558594 " clip-rule="nonzero"/></clipPath><clipPath id="dd170da531"><path d="M 789 231 L 838 231 L 838 280 L 789 280 Z M 789 231 " clip-rule="nonzero"/></clipPath><clipPath id="05f8f9fb9c"><path d="M -0.0078125 396.558594 L 889.515625 -184.980469 L 1264.621094 388.785156 L 375.097656 970.324219 Z M -0.0078125 396.558594 " clip-rule="nonzero"/></clipPath><clipPath id="5a78ed2b5d"><path d="M -0.0078125 396.558594 L 889.515625 -184.980469 L 1264.621094 388.785156 L 375.097656 970.324219 Z M -0.0078125 396.558594 " clip-rule="nonzero"/></clipPath><clipPath id="ed6992f4de"><path d="M 716 149 L 748 149 L 748 182 L 716 182 Z M 716 149 " clip-rule="nonzero"/></clipPath><clipPath id="a553051a98"><path d="M -0.0078125 396.558594 L 889.515625 -184.980469 L 1264.621094 388.785156 L 375.097656 970.324219 Z M -0.0078125 396.558594 " clip-rule="nonzero"/></clipPath><clipPath id="1400186515"><path d="M -0.0078125 396.558594 L 889.515625 -184.980469 L 1264.621094 388.785156 L 375.097656 970.324219 Z M -0.0078125 396.558594 " clip-rule="nonzero"/></clipPath><clipPath id="4b318fdf9f"><path d="M 908 407 L 939 407 L 939 439 L 908 439 Z M 908 407 " clip-rule="nonzero"/></clipPath><clipPath id="5e7f5a2f61"><path d="M -0.0078125 396.558594 L 889.515625 -184.980469 L 1264.621094 388.785156 L 375.097656 970.324219 Z M -0.0078125 396.558594 " clip-rule="nonzero"/></clipPath><clipPath id="375c8cee4a"><path d="M -0.0078125 396.558594 L 889.515625 -184.980469 L 1264.621094 388.785156 L 375.097656 970.324219 Z M -0.0078125 396.558594 " clip-rule="nonzero"/></clipPath><clipPath id="a05e6938c7"><path d="M 975 221 L 1026 221 L 1026 272 L 975 272 Z M 975 221 " clip-rule="nonzero"/></clipPath><clipPath id="a9fc9be225"><path d="M -0.0078125 396.558594 L 889.515625 -184.980469 L 1264.621094 388.785156 L 375.097656 970.324219 Z M -0.0078125 396.558594 " clip-rule="nonzero"/></clipPath><clipPath id="3a9b7da395"><path d="M -0.0078125 396.558594 L 889.515625 -184.980469 L 1264.621094 388.785156 L 375.097656 970.324219 Z M -0.0078125 396.558594 " clip-rule="nonzero"/></clipPath><clipPath id="b5a47c0065"><path d="M 763 378 L 783 378 L 783 398 L 763 398 Z M 763 378 " clip-rule="nonzero"/></clipPath><clipPath id="6fe0e1496a"><path d="M -0.0078125 396.558594 L 889.515625 -184.980469 L 1264.621094 388.785156 L 375.097656 970.324219 Z M -0.0078125 396.558594 " clip-rule="nonzero"/></clipPath><clipPath id="67e4e9a86c"><path d="M -0.0078125 396.558594 L 889.515625 -184.980469 L 1264.621094 388.785156 L 375.097656 970.324219 Z M -0.0078125 396.558594 " clip-rule="nonzero"/></clipPath><clipPath id="35354beb6c"><path d="M 722 356 L 743 356 L 743 377 L 722 377 Z M 722 356 " clip-rule="nonzero"/></clipPath><clipPath id="6516817aab"><path d="M -0.0078125 396.558594 L 889.515625 -184.980469 L 1264.621094 388.785156 L 375.097656 970.324219 Z M -0.0078125 396.558594 " clip-rule="nonzero"/></clipPath><clipPath id="55c97615f5"><path d="M -0.0078125 396.558594 L 889.515625 -184.980469 L 1264.621094 388.785156 L 375.097656 970.324219 Z M -0.0078125 396.558594 " clip-rule="nonzero"/></clipPath><clipPath id="2b8f2fba87"><path d="M 656 335 L 677 335 L 677 356 L 656 356 Z M 656 335 " clip-rule="nonzero"/></clipPath><clipPath id="7cbe076468"><path d="M -0.0078125 396.558594 L 889.515625 -184.980469 L 1264.621094 388.785156 L 375.097656 970.324219 Z M -0.0078125 396.558594 " clip-rule="nonzero"/></clipPath><clipPath id="9aa49706e9"><path d="M -0.0078125 396.558594 L 889.515625 -184.980469 L 1264.621094 388.785156 L 375.097656 970.324219 Z M -0.0078125 396.558594 " clip-rule="nonzero"/></clipPath><clipPath id="8506a8f573"><path d="M 700 429 L 723 429 L 723 453 L 700 453 Z M 700 429 " clip-rule="nonzero"/></clipPath><clipPath id="e2e5649518"><path d="M -0.0078125 396.558594 L 889.515625 -184.980469 L 1264.621094 388.785156 L 375.097656 970.324219 Z M -0.0078125 396.558594 " clip-rule="nonzero"/></clipPath><clipPath id="c3c62d7071"><path d="M -0.0078125 396.558594 L 889.515625 -184.980469 L 1264.621094 388.785156 L 375.097656 970.324219 Z M -0.0078125 396.558594 " clip-rule="nonzero"/></clipPath><clipPath id="44e56e6024"><path d="M 735 519 L 761 519 L 761 544 L 735 544 Z M 735 519 " clip-rule="nonzero"/></clipPath><clipPath id="d2a537339c"><path d="M -0.0078125 396.558594 L 889.515625 -184.980469 L 1264.621094 388.785156 L 375.097656 970.324219 Z M -0.0078125 396.558594 " clip-rule="nonzero"/></clipPath><clipPath id="160a583e09"><path d="M -0.0078125 396.558594 L 889.515625 -184.980469 L 1264.621094 388.785156 L 375.097656 970.324219 Z M -0.0078125 396.558594 " clip-rule="nonzero"/></clipPath><clipPath id="52dbdbe7b8"><path d="M 737 593 L 758 593 L 758 614 L 737 614 Z M 737 593 " clip-rule="nonzero"/></clipPath><clipPath id="259f637861"><path d="M -0.0078125 396.558594 L 889.515625 -184.980469 L 1264.621094 388.785156 L 375.097656 970.324219 Z M -0.0078125 396.558594 " clip-rule="nonzero"/></clipPath><clipPath id="002e7fcce3"><path d="M -0.0078125 396.558594 L 889.515625 -184.980469 L 1264.621094 388.785156 L 375.097656 970.324219 Z M -0.0078125 396.558594 " clip-rule="nonzero"/></clipPath><clipPath id="9c14df3eb6"><path d="M 831 464 L 855 464 L 855 488 L 831 488 Z M 831 464 " clip-rule="nonzero"/></clipPath><clipPath id="cf2e707949"><path d="M -0.0078125 396.558594 L 889.515625 -184.980469 L 1264.621094 388.785156 L 375.097656 970.324219 Z M -0.0078125 396.558594 " clip-rule="nonzero"/></clipPath><clipPath id="419f2f7cdb"><path d="M -0.0078125 396.558594 L 889.515625 -184.980469 L 1264.621094 388.785156 L 375.097656 970.324219 Z M -0.0078125 396.558594 " clip-rule="nonzero"/></clipPath><clipPath id="3ea4a6781e"><path d="M 878 351 L 902 351 L 902 375 L 878 375 Z M 878 351 " clip-rule="nonzero"/></clipPath><clipPath id="9ea748e92a"><path d="M -0.0078125 396.558594 L 889.515625 -184.980469 L 1264.621094 388.785156 L 375.097656 970.324219 Z M -0.0078125 396.558594 " clip-rule="nonzero"/></clipPath><clipPath id="2852f6e0ef"><path d="M -0.0078125 396.558594 L 889.515625 -184.980469 L 1264.621094 388.785156 L 375.097656 970.324219 Z M -0.0078125 396.558594 " clip-rule="nonzero"/></clipPath><clipPath id="fe215cfefa"><path d="M 826 375 L 842 375 L 842 391 L 826 391 Z M 826 375 " clip-rule="nonzero"/></clipPath><clipPath id="bd56834147"><path d="M -0.0078125 396.558594 L 889.515625 -184.980469 L 1264.621094 388.785156 L 375.097656 970.324219 Z M -0.0078125 396.558594 " clip-rule="nonzero"/></clipPath><clipPath id="d399218de2"><path d="M -0.0078125 396.558594 L 889.515625 -184.980469 L 1264.621094 388.785156 L 375.097656 970.324219 Z M -0.0078125 396.558594 " clip-rule="nonzero"/></clipPath><clipPath id="8c07f2510b"><path d="M 696 252 L 712 252 L 712 268 L 696 268 Z M 696 252 " clip-rule="nonzero"/></clipPath><clipPath id="b52edb921f"><path d="M -0.0078125 396.558594 L 889.515625 -184.980469 L 1264.621094 388.785156 L 375.097656 970.324219 Z M -0.0078125 396.558594 " clip-rule="nonzero"/></clipPath><clipPath id="fd4204e958"><path d="M -0.0078125 396.558594 L 889.515625 -184.980469 L 1264.621094 388.785156 L 375.097656 970.324219 Z M -0.0078125 396.558594 " clip-rule="nonzero"/></clipPath><clipPath id="2caca587d7"><path d="M 741 498 L 757 498 L 757 515 L 741 515 Z M 741 498 " clip-rule="nonzero"/></clipPath><clipPath id="c137a2e21d"><path d="M -0.0078125 396.558594 L 889.515625 -184.980469 L 1264.621094 388.785156 L 375.097656 970.324219 Z M -0.0078125 396.558594 " clip-rule="nonzero"/></clipPath><clipPath id="5302f33997"><path d="M -0.0078125 396.558594 L 889.515625 -184.980469 L 1264.621094 388.785156 L 375.097656 970.324219 Z M -0.0078125 396.558594 " clip-rule="nonzero"/></clipPath><clipPath id="b8bcf4dbcf"><path d="M 656 455 L 672 455 L 672 471 L 656 471 Z M 656 455 " clip-rule="nonzero"/></clipPath><clipPath id="2ef4a05795"><path d="M -0.0078125 396.558594 L 889.515625 -184.980469 L 1264.621094 388.785156 L 375.097656 970.324219 Z M -0.0078125 396.558594 " clip-rule="nonzero"/></clipPath><clipPath id="fd2e79df41"><path d="M -0.0078125 396.558594 L 889.515625 -184.980469 L 1264.621094 388.785156 L 375.097656 970.324219 Z M -0.0078125 396.558594 " clip-rule="nonzero"/></clipPath><clipPath id="8e479bd9cf"><path d="M 810 519 L 826 519 L 826 535 L 810 535 Z M 810 519 " clip-rule="nonzero"/></clipPath><clipPath id="8370b35f8e"><path d="M -0.0078125 396.558594 L 889.515625 -184.980469 L 1264.621094 388.785156 L 375.097656 970.324219 Z M -0.0078125 396.558594 " clip-rule="nonzero"/></clipPath><clipPath id="46042fd6fe"><path d="M -0.0078125 396.558594 L 889.515625 -184.980469 L 1264.621094 388.785156 L 375.097656 970.324219 Z M -0.0078125 396.558594 " clip-rule="nonzero"/></clipPath><clipPath id="1e23052d91"><path d="M 921 563 L 938 563 L 938 579 L 921 579 Z M 921 563 " clip-rule="nonzero"/></clipPath><clipPath id="ecee470e15"><path d="M -0.0078125 396.558594 L 889.515625 -184.980469 L 1264.621094 388.785156 L 375.097656 970.324219 Z M -0.0078125 396.558594 " clip-rule="nonzero"/></clipPath><clipPath id="d8fd739f48"><path d="M -0.0078125 396.558594 L 889.515625 -184.980469 L 1264.621094 388.785156 L 375.097656 970.324219 Z M -0.0078125 396.558594 " clip-rule="nonzero"/></clipPath><clipPath id="871d216455"><path d="M 1038 381 L 1054 381 L 1054 397 L 1038 397 Z M 1038 381 " clip-rule="nonzero"/></clipPath><clipPath id="362dea9cfa"><path d="M -0.0078125 396.558594 L 889.515625 -184.980469 L 1264.621094 388.785156 L 375.097656 970.324219 Z M -0.0078125 396.558594 " clip-rule="nonzero"/></clipPath><clipPath id="589b3921f6"><path d="M -0.0078125 396.558594 L 889.515625 -184.980469 L 1264.621094 388.785156 L 375.097656 970.324219 Z M -0.0078125 396.558594 " clip-rule="nonzero"/></clipPath><clipPath id="2825929f6b"><path d="M 617 249 L 634 249 L 634 265 L 617 265 Z M 617 249 " clip-rule="nonzero"/></clipPath><clipPath id="39d50e3749"><path d="M -0.0078125 396.558594 L 889.515625 -184.980469 L 1264.621094 388.785156 L 375.097656 970.324219 Z M -0.0078125 396.558594 " clip-rule="nonzero"/></clipPath><clipPath id="3ef3566537"><path d="M -0.0078125 396.558594 L 889.515625 -184.980469 L 1264.621094 388.785156 L 375.097656 970.324219 Z M -0.0078125 396.558594 " clip-rule="nonzero"/></clipPath><clipPath id="3a2b17651d"><path d="M 498 588 L 533 588 L 533 622 L 498 622 Z M 498 588 " clip-rule="nonzero"/></clipPath><clipPath id="d09f42896a"><path d="M -0.0078125 396.558594 L 889.515625 -184.980469 L 1264.621094 388.785156 L 375.097656 970.324219 Z M -0.0078125 396.558594 " clip-rule="nonzero"/></clipPath><clipPath id="2b8cce3b75"><path d="M -0.0078125 396.558594 L 889.515625 -184.980469 L 1264.621094 388.785156 L 375.097656 970.324219 Z M -0.0078125 396.558594 " clip-rule="nonzero"/></clipPath><clipPath id="1d81b25b6d"><path d="M 391 712 L 426 712 L 426 747 L 391 747 Z M 391 712 " clip-rule="nonzero"/></clipPath><clipPath id="161d50d59c"><path d="M -0.0078125 396.558594 L 889.515625 -184.980469 L 1264.621094 388.785156 L 375.097656 970.324219 Z M -0.0078125 396.558594 " clip-rule="nonzero"/></clipPath><clipPath id="a961894915"><path d="M -0.0078125 396.558594 L 889.515625 -184.980469 L 1264.621094 388.785156 L 375.097656 970.324219 Z M -0.0078125 396.558594 " clip-rule="nonzero"/></clipPath><clipPath id="5c9144138f"><path d="M 463 658 L 494 658 L 494 689 L 463 689 Z M 463 658 " clip-rule="nonzero"/></clipPath><clipPath id="cea18e1d3b"><path d="M -0.0078125 396.558594 L 889.515625 -184.980469 L 1264.621094 388.785156 L 375.097656 970.324219 Z M -0.0078125 396.558594 " clip-rule="nonzero"/></clipPath><clipPath id="10ae801147"><path d="M -0.0078125 396.558594 L 889.515625 -184.980469 L 1264.621094 388.785156 L 375.097656 970.324219 Z M -0.0078125 396.558594 " clip-rule="nonzero"/></clipPath><clipPath id="c84cc84466"><path d="M 286 597 L 327 597 L 327 638 L 286 638 Z M 286 597 " clip-rule="nonzero"/></clipPath><clipPath id="f77f82d944"><path d="M -0.0078125 396.558594 L 889.515625 -184.980469 L 1264.621094 388.785156 L 375.097656 970.324219 Z M -0.0078125 396.558594 " clip-rule="nonzero"/></clipPath><clipPath id="cebbab5a3e"><path d="M -0.0078125 396.558594 L 889.515625 -184.980469 L 1264.621094 388.785156 L 375.097656 970.324219 Z M -0.0078125 396.558594 " clip-rule="nonzero"/></clipPath><clipPath id="cbf3e99c6e"><path d="M 745 672 L 786 672 L 786 713 L 745 713 Z M 745 672 " clip-rule="nonzero"/></clipPath><clipPath id="3502019ba1"><path d="M -0.0078125 396.558594 L 889.515625 -184.980469 L 1264.621094 388.785156 L 375.097656 970.324219 Z M -0.0078125 396.558594 " clip-rule="nonzero"/></clipPath><clipPath id="64585a7257"><path d="M -0.0078125 396.558594 L 889.515625 -184.980469 L 1264.621094 388.785156 L 375.097656 970.324219 Z M -0.0078125 396.558594 " clip-rule="nonzero"/></clipPath><clipPath id="9c7c5ced71"><path d="M 814 616 L 849 616 L 849 650 L 814 650 Z M 814 616 " clip-rule="nonzero"/></clipPath><clipPath id="ec49fb2cde"><path d="M -0.0078125 396.558594 L 889.515625 -184.980469 L 1264.621094 388.785156 L 375.097656 970.324219 Z M -0.0078125 396.558594 " clip-rule="nonzero"/></clipPath><clipPath id="888ae06339"><path d="M -0.0078125 396.558594 L 889.515625 -184.980469 L 1264.621094 388.785156 L 375.097656 970.324219 Z M -0.0078125 396.558594 " clip-rule="nonzero"/></clipPath><clipPath id="087cb6d010"><path d="M 279 658 L 340 658 L 340 719 L 279 719 Z M 279 658 " clip-rule="nonzero"/></clipPath><clipPath id="b214f0267e"><path d="M -0.0078125 396.558594 L 889.515625 -184.980469 L 1264.621094 388.785156 L 375.097656 970.324219 Z M -0.0078125 396.558594 " clip-rule="nonzero"/></clipPath><clipPath id="d3af020be0"><path d="M -0.0078125 396.558594 L 889.515625 -184.980469 L 1264.621094 388.785156 L 375.097656 970.324219 Z M -0.0078125 396.558594 " clip-rule="nonzero"/></clipPath><clipPath id="64a8a04a78"><path d="M 599 483 L 672 483 L 672 556 L 599 556 Z M 599 483 " clip-rule="nonzero"/></clipPath><clipPath id="31a5e21f47"><path d="M -0.0078125 396.558594 L 889.515625 -184.980469 L 1264.621094 388.785156 L 375.097656 970.324219 Z M -0.0078125 396.558594 " clip-rule="nonzero"/></clipPath><clipPath id="858661b4ef"><path d="M -0.0078125 396.558594 L 889.515625 -184.980469 L 1264.621094 388.785156 L 375.097656 970.324219 Z M -0.0078125 396.558594 " clip-rule="nonzero"/></clipPath><clipPath id="36e299600a"><path d="M 695 645 L 721 645 L 721 671 L 695 671 Z M 695 645 " clip-rule="nonzero"/></clipPath><clipPath id="65e13b000a"><path d="M -0.0078125 396.558594 L 889.515625 -184.980469 L 1264.621094 388.785156 L 375.097656 970.324219 Z M -0.0078125 396.558594 " clip-rule="nonzero"/></clipPath><clipPath id="70f239cd94"><path d="M -0.0078125 396.558594 L 889.515625 -184.980469 L 1264.621094 388.785156 L 375.097656 970.324219 Z M -0.0078125 396.558594 " clip-rule="nonzero"/></clipPath><clipPath id="98373d6e3f"><path d="M 689 725 L 710 725 L 710 746 L 689 746 Z M 689 725 " clip-rule="nonzero"/></clipPath><clipPath id="b14972eb1c"><path d="M -0.0078125 396.558594 L 889.515625 -184.980469 L 1264.621094 388.785156 L 375.097656 970.324219 Z M -0.0078125 396.558594 " clip-rule="nonzero"/></clipPath><clipPath id="4bab303f40"><path d="M -0.0078125 396.558594 L 889.515625 -184.980469 L 1264.621094 388.785156 L 375.097656 970.324219 Z M -0.0078125 396.558594 " clip-rule="nonzero"/></clipPath><clipPath id="e4318644b2"><path d="M 574 635 L 595 635 L 595 656 L 574 656 Z M 574 635 " clip-rule="nonzero"/></clipPath><clipPath id="9ad673ec95"><path d="M -0.0078125 396.558594 L 889.515625 -184.980469 L 1264.621094 388.785156 L 375.097656 970.324219 Z M -0.0078125 396.558594 " clip-rule="nonzero"/></clipPath><clipPath id="eb1ee70c91"><path d="M -0.0078125 396.558594 L 889.515625 -184.980469 L 1264.621094 388.785156 L 375.097656 970.324219 Z M -0.0078125 396.558594 " clip-rule="nonzero"/></clipPath><clipPath id="589b6b69fa"><path d="M 519 651 L 543 651 L 543 675 L 519 675 Z M 519 651 " clip-rule="nonzero"/></clipPath><clipPath id="8061eb2970"><path d="M -0.0078125 396.558594 L 889.515625 -184.980469 L 1264.621094 388.785156 L 375.097656 970.324219 Z M -0.0078125 396.558594 " clip-rule="nonzero"/></clipPath><clipPath id="4e1a627a42"><path d="M -0.0078125 396.558594 L 889.515625 -184.980469 L 1264.621094 388.785156 L 375.097656 970.324219 Z M -0.0078125 396.558594 " clip-rule="nonzero"/></clipPath><clipPath id="562191e822"><path d="M 566 538 L 590 538 L 590 562 L 566 562 Z M 566 538 " clip-rule="nonzero"/></clipPath><clipPath id="e637709107"><path d="M -0.0078125 396.558594 L 889.515625 -184.980469 L 1264.621094 388.785156 L 375.097656 970.324219 Z M -0.0078125 396.558594 " clip-rule="nonzero"/></clipPath><clipPath id="37d3d18714"><path d="M -0.0078125 396.558594 L 889.515625 -184.980469 L 1264.621094 388.785156 L 375.097656 970.324219 Z M -0.0078125 396.558594 " clip-rule="nonzero"/></clipPath><clipPath id="114255af0c"><path d="M 522 530 L 538 530 L 538 546 L 522 546 Z M 522 530 " clip-rule="nonzero"/></clipPath><clipPath id="cf6c0bdee2"><path d="M -0.0078125 396.558594 L 889.515625 -184.980469 L 1264.621094 388.785156 L 375.097656 970.324219 Z M -0.0078125 396.558594 " clip-rule="nonzero"/></clipPath><clipPath id="c0b4f64506"><path d="M -0.0078125 396.558594 L 889.515625 -184.980469 L 1264.621094 388.785156 L 375.097656 970.324219 Z M -0.0078125 396.558594 " clip-rule="nonzero"/></clipPath><clipPath id="effa026760"><path d="M 213 622 L 229 622 L 229 638 L 213 638 Z M 213 622 " clip-rule="nonzero"/></clipPath><clipPath id="533caaa234"><path d="M -0.0078125 396.558594 L 889.515625 -184.980469 L 1264.621094 388.785156 L 375.097656 970.324219 Z M -0.0078125 396.558594 " clip-rule="nonzero"/></clipPath><clipPath id="a76fc8a94a"><path d="M -0.0078125 396.558594 L 889.515625 -184.980469 L 1264.621094 388.785156 L 375.097656 970.324219 Z M -0.0078125 396.558594 " clip-rule="nonzero"/></clipPath><clipPath id="9e208e980f"><path d="M 679 574 L 695 574 L 695 590 L 679 590 Z M 679 574 " clip-rule="nonzero"/></clipPath><clipPath id="316ba69955"><path d="M -0.0078125 396.558594 L 889.515625 -184.980469 L 1264.621094 388.785156 L 375.097656 970.324219 Z M -0.0078125 396.558594 " clip-rule="nonzero"/></clipPath><clipPath id="580a03152b"><path d="M -0.0078125 396.558594 L 889.515625 -184.980469 L 1264.621094 388.785156 L 375.097656 970.324219 Z M -0.0078125 396.558594 " clip-rule="nonzero"/></clipPath><clipPath id="1d6ba10044"><path d="M 649 419 L 660 419 L 660 430 L 649 430 Z M 649 419 " clip-rule="nonzero"/></clipPath><clipPath id="4abd697f6a"><path d="M -0.0078125 396.558594 L 889.515625 -184.980469 L 1264.621094 388.785156 L 375.097656 970.324219 Z M -0.0078125 396.558594 " clip-rule="nonzero"/></clipPath><clipPath id="6646c41f17"><path d="M -0.0078125 396.558594 L 889.515625 -184.980469 L 1264.621094 388.785156 L 375.097656 970.324219 Z M -0.0078125 396.558594 " clip-rule="nonzero"/></clipPath><clipPath id="2f47b46979"><path d="M 581 463 L 592 463 L 592 474 L 581 474 Z M 581 463 " clip-rule="nonzero"/></clipPath><clipPath id="bc82f1e0ef"><path d="M -0.0078125 396.558594 L 889.515625 -184.980469 L 1264.621094 388.785156 L 375.097656 970.324219 Z M -0.0078125 396.558594 " clip-rule="nonzero"/></clipPath><clipPath id="60cbb81ba9"><path d="M -0.0078125 396.558594 L 889.515625 -184.980469 L 1264.621094 388.785156 L 375.097656 970.324219 Z M -0.0078125 396.558594 " clip-rule="nonzero"/></clipPath><clipPath id="f69fd87c88"><path d="M 464 777 L 475 777 L 475 787 L 464 787 Z M 464 777 " clip-rule="nonzero"/></clipPath><clipPath id="0e9bed0e39"><path d="M -0.0078125 396.558594 L 889.515625 -184.980469 L 1264.621094 388.785156 L 375.097656 970.324219 Z M -0.0078125 396.558594 " clip-rule="nonzero"/></clipPath><clipPath id="7a9f0c0739"><path d="M -0.0078125 396.558594 L 889.515625 -184.980469 L 1264.621094 388.785156 L 375.097656 970.324219 Z M -0.0078125 396.558594 " clip-rule="nonzero"/></clipPath><clipPath id="53133ed2d5"><path d="M 328 573 L 339 573 L 339 584 L 328 584 Z M 328 573 " clip-rule="nonzero"/></clipPath><clipPath id="8da0599284"><path d="M -0.0078125 396.558594 L 889.515625 -184.980469 L 1264.621094 388.785156 L 375.097656 970.324219 Z M -0.0078125 396.558594 " clip-rule="nonzero"/></clipPath><clipPath id="0b2f514a6e"><path d="M -0.0078125 396.558594 L 889.515625 -184.980469 L 1264.621094 388.785156 L 375.097656 970.324219 Z M -0.0078125 396.558594 " clip-rule="nonzero"/></clipPath><clipPath id="20af7b0334"><path d="M 793 116 L 804 116 L 804 127 L 793 127 Z M 793 116 " clip-rule="nonzero"/></clipPath><clipPath id="b1d5303306"><path d="M -0.0078125 396.558594 L 889.515625 -184.980469 L 1264.621094 388.785156 L 375.097656 970.324219 Z M -0.0078125 396.558594 " clip-rule="nonzero"/></clipPath><clipPath id="fea8422f55"><path d="M -0.0078125 396.558594 L 889.515625 -184.980469 L 1264.621094 388.785156 L 375.097656 970.324219 Z M -0.0078125 396.558594 " clip-rule="nonzero"/></clipPath><clipPath id="95ab8c7ac3"><path d="M 347 657 L 363 657 L 363 673 L 347 673 Z M 347 657 " clip-rule="nonzero"/></clipPath><clipPath id="2905c121b4"><path d="M -0.0078125 396.558594 L 889.515625 -184.980469 L 1264.621094 388.785156 L 375.097656 970.324219 Z M -0.0078125 396.558594 " clip-rule="nonzero"/></clipPath><clipPath id="b669cf65e2"><path d="M -0.0078125 396.558594 L 889.515625 -184.980469 L 1264.621094 388.785156 L 375.097656 970.324219 Z M -0.0078125 396.558594 " clip-rule="nonzero"/></clipPath><clipPath id="1b20c1082d"><path d="M 408 666 L 424 666 L 424 682 L 408 682 Z M 408 666 " clip-rule="nonzero"/></clipPath><clipPath id="ee8b8fc56f"><path d="M -0.0078125 396.558594 L 889.515625 -184.980469 L 1264.621094 388.785156 L 375.097656 970.324219 Z M -0.0078125 396.558594 " clip-rule="nonzero"/></clipPath><clipPath id="bf4a6904ad"><path d="M -0.0078125 396.558594 L 889.515625 -184.980469 L 1264.621094 388.785156 L 375.097656 970.324219 Z M -0.0078125 396.558594 " clip-rule="nonzero"/></clipPath><clipPath id="99f704785c"><path d="M 465 548 L 481 548 L 481 564 L 465 564 Z M 465 548 " clip-rule="nonzero"/></clipPath><clipPath id="dab6283378"><path d="M -0.0078125 396.558594 L 889.515625 -184.980469 L 1264.621094 388.785156 L 375.097656 970.324219 Z M -0.0078125 396.558594 " clip-rule="nonzero"/></clipPath><clipPath id="3f21759e68"><path d="M -0.0078125 396.558594 L 889.515625 -184.980469 L 1264.621094 388.785156 L 375.097656 970.324219 Z M -0.0078125 396.558594 " clip-rule="nonzero"/></clipPath><clipPath id="e44e48b1b5"><path d="M 254 581 L 270 581 L 270 597 L 254 597 Z M 254 581 " clip-rule="nonzero"/></clipPath><clipPath id="375663ef57"><path d="M -0.0078125 396.558594 L 889.515625 -184.980469 L 1264.621094 388.785156 L 375.097656 970.324219 Z M -0.0078125 396.558594 " clip-rule="nonzero"/></clipPath><clipPath id="eb62248270"><path d="M -0.0078125 396.558594 L 889.515625 -184.980469 L 1264.621094 388.785156 L 375.097656 970.324219 Z M -0.0078125 396.558594 " clip-rule="nonzero"/></clipPath><clipPath id="b665edfb8a"><path d="M 488 714 L 504 714 L 504 730 L 488 730 Z M 488 714 " clip-rule="nonzero"/></clipPath><clipPath id="a6db97cbc9"><path d="M -0.0078125 396.558594 L 889.515625 -184.980469 L 1264.621094 388.785156 L 375.097656 970.324219 Z M -0.0078125 396.558594 " clip-rule="nonzero"/></clipPath><clipPath id="e527909f96"><path d="M -0.0078125 396.558594 L 889.515625 -184.980469 L 1264.621094 388.785156 L 375.097656 970.324219 Z M -0.0078125 396.558594 " clip-rule="nonzero"/></clipPath><clipPath id="0b1612ed14"><path d="M 613 587 L 629 587 L 629 603 L 613 603 Z M 613 587 " clip-rule="nonzero"/></clipPath><clipPath id="f60ecb2023"><path d="M -0.0078125 396.558594 L 889.515625 -184.980469 L 1264.621094 388.785156 L 375.097656 970.324219 Z M -0.0078125 396.558594 " clip-rule="nonzero"/></clipPath><clipPath id="f038c0f0a4"><path d="M -0.0078125 396.558594 L 889.515625 -184.980469 L 1264.621094 388.785156 L 375.097656 970.324219 Z M -0.0078125 396.558594 " clip-rule="nonzero"/></clipPath><clipPath id="9e6b5749c7"><path d="M 630 653 L 646 653 L 646 669 L 630 669 Z M 630 653 " clip-rule="nonzero"/></clipPath><clipPath id="195bdbe508"><path d="M -0.0078125 396.558594 L 889.515625 -184.980469 L 1264.621094 388.785156 L 375.097656 970.324219 Z M -0.0078125 396.558594 " clip-rule="nonzero"/></clipPath><clipPath id="2a294b6f21"><path d="M -0.0078125 396.558594 L 889.515625 -184.980469 L 1264.621094 388.785156 L 375.097656 970.324219 Z M -0.0078125 396.558594 " clip-rule="nonzero"/></clipPath><clipPath id="0600963880"><path d="M 834 10 L 886 10 L 886 61 L 834 61 Z M 834 10 " clip-rule="nonzero"/></clipPath><clipPath id="d791d3e35e"><path d="M -0.0078125 396.558594 L 889.515625 -184.980469 L 1264.621094 388.785156 L 375.097656 970.324219 Z M -0.0078125 396.558594 " clip-rule="nonzero"/></clipPath><clipPath id="05a1cf1fd6"><path d="M -0.0078125 396.558594 L 889.515625 -184.980469 L 1264.621094 388.785156 L 375.097656 970.324219 Z M -0.0078125 396.558594 " clip-rule="nonzero"/></clipPath><clipPath id="1da347071d"><path d="M 914 16 L 949 16 L 949 51 L 914 51 Z M 914 16 " clip-rule="nonzero"/></clipPath><clipPath id="3fbc86bfec"><path d="M -0.0078125 396.558594 L 889.515625 -184.980469 L 1264.621094 388.785156 L 375.097656 970.324219 Z M -0.0078125 396.558594 " clip-rule="nonzero"/></clipPath><clipPath id="fb0b144543"><path d="M -0.0078125 396.558594 L 889.515625 -184.980469 L 1264.621094 388.785156 L 375.097656 970.324219 Z M -0.0078125 396.558594 " clip-rule="nonzero"/></clipPath><clipPath id="e9456e3f12"><path d="M 958 371 L 992 371 L 992 405 L 958 405 Z M 958 371 " clip-rule="nonzero"/></clipPath><clipPath id="709f496b6c"><path d="M -0.0078125 396.558594 L 889.515625 -184.980469 L 1264.621094 388.785156 L 375.097656 970.324219 Z M -0.0078125 396.558594 " clip-rule="nonzero"/></clipPath><clipPath id="e200acaae0"><path d="M -0.0078125 396.558594 L 889.515625 -184.980469 L 1264.621094 388.785156 L 375.097656 970.324219 Z M -0.0078125 396.558594 " clip-rule="nonzero"/></clipPath><clipPath id="6a4687fc31"><path d="M 889 166 L 929 166 L 929 207 L 889 207 Z M 889 166 " clip-rule="nonzero"/></clipPath><clipPath id="421da80a7b"><path d="M -0.0078125 396.558594 L 889.515625 -184.980469 L 1264.621094 388.785156 L 375.097656 970.324219 Z M -0.0078125 396.558594 " clip-rule="nonzero"/></clipPath><clipPath id="b265cdc36e"><path d="M -0.0078125 396.558594 L 889.515625 -184.980469 L 1264.621094 388.785156 L 375.097656 970.324219 Z M -0.0078125 396.558594 " clip-rule="nonzero"/></clipPath><clipPath id="46eab74c71"><path d="M 801 171 L 836 171 L 836 206 L 801 206 Z M 801 171 " clip-rule="nonzero"/></clipPath><clipPath id="a90c80af9f"><path d="M -0.0078125 396.558594 L 889.515625 -184.980469 L 1264.621094 388.785156 L 375.097656 970.324219 Z M -0.0078125 396.558594 " clip-rule="nonzero"/></clipPath><clipPath id="5926b7c611"><path d="M -0.0078125 396.558594 L 889.515625 -184.980469 L 1264.621094 388.785156 L 375.097656 970.324219 Z M -0.0078125 396.558594 " clip-rule="nonzero"/></clipPath><clipPath id="8da910df9b"><path d="M 949 308 L 981 308 L 981 339 L 949 339 Z M 949 308 " clip-rule="nonzero"/></clipPath><clipPath id="81ed34e5a7"><path d="M -0.0078125 396.558594 L 889.515625 -184.980469 L 1264.621094 388.785156 L 375.097656 970.324219 Z M -0.0078125 396.558594 " clip-rule="nonzero"/></clipPath><clipPath id="38370b3408"><path d="M -0.0078125 396.558594 L 889.515625 -184.980469 L 1264.621094 388.785156 L 375.097656 970.324219 Z M -0.0078125 396.558594 " clip-rule="nonzero"/></clipPath><clipPath id="1056c0879a"><path d="M 156 606 L 187 606 L 187 638 L 156 638 Z M 156 606 " clip-rule="nonzero"/></clipPath><clipPath id="e6322fa1a8"><path d="M -0.0078125 396.558594 L 889.515625 -184.980469 L 1264.621094 388.785156 L 375.097656 970.324219 Z M -0.0078125 396.558594 " clip-rule="nonzero"/></clipPath><clipPath id="98a7465283"><path d="M -0.0078125 396.558594 L 889.515625 -184.980469 L 1264.621094 388.785156 L 375.097656 970.324219 Z M -0.0078125 396.558594 " clip-rule="nonzero"/></clipPath><clipPath id="cc73f9b912"><path d="M 882 0 L 902 0 L 902 12 L 882 12 Z M 882 0 " clip-rule="nonzero"/></clipPath><clipPath id="a6a9c73de5"><path d="M -0.0078125 396.558594 L 889.515625 -184.980469 L 1264.621094 388.785156 L 375.097656 970.324219 Z M -0.0078125 396.558594 " clip-rule="nonzero"/></clipPath><clipPath id="e7f94e28ea"><path d="M -0.0078125 396.558594 L 889.515625 -184.980469 L 1264.621094 388.785156 L 375.097656 970.324219 Z M -0.0078125 396.558594 " clip-rule="nonzero"/></clipPath><clipPath id="c27690c51e"><path d="M 803 45 L 827 45 L 827 68 L 803 68 Z M 803 45 " clip-rule="nonzero"/></clipPath><clipPath id="b5393c7328"><path d="M -0.0078125 396.558594 L 889.515625 -184.980469 L 1264.621094 388.785156 L 375.097656 970.324219 Z M -0.0078125 396.558594 " clip-rule="nonzero"/></clipPath><clipPath id="ce61df1f81"><path d="M -0.0078125 396.558594 L 889.515625 -184.980469 L 1264.621094 388.785156 L 375.097656 970.324219 Z M -0.0078125 396.558594 " clip-rule="nonzero"/></clipPath><clipPath id="311d465107"><path d="M 838 134 L 864 134 L 864 160 L 838 160 Z M 838 134 " clip-rule="nonzero"/></clipPath><clipPath id="35fbd39853"><path d="M -0.0078125 396.558594 L 889.515625 -184.980469 L 1264.621094 388.785156 L 375.097656 970.324219 Z M -0.0078125 396.558594 " clip-rule="nonzero"/></clipPath><clipPath id="db9e1946ca"><path d="M -0.0078125 396.558594 L 889.515625 -184.980469 L 1264.621094 388.785156 L 375.097656 970.324219 Z M -0.0078125 396.558594 " clip-rule="nonzero"/></clipPath><clipPath id="597b7cd1aa"><path d="M 1014 130 L 1035 130 L 1035 151 L 1014 151 Z M 1014 130 " clip-rule="nonzero"/></clipPath><clipPath id="29cdd8010e"><path d="M -0.0078125 396.558594 L 889.515625 -184.980469 L 1264.621094 388.785156 L 375.097656 970.324219 Z M -0.0078125 396.558594 " clip-rule="nonzero"/></clipPath><clipPath id="53a8a78df7"><path d="M -0.0078125 396.558594 L 889.515625 -184.980469 L 1264.621094 388.785156 L 375.097656 970.324219 Z M -0.0078125 396.558594 " clip-rule="nonzero"/></clipPath><clipPath id="a3ab3734d6"><path d="M 920 251 L 944 251 L 944 275 L 920 275 Z M 920 251 " clip-rule="nonzero"/></clipPath><clipPath id="c8777a8498"><path d="M -0.0078125 396.558594 L 889.515625 -184.980469 L 1264.621094 388.785156 L 375.097656 970.324219 Z M -0.0078125 396.558594 " clip-rule="nonzero"/></clipPath><clipPath id="049ae0515b"><path d="M -0.0078125 396.558594 L 889.515625 -184.980469 L 1264.621094 388.785156 L 375.097656 970.324219 Z M -0.0078125 396.558594 " clip-rule="nonzero"/></clipPath><clipPath id="a801d261e0"><path d="M 843 90 L 859 90 L 859 106 L 843 106 Z M 843 90 " clip-rule="nonzero"/></clipPath><clipPath id="eb2c11d891"><path d="M -0.0078125 396.558594 L 889.515625 -184.980469 L 1264.621094 388.785156 L 375.097656 970.324219 Z M -0.0078125 396.558594 " clip-rule="nonzero"/></clipPath><clipPath id="b37d352632"><path d="M -0.0078125 396.558594 L 889.515625 -184.980469 L 1264.621094 388.785156 L 375.097656 970.324219 Z M -0.0078125 396.558594 " clip-rule="nonzero"/></clipPath><clipPath id="536c7e1720"><path d="M 871 274 L 887 274 L 887 290 L 871 290 Z M 871 274 " clip-rule="nonzero"/></clipPath><clipPath id="53481bf496"><path d="M -0.0078125 396.558594 L 889.515625 -184.980469 L 1264.621094 388.785156 L 375.097656 970.324219 Z M -0.0078125 396.558594 " clip-rule="nonzero"/></clipPath><clipPath id="2a93e1d4c4"><path d="M -0.0078125 396.558594 L 889.515625 -184.980469 L 1264.621094 388.785156 L 375.097656 970.324219 Z M -0.0078125 396.558594 " clip-rule="nonzero"/></clipPath><clipPath id="af79c0049f"><path d="M 913 135 L 929 135 L 929 151 L 913 151 Z M 913 135 " clip-rule="nonzero"/></clipPath><clipPath id="d381be9b86"><path d="M -0.0078125 396.558594 L 889.515625 -184.980469 L 1264.621094 388.785156 L 375.097656 970.324219 Z M -0.0078125 396.558594 " clip-rule="nonzero"/></clipPath><clipPath id="06016690dc"><path d="M -0.0078125 396.558594 L 889.515625 -184.980469 L 1264.621094 388.785156 L 375.097656 970.324219 Z M -0.0078125 396.558594 " clip-rule="nonzero"/></clipPath><clipPath id="ab253279ac"><path d="M 963 161 L 979 161 L 979 177 L 963 177 Z M 963 161 " clip-rule="nonzero"/></clipPath><clipPath id="90ec5de176"><path d="M -0.0078125 396.558594 L 889.515625 -184.980469 L 1264.621094 388.785156 L 375.097656 970.324219 Z M -0.0078125 396.558594 " clip-rule="nonzero"/></clipPath><clipPath id="7d699ee652"><path d="M -0.0078125 396.558594 L 889.515625 -184.980469 L 1264.621094 388.785156 L 375.097656 970.324219 Z M -0.0078125 396.558594 " clip-rule="nonzero"/></clipPath><clipPath id="568d276341"><path d="M 1050 207 L 1066 207 L 1066 223 L 1050 223 Z M 1050 207 " clip-rule="nonzero"/></clipPath><clipPath id="8ec9b62e4e"><path d="M -0.0078125 396.558594 L 889.515625 -184.980469 L 1264.621094 388.785156 L 375.097656 970.324219 Z M -0.0078125 396.558594 " clip-rule="nonzero"/></clipPath><clipPath id="b27f220936"><path d="M -0.0078125 396.558594 L 889.515625 -184.980469 L 1264.621094 388.785156 L 375.097656 970.324219 Z M -0.0078125 396.558594 " clip-rule="nonzero"/></clipPath><clipPath id="10c75c74e6"><rect x="0" width="1265" y="0" height="810"/></clipPath></defs><rect x="-144" width="1728" fill="#ffffff" y="-80.999999" height="971.999992" fill-opacity="1"/><rect x="-144" width="1728" fill="#10151b" y="-80.999999" height="971.999992" fill-opacity="1"/><path fill="#9badd6" d="M 568.785156 239.179688 C 595.613281 239.074219 615.160156 245.4375 634.003906 254.371094 C 664.570312 268.867188 687.585938 291.578125 704.703125 320.390625 C 709.527344 328.535156 713.699219 337.054688 718.324219 345.320312 C 719.140625 346.261719 720.15625 346.882812 721.367188 347.179688 C 721.554688 347.257812 722.46875 345.957031 722.695312 345.1875 C 724.222656 340.707031 725.648438 336.191406 727.109375 331.699219 C 736.78125 301.984375 749.699219 273.957031 769.832031 249.691406 C 786.042969 230.128906 805.234375 214.59375 829.445312 205.839844 C 834.996094 203.753906 840.679688 202.148438 846.5 201.023438 C 852.320312 199.894531 858.195312 199.261719 864.121094 199.125 C 870.046875 198.988281 875.941406 199.34375 881.808594 200.199219 C 887.675781 201.054688 893.425781 202.394531 899.066406 204.214844 C 902.785156 205.351562 906.386719 206.777344 909.871094 208.496094 C 913.359375 210.214844 916.683594 212.203125 919.847656 214.460938 C 923.007812 216.722656 925.96875 219.222656 928.726562 221.960938 C 931.480469 224.699219 934 227.644531 936.277344 230.792969 C 952.421875 252.960938 958.683594 277.984375 956.648438 305.214844 C 955.320312 322.582031 950.269531 338.96875 943.359375 354.859375 C 928.597656 388.496094 910.03125 419.976562 889.621094 450.542969 C 855.519531 501.359375 819.679688 550.886719 779.148438 596.867188 C 775.683594 600.683594 771.890625 604.144531 767.773438 607.246094 C 760.023438 613.238281 752.066406 613.039062 743.851562 607.65625 C 736.289062 602.714844 728.53125 598.074219 720.730469 593.515625 C 693.234375 577.410156 665.382812 561.863281 638.230469 545.199219 C 610.261719 528.066406 583.726562 508.9375 558.628906 487.816406 C 551.65625 482.019531 545.0625 475.816406 538.851562 469.210938 C 532.640625 462.601562 526.855469 455.640625 521.5 448.320312 C 516.144531 441.003906 511.257812 433.386719 506.835938 425.464844 C 502.417969 417.546875 498.5 409.386719 495.082031 400.988281 C 482.699219 370.515625 481.210938 339.019531 490.191406 307.339844 C 497.035156 283.152344 511.601562 264.429688 532.796875 250.914062 C 545.582031 242.769531 559.453125 239.046875 568.785156 239.179688 Z M 935.214844 295.074219 C 935.214844 292.414062 935.414062 289.320312 935.214844 286.328125 C 933.101562 259.832031 921.074219 238.96875 896.941406 227.644531 C 865.859375 213.027344 835.8125 216.574219 808.449219 238.050781 C 796.894531 247.238281 787.011719 257.964844 778.800781 270.234375 C 761.886719 295.101562 750.761719 322.527344 743.042969 351.417969 C 738.820312 366.417969 736.605469 381.710938 736.398438 397.292969 C 736.398438 405.835938 733.980469 408.480469 726.816406 410.582031 C 726.410156 410.726562 725.992188 410.835938 725.566406 410.90625 C 725.136719 410.976562 724.707031 411.007812 724.277344 411 C 723.84375 410.992188 723.414062 410.941406 722.992188 410.855469 C 722.566406 410.769531 722.15625 410.644531 721.753906 410.480469 C 721.355469 410.316406 720.972656 410.117188 720.605469 409.886719 C 720.242188 409.652344 719.902344 409.386719 719.585938 409.09375 C 719.269531 408.796875 718.984375 408.472656 718.726562 408.125 C 718.46875 407.777344 718.246094 407.410156 718.058594 407.019531 C 716.910156 404.710938 715.890625 402.34375 715.003906 399.921875 C 711.09375 390.355469 707.253906 380.761719 703.335938 371.191406 C 695.921875 352.6875 686.125 335.542969 673.9375 319.765625 C 650.019531 289.292969 618.578125 271.074219 580.917969 263.5 C 569.953125 261.292969 558.605469 261.132812 547.917969 265.878906 C 532.171875 272.867188 521.167969 284.707031 514.699219 300.429688 C 503.214844 327.988281 501.195312 356.28125 511.71875 384.707031 C 523.308594 416.03125 542.285156 442.582031 567.28125 464.441406 C 598.738281 492.03125 633.367188 515.511719 669.488281 536.628906 C 696.238281 552.28125 723.09375 567.75 749.9375 583.257812 C 751.832031 584.289062 753.789062 585.175781 755.8125 585.917969 C 756.402344 586.199219 757.019531 586.375 757.667969 586.445312 C 758.316406 586.515625 758.957031 586.476562 759.59375 586.324219 C 760.226562 586.175781 760.820312 585.925781 761.367188 585.570312 C 761.914062 585.21875 762.390625 584.785156 762.789062 584.269531 C 764.199219 582.648438 765.6875 581.09375 767.066406 579.445312 C 811.414062 526.582031 852.476562 471.3125 888.847656 412.640625 C 902.695312 390.300781 915.574219 367.457031 925.605469 343.035156 C 931.890625 327.804688 936.277344 312.125 935.214844 295.074219 Z M 935.214844 295.074219 " fill-opacity="1" fill-rule="nonzero"/><g mask="url(#7df0f9c6a7)"><g transform="matrix(1, 0, 0, 1, 49, 0.000000000000039746)"><g clip-path="url(#10c75c74e6)"><g clip-path="url(#f528fc5600)"><g clip-path="url(#624914dde6)"><g clip-path="url(#030634a180)"><path fill="#9badd6" d="M 830.171875 413.824219 L 830.820312 403.574219 L 827.304688 413.21875 L 816.691406 401.171875 L 823.46875 415.726562 L 813.222656 415.082031 L 822.867188 418.597656 L 810.820312 429.210938 L 825.375 422.433594 L 824.726562 432.683594 L 828.242188 423.035156 L 838.859375 435.078125 L 832.078125 420.527344 L 842.328125 421.175781 L 832.679688 417.660156 L 844.730469 407.042969 Z M 830.171875 413.824219 " fill-opacity="1" fill-rule="nonzero"/></g></g></g><g clip-path="url(#d440112936)"><g clip-path="url(#ac26e653bc)"><g clip-path="url(#2dcda3c308)"><path fill="#9badd6" d="M 792.171875 482.074219 L 791.113281 471.859375 L 789.246094 481.957031 L 776.777344 471.835938 L 785.878906 485.066406 L 775.664062 486.128906 L 785.765625 487.996094 L 775.644531 500.460938 L 788.875 491.363281 L 789.9375 501.574219 L 791.800781 491.480469 L 804.269531 501.59375 L 795.171875 488.367188 L 805.382812 487.304688 L 795.285156 485.4375 L 805.402344 472.972656 Z M 792.171875 482.074219 " fill-opacity="1" fill-rule="nonzero"/></g></g></g><g clip-path="url(#8a3806c3d2)"><g clip-path="url(#a28e2c092d)"><g clip-path="url(#0c81acbd1b)"><path fill="#9badd6" d="M 840.203125 323.964844 L 846.089844 315.550781 L 838.066406 321.960938 L 835.265625 306.148438 L 833.488281 322.109375 L 825.070312 316.226562 L 831.480469 324.242188 L 815.671875 327.046875 L 831.628906 328.828125 L 825.746094 337.242188 L 833.765625 330.832031 L 836.570312 346.640625 L 838.347656 330.6875 L 846.765625 336.570312 L 840.351562 328.546875 L 856.160156 325.746094 Z M 840.203125 323.964844 " fill-opacity="1" fill-rule="nonzero"/></g></g></g><g clip-path="url(#a9a2cb0407)"><g clip-path="url(#3ab6b08e8b)"><g clip-path="url(#9686a4fd80)"><path fill="#9badd6" d="M 935.742188 483.652344 L 936.394531 473.402344 L 932.875 483.050781 L 922.265625 471.003906 L 929.039062 485.558594 L 918.792969 484.910156 L 928.441406 488.425781 L 916.394531 499.042969 L 930.949219 492.261719 L 930.296875 502.511719 L 933.816406 492.863281 L 944.433594 504.914062 L 937.652344 490.355469 L 947.898438 491.003906 L 938.25 487.488281 L 950.300781 476.875 Z M 935.742188 483.652344 " fill-opacity="1" fill-rule="nonzero"/></g></g></g><g clip-path="url(#fbfd927074)"><g clip-path="url(#300a4e3ac8)"><g clip-path="url(#931dced833)"><path fill="#9badd6" d="M 809.660156 568.335938 L 814.253906 559.144531 L 807.25 566.664062 L 802.171875 551.425781 L 802.738281 567.472656 L 793.558594 562.878906 L 801.066406 569.882812 L 785.835938 574.957031 L 801.882812 574.390625 L 797.289062 583.578125 L 804.292969 576.0625 L 809.367188 591.296875 L 808.800781 575.25 L 817.984375 579.84375 L 810.472656 572.84375 L 825.703125 567.769531 Z M 809.660156 568.335938 " fill-opacity="1" fill-rule="nonzero"/></g></g></g><g clip-path="url(#52706bf572)"><g clip-path="url(#8f35d8404f)"><g clip-path="url(#023b4a63eb)"><path fill="#9badd6" d="M 569.441406 718.632812 L 565.304688 698.878906 L 563.691406 718.992188 L 537.277344 701.726562 L 557.738281 725.753906 L 537.980469 729.886719 L 558.097656 731.503906 L 540.832031 757.917969 L 564.859375 737.457031 L 568.996094 757.210938 L 570.605469 737.09375 L 597.023438 754.363281 L 576.5625 730.335938 L 596.316406 726.199219 L 576.199219 724.585938 L 593.46875 698.171875 Z M 569.441406 718.632812 " fill-opacity="1" fill-rule="nonzero"/></g></g></g><g clip-path="url(#dd170da531)"><g clip-path="url(#05f8f9fb9c)"><g clip-path="url(#5a78ed2b5d)"><path fill="#9badd6" d="M 815.148438 247.667969 L 811.492188 232.160156 L 810.621094 248.066406 L 789.433594 234.976562 L 806.0625 253.519531 L 790.558594 257.179688 L 806.464844 258.050781 L 793.367188 279.238281 L 811.914062 262.609375 L 815.578125 278.113281 L 816.445312 262.210938 L 837.632812 275.304688 L 821.007812 256.757812 L 836.511719 253.09375 L 820.601562 252.226562 L 833.695312 231.039062 Z M 815.148438 247.667969 " fill-opacity="1" fill-rule="nonzero"/></g></g></g><g clip-path="url(#ed6992f4de)"><g clip-path="url(#a553051a98)"><g clip-path="url(#1400186515)"><path fill="#9badd6" d="M 732.820312 160.6875 L 730.460938 150.695312 L 729.902344 160.949219 L 716.242188 152.507812 L 726.960938 164.464844 L 716.964844 166.824219 L 727.222656 167.382812 L 718.78125 181.039062 L 730.734375 170.324219 L 733.09375 180.316406 L 733.65625 170.066406 L 747.3125 178.503906 L 736.597656 166.550781 L 746.589844 164.1875 L 736.339844 163.628906 L 744.777344 149.972656 Z M 732.820312 160.6875 " fill-opacity="1" fill-rule="nonzero"/></g></g></g><g clip-path="url(#4b318fdf9f)"><g clip-path="url(#5e7f5a2f61)"><g clip-path="url(#375c8cee4a)"><path fill="#9badd6" d="M 924.550781 418.386719 L 922.4375 408.335938 L 921.625 418.574219 L 908.179688 409.796875 L 918.597656 422.015625 L 908.550781 424.125 L 918.785156 424.9375 L 910.011719 438.382812 L 922.226562 427.964844 L 924.339844 438.015625 L 925.152344 427.777344 L 938.597656 436.554688 L 928.179688 424.339844 L 938.226562 422.226562 L 927.996094 421.410156 L 936.765625 407.96875 Z M 924.550781 418.386719 " fill-opacity="1" fill-rule="nonzero"/></g></g></g><g clip-path="url(#a05e6938c7)"><g clip-path="url(#a9fc9be225)"><g clip-path="url(#3a9b7da395)"><path fill="#9badd6" d="M 1004.375 240.007812 L 1005.398438 224.824219 L 1000.125 239.101562 L 984.464844 221.179688 L 994.425781 242.796875 L 979.242188 241.773438 L 993.515625 247.042969 L 975.59375 262.703125 L 997.210938 252.746094 L 996.1875 267.933594 L 1001.460938 253.652344 L 1017.117188 271.574219 L 1007.160156 249.957031 L 1022.347656 250.980469 L 1008.070312 245.707031 L 1025.988281 230.050781 Z M 1004.375 240.007812 " fill-opacity="1" fill-rule="nonzero"/></g></g></g><g clip-path="url(#b5a47c0065)"><g clip-path="url(#6fe0e1496a)"><g clip-path="url(#67e4e9a86c)"><path fill="#9badd6" d="M 773.753906 385.242188 L 772.28125 379.390625 L 772.039062 385.421875 L 763.949219 380.574219 L 770.34375 387.511719 L 764.492188 388.976562 L 770.519531 389.222656 L 765.675781 397.316406 L 772.609375 390.917969 L 774.078125 396.769531 L 774.320312 390.742188 L 782.414062 395.589844 L 776.015625 388.65625 L 781.871094 387.183594 L 775.84375 386.941406 L 780.6875 378.847656 Z M 773.753906 385.242188 " fill-opacity="1" fill-rule="nonzero"/></g></g></g><g clip-path="url(#35354beb6c)"><g clip-path="url(#6516817aab)"><g clip-path="url(#55c97615f5)"><path fill="#9badd6" d="M 734.078125 364.1875 L 734.460938 358.167969 L 732.398438 363.835938 L 726.160156 356.753906 L 730.140625 365.308594 L 724.117188 364.925781 L 729.785156 366.996094 L 722.710938 373.230469 L 731.261719 369.25 L 730.882812 375.269531 L 732.945312 369.601562 L 739.183594 376.679688 L 735.203125 368.125 L 741.222656 368.511719 L 735.554688 366.441406 L 742.628906 360.207031 Z M 734.078125 364.1875 " fill-opacity="1" fill-rule="nonzero"/></g></g></g><g clip-path="url(#2b8f2fba87)"><g clip-path="url(#7cbe076468)"><g clip-path="url(#9aa49706e9)"><path fill="#9badd6" d="M 667.941406 342.890625 L 668.320312 336.871094 L 666.253906 342.539062 L 660.019531 335.460938 L 664.003906 344.011719 L 657.980469 343.632812 L 663.648438 345.695312 L 656.570312 351.933594 L 665.121094 347.949219 L 664.742188 353.972656 L 666.808594 348.304688 L 673.042969 355.382812 L 669.0625 346.832031 L 675.082031 347.210938 L 669.414062 345.144531 L 676.492188 338.910156 Z M 667.941406 342.890625 " fill-opacity="1" fill-rule="nonzero"/></g></g></g><g clip-path="url(#8506a8f573)"><g clip-path="url(#e2e5649518)"><g clip-path="url(#c3c62d7071)"><path fill="#9badd6" d="M 713.597656 438.828125 L 715.519531 433.109375 L 712.058594 438.054688 L 707.859375 429.609375 L 709.5 438.898438 L 703.785156 436.980469 L 708.726562 440.4375 L 700.285156 444.640625 L 709.570312 442.992188 L 707.65625 448.710938 L 711.109375 443.765625 L 715.316406 452.214844 L 713.667969 442.921875 L 719.386719 444.84375 L 714.441406 441.386719 L 722.886719 437.183594 Z M 713.597656 438.828125 " fill-opacity="1" fill-rule="nonzero"/></g></g></g><g clip-path="url(#44e56e6024)"><g clip-path="url(#d2a537339c)"><g clip-path="url(#160a583e09)"><path fill="#9badd6" d="M 749.367188 528.335938 L 749.839844 520.832031 L 747.265625 527.894531 L 739.496094 519.074219 L 744.457031 529.730469 L 736.953125 529.257812 L 744.019531 531.832031 L 735.195312 539.601562 L 745.855469 534.640625 L 745.378906 542.144531 L 747.953125 535.078125 L 755.726562 543.902344 L 750.761719 533.242188 L 758.265625 533.71875 L 751.203125 531.144531 L 760.023438 523.371094 Z M 749.367188 528.335938 " fill-opacity="1" fill-rule="nonzero"/></g></g></g><g clip-path="url(#52dbdbe7b8)"><g clip-path="url(#259f637861)"><g clip-path="url(#002e7fcce3)"><path fill="#9badd6" d="M 748.792969 601.253906 L 749.171875 595.234375 L 747.109375 600.902344 L 740.871094 593.820312 L 744.855469 602.375 L 738.832031 601.992188 L 744.5 604.0625 L 737.421875 610.296875 L 745.972656 606.316406 L 745.59375 612.335938 L 747.660156 606.667969 L 753.894531 613.742188 L 749.914062 605.191406 L 755.933594 605.578125 L 750.265625 603.507812 L 757.34375 597.273438 Z M 748.792969 601.253906 " fill-opacity="1" fill-rule="nonzero"/></g></g></g><g clip-path="url(#9c14df3eb6)"><g clip-path="url(#cf2e707949)"><g clip-path="url(#419f2f7cdb)"><path fill="#9badd6" d="M 845.03125 473.824219 L 847.265625 468.21875 L 843.539062 472.96875 L 839.808594 464.300781 L 840.941406 473.667969 L 835.335938 471.433594 L 840.078125 475.160156 L 831.417969 478.890625 L 840.78125 477.761719 L 838.550781 483.367188 L 842.273438 478.617188 L 846.003906 487.28125 L 844.875 477.914062 L 850.480469 480.144531 L 845.734375 476.425781 L 854.398438 472.691406 Z M 845.03125 473.824219 " fill-opacity="1" fill-rule="nonzero"/></g></g></g><g clip-path="url(#3ea4a6781e)"><g clip-path="url(#9ea748e92a)"><g clip-path="url(#2852f6e0ef)"><path fill="#9badd6" d="M 892.449219 361.359375 L 895.167969 355.972656 L 891.039062 360.367188 L 888.097656 351.410156 L 888.386719 360.835938 L 883.003906 358.109375 L 887.394531 362.242188 L 878.4375 365.1875 L 887.863281 364.898438 L 885.136719 370.277344 L 889.273438 365.886719 L 892.214844 374.847656 L 891.925781 365.421875 L 897.308594 368.140625 L 892.914062 364.007812 L 901.875 361.070312 Z M 892.449219 361.359375 " fill-opacity="1" fill-rule="nonzero"/></g></g></g><g clip-path="url(#fe215cfefa)"><g clip-path="url(#bd56834147)"><g clip-path="url(#d399218de2)"><path fill="#9badd6" d="M 834.972656 380.746094 L 835.261719 376.171875 L 833.695312 380.476562 L 828.957031 375.105469 L 831.980469 381.597656 L 827.410156 381.308594 L 831.714844 382.878906 L 826.335938 387.617188 L 832.832031 384.589844 L 832.546875 389.164062 L 834.113281 384.859375 L 838.847656 390.234375 L 835.828125 383.738281 L 840.398438 384.03125 L 836.09375 382.457031 L 841.472656 377.722656 Z M 834.972656 380.746094 " fill-opacity="1" fill-rule="nonzero"/></g></g></g><g clip-path="url(#8c07f2510b)"><g clip-path="url(#b52edb921f)"><g clip-path="url(#fd4204e958)"><path fill="#9badd6" d="M 705.074219 258.46875 L 705.363281 253.894531 L 703.792969 258.203125 L 699.058594 252.828125 L 702.082031 259.320312 L 697.507812 259.03125 L 701.8125 260.601562 L 696.4375 265.339844 L 702.933594 262.3125 L 702.644531 266.890625 L 704.214844 262.582031 L 708.949219 267.957031 L 705.925781 261.464844 L 710.5 261.753906 L 706.195312 260.179688 L 711.570312 255.445312 Z M 705.074219 258.46875 " fill-opacity="1" fill-rule="nonzero"/></g></g></g><g clip-path="url(#2caca587d7)"><g clip-path="url(#c137a2e21d)"><g clip-path="url(#5302f33997)"><path fill="#9badd6" d="M 750.035156 504.535156 L 750.324219 499.964844 L 748.757812 504.269531 L 744.019531 498.890625 L 747.046875 505.386719 L 742.46875 505.097656 L 746.773438 506.667969 L 741.402344 511.40625 L 747.894531 508.378906 L 747.605469 512.953125 L 749.175781 508.644531 L 753.914062 514.023438 L 750.886719 507.527344 L 755.457031 507.816406 L 751.152344 506.25 L 756.53125 501.511719 Z M 750.035156 504.535156 " fill-opacity="1" fill-rule="nonzero"/></g></g></g><g clip-path="url(#b8bcf4dbcf)"><g clip-path="url(#2ef4a05795)"><g clip-path="url(#fd2e79df41)"><path fill="#9badd6" d="M 665.359375 461 L 665.648438 456.421875 L 664.082031 460.726562 L 659.347656 455.351562 L 662.367188 461.847656 L 657.796875 461.558594 L 662.101562 463.128906 L 656.722656 467.867188 L 663.21875 464.839844 L 662.929688 469.410156 L 664.496094 465.105469 L 669.238281 470.484375 L 666.210938 463.988281 L 670.785156 464.277344 L 666.480469 462.710938 L 671.859375 457.972656 Z M 665.359375 461 " fill-opacity="1" fill-rule="nonzero"/></g></g></g><g clip-path="url(#8e479bd9cf)"><g clip-path="url(#8370b35f8e)"><g clip-path="url(#46042fd6fe)"><path fill="#9badd6" d="M 819.027344 525.179688 L 819.320312 520.605469 L 817.746094 524.914062 L 813.011719 519.539062 L 816.035156 526.03125 L 811.464844 525.742188 L 815.769531 527.308594 L 810.394531 532.050781 L 816.890625 529.023438 L 816.601562 533.59375 L 818.167969 529.292969 L 822.90625 534.667969 L 819.878906 528.171875 L 824.453125 528.460938 L 820.148438 526.894531 L 825.523438 522.160156 Z M 819.027344 525.179688 " fill-opacity="1" fill-rule="nonzero"/></g></g></g><g clip-path="url(#1e23052d91)"><g clip-path="url(#ecee470e15)"><g clip-path="url(#d8fd739f48)"><path fill="#9badd6" d="M 930.574219 569.132812 L 930.863281 564.558594 L 929.292969 568.867188 L 924.554688 563.492188 L 927.582031 569.984375 L 923.007812 569.695312 L 927.3125 571.261719 L 921.9375 576.003906 L 928.433594 572.976562 L 928.144531 577.546875 L 929.710938 573.242188 L 934.449219 578.621094 L 931.421875 572.125 L 935.996094 572.414062 L 931.691406 570.847656 L 937.066406 566.109375 Z M 930.574219 569.132812 " fill-opacity="1" fill-rule="nonzero"/></g></g></g><g clip-path="url(#871d216455)"><g clip-path="url(#362dea9cfa)"><g clip-path="url(#589b3921f6)"><path fill="#9badd6" d="M 1047.007812 386.933594 L 1047.296875 382.363281 L 1045.730469 386.664062 L 1040.992188 381.292969 L 1044.015625 387.785156 L 1039.445312 387.496094 L 1043.75 389.0625 L 1038.371094 393.804688 L 1044.871094 390.777344 L 1044.578125 395.351562 L 1046.148438 391.046875 L 1050.882812 396.421875 L 1047.859375 389.925781 L 1052.433594 390.214844 L 1048.128906 388.648438 L 1053.503906 383.914062 Z M 1047.007812 386.933594 " fill-opacity="1" fill-rule="nonzero"/></g></g></g><g clip-path="url(#2825929f6b)"><g clip-path="url(#39d50e3749)"><g clip-path="url(#3ef3566537)"><path fill="#9badd6" d="M 626.5625 254.667969 L 626.851562 250.097656 L 625.285156 254.402344 L 620.546875 249.023438 L 623.570312 255.523438 L 619 255.230469 L 623.304688 256.800781 L 617.925781 261.535156 L 624.421875 258.511719 L 624.132812 263.085938 L 625.703125 258.78125 L 630.441406 264.152344 L 627.414062 257.660156 L 631.988281 257.949219 L 627.679688 256.378906 L 633.058594 251.644531 Z M 626.5625 254.667969 " fill-opacity="1" fill-rule="nonzero"/></g></g></g><g clip-path="url(#3a2b17651d)"><g clip-path="url(#d09f42896a)"><g clip-path="url(#2b8cce3b75)"><path fill="#9badd6" d="M 518.027344 600.65625 L 518.675781 590.410156 L 515.160156 600.054688 L 504.542969 588.007812 L 511.324219 602.5625 L 501.074219 601.917969 L 510.722656 605.433594 L 498.671875 616.046875 L 513.230469 609.269531 L 512.578125 619.519531 L 516.101562 609.867188 L 526.710938 621.914062 L 519.933594 607.359375 L 530.183594 608.007812 L 520.535156 604.492188 L 532.582031 593.878906 Z M 518.027344 600.65625 " fill-opacity="1" fill-rule="nonzero"/></g></g></g><g clip-path="url(#1d81b25b6d)"><g clip-path="url(#161d50d59c)"><g clip-path="url(#a961894915)"><path fill="#9badd6" d="M 410.464844 725.011719 L 411.113281 714.761719 L 407.597656 724.410156 L 396.980469 712.359375 L 403.761719 726.917969 L 393.511719 726.269531 L 403.160156 729.785156 L 391.113281 740.398438 L 405.667969 733.621094 L 405.019531 743.871094 L 408.535156 734.222656 L 419.148438 746.265625 L 412.371094 731.714844 L 422.621094 732.363281 L 412.972656 728.847656 L 425.019531 718.230469 Z M 410.464844 725.011719 " fill-opacity="1" fill-rule="nonzero"/></g></g></g><g clip-path="url(#5c9144138f)"><g clip-path="url(#cea18e1d3b)"><g clip-path="url(#10ae801147)"><path fill="#9badd6" d="M 480.027344 668.90625 L 478.96875 658.695312 L 477.101562 668.792969 L 464.628906 658.671875 L 473.734375 671.902344 L 463.519531 672.960938 L 473.617188 674.832031 L 463.503906 687.296875 L 476.726562 678.199219 L 477.792969 688.410156 L 479.65625 678.3125 L 492.125 688.429688 L 483.023438 675.203125 L 493.234375 674.140625 L 483.136719 672.273438 L 493.257812 659.804688 Z M 480.027344 668.90625 " fill-opacity="1" fill-rule="nonzero"/></g></g></g><g clip-path="url(#c84cc84466)"><g clip-path="url(#f77f82d944)"><g clip-path="url(#cebbab5a3e)"><path fill="#9badd6" d="M 310.980469 615.300781 L 316.863281 606.886719 L 308.839844 613.292969 L 306.039062 597.484375 L 304.261719 613.445312 L 295.84375 607.5625 L 302.253906 615.578125 L 286.445312 618.382812 L 302.402344 620.164062 L 296.519531 628.578125 L 304.542969 622.167969 L 307.339844 637.980469 L 309.121094 622.019531 L 317.539062 627.902344 L 311.125 619.882812 L 326.9375 617.082031 Z M 310.980469 615.300781 " fill-opacity="1" fill-rule="nonzero"/></g></g></g><g clip-path="url(#cbf3e99c6e)"><g clip-path="url(#3502019ba1)"><g clip-path="url(#64585a7257)"><path fill="#9badd6" d="M 769.703125 689.257812 L 774.292969 680.074219 L 767.292969 687.585938 L 762.21875 672.351562 L 762.78125 688.398438 L 753.597656 683.804688 L 761.109375 690.808594 L 745.878906 695.882812 L 761.925781 695.316406 L 757.332031 704.503906 L 764.332031 696.988281 L 769.40625 712.222656 L 768.84375 696.171875 L 778.027344 700.769531 L 770.519531 693.769531 L 785.75 688.691406 Z M 769.703125 689.257812 " fill-opacity="1" fill-rule="nonzero"/></g></g></g><g clip-path="url(#9c7c5ced71)"><g clip-path="url(#ec49fb2cde)"><g clip-path="url(#888ae06339)"><path fill="#9badd6" d="M 834.070312 628.65625 L 834.71875 618.410156 L 831.199219 628.058594 L 820.585938 616.007812 L 827.363281 630.566406 L 817.117188 629.917969 L 826.765625 633.433594 L 814.71875 644.050781 L 829.273438 637.269531 L 828.621094 647.519531 L 832.140625 637.871094 L 842.753906 649.917969 L 835.976562 635.363281 L 846.226562 636.011719 L 836.578125 632.492188 L 848.625 621.882812 Z M 834.070312 628.65625 " fill-opacity="1" fill-rule="nonzero"/></g></g></g><g clip-path="url(#087cb6d010)"><g clip-path="url(#b214f0267e)"><g clip-path="url(#d3af020be0)"><path fill="#9badd6" d="M 311.25 678.789062 L 306.703125 659.535156 L 305.625 679.292969 L 279.308594 663.027344 L 299.957031 686.0625 L 280.703125 690.605469 L 300.457031 691.683594 L 284.199219 718.003906 L 307.230469 697.351562 L 311.777344 716.605469 L 312.855469 696.851562 L 339.167969 713.113281 L 318.519531 690.078125 L 337.773438 685.535156 L 318.019531 684.457031 L 334.28125 658.144531 Z M 311.25 678.789062 " fill-opacity="1" fill-rule="nonzero"/></g></g></g><g clip-path="url(#64a8a04a78)"><g clip-path="url(#31a5e21f47)"><g clip-path="url(#858661b4ef)"><path fill="#9badd6" d="M 637.9375 508.539062 L 632.957031 484.855469 L 631.042969 508.980469 L 599.355469 488.296875 L 623.910156 517.085938 L 600.222656 522.066406 L 624.347656 523.984375 L 603.667969 555.664062 L 632.460938 531.117188 L 637.4375 554.796875 L 639.351562 530.671875 L 671.039062 551.355469 L 646.484375 522.5625 L 670.167969 517.589844 L 646.046875 515.671875 L 666.726562 483.984375 Z M 637.9375 508.539062 " fill-opacity="1" fill-rule="nonzero"/></g></g></g><g clip-path="url(#36e299600a)"><g clip-path="url(#65e13b000a)"><g clip-path="url(#70f239cd94)"><path fill="#9badd6" d="M 709.425781 654.628906 L 709.898438 647.125 L 707.324219 654.1875 L 699.554688 645.371094 L 704.515625 656.023438 L 697.011719 655.550781 L 704.078125 658.125 L 695.253906 665.898438 L 705.914062 660.933594 L 705.441406 668.441406 L 708.015625 661.375 L 715.78125 670.195312 L 710.824219 659.539062 L 718.324219 660.015625 L 711.261719 657.4375 L 720.082031 649.667969 Z M 709.425781 654.628906 " fill-opacity="1" fill-rule="nonzero"/></g></g></g><g clip-path="url(#98373d6e3f)"><g clip-path="url(#b14972eb1c)"><g clip-path="url(#4bab303f40)"><path fill="#9badd6" d="M 700.839844 733.15625 L 701.21875 727.136719 L 699.15625 732.804688 L 692.917969 725.726562 L 696.902344 734.277344 L 690.878906 733.898438 L 696.546875 735.960938 L 689.46875 742.199219 L 698.019531 738.21875 L 697.640625 744.238281 L 699.707031 738.566406 L 705.941406 745.648438 L 701.960938 737.09375 L 707.980469 737.476562 L 702.3125 735.410156 L 709.390625 729.175781 Z M 700.839844 733.15625 " fill-opacity="1" fill-rule="nonzero"/></g></g></g><g clip-path="url(#e4318644b2)"><g clip-path="url(#9ad673ec95)"><g clip-path="url(#eb1ee70c91)"><path fill="#9badd6" d="M 585.917969 642.734375 L 586.300781 636.71875 L 584.234375 642.382812 L 578 635.304688 L 581.980469 643.855469 L 575.957031 643.476562 L 581.625 645.542969 L 574.546875 651.777344 L 583.097656 647.796875 L 582.71875 653.816406 L 584.785156 648.148438 L 591.023438 655.226562 L 587.042969 646.675781 L 593.058594 647.058594 L 587.390625 644.988281 L 594.46875 638.753906 Z M 585.917969 642.734375 " fill-opacity="1" fill-rule="nonzero"/></g></g></g><g clip-path="url(#589b6b69fa)"><g clip-path="url(#8061eb2970)"><g clip-path="url(#4e1a627a42)"><path fill="#9badd6" d="M 532.890625 660.660156 L 535.117188 655.054688 L 531.394531 659.800781 L 527.667969 651.136719 L 528.792969 660.503906 L 523.1875 658.269531 L 527.9375 661.996094 L 519.273438 665.722656 L 528.636719 664.59375 L 526.40625 670.199219 L 530.132812 665.453125 L 533.859375 674.117188 L 532.730469 664.75 L 538.332031 666.980469 L 533.589844 663.257812 L 542.253906 659.527344 Z M 532.890625 660.660156 " fill-opacity="1" fill-rule="nonzero"/></g></g></g><g clip-path="url(#562191e822)"><g clip-path="url(#e637709107)"><g clip-path="url(#37d3d18714)"><path fill="#9badd6" d="M 580.304688 548.191406 L 583.027344 542.808594 L 578.890625 547.203125 L 575.953125 538.242188 L 576.242188 547.667969 L 570.855469 544.945312 L 575.25 549.078125 L 566.289062 552.023438 L 575.71875 551.730469 L 572.996094 557.113281 L 577.128906 552.722656 L 580.066406 561.683594 L 579.78125 552.253906 L 585.160156 554.976562 L 580.769531 550.84375 L 589.730469 547.902344 Z M 580.304688 548.191406 " fill-opacity="1" fill-rule="nonzero"/></g></g></g><g clip-path="url(#114255af0c)"><g clip-path="url(#cf6c0bdee2)"><g clip-path="url(#c0b4f64506)"><path fill="#9badd6" d="M 531.054688 535.914062 L 531.34375 531.339844 L 529.777344 535.644531 L 525.039062 530.265625 L 528.0625 536.765625 L 523.492188 536.476562 L 527.792969 538.042969 L 522.417969 542.777344 L 528.914062 539.757812 L 528.625 544.328125 L 530.191406 540.023438 L 534.929688 545.398438 L 531.90625 538.902344 L 536.480469 539.195312 L 532.175781 537.625 L 537.550781 532.886719 Z M 531.054688 535.914062 " fill-opacity="1" fill-rule="nonzero"/></g></g></g><g clip-path="url(#effa026760)"><g clip-path="url(#533caaa234)"><g clip-path="url(#a76fc8a94a)"><path fill="#9badd6" d="M 222.007812 627.960938 L 222.296875 623.382812 L 220.730469 627.6875 L 215.996094 622.3125 L 219.015625 628.808594 L 214.441406 628.519531 L 218.75 630.089844 L 213.375 634.824219 L 219.867188 631.800781 L 219.578125 636.375 L 221.148438 632.070312 L 225.886719 637.445312 L 222.863281 630.949219 L 227.433594 631.242188 L 223.128906 629.671875 L 228.503906 624.933594 Z M 222.007812 627.960938 " fill-opacity="1" fill-rule="nonzero"/></g></g></g><g clip-path="url(#9e208e980f)"><g clip-path="url(#316ba69955)"><g clip-path="url(#580a03152b)"><path fill="#9badd6" d="M 687.675781 580.015625 L 687.960938 575.445312 L 686.394531 579.75 L 681.660156 574.375 L 684.683594 580.867188 L 680.109375 580.578125 L 684.414062 582.148438 L 679.039062 586.886719 L 685.53125 583.863281 L 685.242188 588.433594 L 686.8125 584.125 L 691.550781 589.503906 L 688.523438 583.007812 L 693.097656 583.300781 L 688.796875 581.730469 L 694.171875 576.992188 Z M 687.675781 580.015625 " fill-opacity="1" fill-rule="nonzero"/></g></g></g><g clip-path="url(#1d6ba10044)"><g clip-path="url(#4abd697f6a)"><g clip-path="url(#6646c41f17)"><path fill="#9badd6" d="M 654.527344 423.007812 L 653.796875 419.839844 L 653.601562 423.085938 L 649.289062 420.390625 L 652.667969 424.195312 L 649.5 424.925781 L 652.746094 425.117188 L 650.054688 429.429688 L 653.855469 426.054688 L 654.585938 429.21875 L 654.777344 425.976562 L 659.085938 428.667969 L 655.714844 424.867188 L 658.882812 424.132812 L 655.636719 423.941406 L 658.328125 419.632812 Z M 654.527344 423.007812 " fill-opacity="1" fill-rule="nonzero"/></g></g></g><g clip-path="url(#2f47b46979)"><g clip-path="url(#bc82f1e0ef)"><g clip-path="url(#60cbb81ba9)"><path fill="#9badd6" d="M 586.914062 467.210938 L 586.183594 464.042969 L 585.992188 467.289062 L 581.679688 464.59375 L 585.054688 468.394531 L 581.890625 469.128906 L 585.132812 469.320312 L 582.441406 473.632812 L 586.238281 470.257812 L 586.972656 473.421875 L 587.167969 470.175781 L 591.476562 472.867188 L 588.101562 469.070312 L 591.269531 468.339844 L 588.023438 468.144531 L 590.714844 463.835938 Z M 586.914062 467.210938 " fill-opacity="1" fill-rule="nonzero"/></g></g></g><g clip-path="url(#f69fd87c88)"><g clip-path="url(#0e9bed0e39)"><g clip-path="url(#7a9f0c0739)"><path fill="#9badd6" d="M 469.441406 780.457031 L 468.710938 777.292969 L 468.519531 780.535156 L 464.207031 777.84375 L 467.582031 781.640625 L 464.417969 782.375 L 467.660156 782.570312 L 464.96875 786.882812 L 468.769531 783.503906 L 469.5 786.671875 L 469.691406 783.425781 L 474.003906 786.117188 L 470.628906 782.316406 L 473.796875 781.585938 L 470.550781 781.394531 L 473.246094 777.082031 Z M 469.441406 780.457031 " fill-opacity="1" fill-rule="nonzero"/></g></g></g><g clip-path="url(#53133ed2d5)"><g clip-path="url(#8da0599284)"><g clip-path="url(#0b2f514a6e)"><path fill="#9badd6" d="M 333.648438 577.101562 L 332.914062 573.933594 L 332.722656 577.179688 L 328.410156 574.488281 L 331.785156 578.285156 L 328.617188 579.015625 L 331.863281 579.210938 L 329.175781 583.523438 L 332.972656 580.144531 L 333.703125 583.316406 L 333.898438 580.070312 L 338.207031 582.761719 L 334.835938 578.960938 L 338 578.230469 L 334.753906 578.039062 L 337.449219 573.722656 Z M 333.648438 577.101562 " fill-opacity="1" fill-rule="nonzero"/></g></g></g><g clip-path="url(#20af7b0334)"><g clip-path="url(#b1d5303306)"><g clip-path="url(#fea8422f55)"><path fill="#9badd6" d="M 799.0625 120.21875 L 798.324219 117.050781 L 798.136719 120.296875 L 793.824219 117.605469 L 797.199219 121.402344 L 794.03125 122.136719 L 797.277344 122.328125 L 794.585938 126.640625 L 798.386719 123.265625 L 799.117188 126.433594 L 799.308594 123.1875 L 803.625 125.875 L 800.246094 122.078125 L 803.414062 121.347656 L 800.171875 121.152344 L 802.863281 116.84375 Z M 799.0625 120.21875 " fill-opacity="1" fill-rule="nonzero"/></g></g></g><g clip-path="url(#95ab8c7ac3)"><g clip-path="url(#2905c121b4)"><g clip-path="url(#b669cf65e2)"><path fill="#9badd6" d="M 356.28125 663.0625 L 356.566406 658.488281 L 355 662.792969 L 350.265625 657.417969 L 353.285156 663.914062 L 348.714844 663.625 L 353.019531 665.195312 L 347.644531 669.929688 L 354.140625 666.90625 L 353.847656 671.476562 L 355.417969 667.171875 L 360.15625 672.550781 L 357.128906 666.050781 L 361.703125 666.34375 L 357.398438 664.773438 L 362.777344 660.039062 Z M 356.28125 663.0625 " fill-opacity="1" fill-rule="nonzero"/></g></g></g><g clip-path="url(#1b20c1082d)"><g clip-path="url(#ee8b8fc56f)"><g clip-path="url(#bf4a6904ad)"><path fill="#9badd6" d="M 417.277344 672.488281 L 417.566406 667.910156 L 415.996094 672.214844 L 411.261719 666.839844 L 414.28125 673.335938 L 409.710938 673.046875 L 414.019531 674.617188 L 408.640625 679.355469 L 415.136719 676.328125 L 414.847656 680.898438 L 416.414062 676.59375 L 421.152344 681.972656 L 418.128906 675.476562 L 422.699219 675.765625 L 418.394531 674.199219 L 423.773438 669.460938 Z M 417.277344 672.488281 " fill-opacity="1" fill-rule="nonzero"/></g></g></g><g clip-path="url(#99f704785c)"><g clip-path="url(#dab6283378)"><g clip-path="url(#3f21759e68)"><path fill="#9badd6" d="M 473.882812 553.761719 L 474.171875 549.1875 L 472.605469 553.492188 L 467.867188 548.113281 L 470.890625 554.613281 L 466.320312 554.324219 L 470.621094 555.890625 L 465.246094 560.625 L 471.742188 557.601562 L 471.453125 562.175781 L 473.019531 557.871094 L 477.757812 563.246094 L 474.734375 556.75 L 479.308594 557.042969 L 475 555.46875 L 480.378906 550.734375 Z M 473.882812 553.761719 " fill-opacity="1" fill-rule="nonzero"/></g></g></g><g clip-path="url(#e44e48b1b5)"><g clip-path="url(#375663ef57)"><g clip-path="url(#eb62248270)"><path fill="#9badd6" d="M 262.800781 587.070312 L 263.089844 582.5 L 261.523438 586.804688 L 256.785156 581.425781 L 259.808594 587.921875 L 255.238281 587.632812 L 259.542969 589.203125 L 254.164062 593.941406 L 260.664062 590.914062 L 260.371094 595.488281 L 261.941406 591.183594 L 266.679688 596.558594 L 263.652344 590.0625 L 268.226562 590.351562 L 263.921875 588.785156 L 269.300781 584.046875 Z M 262.800781 587.070312 " fill-opacity="1" fill-rule="nonzero"/></g></g></g><g clip-path="url(#b665edfb8a)"><g clip-path="url(#a6db97cbc9)"><g clip-path="url(#e527909f96)"><path fill="#9badd6" d="M 496.765625 720.425781 L 497.054688 715.851562 L 495.484375 720.15625 L 490.75 714.78125 L 493.773438 721.273438 L 489.203125 720.984375 L 493.503906 722.558594 L 488.128906 727.292969 L 494.625 724.269531 L 494.335938 728.839844 L 495.90625 724.535156 L 500.640625 729.914062 L 497.613281 723.414062 L 502.191406 723.703125 L 497.886719 722.136719 L 503.261719 717.402344 Z M 496.765625 720.425781 " fill-opacity="1" fill-rule="nonzero"/></g></g></g><g clip-path="url(#0b1612ed14)"><g clip-path="url(#f60ecb2023)"><g clip-path="url(#f038c0f0a4)"><path fill="#9badd6" d="M 621.839844 593.457031 L 622.132812 588.886719 L 620.5625 593.195312 L 615.824219 587.816406 L 618.851562 594.3125 L 614.273438 594.023438 L 618.578125 595.589844 L 613.203125 600.328125 L 619.699219 597.300781 L 619.410156 601.878906 L 620.980469 597.570312 L 625.714844 602.945312 L 622.691406 596.453125 L 627.265625 596.742188 L 622.960938 595.167969 L 628.335938 590.433594 Z M 621.839844 593.457031 " fill-opacity="1" fill-rule="nonzero"/></g></g></g><g clip-path="url(#9e6b5749c7)"><g clip-path="url(#195bdbe508)"><g clip-path="url(#2a294b6f21)"><path fill="#9badd6" d="M 638.78125 659.34375 L 639.070312 654.773438 L 637.503906 659.078125 L 632.761719 653.703125 L 635.789062 660.199219 L 631.214844 659.90625 L 635.519531 661.476562 L 630.140625 666.214844 L 636.640625 663.191406 L 636.351562 667.761719 L 637.917969 663.457031 L 642.652344 668.832031 L 639.632812 662.335938 L 644.203125 662.628906 L 639.898438 661.058594 L 645.277344 656.320312 Z M 638.78125 659.34375 " fill-opacity="1" fill-rule="nonzero"/></g></g></g><g clip-path="url(#0600963880)"><g clip-path="url(#d791d3e35e)"><g clip-path="url(#05a1cf1fd6)"><path fill="#9badd6" d="M 863.324219 28.972656 L 864.289062 13.65625 L 859.035156 28.074219 L 843.171875 10.070312 L 853.304688 31.820312 L 837.988281 30.851562 L 852.40625 36.109375 L 834.402344 51.96875 L 856.152344 41.839844 L 855.183594 57.152344 L 860.441406 42.738281 L 876.296875 60.742188 L 866.171875 38.992188 L 881.484375 39.960938 L 867.070312 34.703125 L 885.070312 18.84375 Z M 863.324219 28.972656 " fill-opacity="1" fill-rule="nonzero"/></g></g></g><g clip-path="url(#1da347071d)"><g clip-path="url(#3fbc86bfec)"><g clip-path="url(#fb0b144543)"><path fill="#9badd6" d="M 933.453125 29.328125 L 934.101562 19.082031 L 930.582031 28.730469 L 919.96875 16.683594 L 926.75 31.238281 L 916.5 30.589844 L 926.148438 34.105469 L 914.101562 44.71875 L 928.65625 37.941406 L 928.007812 48.191406 L 931.523438 38.542969 L 942.136719 50.59375 L 935.359375 36.035156 L 945.609375 36.683594 L 935.957031 33.164062 L 948.011719 22.550781 Z M 933.453125 29.328125 " fill-opacity="1" fill-rule="nonzero"/></g></g></g><g clip-path="url(#e9456e3f12)"><g clip-path="url(#709f496b6c)"><g clip-path="url(#e200acaae0)"><path fill="#9badd6" d="M 977.378906 383.707031 L 978.027344 373.457031 L 974.511719 383.105469 L 963.894531 371.058594 L 970.675781 385.609375 L 960.429688 384.964844 L 970.074219 388.484375 L 958.023438 399.097656 L 972.582031 392.320312 L 971.933594 402.566406 L 975.453125 392.917969 L 986.0625 404.964844 L 979.289062 390.410156 L 989.535156 391.058594 L 979.886719 387.542969 L 991.933594 376.929688 Z M 977.378906 383.707031 " fill-opacity="1" fill-rule="nonzero"/></g></g></g><g clip-path="url(#6a4687fc31)"><g clip-path="url(#421da80a7b)"><g clip-path="url(#b265cdc36e)"><path fill="#9badd6" d="M 912.9375 183.839844 L 917.53125 174.65625 L 910.527344 182.167969 L 905.453125 166.9375 L 906.019531 182.984375 L 896.835938 178.394531 L 904.347656 185.390625 L 889.117188 190.464844 L 905.160156 189.898438 L 900.570312 199.085938 L 907.570312 191.570312 L 912.648438 206.808594 L 912.078125 190.757812 L 921.261719 195.355469 L 913.753906 188.351562 L 928.984375 183.273438 Z M 912.9375 183.839844 " fill-opacity="1" fill-rule="nonzero"/></g></g></g><g clip-path="url(#46eab74c71)"><g clip-path="url(#a90c80af9f)"><g clip-path="url(#5926b7c611)"><path fill="#9badd6" d="M 820.574219 184.203125 L 821.21875 173.949219 L 817.699219 183.601562 L 807.089844 171.550781 L 813.863281 186.109375 L 803.617188 185.460938 L 813.265625 188.980469 L 801.21875 199.589844 L 815.773438 192.816406 L 815.125 203.0625 L 818.640625 193.414062 L 829.257812 205.460938 L 822.476562 190.90625 L 832.730469 191.554688 L 823.082031 188.039062 L 835.125 177.421875 Z M 820.574219 184.203125 " fill-opacity="1" fill-rule="nonzero"/></g></g></g><g clip-path="url(#8da910df9b)"><g clip-path="url(#81ed34e5a7)"><g clip-path="url(#38370b3408)"><path fill="#9badd6" d="M 966.183594 318.4375 L 964.074219 308.390625 L 963.261719 318.628906 L 949.8125 309.851562 L 960.234375 322.070312 L 950.183594 324.179688 L 960.417969 324.996094 L 951.644531 338.441406 L 963.863281 328.019531 L 965.972656 338.070312 L 966.789062 327.832031 L 980.230469 336.609375 L 969.8125 324.390625 L 979.863281 322.277344 L 969.625 321.464844 L 978.402344 308.023438 Z M 966.183594 318.4375 " fill-opacity="1" fill-rule="nonzero"/></g></g></g><g clip-path="url(#1056c0879a)"><g clip-path="url(#e6322fa1a8)"><g clip-path="url(#98a7465283)"><path fill="#9badd6" d="M 172.542969 617.25 L 170.433594 607.199219 L 169.621094 617.4375 L 156.175781 608.664062 L 166.59375 620.878906 L 156.542969 622.992188 L 166.78125 623.804688 L 158.003906 637.25 L 170.21875 626.832031 L 172.332031 636.878906 L 173.144531 626.644531 L 186.589844 635.417969 L 176.171875 623.203125 L 186.222656 621.09375 L 175.984375 620.277344 L 184.761719 606.832031 Z M 172.542969 617.25 " fill-opacity="1" fill-rule="nonzero"/></g></g></g><g clip-path="url(#cc73f9b912)"><g clip-path="url(#a6a9c73de5)"><g clip-path="url(#e7f94e28ea)"><path fill="#9badd6" d="M 892.683594 -0.375 L 891.214844 -6.222656 L 890.96875 -0.195312 L 882.875 -5.039062 L 889.273438 1.894531 L 883.421875 3.363281 L 889.449219 3.605469 L 884.601562 11.699219 L 891.539062 5.304688 L 893.007812 11.15625 L 893.253906 5.125 L 901.347656 9.972656 L 894.949219 3.039062 L 900.800781 1.566406 L 894.777344 1.324219 L 899.621094 -6.769531 Z M 892.683594 -0.375 " fill-opacity="1" fill-rule="nonzero"/></g></g></g><g clip-path="url(#c27690c51e)"><g clip-path="url(#b5393c7328)"><g clip-path="url(#ce61df1f81)"><path fill="#9badd6" d="M 816.878906 54.339844 L 818.796875 48.617188 L 815.339844 53.5625 L 811.140625 45.121094 L 812.78125 54.410156 L 807.0625 52.488281 L 812.007812 55.945312 L 803.5625 60.148438 L 812.851562 58.503906 L 810.9375 64.222656 L 814.390625 59.277344 L 818.59375 67.71875 L 816.949219 58.433594 L 822.667969 60.347656 L 817.722656 56.894531 L 826.164062 52.691406 Z M 816.878906 54.339844 " fill-opacity="1" fill-rule="nonzero"/></g></g></g><g clip-path="url(#311d465107)"><g clip-path="url(#35fbd39853)"><g clip-path="url(#db9e1946ca)"><path fill="#9badd6" d="M 852.644531 143.84375 L 853.121094 136.34375 L 850.542969 143.402344 L 842.777344 134.582031 L 847.738281 145.238281 L 840.234375 144.765625 L 847.296875 147.339844 L 838.476562 155.113281 L 849.136719 150.148438 L 848.660156 157.652344 L 851.234375 150.589844 L 859.007812 159.40625 L 854.042969 148.753906 L 861.546875 149.230469 L 854.484375 146.652344 L 863.304688 138.878906 Z M 852.644531 143.84375 " fill-opacity="1" fill-rule="nonzero"/></g></g></g><g clip-path="url(#597b7cd1aa)"><g clip-path="url(#29cdd8010e)"><g clip-path="url(#53a8a78df7)"><path fill="#9badd6" d="M 1026.285156 137.597656 L 1026.664062 131.574219 L 1024.597656 137.242188 L 1018.363281 130.164062 L 1022.34375 138.714844 L 1016.324219 138.335938 L 1021.992188 140.402344 L 1014.914062 146.636719 L 1023.464844 142.65625 L 1023.085938 148.675781 L 1025.152344 143.007812 L 1031.386719 150.085938 L 1027.402344 141.535156 L 1033.425781 141.917969 L 1027.757812 139.847656 L 1034.832031 133.613281 Z M 1026.285156 137.597656 " fill-opacity="1" fill-rule="nonzero"/></g></g></g><g clip-path="url(#a3ab3734d6)"><g clip-path="url(#c8777a8498)"><g clip-path="url(#049ae0515b)"><path fill="#9badd6" d="M 934.082031 261.410156 L 936.804688 256.027344 L 932.667969 260.421875 L 929.730469 251.460938 L 930.019531 260.886719 L 924.636719 258.164062 L 929.03125 262.300781 L 920.070312 265.238281 L 929.5 264.953125 L 926.773438 270.332031 L 930.90625 265.9375 L 933.851562 274.902344 L 933.558594 265.472656 L 938.941406 268.195312 L 934.546875 264.0625 L 943.511719 261.125 Z M 934.082031 261.410156 " fill-opacity="1" fill-rule="nonzero"/></g></g></g><g clip-path="url(#a801d261e0)"><g clip-path="url(#eb2c11d891)"><g clip-path="url(#b37d352632)"><path fill="#9badd6" d="M 852.203125 96.355469 L 852.488281 91.785156 L 850.921875 96.089844 L 846.183594 90.710938 L 849.210938 97.207031 L 844.636719 96.921875 L 848.941406 98.488281 L 843.566406 103.222656 L 850.058594 100.199219 L 849.769531 104.773438 L 851.339844 100.46875 L 856.078125 105.84375 L 853.050781 99.347656 L 857.625 99.640625 L 853.320312 98.066406 L 858.695312 93.332031 Z M 852.203125 96.355469 " fill-opacity="1" fill-rule="nonzero"/></g></g></g><g clip-path="url(#536c7e1720)"><g clip-path="url(#53481bf496)"><g clip-path="url(#2a93e1d4c4)"><path fill="#9badd6" d="M 880.277344 279.9375 L 880.566406 275.367188 L 878.996094 279.675781 L 874.257812 274.296875 L 877.285156 280.792969 L 872.710938 280.503906 L 877.015625 282.070312 L 871.640625 286.808594 L 878.132812 283.785156 L 877.84375 288.359375 L 879.414062 284.050781 L 884.148438 289.425781 L 881.125 282.933594 L 885.699219 283.222656 L 881.398438 281.652344 L 886.769531 276.914062 Z M 880.277344 279.9375 " fill-opacity="1" fill-rule="nonzero"/></g></g></g><g clip-path="url(#af79c0049f)"><g clip-path="url(#d381be9b86)"><g clip-path="url(#06016690dc)"><path fill="#9badd6" d="M 922.308594 140.6875 L 922.601562 136.117188 L 921.027344 140.425781 L 916.292969 135.046875 L 919.316406 141.542969 L 914.746094 141.253906 L 919.046875 142.820312 L 913.671875 147.558594 L 920.164062 144.53125 L 919.878906 149.105469 L 921.449219 144.800781 L 926.183594 150.175781 L 923.160156 143.683594 L 927.734375 143.972656 L 923.429688 142.398438 L 928.804688 137.664062 Z M 922.308594 140.6875 " fill-opacity="1" fill-rule="nonzero"/></g></g></g><g clip-path="url(#ab253279ac)"><g clip-path="url(#90ec5de176)"><g clip-path="url(#7d699ee652)"><path fill="#9badd6" d="M 972.105469 166.710938 L 972.394531 162.136719 L 970.828125 166.441406 L 966.089844 161.0625 L 969.113281 167.5625 L 964.542969 167.273438 L 968.847656 168.839844 L 963.46875 173.582031 L 969.96875 170.554688 L 969.675781 175.125 L 971.246094 170.820312 L 975.984375 176.199219 L 972.957031 169.703125 L 977.53125 169.992188 L 973.226562 168.425781 L 978.605469 163.6875 Z M 972.105469 166.710938 " fill-opacity="1" fill-rule="nonzero"/></g></g></g><g clip-path="url(#568d276341)"><g clip-path="url(#8ec9b62e4e)"><g clip-path="url(#b27f220936)"><path fill="#9badd6" d="M 1058.816406 212.683594 L 1059.105469 208.109375 L 1057.535156 212.417969 L 1052.796875 207.039062 L 1055.824219 213.535156 L 1051.25 213.246094 L 1055.554688 214.816406 L 1050.175781 219.550781 L 1056.671875 216.527344 L 1056.386719 221.097656 L 1057.953125 216.792969 L 1062.6875 222.171875 L 1059.664062 215.675781 L 1064.238281 215.964844 L 1059.933594 214.394531 L 1065.308594 209.660156 Z M 1058.816406 212.683594 " fill-opacity="1" fill-rule="nonzero"/></g></g></g></g></g></g></svg>