<svg xmlns="http://www.w3.org/2000/svg" xmlns:xlink="http://www.w3.org/1999/xlink" width="1920" zoomAndPan="magnify" viewBox="0 0 1440 809.999993" height="1080" preserveAspectRatio="xMidYMid meet" version="1.0"><defs><filter x="0%" y="0%" width="100%" height="100%" id="33a072fe4b"><feColorMatrix values="0 0 0 0 1 0 0 0 0 1 0 0 0 0 1 0 0 0 1 0" color-interpolation-filters="sRGB"/></filter><clipPath id="df02ff1866"><path d="M 964 300.25 L 1109 300.25 L 1109 509.5 L 964 509.5 Z M 964 300.25 " clip-rule="nonzero"/></clipPath><clipPath id="4f39a07b8e"><path d="M 331 301 L 490.871094 301 L 490.871094 506 L 331 506 Z M 331 301 " clip-rule="nonzero"/></clipPath><clipPath id="7a08f84de2"><path d="M 330.371094 300.25 L 490.871094 300.25 L 490.871094 507 L 330.371094 507 Z M 330.371094 300.25 " clip-rule="nonzero"/></clipPath><clipPath id="993204c22e"><path d="M 536 300.25 L 711 300.25 L 711 509 L 536 509 Z M 536 300.25 " clip-rule="nonzero"/></clipPath><clipPath id="4be2ce1dc4"><path d="M 536 300.25 L 712 300.25 L 712 509.5 L 536 509.5 Z M 536 300.25 " clip-rule="nonzero"/></clipPath><clipPath id="59bef4f08c"><path d="M 754 300.25 L 918 300.25 L 918 509 L 754 509 Z M 754 300.25 " clip-rule="nonzero"/></clipPath><mask id="51a5c7f9d4"><g filter="url(#33a072fe4b)"><rect x="-144" width="1728" fill="#000000" y="-80.999999" height="971.999992" fill-opacity="0.3"/></g></mask><clipPath id="242fe22f0e"><path d="M 0.902344 1 L 998 1 L 998 503.386719 L 0.902344 503.386719 Z M 0.902344 1 " clip-rule="nonzero"/></clipPath><clipPath id="424c03cfec"><path d="M 935 380 L 998 380 L 998 391 L 935 391 Z M 935 380 " clip-rule="nonzero"/></clipPath><clipPath id="5170b1f28f"><path d="M 971.027344 313.160156 L 998 313.160156 L 998 323 L 971.027344 323 Z M 971.027344 313.160156 " clip-rule="nonzero"/></clipPath><clipPath id="e465b17a3a"><rect x="0" width="998" y="0" height="504"/></clipPath></defs><rect x="-144" width="1728" fill="#ffffff" y="-80.999999" height="971.999992" fill-opacity="1"/><rect x="-144" width="1728" fill="#10151b" y="-80.999999" height="971.999992" fill-opacity="1"/><path fill="#fdfdfd" d="M 1083.238281 507.589844 C 1084.566406 508.289062 1086.085938 508.519531 1087.414062 508.289062 C 1087.785156 508.289062 1088.167969 508.289062 1088.546875 508.054688 C 1089.308594 507.824219 1090.058594 506.195312 1090.632812 502.9375 C 1091.582031 498.046875 1094.039062 492 1095.367188 488.507812 L 1098.78125 480.828125 L 1101.804688 474.3125 L 1102.371094 473.148438 C 1106.917969 464.304688 1108.8125 458.953125 1107.867188 456.859375 C 1106.351562 454.066406 1093.289062 455.230469 1087.035156 457.558594 C 1082.488281 459.417969 1063.734375 471.285156 1058.046875 475.242188 C 1048.960938 480.828125 1034.183594 486.648438 1022.0625 487.578125 C 1011.265625 488.742188 1005.390625 488.507812 1004.824219 487.113281 L 1004.824219 397.285156 L 1014.675781 397.75 C 1025.089844 398.449219 1033.429688 399.378906 1039.675781 400.777344 C 1046.117188 402.171875 1052.75 404.5 1059.753906 407.988281 C 1066.007812 410.316406 1071.5 415.203125 1076.613281 419.394531 C 1077.746094 420.089844 1080.78125 422.882812 1085.519531 427.304688 C 1087.21875 428.699219 1088.359375 429.398438 1088.734375 429.398438 C 1090.441406 429.398438 1093.660156 426.140625 1093.660156 424.046875 C 1092.90625 418.695312 1086.46875 409.851562 1083.621094 403.566406 C 1080.78125 397.984375 1075.480469 381.925781 1074.339844 369.59375 C 1074.339844 366.566406 1072.632812 364.472656 1070.175781 367.03125 C 1063.734375 373.546875 1051.042969 379.132812 1037.214844 380.53125 C 1030.582031 381.460938 1020.921875 381.691406 1013.15625 382.160156 L 1004.824219 382.160156 L 1004.824219 320.957031 C 1005.585938 320.257812 1009.75 320.023438 1017.324219 320.488281 C 1025.089844 320.957031 1030.960938 321.652344 1035.324219 322.585938 C 1042.523438 324.445312 1052.933594 329.800781 1056.722656 334.453125 C 1060.320312 338.640625 1064.867188 342.597656 1069.988281 346.089844 C 1079.269531 353.769531 1100.480469 356.328125 1102.1875 350.042969 C 1102.371094 348.878906 1101.621094 346.554688 1099.726562 343.296875 C 1098.207031 340.96875 1096.878906 337.945312 1096.3125 337.246094 C 1093.09375 330.496094 1090.253906 324.214844 1087.980469 318.164062 C 1085.707031 312.34375 1084.378906 308.15625 1083.816406 305.597656 C 1083.238281 303.503906 1082.671875 301.875 1082.292969 301.40625 C 1081.921875 301.175781 1080.402344 301.640625 1077.941406 303.035156 C 1074.90625 305.132812 1071.5 305.597656 1062.789062 306.292969 C 1058.808594 306.292969 1055.96875 306.292969 1049.335938 306.527344 L 1040.054688 306.527344 C 1034.183594 306.527344 1023.390625 306.761719 1014.484375 306.992188 L 970.160156 306.992188 C 968.078125 306.992188 966.753906 307.226562 966.371094 307.691406 C 965.613281 308.621094 966.371094 312.34375 968.460938 315.136719 C 970.351562 317.695312 971.484375 320.488281 971.867188 323.050781 C 972.246094 325.609375 972.433594 332.125 972.433594 342.597656 L 972.433594 345.621094 C 972.8125 435.683594 972.8125 481.527344 972.433594 483.621094 C 972.050781 485.949219 970.734375 489.207031 968.265625 493.394531 C 964.859375 498.746094 964.480469 500.839844 965.992188 501.539062 L 1010.511719 501.539062 C 1036.269531 501.539062 1053.316406 501.773438 1061.648438 502.238281 C 1070.175781 502.9375 1075.855469 503.867188 1078.703125 505.496094 Z M 1083.238281 507.589844 " fill-opacity="1" fill-rule="nonzero"/><g clip-path="url(#df02ff1866)"><path stroke-linecap="butt" transform="matrix(0.77586, 0, 0, 0.953186, -2106.373016, 280.497253)" fill="none" stroke-linejoin="round" d="M 4111.067384 238.245725 C 4112.779194 238.979284 4114.737707 239.221072 4116.449518 238.979284 C 4116.927818 238.979284 4117.421223 238.979284 4117.909592 238.733398 C 4118.891366 238.491611 4119.858036 236.782705 4120.598142 233.364892 C 4121.821584 228.234075 4124.988434 221.890222 4126.700245 218.226523 L 4131.100606 210.169666 L 4134.997493 203.33404 L 4135.72753 202.112808 C 4141.587965 192.834717 4144.029813 187.220325 4142.811406 185.023745 C 4140.857928 182.093606 4124.021764 183.314839 4115.961149 185.757304 C 4110.100714 187.707998 4085.928937 200.158016 4078.598359 204.309387 C 4066.887558 210.169666 4047.841145 216.275829 4032.218353 217.251176 C 4018.302337 218.472409 4010.730091 218.226523 4010.000054 216.763503 L 4010.000054 122.523675 L 4022.697663 123.011348 C 4036.120275 123.744907 4046.86944 124.720254 4054.919986 126.187373 C 4063.222269 127.650393 4071.771254 130.092859 4080.798539 133.752459 C 4088.859155 136.194925 4095.937996 141.321643 4102.528468 145.718901 C 4103.988542 146.448362 4107.900533 149.378501 4114.00767 154.017547 C 4116.197781 155.480567 4117.667925 156.214126 4118.15126 156.214126 C 4120.35144 156.214126 4124.500064 152.796314 4124.500064 150.599734 C 4123.52836 144.985342 4115.231112 135.707251 4111.560788 129.113414 C 4107.900533 123.257234 4101.068394 106.409959 4099.598251 93.472268 C 4099.598251 90.296243 4097.39807 88.099663 4094.23122 90.783917 C 4085.928937 97.619542 4069.571074 103.47982 4051.748101 104.946938 C 4043.199116 105.922285 4030.748209 106.164073 4020.73915 106.655845 L 4010.000054 106.655845 L 4010.000054 42.446868 C 4010.981828 41.713309 4016.348859 41.467423 4026.111216 41.955096 C 4036.120275 42.446868 4043.687486 43.176329 4049.311288 44.155774 C 4058.59031 46.106468 4072.007887 51.724958 4076.891582 56.605791 C 4081.528576 60.998951 4087.389011 65.150323 4093.989552 68.814021 C 4105.95209 76.870879 4133.290717 79.555132 4135.490897 72.961295 C 4135.72753 71.740062 4134.76086 69.301695 4132.319012 65.883882 C 4130.360499 63.441416 4128.648688 60.26949 4127.918651 59.53593 C 4123.770027 52.45442 4120.109773 45.86468 4117.179555 39.516729 C 4114.249338 33.410565 4112.537527 29.017405 4111.812525 26.333152 C 4111.067384 24.136572 4110.337347 22.427666 4109.848977 21.935895 C 4109.370677 21.694107 4107.412164 22.18178 4104.240279 23.644801 C 4100.328288 25.845479 4095.937996 26.333152 4084.71053 27.062613 C 4079.580133 27.062613 4075.919878 27.062613 4067.370893 27.308499 L 4055.408356 27.308499 C 4047.841145 27.308499 4033.930164 27.554385 4022.450961 27.796173 L 3965.32179 27.796173 C 3962.638275 27.796173 3960.931499 28.042058 3960.438094 28.529732 C 3959.461355 29.505079 3960.438094 33.410565 3963.131679 36.340704 C 3965.568492 39.024957 3967.028566 41.955096 3967.521971 44.643448 C 3968.01034 47.327701 3968.252008 54.163326 3968.252008 65.150323 L 3968.252008 68.322249 C 3968.740377 162.807964 3968.740377 210.903225 3968.252008 213.099805 C 3967.758603 215.54227 3966.061897 218.960083 3962.879942 223.353242 C 3958.489651 228.967634 3958.001281 231.164214 3959.949725 231.897773 L 4017.330633 231.897773 C 4050.529695 231.897773 4072.501291 232.143659 4083.240387 232.631333 C 4094.23122 233.364892 4101.551729 234.340239 4105.222053 236.049145 Z M 4111.067384 238.245725 " stroke="#073e36" stroke-width="1.85" stroke-opacity="1" stroke-miterlimit="2"/></g><g clip-path="url(#4f39a07b8e)"><path fill="#fdfdfd" d="M 354.53125 472.671875 C 360.4375 480.402344 368.621094 487.664062 378.714844 493.988281 C 399.855469 506.167969 423.09375 508.507812 448.609375 501.25 C 457.371094 498.90625 463.851562 497.734375 467.847656 497.5 C 472.035156 497.265625 475.851562 497.96875 479.277344 499.84375 C 481.75 501.25 483.464844 501.953125 484.417969 501.953125 C 485.75 501.953125 486.898438 498.90625 486.132812 497.734375 C 485.179688 495.394531 481.5625 459.558594 481.5625 442.929688 C 481.375 435.199219 481.375 430.046875 481.941406 427.703125 C 482.511719 425.359375 484.230469 422.550781 487.082031 419.269531 C 488.800781 417.164062 490.132812 415.054688 490.132812 414.117188 C 489.75 412.246094 486.320312 411.777344 480.609375 412.246094 C 476.226562 412.949219 465.945312 412.949219 449.945312 412.710938 C 434.140625 412.246094 424.996094 411.777344 422.90625 411.074219 C 419.089844 409.667969 417 407.558594 415.285156 403.578125 C 413 396.785156 415.097656 390.226562 419.855469 389.058594 C 420.238281 388.589844 421.191406 389.761719 420.425781 392.335938 C 419.472656 394.914062 420.425781 397.488281 423.09375 399.832031 C 425.761719 402.171875 428.429688 402.640625 431.089844 401.238281 C 436.230469 397.722656 437.757812 389.058594 433.953125 382.5 C 431.472656 378.050781 427.851562 375.707031 422.710938 375.238281 C 417.570312 374.769531 413.382812 376.410156 410.144531 380.15625 C 406.140625 384.605469 404.238281 390.695312 404.050781 397.957031 C 404.050781 402.40625 404.808594 406.15625 406.140625 409.199219 C 408.613281 414.117188 411.851562 418.101562 416.050781 421.144531 C 420.425781 423.957031 424.046875 424.660156 435.660156 425.359375 C 442.136719 425.59375 445.753906 426.0625 446.519531 426.765625 C 447.472656 427.234375 447.851562 428.875 447.851562 431.453125 C 447.660156 435.199219 448.226562 445.972656 448.992188 456.042969 C 449.945312 467.988281 450.523438 476.421875 450.523438 481.339844 L 450.523438 486.023438 L 445.949219 487.664062 C 426.332031 493.988281 407.09375 486.492188 391.859375 467.988281 C 384.238281 458.386719 378.339844 447.613281 373.957031 435.667969 C 366.34375 416.226562 364.242188 403.578125 363.859375 381.796875 C 363.859375 359.542969 366.527344 345.257812 373.957031 332.84375 C 377.957031 325.582031 383.285156 320.195312 389.957031 316.683594 C 398.332031 312.699219 411.097656 312.933594 421.945312 317.386719 C 426.332031 319.726562 432.804688 325.113281 440.230469 333.78125 C 454.132812 349.707031 464.609375 356.03125 476.609375 355.796875 C 481.941406 355.796875 484.984375 355.09375 485.75 353.457031 C 486.703125 352.285156 485.367188 350.175781 482.324219 345.726562 C 476.226562 337.058594 468.796875 321.835938 466.324219 309.65625 C 464.992188 304.738281 463.851562 304.503906 461.371094 307.3125 C 456.230469 312.699219 447.089844 312.464844 434.328125 307.078125 C 428.617188 304.738281 424.046875 303.097656 420.808594 302.394531 C 417.570312 301.691406 413.1875 301.222656 407.859375 301.222656 C 399.855469 301.222656 393.378906 301.925781 388.621094 303.566406 C 383.863281 304.972656 378.527344 307.78125 373.003906 312 C 362.722656 319.726562 350.910156 332.609375 343.867188 347.132812 C 339.101562 356.5 335.675781 367.507812 333.578125 380.15625 C 331.488281 392.804688 331.105469 405.21875 332.4375 417.164062 C 333.390625 426.296875 335.863281 436.136719 339.867188 446.207031 C 343.867188 456.277344 348.8125 464.945312 354.53125 472.671875 Z M 354.53125 472.671875 " fill-opacity="1" fill-rule="nonzero"/></g><g clip-path="url(#7a08f84de2)"><path stroke-linecap="butt" transform="matrix(0.780089, 0, 0, 0.959368, -4195.665623, 323.204769)" fill="none" stroke-linejoin="round" d="M 5832.919819 155.79746 C 5840.49107 163.855336 5850.981659 171.424609 5863.920887 178.016676 C 5891.021158 190.712208 5920.810426 193.151151 5953.519031 185.585949 C 5964.750722 183.142935 5973.058066 181.921428 5978.180679 181.677126 C 5983.548656 181.432825 5988.440926 182.165729 5992.832452 184.120141 C 5996.002162 185.585949 5998.200428 186.318854 5999.422244 186.318854 C 6001.129781 186.318854 6002.601969 183.142935 6001.620511 181.921428 C 6000.398695 179.482485 5995.761805 142.128794 5995.761805 124.795607 C 5995.521447 116.737731 5995.521447 111.367171 5996.247526 108.924157 C 5996.978613 106.481142 5999.181887 103.553597 6002.837319 100.133376 C 6005.040593 97.938735 6006.74813 95.740022 6006.74813 94.762816 C 6006.257401 92.812477 6001.860868 92.323874 5994.539989 92.812477 C 5988.92164 93.545381 5975.742055 93.545381 5955.231576 93.297008 C 5934.971469 92.812477 5923.249049 92.323874 5920.570068 91.590969 C 5915.677798 90.125161 5912.998817 87.926448 5910.800551 83.777395 C 5907.871198 76.696725 5910.560193 69.860356 5916.659257 68.642921 C 5917.149986 68.154318 5918.371802 69.375825 5917.390343 72.059069 C 5916.168528 74.746385 5917.390343 77.429629 5920.810426 79.872644 C 5924.230508 82.311586 5927.65059 82.800189 5931.060658 81.338452 C 5937.65045 77.673931 5939.60836 68.642921 5934.731112 61.806552 C 5931.551387 57.168896 5926.909489 54.725882 5920.319696 54.237279 C 5913.729904 53.748676 5908.361927 55.458786 5904.210758 59.363537 C 5899.078131 64.001193 5896.639507 70.348959 5896.39915 77.918232 C 5896.39915 82.555888 5897.370594 86.464711 5899.078131 89.636558 C 5902.247841 94.762816 5906.39901 98.915941 5911.782009 102.087788 C 5917.390343 105.019405 5922.032241 105.75231 5936.919364 106.481142 C 5945.221701 106.725444 5949.858592 107.214047 5950.84005 107.946951 C 5952.061866 108.435554 5952.547587 110.145664 5952.547587 112.83298 C 5952.302223 116.737731 5953.028302 127.967454 5954.00976 138.464273 C 5955.231576 150.915503 5955.972677 159.706283 5955.972677 164.832542 L 5955.972677 169.714499 L 5950.108964 171.424609 C 5924.961594 178.016676 5900.299947 170.203102 5880.770926 150.915503 C 5871.001408 140.907287 5863.440172 129.677564 5857.821823 117.226334 C 5848.062321 96.961529 5845.368317 83.777395 5844.877588 61.073648 C 5844.877588 37.877226 5848.29767 22.987053 5857.821823 10.04722 C 5862.949443 2.477946 5869.779593 -3.136915 5878.332302 -6.797365 C 5889.068256 -10.950489 5905.432574 -10.706188 5919.338238 -6.064461 C 5924.961594 -3.625518 5933.258924 1.989344 5942.77807 11.024425 C 5960.599553 27.624708 5974.02951 34.216776 5989.412369 33.972474 C 5996.247526 33.972474 6000.148323 33.23957 6001.129781 31.533531 C 6002.351597 30.312024 6000.639052 28.113311 5996.738256 23.475655 C 5988.92164 14.440574 5979.397487 -1.426805 5976.227777 -14.122337 C 5974.520239 -19.248595 5973.058066 -19.492897 5969.878341 -16.565351 C 5963.288549 -10.950489 5951.571136 -11.194791 5935.211826 -16.809652 C 5927.890947 -19.248595 5922.032241 -20.958705 5917.881072 -21.69161 C 5913.729904 -22.424514 5908.111555 -22.913117 5901.281405 -22.913117 C 5891.021158 -22.913117 5882.718821 -22.180212 5876.619757 -20.470102 C 5870.520694 -19.004294 5863.680529 -16.076748 5856.600008 -11.679322 C 5843.420423 -3.625518 5828.277921 9.802918 5819.249504 24.941464 C 5813.140426 34.705378 5808.7489 46.179403 5806.059904 59.363537 C 5803.380923 72.547672 5802.890194 85.487505 5804.597731 97.938735 C 5805.819547 107.458348 5808.989257 117.714937 5814.121884 128.211756 C 5819.249504 138.708574 5825.588925 147.743656 5832.919819 155.79746 Z M 5832.919819 155.79746 " stroke="#073e36" stroke-width="1.85" stroke-opacity="1" stroke-miterlimit="2"/></g><g clip-path="url(#993204c22e)"><path fill="#fefefe" d="M 628.738281 501.347656 C 652.386719 502.542969 670.464844 505.167969 682.875 508.988281 C 683.65625 508.988281 686.980469 507.316406 687.664062 501.347656 C 688.835938 496.097656 698.902344 474.136719 706.035156 464.585938 C 713.65625 454.800781 711.996094 452.652344 697.925781 453.605469 C 683.855469 454.5625 670.464844 460.050781 650.238281 472.703125 C 643.105469 477.238281 642.617188 477.714844 635.484375 480.582031 C 631.378906 482.011719 624.734375 483.207031 615.15625 484.398438 C 605.875 485.355469 596.980469 485.59375 589.164062 485.355469 L 588.675781 458.617188 L 588.1875 424.242188 L 587.699219 389.152344 C 587.503906 379.605469 587.503906 368.625 587.503906 355.972656 C 587.699219 343.320312 587.992188 331.382812 588.675781 320.164062 C 589.652344 311.570312 593.464844 309.183594 596.980469 307.035156 C 597.277344 306.796875 597.277344 306.796875 597.46875 306.796875 C 600.597656 304.648438 600.597656 302.023438 600.597656 300.828125 L 538.058594 300.828125 C 537.667969 303.453125 538.546875 305.601562 540.988281 306.796875 C 544.019531 308.46875 546.460938 312.765625 547.632812 320.164062 C 547.925781 321.597656 548.316406 364.566406 547.925781 401.566406 L 547.925781 436.417969 C 547.925781 447.160156 547.925781 454.5625 547.632812 458.617188 C 547.4375 483.683594 544.507812 493.234375 538.546875 495.859375 C 535.90625 497.050781 536.691406 500.15625 538.546875 500.394531 C 561.511719 500.394531 577.925781 500.15625 599.621094 500.394531 C 610.664062 500.632812 620.433594 500.871094 628.738281 501.347656 Z M 628.738281 501.347656 " fill-opacity="1" fill-rule="nonzero"/></g><g clip-path="url(#4be2ce1dc4)"><path stroke-linecap="butt" transform="matrix(0.977185, 0, 0, 0.977775, -11078.525916, 273.576628)" fill="none" stroke-linejoin="round" d="M 11980.597715 232.948351 C 12004.79828 234.170833 12023.298482 236.8555 12035.998382 240.76265 C 12036.797872 240.76265 12040.199703 239.052772 12040.899256 232.948351 C 12042.098492 227.579016 12052.399922 205.118898 12059.699266 195.351024 C 12067.498292 185.343447 12065.799376 183.146175 12051.400559 184.120965 C 12037.001742 185.09975 12023.298482 190.712782 12002.599683 203.652718 C 11995.300338 208.29096 11994.800656 208.778355 11987.501312 211.710715 C 11983.299991 213.1729 11976.500328 214.395382 11966.698579 215.61387 C 11957.200637 216.592655 11948.098442 216.836352 11940.099543 216.592655 L 11939.599862 189.246602 L 11939.10018 154.090245 L 11938.600499 118.202796 C 11938.400627 108.438917 11938.400627 97.208858 11938.400627 84.268921 C 11938.600499 71.328985 11938.900308 59.120141 11939.599862 47.646385 C 11940.599224 38.857296 11944.500736 36.416326 11948.098442 34.219053 C 11948.402248 33.975356 11948.402248 33.975356 11948.598123 33.975356 C 11951.800081 31.778084 11951.800081 29.093416 11951.800081 27.870934 L 11887.800897 27.870934 C 11887.401152 30.555601 11888.300579 32.752874 11890.798985 33.975356 C 11893.901007 35.685233 11896.399414 40.079778 11897.598649 47.646385 C 11897.898457 49.112565 11898.298203 93.058011 11897.898457 130.899035 L 11897.898457 166.542787 C 11897.898457 177.529148 11897.898457 185.09975 11897.598649 189.246602 C 11897.398776 214.882777 11894.400688 224.650651 11888.300579 227.335319 C 11885.598302 228.553806 11886.40179 231.729863 11888.300579 231.973561 C 11911.801591 231.973561 11928.598878 231.729863 11950.800718 231.973561 C 11962.101511 232.217258 11972.099135 232.460956 11980.597715 232.948351 Z M 11980.597715 232.948351 " stroke="#5e877e" stroke-width="1" stroke-opacity="1" stroke-miterlimit="2"/></g><g clip-path="url(#59bef4f08c)"><path stroke-linecap="butt" transform="matrix(1.002425, 0, 0, 0.999761, -20950.1951, 212.022564)" fill-opacity="1" fill="#fefefe" fill-rule="nonzero" stroke-linejoin="round" d="M 21712.197671 295.794207 C 21730.302201 297.013248 21747.600093 296.036452 21765.899462 291.398625 C 21776.600073 288.468237 21782.499827 286.760798 21791.100063 281.876819 C 21795.398232 279.434829 21798.901455 276.750594 21801.301883 273.574054 C 21806.20016 267.471033 21809.898223 257.218583 21808.900642 244.524144 C 21808.600588 234.025541 21805.900106 207.659867 21800.300406 165.419305 C 21799.100192 155.655253 21798.601401 145.891202 21798.901455 135.880997 C 21799.400245 125.870793 21800.600459 118.056426 21802.498201 112.441803 C 21804.699892 105.608139 21807.700428 99.747363 21811.30107 95.109537 L 21811.799861 94.621139 C 21812.501284 93.39819 21813.300128 92.667547 21813.498865 92.421394 C 21815.19787 89.983312 21815.19787 88.760363 21813.000075 88.760363 L 21753.499847 88.760363 C 21751.699525 88.760363 21753.698583 91.202353 21758.799494 96.086332 C 21765.198038 101.943201 21769.601421 109.26917 21774.499698 123.917201 C 21775.898649 128.06663 21777.60155 134.169651 21779.600608 142.226263 C 21781.498349 150.286783 21782.998617 157.608845 21783.700041 163.711866 C 21786.899313 184.70907 21789.802429 207.659867 21792.300277 232.314195 C 21793.999282 247.454531 21791.801487 258.437624 21785.399046 265.517441 C 21779.300555 272.112767 21768.802577 276.504441 21753.901217 279.192584 C 21743.200606 280.900023 21732.499995 280.900023 21721.698068 278.946431 C 21711.200091 276.750594 21703.199962 271.866614 21697.802895 264.2984 C 21692.698088 256.48794 21692.199297 245.50094 21694.400989 227.18797 C 21695.601203 217.912316 21696.099993 212.539939 21696.099993 211.074745 L 21698.999212 184.70907 L 21703.398698 149.063835 C 21704.898966 139.299783 21706.800604 130.020222 21708.998399 120.986813 C 21710.697403 113.418599 21712.700358 106.82718 21714.898153 100.235761 C 21715.599577 99.01672 21717.302478 97.305374 21720.299117 94.621139 C 21724.601183 90.713955 21726.101451 88.760363 21724.39855 88.760363 L 21654.599081 88.760363 C 21653.398867 88.760363 21654.100291 89.983312 21656.301982 92.179149 C 21660.900206 96.816976 21663.398054 99.747363 21663.600687 100.724159 C 21665.100955 103.166149 21665.599745 116.591232 21664.598268 126.601436 C 21663.600687 138.811385 21662.59921 148.333191 21661.699049 156.143651 L 21653.098813 226.945725 C 21652.900077 239.88241 21650.901019 250.86941 21654.801715 262.833206 C 21656.999509 268.936227 21660.198782 274.062452 21664.800902 278.458033 C 21671.90087 285.53785 21685.800753 290.664075 21694.899779 292.617666 C 21699.501899 293.594462 21705.1016 294.571258 21712.197671 295.794207 Z M 21712.197671 295.794207 " stroke="#5e877e" stroke-width="1" stroke-opacity="1" stroke-miterlimit="2"/></g><g mask="url(#51a5c7f9d4)"><g transform="matrix(1, 0, 0, 1, 442, 80)"><g clip-path="url(#e465b17a3a)"><path fill="#c7daf5" d="M 647.621094 58.53125 C 647.941406 60.03125 646.929688 60.195312 645.859375 60.292969 C 641.03125 55.140625 632.761719 53.425781 627.359375 48.84375 C 623.007812 49.136719 615.589844 47.894531 614.148438 42.675781 C 593.558594 38.164062 571.890625 22.878906 545.441406 24.179688 C 551.261719 18.800781 560.589844 20.84375 568.34375 22.417969 C 596.355469 28.105469 624.777344 47.273438 647.621094 58.53125 " fill-opacity="1" fill-rule="evenodd"/><path fill="#c7daf5" d="M 640.566406 109.617188 C 639.535156 113.144531 634.28125 109.988281 634.40625 106.976562 C 636.523438 107.339844 636.316406 105.371094 638.808594 106.097656 C 638.929688 107.738281 639.390625 109.039062 640.566406 109.617188 " fill-opacity="1" fill-rule="evenodd"/><path fill="#c7daf5" d="M 607.976562 57.652344 C 603.425781 56.625 602.628906 51.847656 596.527344 52.367188 C 596.757812 48.742188 589.175781 49.792969 591.246094 47.082031 C 588.839844 47.003906 589.472656 48.546875 587.722656 47.082031 C 581.960938 44.769531 574.59375 42.136719 566.582031 40.914062 C 561.871094 40.199219 554.902344 42.089844 552.488281 37.394531 C 573.492188 34.59375 592.835938 45.542969 607.976562 54.128906 L 607.976562 57.652344 " fill-opacity="1" fill-rule="evenodd"/><path fill="#c7daf5" d="M 498.757812 123.714844 C 495.316406 107.285156 470.601562 106.117188 462.644531 118.429688 C 461.8125 129.242188 469.710938 131.324219 471.453125 139.566406 C 465.304688 136.144531 455.042969 127.421875 456.480469 117.546875 C 457.308594 111.839844 466.40625 105.539062 473.214844 104.335938 C 486.183594 102.042969 498.210938 112.476562 504.921875 119.3125 C 504.898438 122.808594 501.496094 122.925781 498.757812 123.714844 " fill-opacity="1" fill-rule="evenodd"/><path fill="#c7daf5" d="M 418.601562 101.695312 C 424.582031 103.636719 435.023438 108.882812 444.148438 103.453125 C 450.570312 99.636719 457.742188 88.960938 457.359375 84.957031 C 456.933594 80.511719 452.820312 81.40625 452.078125 77.03125 C 470.914062 75.429688 460.347656 99.847656 450.3125 106.976562 C 447.996094 107.289062 446.382812 108.964844 443.265625 110.5 C 433.007812 110.011719 415.28125 112.890625 418.601562 101.695312 " fill-opacity="1" fill-rule="evenodd"/><path fill="#c7daf5" d="M 425.648438 159.828125 C 426.183594 169.570312 434.414062 171.617188 436.21875 180.085938 C 430.011719 175.371094 416.355469 168.4375 419.484375 156.304688 C 421.761719 147.476562 448.449219 140.183594 457.359375 148.375 C 460.082031 150.878906 460.105469 155.683594 459.121094 156.304688 C 456.554688 157.917969 453.9375 151.144531 449.433594 150.136719 C 439.011719 147.808594 430.863281 153.902344 425.648438 159.828125 " fill-opacity="1" fill-rule="evenodd"/><path fill="#c7daf5" d="M 427.414062 195.941406 C 421.457031 198.132812 416.835938 189.230469 408.917969 188.894531 C 398.378906 188.449219 392.414062 195.957031 391.296875 202.988281 C 389.203125 216.152344 404.304688 221.8125 406.269531 230.296875 C 398.417969 225.589844 386.386719 217.90625 385.132812 207.390625 C 382.199219 182.808594 417.578125 176.910156 427.414062 195.941406 " fill-opacity="1" fill-rule="evenodd"/><path fill="#c7daf5" d="M 374.5625 160.707031 C 385.78125 160.8125 396.378906 168.210938 407.152344 160.707031 C 417.78125 153.308594 422.394531 128.714844 407.152344 122.832031 C 403.5625 124.515625 396.457031 124.039062 393.058594 121.070312 C 396.351562 116.304688 403.699219 121.300781 406.269531 117.546875 C 432.847656 125.199219 424.578125 166.90625 400.105469 169.515625 C 393.058594 170.265625 378.5625 168.476562 374.5625 160.707031 " fill-opacity="1" fill-rule="evenodd"/><path fill="#c7daf5" d="M 395.699219 248.789062 C 391.40625 250.921875 390.359375 242.25 385.132812 240.863281 C 373.488281 237.78125 362.359375 244.265625 360.46875 251.433594 C 356.851562 265.148438 373.347656 275.917969 377.203125 284.902344 C 366.855469 281.171875 347.488281 259.117188 356.945312 244.386719 C 364.285156 232.953125 394.964844 229.222656 395.699219 248.789062 " fill-opacity="1" fill-rule="evenodd"/><path fill="#c7daf5" d="M 387.773438 129 C 376.070312 136.964844 373.25 153.816406 364.875 165.109375 C 362.855469 153.992188 373.980469 144.570312 375.441406 136.925781 C 380.410156 135.144531 380.074219 128.046875 387.773438 129 " fill-opacity="1" fill-rule="evenodd"/><path fill="#c7daf5" d="M 342.855469 215.320312 C 359.296875 218.503906 379.613281 208.785156 376.320312 191.535156 C 374.515625 182.046875 364.769531 183.230469 357.828125 177.445312 C 405.105469 172.089844 373.214844 243.054688 342.855469 215.320312 " fill-opacity="1" fill-rule="evenodd"/><path fill="#c7daf5" d="M 336.6875 217.960938 C 334.945312 205.253906 343.558594 187.910156 352.539062 180.085938 C 350.222656 192.191406 341.265625 205.191406 336.6875 217.960938 " fill-opacity="1" fill-rule="evenodd"/><path fill="#c7daf5" d="M 319.070312 266.40625 C 322.785156 261.167969 326.78125 265.3125 331.402344 263.765625 C 340.996094 260.554688 348.40625 247.71875 343.730469 239.101562 C 341.21875 234.460938 337.164062 236.242188 333.160156 231.175781 C 369.078125 227.792969 342.664062 286.671875 319.070312 266.40625 " fill-opacity="1" fill-rule="evenodd"/><path fill="#c7daf5" d="M 319.949219 256.71875 C 315.183594 250.726562 324.1875 243.832031 326.117188 237.339844 C 327.40625 233.007812 325.304688 225.964844 332.28125 225.007812 C 333.464844 237.40625 324.515625 247.148438 319.949219 256.71875 " fill-opacity="1" fill-rule="evenodd"/><path fill="#c7daf5" d="M 297.050781 298.113281 C 293.695312 290.042969 301.003906 274.519531 311.144531 271.691406 C 308.894531 279.488281 300.96875 289.070312 297.050781 298.113281 " fill-opacity="1" fill-rule="evenodd"/><path fill="#c7daf5" d="M 307.617188 402.054688 C 308.097656 381.726562 272.316406 379.417969 268.863281 395.890625 C 266.96875 404.910156 277.664062 412.417969 274.144531 417.03125 C 274.882812 419.046875 279.902344 419.097656 277.667969 421.433594 C 272.808594 421.785156 271.542969 415.582031 269.746094 412.625 C 267.238281 408.492188 264.175781 404.714844 263.578125 400.292969 C 260.308594 376.128906 296.417969 374.3125 308.5 388.84375 C 311.683594 392.667969 313.792969 399.226562 307.617188 402.054688 " fill-opacity="1" fill-rule="evenodd"/><path fill="#c7daf5" d="M 80.367188 385.320312 C 79.597656 391.664062 85.878906 390.964844 90.054688 392.367188 C 90.820312 395.773438 87.902344 395.5 87.414062 397.648438 C 79.464844 398.847656 78.445312 393.113281 74.203125 390.601562 C 75.785156 388.371094 75.507812 384.277344 80.367188 385.320312 " fill-opacity="1" fill-rule="evenodd"/><path fill="#c7daf5" d="M 60.988281 371.222656 C 55.910156 367.496094 53.742188 360.855469 44.253906 361.539062 C 44.992188 360.515625 45.414062 359.175781 45.136719 357.132812 C 54.207031 353.917969 66.644531 362.582031 60.988281 371.222656 " fill-opacity="1" fill-rule="evenodd"/><g clip-path="url(#242fe22f0e)"><path fill="#c7daf5" d="M 1003.132812 491.128906 C 998.460938 492.6875 992.769531 495.578125 987.855469 495.972656 C 973.90625 497.089844 959.550781 498.050781 945.839844 494.414062 C 935.398438 491.640625 923.707031 489.449219 913.992188 485.292969 C 910.613281 483.851562 906.71875 483.175781 903.222656 482.007812 C 895.222656 479.335938 887.378906 476.21875 879.703125 472.734375 C 873.4375 469.894531 865.308594 467.128906 859.894531 462.832031 C 830.984375 439.847656 800.828125 415.226562 783.261719 380.914062 C 774.976562 364.726562 767.273438 348.503906 759.480469 331.589844 C 752.589844 308.078125 742.507812 285.78125 734.820312 262 C 727.261719 238.632812 721.804688 213.457031 711.039062 192.417969 C 686.496094 144.464844 656.835938 104.621094 612.382812 77.03125 C 597.867188 73.648438 584.253906 63.464844 569.226562 60.292969 C 512.277344 48.289062 449.667969 59.757812 410.675781 90.242188 C 407.96875 89.625 408.984375 89.625 406.269531 90.242188 C 392.003906 102.101562 377.664062 113.894531 368.398438 130.757812 C 408.898438 39.960938 515.878906 -12.019531 634.40625 13.609375 C 668.894531 21.070312 694.992188 34.855469 720.726562 50.605469 C 788.996094 92.390625 834.125 155.75 880.152344 219.722656 C 894.109375 239.121094 908.964844 258.058594 926.453125 274.421875 C 949.851562 296.3125 984.125 321.5 1018.449219 315.738281 C 1019.671875 315.53125 1020.878906 315.207031 1022.082031 314.851562 C 1022.097656 312.277344 1022.085938 309.703125 1022.085938 307.128906 C 1021.195312 308.449219 1017.804688 310.128906 1016.082031 310.71875 C 1013.488281 311.609375 1009.792969 311.457031 1007.074219 311.222656 C 998.277344 310.453125 988.953125 307.660156 980.808594 304.804688 C 961.574219 298.070312 945.800781 284.695312 931.761719 270.3125 C 925.011719 263.398438 918.601562 256.175781 912 249.136719 C 906.960938 243.773438 903.09375 239.402344 899.03125 233.3125 C 897.804688 231.460938 896.507812 230.683594 894.90625 229.105469 C 890.375 224.644531 886.855469 218.429688 883.207031 213.242188 C 875.933594 202.925781 868.863281 192.441406 860.78125 182.726562 C 857.894531 179.5625 855.074219 176.289062 852.351562 172.835938 C 842.996094 160.984375 832.070312 147.632812 823.769531 133.382812 C 795.15625 97.15625 755.1875 67.804688 719.242188 41.527344 C 714.90625 39.644531 710.832031 37.414062 707.378906 34.683594 C 707.132812 34.703125 706.882812 34.734375 706.632812 34.75 C 652.71875 2.488281 548.824219 -12.90625 486.425781 17.132812 C 472.753906 18.417969 461.066406 27.539062 449.382812 34.164062 C 448.96875 34.441406 448.636719 34.761719 448.183594 35.019531 C 427.164062 47.070312 409.949219 62.414062 393.480469 80.078125 C 392.65625 80.960938 391.792969 81.664062 390.925781 82.324219 C 384.152344 90.695312 377.863281 99.542969 371.921875 108.742188 C 371.710938 108.644531 371.503906 108.558594 371.296875 108.472656 C 370.445312 110.128906 369.652344 111.816406 368.800781 113.472656 C 369.265625 113.660156 369.746094 113.847656 370.15625 114.023438 C 361.835938 131.054688 347.082031 146.539062 340.207031 165.109375 C 337.203125 173.246094 336.734375 180.492188 333.160156 188.011719 C 323.753906 207.835938 312.917969 228.28125 304.976562 248.789062 C 292.085938 282.097656 272.917969 311.359375 255.652344 338.632812 C 225.453125 371.3125 197.40625 392.933594 149.070312 401.171875 C 130.289062 404.375 113.453125 398.058594 100.628906 390.601562 C 95.910156 387.863281 89.910156 384.609375 86.53125 381.796875 C 78.808594 375.347656 77.289062 367.207031 72.4375 358.894531 C 70.652344 355.828125 66.449219 351.6875 63.632812 347.441406 C 60.824219 343.21875 58.347656 337.65625 55.707031 335.109375 C 43.566406 323.4375 -9.890625 321.542969 2.855469 346.5625 C 19.355469 343.445312 30.339844 356.578125 42.488281 360.652344 C 43.105469 355.03125 35.683594 352.8125 37.207031 349.203125 C 42.46875 348.753906 44.042969 356.953125 47.777344 352.726562 C 42.25 334.671875 19.828125 346.667969 8.140625 338.632812 C 18.953125 329.050781 43.125 333.066406 52.179688 340.398438 C 64.574219 354.066406 68.128906 375.554688 82.128906 387.082031 C 87.648438 391.625 95.910156 395.65625 103.269531 399.414062 C 114.296875 405.039062 126.601562 407.691406 141.144531 408.21875 C 134.566406 419.472656 151.136719 428.941406 163.164062 430.242188 C 155.519531 435.515625 159.636719 450.050781 166.691406 453.140625 C 169.285156 446.082031 163.105469 445.039062 164.042969 437.285156 C 173.566406 430.144531 191.132812 435.179688 194.875 444.332031 C 195.429688 447.636719 186.980469 449.988281 191.351562 451.382812 C 196.960938 452.292969 198.34375 448.980469 201.039062 446.976562 C 200.09375 434.914062 189.277344 429.324219 179.902344 428.480469 C 191.28125 425.089844 188.738281 404.617188 179.015625 401.171875 C 175.601562 406.449219 184.027344 409.777344 182.542969 417.027344 C 179.707031 430.902344 147.234375 426.125 144.667969 413.503906 C 149.546875 413.269531 146.214844 409.378906 144.667969 408.21875 C 162.367188 405.953125 177.144531 400.765625 191.351562 395.007812 C 192.433594 411.148438 209.808594 418.742188 224.824219 415.265625 C 216.625 422.265625 218.8125 442.070312 229.226562 445.214844 C 221.671875 436.917969 224.804688 410.023438 242.4375 412.625 C 246.789062 413.265625 253.269531 420.882812 255.652344 425.835938 C 257.085938 428.8125 255.21875 434.535156 260.054688 434.644531 C 265.679688 428.933594 255.5 412.308594 246.84375 408.21875 C 243.78125 406.773438 240.507812 407.273438 238.035156 406.460938 C 246.902344 398.394531 240.664062 375.515625 228.34375 374.75 C 233.820312 381.660156 240.152344 395.0625 232.75 404.695312 C 220.671875 415.535156 196.652344 410.804688 195.753906 393.242188 C 213.402344 387.992188 224.320312 376.007812 238.035156 366.824219 C 250.972656 389.179688 294.285156 379.28125 283.839844 348.324219 C 282.382812 344.019531 279.386719 342.472656 275.910156 338.632812 C 280.070312 334.28125 284.5 330.195312 289.121094 326.304688 C 306.40625 333.578125 322.992188 319.722656 322.59375 300.761719 C 319.898438 297.585938 319.480469 296.074219 319.070312 291.949219 C 315.773438 290.386719 309.621094 279.550781 306.738281 288.429688 C 308.113281 290.589844 310.703125 291.15625 312.90625 293.714844 C 323.152344 305.617188 308.308594 326.261719 292.644531 322.78125 C 289.910156 322.238281 297.183594 317.144531 292.644531 317.496094 C 280.210938 321.058594 276.050781 333.921875 265.339844 343.039062 C 273.09375 342.332031 276.792969 345.679688 279.433594 350.082031 C 279.960938 360.574219 276.699219 371.503906 266.21875 373.871094 C 254.777344 376.449219 248.546875 368.007812 239.796875 366.824219 C 239.261719 366.773438 238.753906 366.691406 238.914062 365.941406 C 270.742188 332.292969 299.410156 290.789062 313.789062 242.621094 C 314.4375 241.21875 318.09375 242.828125 317.308594 239.980469 C 324.320312 220.277344 332.179688 201.417969 343.730469 186.25 C 346.417969 169.4375 359.941406 158.695312 368.398438 145.734375 C 376.367188 133.515625 381.96875 119.75 393.058594 109.617188 C 422.355469 82.871094 473.699219 59.273438 521.660156 62.9375 C 524.195312 74.269531 503.945312 80.582031 490.832031 77.910156 C 485.734375 76.871094 481.421875 71.148438 477.621094 74.386719 C 485.121094 90.269531 533.21875 84.460938 528.707031 62.054688 C 547.816406 63.578125 573.929688 64.710938 587.722656 74.386719 C 586.1875 85.34375 576.835938 85.113281 565.703125 84.957031 C 557.433594 81.679688 556.933594 76.433594 553.371094 71.746094 C 544.109375 80.96875 562.410156 91.285156 575.386719 90.242188 C 585.988281 89.386719 592.195312 84.578125 593.003906 75.265625 C 595.25 77.433594 599.804688 77.277344 601.816406 79.671875 C 582.1875 86.433594 611.675781 110.9375 622.074219 100.8125 C 619.296875 96.210938 609.257812 100.546875 604.457031 96.40625 C 603.910156 92.253906 600.460938 91.007812 600.054688 86.71875 C 601.183594 84.546875 606.558594 82.683594 604.558594 80.753906 C 650.28125 104.808594 679.847656 145.023438 703.105469 191.535156 C 686.570312 169.910156 673.847656 144.46875 651.144531 129 C 654.203125 129.308594 658.949219 128.984375 656.425781 126.355469 C 649.976562 119.417969 630.9375 104.4375 625.597656 117.546875 C 633.308594 115.476562 645.945312 120.207031 651.144531 128.117188 C 633.671875 125.328125 620.542969 118.199219 610.625 107.859375 C 607.414062 107.585938 604.890625 107.996094 602.695312 108.742188 C 601.507812 102.25 595.445312 102.804688 590.363281 99.933594 C 590.417969 99.960938 589.484375 97.289062 589.484375 97.289062 C 584.632812 92.898438 574.726562 92.90625 570.105469 97.289062 C 578.824219 99.035156 593.019531 100.050781 597.410156 108.742188 C 578.042969 112.144531 568.613281 97.90625 555.132812 103.453125 C 549.558594 79.773438 493.1875 82.433594 512.851562 110.5 C 516.15625 103.304688 513.5625 95.992188 520.777344 92.882812 C 531.621094 88.214844 546.015625 96.214844 549.84375 104.335938 C 542.464844 109.539062 533.96875 112.425781 525.183594 114.90625 C 522.882812 115.554688 518.570312 114.714844 516.375 115.785156 C 512.660156 117.597656 510.261719 122.8125 506.683594 125.476562 C 498.597656 131.5 488.21875 131.605469 478.5 136.046875 C 475.386719 137.464844 474.40625 141.90625 469.691406 141.328125 C 470.472656 150.277344 464.410156 151.695312 460.882812 157.183594 C 457.289062 162.78125 456.039062 167.804688 452.957031 170.394531 C 448.824219 173.867188 443.925781 174.8125 438.859375 176.5625 C 434.507812 186.851562 429.800781 199.347656 422.128906 208.273438 C 418.703125 212.253906 412.988281 213.984375 411.558594 217.960938 C 410.003906 222.277344 413.15625 226.34375 412.4375 231.175781 C 410.867188 241.769531 399.367188 249.75 399.226562 258.480469 C 396.152344 260.460938 389.359375 262.980469 387.773438 268.167969 C 385.804688 274.605469 389.546875 283.789062 387.773438 290.1875 C 385.371094 298.851562 379.226562 301.363281 375.441406 306.925781 C 366.546875 285.800781 328.527344 294.757812 334.925781 318.378906 C 337.597656 328.238281 348.195312 339.144531 354.300781 343.039062 C 351.195312 330.378906 339.605469 326.765625 339.328125 313.972656 C 339.007812 299.257812 366.738281 294.039062 373.679688 310.449219 C 365.78125 314.808594 367.441406 326.496094 363.992188 335.109375 C 359.644531 345.972656 352.324219 352.515625 344.613281 359.773438 C 342.429688 354.03125 337.953125 350.582031 334.925781 345.679688 C 303.175781 329.675781 295.691406 371.738281 316.429688 384.4375 C 312.820312 372.71875 307.113281 362.488281 311.144531 351.847656 C 316.898438 350.628906 319.988281 347.511719 326.117188 348.324219 C 332.316406 349.144531 338.199219 355.46875 339.328125 361.539062 C 341.746094 374.484375 330.605469 378.292969 327.878906 389.722656 C 320.675781 392.207031 317.457031 398.679688 310.257812 401.171875 C 307.382812 411.082031 294.734375 414.332031 286.480469 419.671875 C 275.703125 426.640625 266.769531 437.480469 255.652344 441.691406 C 250.980469 443.460938 244.945312 443.308594 239.796875 445.214844 C 231.367188 448.332031 224.757812 453.828125 216.894531 454.90625 C 212.773438 455.46875 208.101562 454.222656 203.683594 454.90625 C 198.085938 455.765625 190.722656 459.761719 183.421875 460.1875 C 162.671875 461.398438 153.164062 457.414062 136.742188 451.382812 C 123.464844 446.5 117.261719 442.527344 113.839844 432.882812 C 119.875 426.144531 127.464844 431.46875 132.335938 437.285156 C 134.628906 440.03125 134.828125 444.828125 138.5 445.214844 C 145.128906 436.335938 131.46875 428.554688 125.289062 424.074219 C 127.449219 420.75 133.378906 417.175781 130.574219 411.742188 C 124.066406 412.675781 124.441406 418.5625 119.125 418.789062 C 111.183594 419.128906 105.664062 411.777344 100.628906 406.460938 C 99.394531 403.21875 104.457031 399.125 100.628906 401.171875 C 83.257812 403.804688 106.9375 422.300781 113.839844 423.191406 C 112.890625 427.234375 108.789062 428.125 107.671875 432.003906 C 96.410156 425.953125 78.835938 419.769531 83.007812 403.820312 C 78.394531 401.964844 79.65625 395.828125 72.4375 395.007812 C 65.414062 384.710938 61.988281 370.8125 48.660156 366.824219 C 48.417969 373.523438 54.539062 377.464844 58.347656 382.675781 C 64.792969 391.5 70.589844 402.378906 75.082031 410.863281 C 82.765625 425.382812 91.421875 435.363281 107.671875 438.167969 C 113.832031 449.660156 125.222656 454.53125 139.382812 460.1875 C 146.453125 463.011719 154.414062 465.890625 160.519531 466.351562 C 177.425781 467.632812 192.546875 463.238281 208.085938 461.070312 C 211.613281 460.578125 215.136719 461.566406 218.65625 461.070312 C 229.199219 459.585938 238.050781 454.554688 245.960938 450.5 C 275.394531 444.511719 286.488281 425.320312 310.257812 414.386719 C 323.726562 398.199219 342.332031 387.144531 349.019531 364.179688 C 353.714844 360.394531 358.171875 357.761719 361.351562 353.609375 C 364.117188 349.996094 370.433594 339.5625 371.921875 335.992188 C 374.4375 329.953125 373.144531 322.375 376.320312 316.613281 C 378.453125 312.753906 383.949219 310.234375 386.894531 306.042969 C 394.035156 295.867188 395.597656 284.140625 395.699219 269.046875 C 406.679688 256.273438 420.984375 243.015625 418.601562 219.722656 C 425.152344 212.757812 433.507812 205.589844 438.859375 195.941406 C 442.65625 189.113281 443.074219 178.480469 451.816406 177.613281 C 455.207031 173.78125 458.574219 169.957031 461.566406 165.671875 C 465.214844 160.441406 469.246094 155.863281 473.789062 151.628906 C 474.101562 150.40625 474.6875 149.273438 475.855469 148.375 C 476.210938 148.480469 476.582031 148.558594 476.941406 148.664062 C 477.273438 148.394531 477.515625 148.0625 477.855469 147.800781 C 479.734375 146.335938 481.773438 145.191406 483.757812 143.9375 C 482.917969 143.625 481.972656 143.414062 481.144531 143.09375 C 495.09375 136.488281 512.335938 133.183594 520.777344 121.070312 C 536.777344 117.984375 549.261719 111.382812 563.9375 106.976562 C 577.332031 117.867188 595.46875 110.226562 609.742188 114.90625 C 616.203125 117.023438 622.671875 124.875 630.003906 128.117188 C 635.570312 130.582031 642.320312 130.320312 646.738281 132.523438 C 652.792969 135.539062 672.769531 157.386719 677.566406 164.476562 C 691.101562 177.832031 702.046875 194.488281 709.878906 211.835938 C 710.265625 211.835938 710.644531 211.789062 711.039062 211.796875 C 713.339844 211.839844 721.660156 239.886719 722.796875 243.074219 C 726.675781 253.988281 741.5 297.933594 745.300781 308.898438 C 750.246094 323.15625 756.578125 337.8125 762.609375 351.789062 C 767.664062 363.5 773.445312 374.90625 780.007812 385.847656 C 792.597656 406.839844 808.117188 426.050781 826.304688 442.453125 C 827.933594 443.917969 829.578125 445.363281 831.238281 446.78125 C 844.675781 455.585938 857.195312 465.082031 870.019531 474.164062 C 898.75 490.015625 934.496094 499.085938 971.046875 503.386719 C 981.425781 501.535156 991.769531 499.511719 1002 496.902344 C 1002.378906 494.976562 1002.753906 493.054688 1003.132812 491.128906 " fill-opacity="1" fill-rule="nonzero"/></g><g clip-path="url(#424c03cfec)"><path fill="#c7daf5" d="M 1019.296875 383.324219 C 998.066406 387.65625 975.964844 389.269531 955.90625 383.554688 C 953.058594 382.464844 955.230469 386.40625 952.382812 385.320312 C 950.632812 383.289062 952.601562 384.339844 953.261719 382.675781 C 947.84375 380.992188 944.054688 385.660156 940.933594 380.03125 C 941.363281 384.621094 935.855469 378.339844 935.648438 380.914062 C 960.871094 392.25 991.132812 393.253906 1018.800781 387.75 C 1018.984375 386.273438 1019.117188 384.800781 1019.296875 383.324219 " fill-opacity="1" fill-rule="evenodd"/></g><g clip-path="url(#5170b1f28f)"><path fill="#c7daf5" d="M 1024.933594 321.980469 C 1025.023438 320.5625 1025.058594 319.148438 1025.140625 317.730469 C 1008.09375 319.964844 990.753906 318.746094 972.378906 313.566406 C 971.714844 313.378906 971.21875 314.425781 971.894531 314.71875 C 987.917969 321.683594 1006.71875 324.027344 1024.933594 321.980469 " fill-opacity="1" fill-rule="evenodd"/></g><path fill="#c7daf5" d="M 382.179688 132.746094 C 381.3125 133.507812 382.484375 135.074219 383.429688 134.367188 C 389.433594 129.910156 397.085938 135.589844 397.351562 142.367188 C 397.542969 147.335938 393.40625 147.910156 389.566406 148.71875 C 387.285156 149.199219 380.402344 151.46875 379.570312 147.480469 C 379.253906 145.984375 377.210938 145.921875 376.476562 147.078125 C 373.097656 152.402344 380.136719 154.953125 384.289062 154.484375 C 389.949219 153.84375 398.921875 153.042969 401.148438 146.726562 C 405.015625 135.792969 391.351562 124.710938 382.179688 132.746094 " fill-opacity="1" fill-rule="evenodd"/><path fill="#c7daf5" d="M 445.328125 91.203125 C 447.582031 94.53125 439.257812 97.671875 437.023438 97.941406 C 434.859375 98.203125 432.582031 97.917969 430.664062 96.8125 C 430.503906 96.722656 430.363281 96.597656 430.210938 96.488281 C 435.335938 93.769531 440.5625 91.261719 445.898438 88.988281 C 445.1875 89.445312 444.804688 90.429688 445.328125 91.203125 Z M 542.417969 72.902344 C 532.097656 71.050781 521.453125 70.488281 510.734375 70.933594 C 511.707031 69.015625 511.796875 66.988281 510.164062 65.28125 C 509.535156 64.625 508.511719 64.703125 507.871094 65.28125 C 506.761719 66.277344 506.773438 67.304688 506.273438 68.636719 C 505.914062 69.605469 505.367188 70.492188 504.691406 71.253906 C 501.660156 71.492188 498.632812 71.808594 495.605469 72.210938 C 494.078125 71.070312 492.835938 69.402344 491.929688 67.671875 C 491.386719 66.640625 489.800781 67.148438 489.792969 68.25 C 489.78125 69.96875 490.347656 71.527344 491.234375 72.890625 C 469.324219 76.363281 447.742188 83.964844 428.496094 94.539062 C 427.597656 92.871094 427.566406 90.851562 429.417969 89.570312 C 430.449219 88.859375 429.5625 87.328125 428.429688 87.886719 C 425.285156 89.445312 424.027344 92.835938 425.40625 96.105469 C 417.316406 100.851562 409.628906 106.039062 402.5625 111.664062 C 401.792969 112.277344 402.820312 113.621094 403.625 113.039062 C 411.082031 107.65625 418.816406 102.707031 426.820312 98.273438 C 429.203125 100.980469 433.230469 102.140625 436.730469 102.003906 C 441.195312 101.828125 446.078125 99.695312 448.675781 95.914062 C 450.351562 93.480469 450.769531 88.761719 446.753906 88.722656 C 446.503906 88.71875 446.277344 88.808594 446.0625 88.917969 C 453.605469 85.714844 461.335938 82.929688 469.289062 80.710938 C 477.613281 78.390625 485.871094 76.863281 494.136719 75.832031 C 496.453125 77.402344 499.363281 78.171875 502.066406 77.683594 C 503.699219 77.386719 505.890625 76.199219 507.746094 74.585938 C 519.089844 73.914062 530.515625 74.019531 542.210938 74.453125 C 543.082031 74.484375 543.304688 73.058594 542.417969 72.902344 " fill-opacity="1" fill-rule="evenodd"/><path fill="#c7daf5" d="M 574.097656 76.511719 C 573.089844 76.230469 572.277344 75.675781 571.609375 74.984375 C 573.558594 75.433594 575.507812 75.929688 577.457031 76.472656 C 576.410156 76.757812 575.324219 76.855469 574.097656 76.511719 Z M 591.542969 79.191406 C 588.972656 77.648438 586.222656 76.410156 583.402344 75.328125 C 583.132812 74.957031 582.703125 74.738281 582.160156 74.839844 C 578.210938 73.433594 574.09375 72.40625 569.886719 71.773438 C 569.648438 70.8125 569.558594 69.804688 569.667969 68.835938 C 569.839844 67.265625 567.464844 67.097656 567.019531 68.476562 C 566.707031 69.441406 566.585938 70.425781 566.570312 71.398438 C 559.808594 70.6875 552.957031 70.796875 546.496094 71.597656 C 545.875 71.675781 545.835938 72.640625 546.496094 72.601562 C 553.699219 72.203125 560.355469 72.800781 566.871094 74 C 567.5625 76.699219 569.367188 79.078125 572.050781 80.363281 C 575.257812 81.890625 581.082031 81.53125 583.066406 78.140625 C 585.648438 78.953125 588.246094 79.800781 590.902344 80.714844 C 591.8125 81.027344 592.332031 79.671875 591.542969 79.191406 " fill-opacity="1" fill-rule="evenodd"/><path fill="#c7daf5" d="M 637.410156 110.726562 C 631.785156 104.539062 623.300781 100.738281 615.199219 98.007812 C 615.191406 97.65625 615.09375 97.304688 614.808594 97.035156 C 613.492188 95.789062 611.542969 95.625 610.230469 94.230469 C 608.945312 92.867188 608.117188 90.710938 608.371094 88.828125 C 608.589844 87.214844 606.515625 86.589844 605.910156 88.148438 C 604.8125 90.972656 605.386719 93.867188 607.164062 96.289062 C 608.539062 98.164062 611.523438 100.515625 614.003906 99.539062 C 621.957031 102.980469 628.75 107.890625 636.46875 111.941406 C 637.253906 112.355469 638.007812 111.382812 637.410156 110.726562 " fill-opacity="1" fill-rule="evenodd"/><path fill="#c7daf5" d="M 538.84375 99.046875 C 536.261719 96.167969 531.894531 95.863281 528.328125 96.664062 C 525.019531 97.402344 521.957031 99.808594 521.601562 103.355469 C 521.328125 106.113281 522.734375 109.710938 525.988281 109.234375 C 526.703125 109.132812 527.136719 108.195312 526.941406 107.558594 C 526.503906 106.164062 525.417969 105.148438 525.988281 103.59375 C 526.734375 101.550781 529.335938 101.019531 531.261719 100.964844 C 533.441406 100.902344 535.429688 101.367188 536.050781 103.714844 C 536.503906 105.433594 536.183594 107.078125 537.441406 108.46875 C 538.019531 109.113281 538.925781 108.941406 539.527344 108.46875 C 542.1875 106.398438 540.765625 101.1875 538.84375 99.046875 " fill-opacity="1" fill-rule="evenodd"/><path fill="#c7daf5" d="M 488.515625 121.730469 C 486.792969 114.648438 477.957031 113.773438 471.890625 115.140625 C 463.902344 116.941406 464.882812 127.9375 466.53125 134.085938 C 466.890625 135.429688 468.714844 135.300781 469.128906 134.085938 C 469.816406 132.078125 470.167969 130.144531 470.351562 128.035156 C 470.554688 125.636719 469.953125 122.292969 471.644531 120.53125 C 474.566406 117.480469 484.304688 118.328125 485.972656 122.433594 C 486.597656 123.964844 488.925781 123.425781 488.515625 121.730469 " fill-opacity="1" fill-rule="evenodd"/><path fill="#c7daf5" d="M 447.800781 160.296875 C 445.417969 154.945312 437.800781 153.804688 433.625 157.757812 C 431.605469 159.667969 430.640625 162.550781 430.816406 165.296875 C 430.992188 168.03125 432.316406 171.625 435.515625 171.625 C 436.351562 171.621094 437.1875 170.878906 437.136719 170.003906 C 437.039062 168.359375 436.070312 167.285156 435.734375 165.71875 C 435.402344 164.175781 435.707031 162.433594 436.753906 161.21875 C 439.039062 158.558594 443.375 159.847656 445.324219 162.210938 C 446.554688 163.703125 448.46875 161.796875 447.800781 160.296875 " fill-opacity="1" fill-rule="evenodd"/><path fill="#c7daf5" d="M 413.992188 198.953125 C 408.277344 195.105469 399.734375 197.132812 397.085938 203.75 C 394.878906 209.253906 398.273438 220.164062 405.703125 218.878906 C 407.355469 218.59375 407.421875 216.574219 406.589844 215.523438 C 405.335938 213.945312 403.496094 213.222656 402.421875 211.414062 C 401.40625 209.703125 400.917969 207.664062 401.460938 205.707031 C 402.71875 201.140625 408.625 199.324219 412.578125 201.382812 C 414.1875 202.21875 415.492188 199.960938 413.992188 198.953125 " fill-opacity="1" fill-rule="evenodd"/><path fill="#c7daf5" d="M 352.960938 184.722656 C 351.539062 185.261719 352.074219 187.320312 353.59375 187.019531 C 355.605469 186.613281 357.277344 189.570312 357.75 191.039062 C 358.09375 192.097656 358.34375 193.210938 358.546875 194.300781 C 359.261719 198.132812 359.835938 202.769531 355.523438 204.894531 C 351.285156 206.988281 346.117188 206.277344 341.582031 206.535156 C 339.046875 206.679688 338.40625 210.296875 340.96875 211.039062 C 347.527344 212.9375 362.367188 211.453125 363.375 202.867188 C 364.019531 197.375 361.769531 181.386719 352.960938 184.722656 " fill-opacity="1" fill-rule="evenodd"/><path fill="#c7daf5" d="M 387.699219 247.203125 C 382.246094 241.082031 370.792969 247.433594 368.792969 254.007812 C 366.269531 262.324219 374.90625 272.359375 383.546875 270.425781 C 384.964844 270.109375 384.855469 268.375 383.910156 267.652344 C 379.964844 264.621094 374.140625 263.839844 373.273438 257.945312 C 372.785156 254.625 374.507812 252.269531 377.207031 250.488281 C 379.40625 249.035156 383.230469 247.167969 385.628906 249.273438 C 387.046875 250.511719 388.957031 248.613281 387.699219 247.203125 " fill-opacity="1" fill-rule="evenodd"/><path fill="#c7daf5" d="M 327.777344 234.386719 C 326.484375 233.183594 324.5625 235.085938 325.832031 236.332031 C 330.277344 240.691406 332.753906 244.949219 329.433594 251.070312 C 326.515625 256.457031 322.992188 257.429688 317.390625 258.5 C 316.171875 258.734375 315.828125 260.429688 316.671875 261.230469 C 322.777344 267.070312 330.554688 258.6875 333.195312 253.269531 C 336.976562 245.527344 333.523438 239.734375 327.777344 234.386719 " fill-opacity="1" fill-rule="evenodd"/><path fill="#c7daf5" d="M 305.726562 294.351562 C 302.914062 291.878906 299.203125 291.800781 296.3125 294.054688 C 295.199219 294.925781 296.617188 296.570312 297.773438 295.945312 C 301.605469 293.882812 304.660156 297.6875 304.269531 301.214844 C 303.933594 304.230469 301.832031 306.445312 299.554688 308.238281 C 297.609375 309.777344 294.863281 311.921875 292.316406 312.027344 C 290.699219 312.09375 289.234375 311.390625 287.753906 310.734375 C 289.417969 307.730469 291.019531 304.691406 292.605469 301.667969 C 293.109375 300.707031 291.671875 299.859375 291.144531 300.8125 C 289.4375 303.914062 287.683594 306.996094 285.859375 310.039062 C 285.496094 309.925781 285.140625 309.785156 284.765625 309.730469 C 283.390625 309.535156 281.671875 310.957031 282.707031 312.40625 C 283.015625 312.835938 283.351562 313.191406 283.683594 313.554688 C 278.597656 321.632812 272.890625 329.304688 265.90625 335.882812 C 256.058594 345.160156 244.328125 351.882812 235.078125 361.820312 C 234.21875 362.746094 235.527344 364.039062 236.460938 363.203125 C 247.238281 353.496094 260.113281 346.261719 270.210938 335.78125 C 276.183594 329.585938 281 322.457031 285.320312 315.03125 C 292.660156 320.308594 304.023438 313.617188 307.449219 305.898438 C 309.125 302.117188 309.019531 297.242188 305.726562 294.351562 " fill-opacity="1" fill-rule="evenodd"/><path fill="#c7daf5" d="M 360.582031 311.589844 C 361.570312 312.679688 363.5625 311.207031 362.652344 309.996094 C 357.21875 302.738281 347.039062 309.074219 344.328125 315.742188 C 341.3125 323.167969 347.457031 328.824219 354.238281 330.453125 C 351.210938 340.804688 346.195312 349.261719 336.648438 354.703125 C 335.535156 355.335938 336.296875 356.992188 337.5 356.71875 C 349.273438 354.058594 354.058594 341.457031 356.75 330.972656 C 357.988281 330.976562 359.203125 330.960938 360.355469 330.773438 C 361.785156 330.542969 362.027344 328.273438 360.765625 327.65625 C 356.730469 325.679688 349.554688 325.628906 348.425781 320.230469 C 347.355469 315.105469 355.882812 306.4375 360.582031 311.589844 " fill-opacity="1" fill-rule="evenodd"/><path fill="#c7daf5" d="M 334.546875 357.300781 C 331.890625 347.910156 320.214844 355.738281 317.839844 361.269531 C 316.230469 365.023438 316.582031 369.398438 319.375 372.519531 C 321.492188 374.890625 325.917969 377.1875 328.472656 374.234375 C 329.226562 373.367188 329.015625 372.332031 328.144531 371.667969 C 326.988281 370.789062 325.539062 370.660156 324.339844 369.867188 C 322.710938 368.789062 321.753906 366.984375 321.835938 365.015625 C 321.976562 361.71875 329.339844 352.953125 331.953125 358.390625 C 332.660156 359.859375 334.980469 358.820312 334.546875 357.300781 " fill-opacity="1" fill-rule="evenodd"/><path fill="#c7daf5" d="M 273.171875 349.414062 C 271.730469 345.460938 267.023438 342.074219 263.40625 345.640625 C 261.847656 347.175781 263.882812 349.960938 265.785156 348.722656 C 269.667969 346.195312 269.410156 355.398438 269.171875 356.828125 C 268.703125 359.613281 268.191406 362.464844 265.230469 363.488281 C 260.433594 365.148438 253.195312 361.621094 252.71875 356.390625 C 252.558594 354.585938 249.832031 354.515625 249.851562 356.390625 C 249.953125 365.683594 264.570312 372.84375 270.941406 364.785156 C 273.851562 361.109375 274.75 353.746094 273.171875 349.414062 " fill-opacity="1" fill-rule="evenodd"/><path fill="#c7daf5" d="M 622.746094 104.972656 C 598.832031 94.730469 572.445312 88.25 546.433594 87.269531 C 545.324219 87.226562 545.335938 88.929688 546.433594 88.988281 C 572.882812 90.472656 596.726562 100.238281 622.105469 106.492188 C 622.976562 106.707031 623.648438 105.355469 622.746094 104.972656 " fill-opacity="1" fill-rule="evenodd"/><path fill="#c7daf5" d="M 543.054688 83.957031 C 534.28125 82.035156 524.570312 83.953125 516.207031 86.773438 C 514.941406 87.199219 515.464844 89.1875 516.765625 88.792969 C 525.5 86.132812 533.816406 86.152344 542.800781 85.84375 C 543.839844 85.808594 544.152344 84.195312 543.054688 83.957031 " fill-opacity="1" fill-rule="evenodd"/><path fill="#c7daf5" d="M 484.707031 91.152344 C 477.335938 91.378906 469.757812 95.476562 463.984375 99.777344 C 462.890625 100.589844 463.933594 102.449219 465.066406 101.636719 C 471.351562 97.144531 477.773438 95.460938 484.980469 93.179688 C 486.058594 92.835938 485.910156 91.113281 484.707031 91.152344 " fill-opacity="1" fill-rule="evenodd"/><path fill="#c7daf5" d="M 482.828125 100.074219 C 478.640625 100.617188 474.390625 102.761719 470.410156 104.148438 C 469.152344 104.582031 469.664062 106.5625 470.96875 106.164062 C 474.972656 104.9375 479.714844 104.183594 483.390625 102.15625 C 484.300781 101.65625 483.960938 99.925781 482.828125 100.074219 " fill-opacity="1" fill-rule="evenodd"/><path fill="#c7daf5" d="M 443.910156 121.410156 C 440.242188 123.082031 436.746094 125.058594 433.472656 127.417969 C 431.011719 129.191406 428.058594 131.054688 426.925781 133.964844 C 426.734375 134.457031 427.328125 135.066406 427.824219 134.867188 C 430.714844 133.699219 432.828125 130.945312 435.261719 129.042969 C 438.25 126.703125 441.472656 124.746094 444.863281 123.042969 C 445.960938 122.488281 445 120.910156 443.910156 121.410156 " fill-opacity="1" fill-rule="evenodd"/><path fill="#c7daf5" d="M 444.226562 125.8125 C 441.3125 128.058594 438.503906 130.417969 435.851562 132.972656 C 433.5 135.242188 430.425781 137.746094 429.203125 140.828125 C 428.8125 141.8125 430.136719 142.726562 430.972656 142.1875 C 433.660156 140.457031 435.617188 137.265625 437.847656 134.96875 C 440.332031 132.410156 442.96875 130.015625 445.722656 127.75 C 446.789062 126.871094 445.339844 124.960938 444.226562 125.8125 " fill-opacity="1" fill-rule="evenodd"/><path fill="#c7daf5" d="M 444.332031 133.289062 C 439.601562 136.085938 434.84375 139.746094 432.472656 144.835938 C 432.066406 145.703125 433.074219 146.566406 433.824219 145.878906 C 437.722656 142.300781 441.148438 138.449219 445.691406 135.621094 C 447.160156 134.703125 445.832031 132.40625 444.332031 133.289062 " fill-opacity="1" fill-rule="evenodd"/><path fill="#c7daf5" d="M 461.15625 143.867188 C 459.363281 150.902344 455.085938 155.332031 450.359375 160.523438 C 449.660156 161.289062 450.527344 162.355469 451.4375 161.917969 C 457.949219 158.792969 461.671875 151.136719 463.0625 144.390625 C 463.320312 143.15625 461.472656 142.621094 461.15625 143.867188 " fill-opacity="1" fill-rule="evenodd"/><path fill="#c7daf5" d="M 507.402344 115.417969 C 504.464844 117.851562 501.976562 120.613281 498.675781 122.617188 C 495.394531 124.613281 491.867188 125.890625 488.105469 126.617188 C 486.871094 126.851562 487.421875 128.640625 488.617188 128.46875 C 496.109375 127.394531 505.136719 123.585938 508.867188 116.546875 C 509.378906 115.578125 508.203125 114.75 507.402344 115.417969 " fill-opacity="1" fill-rule="evenodd"/><path fill="#c7daf5" d="M 421.617188 192.046875 C 421.402344 191.125 419.820312 191.300781 419.929688 192.277344 C 420.894531 200.941406 413.894531 204.90625 409.285156 210.789062 C 408.417969 211.898438 409.484375 213.667969 410.882812 212.859375 C 418.015625 208.738281 423.5625 200.398438 421.617188 192.046875 " fill-opacity="1" fill-rule="evenodd"/><path fill="#c7daf5" d="M 402.8125 226.371094 C 401.757812 231.375 400.910156 236.046875 398.554688 240.675781 C 396.222656 245.265625 392.75 248.710938 389.5 252.609375 C 388.53125 253.769531 389.742188 255.628906 391.1875 254.792969 C 400.050781 249.652344 406.09375 236.792969 405.261719 226.699219 C 405.152344 225.390625 403.121094 224.898438 402.8125 226.371094 " fill-opacity="1" fill-rule="evenodd"/><path fill="#c7daf5" d="M 381.320312 274.789062 C 381.113281 273.503906 378.949219 273.792969 379.039062 275.097656 C 379.976562 288.550781 373.195312 298.308594 363.167969 306.386719 C 362.089844 307.253906 363.253906 309.292969 364.546875 308.761719 C 377.546875 303.417969 383.460938 287.96875 381.320312 274.789062 " fill-opacity="1" fill-rule="evenodd"/><path fill="#c7daf5" d="M 336.292969 199.867188 C 325.960938 221.410156 315.296875 242.765625 305.578125 264.601562 C 305.035156 265.824219 306.777344 266.90625 307.410156 265.671875 C 318.324219 244.351562 327.886719 222.496094 337.480469 200.5625 C 337.828125 199.765625 336.679688 199.058594 336.292969 199.867188 " fill-opacity="1" fill-rule="evenodd"/><path fill="#c7daf5" d="M 12.210938 337.675781 C 11.058594 338.078125 11.519531 339.878906 12.71875 339.527344 C 29.011719 334.796875 41.566406 342.332031 51.503906 354.585938 C 52.015625 355.214844 53.140625 354.539062 52.871094 353.792969 C 46.898438 337.3125 27.53125 332.300781 12.210938 337.675781 " fill-opacity="1" fill-rule="evenodd"/><path fill="#c7daf5" d="M 49.570312 362.023438 C 46.027344 358.796875 42.078125 356.34375 37.671875 354.472656 C 36.335938 353.90625 35.167969 355.699219 36.5 356.480469 C 40.328125 358.714844 43.898438 361.425781 47.023438 364.570312 C 49.546875 367.109375 51.605469 371.726562 54.847656 373.199219 C 55.648438 373.5625 56.5625 373.136719 56.597656 372.199219 C 56.71875 368.34375 52.199219 364.417969 49.570312 362.023438 " fill-opacity="1" fill-rule="evenodd"/><path fill="#c7daf5" d="M 115.917969 411.753906 C 113.378906 410.144531 100.085938 409.898438 102.144531 404.628906 C 102.738281 403.113281 100.40625 402.269531 99.601562 403.558594 C 97.660156 406.675781 99.433594 410.070312 102.441406 411.648438 C 104.242188 412.59375 106.328125 413.125 108.28125 413.625 C 110.613281 414.222656 113.226562 415.066406 115.582031 414.324219 C 116.75 413.957031 116.945312 412.414062 115.917969 411.753906 " fill-opacity="1" fill-rule="evenodd"/><path fill="#c7daf5" d="M 227.277344 382.160156 C 226.199219 382.097656 225.558594 383.21875 225.757812 384.160156 C 226.265625 386.566406 226.910156 388.429688 225.792969 390.792969 C 224.925781 392.632812 223.632812 395.113281 221.742188 396.03125 C 218.007812 397.84375 210.113281 395.289062 208.195312 391.765625 C 207.484375 390.460938 205.136719 391.371094 205.730469 392.804688 C 206.707031 395.148438 208.875 397.203125 211.511719 398.644531 C 211.378906 398.621094 211.277344 398.550781 211.121094 398.582031 C 198.550781 401.113281 186.238281 404.390625 173.609375 406.480469 C 173.484375 405.660156 173.269531 404.863281 172.929688 404.121094 C 172.457031 403.097656 170.945312 403.261719 170.429688 404.121094 C 169.902344 404.996094 169.582031 406.058594 169.316406 407.164062 C 168.601562 407.265625 167.90625 407.414062 167.191406 407.503906 C 165.882812 407.667969 165.835938 409.730469 167.191406 409.597656 C 167.71875 409.546875 168.25 409.488281 168.777344 409.4375 C 168.128906 412.085938 167.183594 414.480469 163.78125 414.714844 C 159.464844 415.011719 154.976562 412.21875 152.480469 408.914062 C 151.433594 407.53125 149.128906 408.742188 150.078125 410.320312 C 153.175781 415.441406 159.128906 419.8125 165.4375 418.921875 C 170.078125 418.269531 173.304688 413.566406 173.683594 408.917969 C 186.59375 407.484375 199.589844 405.355469 211.644531 400.492188 C 212.433594 400.175781 212.453125 399.332031 212.019531 398.871094 C 216.277344 401.035156 221.566406 401.640625 225.019531 399.308594 C 229.019531 396.605469 236.324219 382.710938 227.277344 382.160156 " fill-opacity="1" fill-rule="evenodd"/><path fill="#c7daf5" d="M 175.621094 445.273438 C 176.570312 442.324219 179.042969 441.863281 181.503906 443.542969 C 183.074219 444.609375 185.113281 446.054688 186.089844 447.75 C 187.371094 449.972656 186.222656 451 185.828125 453.183594 C 185.757812 453.546875 185.847656 453.964844 186.011719 454.339844 C 183.558594 454.390625 181.113281 454.421875 178.667969 454.441406 C 179.199219 453.699219 179.09375 452.480469 178 452.304688 C 177.390625 452.207031 176.800781 452.085938 176.203125 451.96875 C 175.625 449.804688 174.929688 447.425781 175.621094 445.273438 Z M 199.679688 454.089844 C 196.335938 454.113281 192.976562 454.183594 189.613281 454.257812 C 191.261719 452.714844 191.449219 449.773438 190.691406 447.546875 C 189.503906 444.054688 185.566406 440.980469 182.382812 439.34375 C 179.042969 437.625 175.34375 438.445312 173.191406 441.601562 C 170.652344 445.320312 171.648438 449.96875 173.21875 453.867188 C 173.300781 454.0625 173.414062 454.25 173.546875 454.421875 C 157.109375 454.21875 141.011719 452.207031 126.59375 442.601562 C 125.863281 442.117188 125.210938 443.269531 125.914062 443.761719 C 147.578125 458.996094 174.5625 459.65625 199.921875 455.890625 C 200.960938 455.738281 200.6875 454.082031 199.679688 454.089844 " fill-opacity="1" fill-rule="evenodd"/><path fill="#c7daf5" d="M 260.386719 430.265625 C 243.132812 439.871094 224.84375 447.679688 205.128906 450.328125 C 204.488281 450.414062 204.453125 451.417969 205.128906 451.363281 C 225.449219 449.660156 244.726562 444.039062 261.125 431.53125 C 261.851562 430.976562 261.234375 429.796875 260.386719 430.265625 " fill-opacity="1" fill-rule="evenodd"/><path fill="#c7daf5" d="M 293.660156 411.023438 C 291.285156 410.160156 288.570312 410.847656 286.039062 410.140625 C 283.230469 409.359375 278.355469 408.171875 278.925781 404.382812 C 279.769531 398.8125 287.800781 392.980469 293.070312 395.597656 C 294.515625 396.316406 295.757812 394.253906 294.34375 393.421875 C 286.691406 388.910156 275.382812 396.078125 274.261719 404.445312 C 273.582031 409.484375 277.179688 412.121094 281.367188 413.8125 C 285.066406 415.304688 292.058594 417.953125 294.664062 413.488281 C 295.246094 412.492188 294.664062 411.386719 293.660156 411.023438 " fill-opacity="1" fill-rule="evenodd"/><path fill="#c7daf5" d="M 254.941406 421.78125 C 251.789062 418.070312 246.417969 416.320312 241.65625 416.734375 C 239.613281 416.914062 237.238281 417.359375 235.601562 418.679688 C 233.730469 420.1875 233.726562 422.601562 233.761719 424.816406 C 233.824219 429.113281 234.785156 433.5 238.789062 435.734375 C 240.242188 436.550781 241.40625 434.464844 240.074219 433.535156 C 237.691406 431.855469 237.414062 428.960938 237.472656 426.285156 C 237.554688 422.445312 239.566406 420.816406 243.238281 420.914062 C 245.660156 420.980469 248.121094 421.777344 250.082031 423.214844 C 251.671875 424.382812 253.875 427.308594 252.449219 429.378906 C 251.621094 430.578125 253.171875 431.621094 254.230469 431.164062 C 258.328125 429.382812 257.464844 424.753906 254.941406 421.78125 " fill-opacity="1" fill-rule="evenodd"/><path fill="#c7daf5" d="M 102.804688 420.59375 C 100.960938 417.777344 96.910156 416.171875 94.351562 413.960938 C 91.214844 411.25 88.589844 408.171875 86.382812 404.65625 C 85.492188 403.242188 83.265625 404.527344 84.128906 405.976562 C 86.347656 409.675781 89 413.203125 92.117188 416.199219 C 94.554688 418.542969 98.261719 422.253906 101.804688 422.34375 C 102.65625 422.363281 103.285156 421.332031 102.804688 420.59375 " fill-opacity="1" fill-rule="evenodd"/><path fill="#c7daf5" d="M 81.980469 390.40625 C 74.792969 375.886719 65.546875 362.800781 55.074219 350.46875 C 54.535156 349.832031 53.644531 350.746094 54.164062 351.382812 C 64.285156 363.773438 72.992188 377.144531 81.160156 390.886719 C 81.476562 391.414062 82.246094 390.949219 81.980469 390.40625 " fill-opacity="1" fill-rule="evenodd"/><path fill="#c7daf5" d="M 220.847656 411.242188 C 204.339844 413.59375 188.050781 418.167969 171.945312 422.398438 C 170.992188 422.648438 171.398438 424.046875 172.347656 423.863281 C 188.699219 420.707031 205.367188 417.796875 221.265625 412.761719 C 222.257812 412.449219 221.828125 411.101562 220.847656 411.242188 " fill-opacity="1" fill-rule="evenodd"/><path fill="#c7daf5" d="M 214.035156 421.976562 C 203.648438 423.71875 193.507812 428.113281 183.503906 431.339844 C 182.542969 431.648438 182.9375 433.132812 183.925781 432.863281 C 194.148438 430.046875 205.089844 428.117188 214.820312 423.835938 C 215.953125 423.339844 215.082031 421.800781 214.035156 421.976562 " fill-opacity="1" fill-rule="evenodd"/><path fill="#c7daf5" d="M 262.78125 384.3125 C 258.730469 386.203125 255.3125 389.523438 251.777344 392.222656 C 248.164062 394.980469 244.53125 397.679688 240.800781 400.277344 C 240.039062 400.808594 240.738281 402.054688 241.539062 401.539062 C 245.570312 398.941406 249.625 396.359375 253.589844 393.652344 C 257.082031 391.265625 261.101562 388.933594 263.824219 385.660156 C 264.457031 384.902344 263.683594 383.890625 262.78125 384.3125 " fill-opacity="1" fill-rule="evenodd"/><path fill="#c7daf5" d="M 302.890625 344.929688 C 300.324219 348.507812 297.539062 351.902344 294.539062 355.125 C 292.1875 357.65625 288.339844 360.066406 286.878906 363.171875 C 286.578125 363.808594 287.089844 364.800781 287.898438 364.5 C 291.421875 363.1875 294.136719 359.011719 296.539062 356.222656 C 299.382812 352.921875 301.992188 349.429688 304.476562 345.859375 C 305.15625 344.882812 303.570312 343.984375 302.890625 344.929688 " fill-opacity="1" fill-rule="evenodd"/><path fill="#c7daf5" d="M 313.054688 335.003906 C 307.175781 344.929688 299.851562 353.621094 293.414062 363.121094 C 292.574219 364.363281 294.472656 365.808594 295.488281 364.71875 C 303.226562 356.421875 309.128906 345.785156 314.6875 335.960938 C 315.289062 334.898438 313.675781 333.957031 313.054688 335.003906 " fill-opacity="1" fill-rule="evenodd"/><path fill="#c7daf5" d="M 309.929688 354.105469 C 306.773438 356.84375 303.984375 359.914062 301.585938 363.332031 C 299.660156 366.082031 296.875 369.625 297.394531 373.125 C 297.5 373.84375 298.570312 374.261719 299.144531 373.835938 C 301.710938 371.9375 302.613281 368.253906 304.292969 365.578125 C 306.46875 362.117188 309.136719 359.074219 312.136719 356.316406 C 313.628906 354.945312 311.433594 352.800781 309.929688 354.105469 " fill-opacity="1" fill-rule="evenodd"/><path fill="#c7daf5" d="M 528.40625 17.246094 C 492.300781 20.890625 457.894531 37.492188 428.570312 58.175781 C 427.691406 58.796875 428.507812 60.25 429.421875 59.636719 C 459.875 39.175781 493.425781 27.878906 528.59375 18.625 C 529.335938 18.429688 529.214844 17.164062 528.40625 17.246094 " fill-opacity="1" fill-rule="evenodd"/><path fill="#c7daf5" d="M 535.960938 28.960938 C 526.886719 26.507812 515.695312 29.867188 507.046875 32.695312 C 505.863281 33.082031 506.351562 34.929688 507.566406 34.578125 C 512.753906 33.058594 518.035156 31.953125 523.421875 31.417969 C 527.617188 31.003906 531.835938 31.164062 535.960938 30.207031 C 536.585938 30.058594 536.558594 29.125 535.960938 28.960938 " fill-opacity="1" fill-rule="evenodd"/><path fill="#c7daf5" d="M 531.472656 39.105469 C 524.808594 37.769531 517.195312 39.191406 510.683594 40.816406 C 509.234375 41.183594 509.847656 43.402344 511.300781 43.058594 C 518.015625 41.472656 524.414062 41.738281 531.183594 41.242188 C 532.332031 41.160156 532.757812 39.359375 531.472656 39.105469 " fill-opacity="1" fill-rule="evenodd"/><path fill="#c7daf5" d="M 670.417969 106.714844 C 653.972656 84.871094 627.671875 72.042969 601.074219 68.015625 C 600.359375 67.910156 600.035156 68.992188 600.769531 69.125 C 628.007812 74.039062 649.910156 88.351562 669.140625 107.707031 C 669.773438 108.339844 670.992188 107.476562 670.417969 106.714844 " fill-opacity="1" fill-rule="evenodd"/><path fill="#c7daf5" d="M 974.445312 469.089844 C 922.847656 472 873.773438 457.476562 834.21875 423.464844 C 797.699219 392.066406 773.195312 348.726562 760.527344 302.601562 C 760.351562 301.960938 759.363281 302.230469 759.53125 302.875 C 771.886719 350.9375 796.757812 396.527344 835.234375 428.605469 C 872.761719 459.902344 925.542969 479.929688 974.710938 471.03125 C 975.808594 470.835938 975.554688 469.027344 974.445312 469.089844 " fill-opacity="1" fill-rule="evenodd"/><path fill="#c7daf5" d="M 774.199219 170.613281 C 773.644531 169.953125 772.746094 170.890625 773.265625 171.546875 C 788.421875 190.699219 799.003906 212.046875 807.347656 234.917969 C 807.644531 235.734375 808.902344 235.417969 808.671875 234.550781 C 802.367188 210.835938 789.867188 189.339844 774.199219 170.613281 " fill-opacity="1" fill-rule="evenodd"/><path fill="#c7daf5" d="M 913.179688 367.789062 C 882.058594 342.339844 847.921875 317.351562 838.582031 275.773438 C 838.417969 275.066406 837.367188 275.371094 837.503906 276.070312 C 845.265625 317.402344 878.949219 346.640625 912.238281 369 C 912.960938 369.484375 913.867188 368.347656 913.179688 367.789062 " fill-opacity="1" fill-rule="evenodd"/><path fill="#c7daf5" d="M 914.339844 351.542969 C 906.558594 345.160156 897.878906 340.042969 890.296875 333.339844 C 882.015625 326.015625 874.636719 317.832031 868.015625 308.996094 C 867.417969 308.195312 866.050781 308.957031 866.648438 309.789062 C 878.414062 326.140625 894.546875 344.507812 913.4375 352.710938 C 914.136719 353.015625 915.058594 352.128906 914.339844 351.542969 " fill-opacity="1" fill-rule="evenodd"/><path fill="#c7daf5" d="M 926.855469 339.363281 C 909.710938 332.527344 895.1875 323.601562 885.230469 307.585938 C 884.570312 306.523438 882.882812 307.503906 883.546875 308.570312 C 893.105469 323.949219 908.296875 337.324219 926.546875 340.5 C 927.300781 340.628906 927.558594 339.644531 926.855469 339.363281 " fill-opacity="1" fill-rule="evenodd"/><path fill="#c7daf5" d="M 935.414062 321.761719 C 916.488281 312.484375 899.523438 302.96875 884.792969 287.5 C 884.214844 286.898438 883.316406 287.804688 883.878906 288.414062 C 897.597656 303.324219 915.175781 317.199219 934.789062 323.226562 C 935.648438 323.492188 936.234375 322.167969 935.414062 321.761719 " fill-opacity="1" fill-rule="evenodd"/><path fill="#c7daf5" d="M 958.734375 314.851562 C 945.980469 306.257812 931.964844 299.65625 919.199219 291.015625 C 905.019531 281.421875 892.199219 270.285156 881.984375 256.480469 C 881.410156 255.707031 880.09375 256.453125 880.675781 257.25 C 899.324219 283.039062 928.792969 303.765625 957.75 316.535156 C 958.882812 317.035156 959.792969 315.566406 958.734375 314.851562 " fill-opacity="1" fill-rule="evenodd"/><path fill="#c7daf5" d="M 915.886719 439.417969 C 870.980469 430.28125 839.335938 403.34375 812.023438 370.765625 C 795.765625 344.613281 780.515625 319.398438 769.238281 290.507812 C 758.441406 262.859375 750.15625 234.3125 741.5625 205.925781 C 741.480469 205.664062 741.089844 205.773438 741.15625 206.039062 C 748.847656 237.003906 757.070312 267.917969 768.515625 297.746094 C 773.402344 310.480469 778.847656 323.546875 785.320312 336.039062 C 782.738281 332.472656 780.167969 328.898438 777.601562 325.316406 C 777.226562 324.796875 776.371094 325.261719 776.726562 325.828125 C 807.949219 376.421875 851.121094 435.644531 915.585938 441.621094 C 916.839844 441.738281 917.117188 439.667969 915.886719 439.417969 " fill-opacity="1" fill-rule="nonzero"/><path fill="#c7daf5" d="M 903.914062 416.953125 C 889.902344 410.777344 876.507812 405.644531 864.46875 395.8125 C 863.535156 395.050781 862.1875 396.347656 863.125 397.160156 C 874.40625 406.9375 887.878906 416.578125 902.769531 419.664062 C 904.308594 419.980469 905.542969 417.667969 903.914062 416.953125 " fill-opacity="1" fill-rule="nonzero"/><path fill="#c7daf5" d="M 993.699219 437.707031 C 989.574219 436.761719 985.257812 436.945312 981.050781 436.53125 C 975.699219 436 970.429688 435.078125 965.183594 433.902344 C 963.78125 433.589844 963.183594 435.699219 964.59375 436.066406 C 973.496094 438.394531 984.441406 441.558594 993.699219 440.199219 C 994.984375 440.011719 994.878906 437.976562 993.699219 437.707031 " fill-opacity="1" fill-rule="nonzero"/><path fill="#c7daf5" d="M 984.933594 446.003906 C 982.40625 445.65625 979.914062 446.101562 977.378906 446.242188 C 974.574219 446.402344 971.769531 446.398438 968.964844 446.28125 C 967.039062 446.203125 967.089844 449.085938 968.964844 449.246094 C 973.878906 449.664062 980.242188 450.492188 984.933594 448.65625 C 986.015625 448.230469 986.441406 446.207031 984.933594 446.003906 " fill-opacity="1" fill-rule="nonzero"/><path fill="#c7daf5" d="M 983.207031 458.285156 C 981.910156 458.300781 980.714844 458.519531 979.449219 458.769531 C 977.710938 459.113281 978.449219 461.765625 980.179688 461.421875 C 981.332031 461.195312 982.410156 460.964844 983.507812 460.53125 C 984.636719 460.085938 984.589844 458.265625 983.207031 458.285156 " fill-opacity="1" fill-rule="nonzero"/><path fill="#c7daf5" d="M 483.0625 49.398438 C 446.355469 50.953125 412.101562 74.558594 389.132812 101.761719 C 388.503906 102.503906 389.5625 103.582031 390.210938 102.835938 C 415.390625 73.785156 447.1875 60.929688 483.308594 51.1875 C 484.28125 50.925781 484.109375 49.355469 483.0625 49.398438 " fill-opacity="1" fill-rule="nonzero"/><path fill="#c7daf5" d="M 346.960938 264.097656 C 341.050781 271.859375 333.226562 281.378906 331.15625 291.117188 C 330.933594 292.160156 332.335938 293.273438 333.140625 292.273438 C 336.230469 288.410156 338.109375 283.695312 340.5625 279.421875 C 343.292969 274.648438 346.308594 270.058594 349.523438 265.589844 C 350.648438 264.027344 348.09375 262.609375 346.960938 264.097656 " fill-opacity="1" fill-rule="nonzero"/><path fill="#c7daf5" d="M 351.984375 269.335938 C 350.578125 278.789062 345.746094 287.046875 339.925781 294.457031 C 339.171875 295.417969 340.3125 296.601562 341.273438 295.804688 C 349.292969 289.160156 352.851562 279.789062 354.0625 269.617188 C 354.207031 268.445312 352.160156 268.15625 351.984375 269.335938 " fill-opacity="1" fill-rule="nonzero"/><path fill="#c7daf5" d="M 864.003906 217.230469 C 863.117188 214.792969 861.078125 213.019531 859.417969 211.085938 C 857.28125 208.59375 855.285156 205.992188 853.378906 203.324219 C 852.613281 202.257812 850.832031 203.25 851.585938 204.371094 C 853.375 207.039062 855.242188 209.644531 857.191406 212.195312 C 858.816406 214.324219 860.414062 216.902344 862.886719 218.09375 C 863.429688 218.351562 864.25 217.910156 864.003906 217.230469 " fill-opacity="1" fill-rule="nonzero"/><path fill="#c7daf5" d="M 684.144531 122.867188 C 683.546875 122.042969 682.242188 122.753906 682.757812 123.679688 C 686.039062 129.550781 689.25 135.945312 693.867188 140.898438 C 694.347656 141.410156 695.394531 140.878906 695.105469 140.179688 C 692.535156 133.910156 688.105469 128.320312 684.144531 122.867188 " fill-opacity="1" fill-rule="nonzero"/><path fill="#c7daf5" d="M 684.863281 101.992188 C 684.359375 101.386719 683.292969 102.199219 683.757812 102.839844 C 699.199219 123.914062 710.078125 146.445312 721.019531 170.011719 C 721.53125 171.109375 723.292969 170.328125 722.957031 169.195312 C 715.65625 144.46875 701.148438 121.730469 684.863281 101.992188 " fill-opacity="1" fill-rule="nonzero"/><path fill="#c7daf5" d="M 813.113281 350.457031 C 799.320312 333.074219 788.714844 315.363281 782.878906 293.761719 C 782.589844 292.707031 780.988281 293.148438 781.246094 294.210938 C 786.355469 315.582031 796.074219 336.164062 811.683594 351.890625 C 812.625 352.84375 813.90625 351.453125 813.113281 350.457031 " fill-opacity="1" fill-rule="nonzero"/><path fill="#c7daf5" d="M 861.789062 380.519531 C 846.988281 364.199219 831.171875 350.148438 818.75 331.648438 C 806.523438 313.441406 796.933594 293.820312 790.25 272.929688 C 789.949219 272.003906 788.5 272.390625 788.777344 273.335938 C 800.566406 313.386719 824.058594 359.21875 860.226562 382.546875 C 861.503906 383.371094 862.742188 381.570312 861.789062 380.519531 " fill-opacity="1" fill-rule="nonzero"/><path fill="#c7daf5" d="M 739.636719 80.640625 C 688.464844 27.136719 607.542969 2.0625 535.046875 15.59375 C 534.210938 15.75 534.390625 17.191406 535.25 17.089844 C 610.410156 8.1875 681.6875 32.003906 737.363281 82.917969 C 738.890625 84.3125 741.078125 82.144531 739.636719 80.640625 " fill-opacity="1" fill-rule="evenodd"/><path fill="#c7daf5" d="M 770.242188 108.21875 C 768.703125 105.351562 765.5625 103.050781 763.140625 100.9375 C 760.59375 98.710938 757.929688 96.636719 755.175781 94.671875 C 754.515625 94.207031 753.65625 95.296875 754.304688 95.804688 C 757.039062 97.949219 759.679688 100.214844 762.171875 102.644531 C 764.429688 104.847656 766.359375 107.726562 768.941406 109.523438 C 769.761719 110.097656 770.660156 109 770.242188 108.21875 " fill-opacity="1" fill-rule="evenodd"/></g></g></g></svg>