<svg xmlns="http://www.w3.org/2000/svg" xmlns:xlink="http://www.w3.org/1999/xlink" width="1920" zoomAndPan="magnify" viewBox="0 0 1440 809.999993" height="1080" preserveAspectRatio="xMidYMid meet" version="1.0"><defs><filter x="0%" y="0%" width="100%" height="100%" id="1f24cda419"><feColorMatrix values="0 0 0 0 1 0 0 0 0 1 0 0 0 0 1 0 0 0 1 0" color-interpolation-filters="sRGB"/></filter><mask id="2f20fc5469"><g filter="url(#1f24cda419)"><rect x="-144" width="1728" fill="#000000" y="-80.999999" height="971.999992" fill-opacity="0.4"/></g></mask><clipPath id="305cee0474"><path d="M 0.574219 0.402344 L 338 0.402344 L 338 339 L 0.574219 339 Z M 0.574219 0.402344 " clip-rule="nonzero"/></clipPath><clipPath id="2aade972dd"><path d="M 226.421875 0.355469 C 111.003906 0.355469 118.210938 50.40625 118.210938 50.40625 L 118.335938 102.257812 L 228.46875 102.257812 L 228.46875 117.824219 L 74.59375 117.824219 C 74.59375 117.824219 0.742188 109.449219 0.742188 225.898438 C 0.738281 342.359375 65.199219 338.230469 65.199219 338.230469 L 103.671875 338.230469 L 103.671875 284.183594 C 103.671875 284.183594 101.597656 219.722656 167.101562 219.722656 L 276.339844 219.722656 C 276.339844 219.722656 337.703125 220.71875 337.703125 160.414062 L 337.703125 60.699219 C 337.703125 60.699219 347.03125 0.355469 226.421875 0.355469 Z M 165.6875 35.222656 C 176.644531 35.222656 185.496094 44.078125 185.496094 55.035156 C 185.496094 65.996094 176.644531 74.851562 165.6875 74.851562 C 154.726562 74.851562 145.871094 65.996094 145.871094 55.035156 C 145.871094 44.078125 154.726562 35.222656 165.6875 35.222656 Z M 165.6875 35.222656 " clip-rule="nonzero"/></clipPath><clipPath id="bce480f4f0"><path d="M 118 114 L 455.074219 114 L 455.074219 452.652344 L 118 452.652344 Z M 118 114 " clip-rule="nonzero"/></clipPath><clipPath id="e42234dd6a"><path d="M 229.699219 452.625 C 345.109375 452.625 337.898438 402.5625 337.898438 402.5625 L 337.773438 350.707031 L 227.632812 350.707031 L 227.632812 335.148438 L 381.511719 335.148438 C 381.511719 335.148438 455.371094 343.515625 455.371094 227.074219 C 455.371094 110.617188 390.910156 114.746094 390.910156 114.746094 L 352.441406 114.746094 L 352.441406 168.785156 C 352.441406 168.785156 354.507812 233.25 289.015625 233.25 L 179.765625 233.25 C 179.765625 233.25 118.398438 232.253906 118.398438 292.566406 L 118.398438 392.273438 C 118.398438 392.273438 109.082031 452.625 229.699219 452.625 Z M 290.421875 417.75 C 279.472656 417.75 270.605469 408.882812 270.605469 397.9375 C 270.605469 386.96875 279.472656 378.121094 290.421875 378.121094 C 301.386719 378.121094 310.234375 386.96875 310.234375 397.9375 C 310.234375 408.882812 301.386719 417.75 290.421875 417.75 Z M 290.421875 417.75 " clip-rule="nonzero"/></clipPath><clipPath id="08cb9a1ada"><rect x="0" width="457" y="0" height="455"/></clipPath></defs><rect x="-144" width="1728" fill="#ffffff" y="-80.999999" height="971.999992" fill-opacity="1"/><rect x="-144" width="1728" fill="#10151b" y="-80.999999" height="971.999992" fill-opacity="1"/><g mask="url(#2f20fc5469)"><g transform="matrix(1, 0, 0, 1, 912, 305)"><g clip-path="url(#08cb9a1ada)"><g clip-path="url(#305cee0474)"><g clip-path="url(#2aade972dd)"><path fill="#9badd6" d="M 0.738281 0.402344 L 0.738281 342.359375 L 347.03125 342.359375 L 347.03125 0.402344 Z M 0.738281 0.402344 " fill-opacity="1" fill-rule="nonzero"/></g></g><g clip-path="url(#bce480f4f0)"><g clip-path="url(#e42234dd6a)"><path fill="#9badd6" d="M 109.082031 110.617188 L 109.082031 452.625 L 455.074219 452.625 L 455.074219 110.617188 Z M 109.082031 110.617188 " fill-opacity="1" fill-rule="nonzero"/></g></g></g></g></g></svg>