<svg xmlns="http://www.w3.org/2000/svg" xmlns:xlink="http://www.w3.org/1999/xlink" width="1920" zoomAndPan="magnify" viewBox="0 0 1440 809.999993" height="1080" preserveAspectRatio="xMidYMid meet" version="1.0"><defs><clipPath id="d57fd85416"><path d="M 360.316406 290.652344 L 614.566406 290.652344 L 614.566406 519 L 360.316406 519 Z M 360.316406 290.652344 " clip-rule="nonzero"/></clipPath><clipPath id="f479e3f725"><path d="M 850.992188 290.652344 L 1079.742188 290.652344 L 1079.742188 519.402344 L 850.992188 519.402344 Z M 850.992188 290.652344 " clip-rule="nonzero"/></clipPath><clipPath id="da3c5ecaa8"><path d="M 669.082031 341.316406 L 796.449219 341.316406 L 796.449219 468.683594 L 669.082031 468.683594 Z M 669.082031 341.316406 " clip-rule="nonzero"/></clipPath><clipPath id="9764ca9936"><path d="M 796.449219 405 L 732.765625 341.316406 L 732.765625 373.15625 L 669.082031 373.15625 L 669.082031 436.84375 L 732.765625 436.84375 L 732.765625 468.683594 Z M 796.449219 405 " clip-rule="nonzero"/></clipPath></defs><rect x="-144" width="1728" fill="#ffffff" y="-80.999999" height="971.999992" fill-opacity="1"/><rect x="-144" width="1728" fill="#10151b" y="-80.999999" height="971.999992" fill-opacity="1"/><path fill="#fdfdfd" d="M 579.644531 314.296875 C 579.585938 314.234375 579.523438 314.171875 579.523438 314.113281 C 579.585938 314.171875 579.644531 314.296875 579.707031 314.355469 C 579.707031 314.296875 579.644531 314.296875 579.644531 314.296875 Z M 579.644531 314.296875 " fill-opacity="1" fill-rule="nonzero"/><path fill="#fdfdfd" d="M 493.429688 320.96875 C 493.125 321.210938 492.882812 321.394531 493.429688 320.96875 Z M 493.429688 320.96875 " fill-opacity="1" fill-rule="nonzero"/><path fill="#fdfdfd" d="M 571.152344 485.875 C 571.210938 485.875 571.210938 485.8125 571.273438 485.8125 C 570.363281 486.480469 570.90625 486.058594 571.152344 485.875 Z M 571.152344 485.875 " fill-opacity="1" fill-rule="nonzero"/><g clip-path="url(#d57fd85416)"><path fill="#fdfdfd" d="M 599.605469 402.390625 C 596.390625 399.234375 592.8125 396.503906 588.988281 394.078125 C 591.050781 388.921875 592.75 383.703125 594.144531 378.363281 C 595.175781 374.300781 596.085938 370.113281 596.753906 365.988281 C 598.089844 357.675781 598.816406 349.304688 598.148438 340.871094 C 597.605469 333.890625 596.269531 326.914062 593.539062 320.421875 C 591.050781 314.417969 587.59375 308.835938 582.980469 304.222656 C 578.492188 299.792969 573.09375 296.519531 567.269531 294.210938 C 561.261719 291.90625 554.707031 290.875 548.339844 290.816406 C 540.875 290.695312 533.351562 291.90625 526.132812 293.847656 C 517.941406 296.09375 510.054688 299.492188 502.714844 303.675781 C 494.644531 308.289062 487.058594 313.871094 480.144531 320.058594 C 478.382812 321.574219 476.683594 323.214844 475.046875 324.851562 C 470.011719 317.933594 464.367188 311.382812 457.632812 305.984375 C 451.324219 300.824219 444.226562 296.640625 436.339844 294.335938 C 429.300781 292.269531 421.957031 291.96875 414.800781 293.300781 C 407.882812 294.636719 401.210938 297.792969 395.566406 302.039062 C 388.648438 307.195312 382.945312 313.628906 378.152344 320.847656 C 373.480469 327.824219 369.902344 335.46875 367.234375 343.417969 C 364.441406 351.609375 362.742188 360.101562 361.652344 368.71875 C 360.558594 377.210938 360.316406 385.828125 360.921875 394.320312 C 361.53125 402.875 362.984375 411.429688 365.714844 419.5625 C 368.203125 426.902344 371.660156 433.878906 376.394531 440.066406 C 380.882812 445.890625 386.101562 450.929688 392.167969 455.113281 C 397.691406 458.875 403.816406 461.789062 410.1875 463.730469 C 416.4375 465.609375 423.050781 466.582031 429.601562 466.640625 C 434.152344 466.703125 438.765625 466.277344 443.253906 465.429688 C 444.105469 469.25 445.257812 472.953125 446.773438 476.59375 C 449.441406 483.023438 452.902344 488.910156 457.332031 494.308594 C 461.578125 499.527344 466.675781 504.015625 472.316406 507.714844 C 478.261719 511.601562 484.9375 514.453125 491.792969 516.273438 C 500.953125 518.699219 510.660156 519.304688 520.066406 518.214844 C 530.257812 517 539.90625 514.085938 549.25 509.960938 C 558.167969 506.019531 566.539062 500.859375 574.367188 495.035156 C 578.371094 492.003906 582.3125 488.847656 586.074219 485.511719 C 593.234375 479.078125 599.847656 471.859375 604.945312 463.667969 C 609.011719 457.117188 612.226562 449.773438 613.4375 442.128906 C 614.53125 435.03125 614.226562 427.75 611.800781 420.957031 C 609.253906 413.859375 605.003906 407.609375 599.605469 402.390625 Z M 604.519531 439.339844 C 603.972656 443.160156 602.882812 446.921875 601.367188 450.503906 C 599.667969 454.324219 597.605469 458.027344 595.238281 461.484375 C 594.570312 462.457031 593.84375 463.425781 593.175781 464.398438 C 593.054688 464.578125 592.933594 464.761719 592.8125 464.941406 C 592.75 465.003906 592.75 465.066406 592.6875 465.066406 C 592.265625 465.550781 591.902344 466.097656 591.476562 466.582031 C 589.835938 468.582031 588.140625 470.464844 586.378906 472.34375 C 584.195312 474.652344 581.890625 476.835938 579.523438 478.898438 C 577.339844 480.839844 575.09375 482.71875 572.851562 484.539062 C 572.363281 484.964844 571.816406 485.328125 571.273438 485.753906 C 571.332031 485.753906 571.332031 485.691406 571.394531 485.691406 C 571.273438 485.8125 571.089844 485.9375 570.96875 485.996094 C 570.664062 486.238281 570.363281 486.480469 569.996094 486.722656 C 568.84375 487.574219 567.691406 488.421875 566.480469 489.273438 C 561.6875 492.671875 556.710938 495.765625 551.554688 498.496094 C 548.824219 499.949219 546.09375 501.226562 543.242188 502.4375 C 536.023438 505.472656 528.4375 507.65625 520.671875 508.808594 C 514.484375 509.597656 508.234375 509.597656 501.984375 508.871094 C 496.523438 508.082031 491.183594 506.683594 486.089844 504.5625 C 483.90625 503.652344 481.84375 502.558594 479.777344 501.40625 C 483.90625 498.917969 487.421875 495.339844 489.789062 491.152344 C 490.578125 489.757812 490.152344 487.695312 488.699219 486.90625 C 487.242188 486.117188 485.359375 486.542969 484.449219 488 C 484.085938 488.605469 483.722656 489.152344 483.359375 489.757812 C 483.175781 490 482.996094 490.242188 482.8125 490.484375 C 482.753906 490.546875 482.691406 490.667969 482.628906 490.730469 C 481.78125 491.761719 480.871094 492.730469 479.902344 493.640625 C 479.65625 493.824219 479.414062 494.066406 479.171875 494.246094 C 479.050781 494.367188 478.929688 494.429688 478.808594 494.550781 C 478.808594 494.550781 478.808594 494.550781 478.867188 494.550781 C 478.867188 494.550781 478.808594 494.550781 478.808594 494.613281 C 478.746094 494.671875 478.625 494.734375 478.566406 494.792969 C 478.140625 495.097656 477.714844 495.460938 477.292969 495.703125 C 476.199219 496.433594 475.105469 497.039062 473.894531 497.523438 C 473.710938 497.402344 473.53125 497.28125 473.410156 497.160156 C 473.289062 497.039062 473.164062 496.976562 473.042969 496.855469 C 472.4375 496.371094 471.832031 495.886719 471.285156 495.402344 C 469.828125 494.125 468.371094 492.792969 467.039062 491.335938 C 475.410156 485.449219 483.175781 478.835938 490.152344 471.375 C 491.246094 470.222656 491.429688 468.160156 490.152344 467.007812 C 488.941406 465.914062 486.9375 465.730469 485.785156 467.007812 C 482.207031 470.769531 478.445312 474.40625 474.5 477.804688 C 473.53125 478.65625 472.5 479.503906 471.527344 480.292969 C 471.042969 480.71875 470.496094 481.082031 470.011719 481.507812 C 469.769531 481.6875 469.585938 481.871094 469.34375 482.050781 C 469.222656 482.113281 469.101562 482.234375 468.980469 482.296875 C 468.917969 482.296875 468.917969 482.355469 468.859375 482.417969 C 466.917969 483.871094 464.976562 485.269531 463.035156 486.664062 C 462.914062 486.480469 462.789062 486.300781 462.667969 486.117188 C 461.757812 484.902344 460.910156 483.628906 460.0625 482.296875 C 460.0625 482.234375 460 482.234375 460 482.175781 C 464.367188 479.445312 468.371094 475.984375 471.589844 471.921875 C 472.132812 471.253906 472.5 470.644531 472.5 469.734375 C 472.5 469.007812 472.132812 468.097656 471.589844 467.550781 C 470.496094 466.519531 468.3125 466.21875 467.21875 467.550781 C 465.519531 469.675781 463.640625 471.675781 461.578125 473.4375 C 461.09375 473.863281 460.546875 474.226562 460.0625 474.652344 C 460.183594 474.527344 460.363281 474.40625 460.121094 474.589844 C 460.0625 474.589844 460.0625 474.652344 460 474.652344 C 459.878906 474.710938 459.757812 474.832031 459.695312 474.894531 C 459.394531 475.074219 459.152344 475.316406 458.847656 475.5 C 458.242188 475.925781 457.632812 476.347656 457.027344 476.714844 C 456.542969 475.683594 456.054688 474.710938 455.632812 473.679688 C 453.570312 468.703125 452.171875 463.425781 451.382812 458.085938 C 450.71875 452.75 450.71875 447.347656 451.382812 442.070312 C 452.113281 437.035156 453.449219 432.121094 455.390625 427.449219 C 456.480469 424.898438 457.753906 422.414062 459.210938 419.984375 C 460 418.710938 460.847656 417.4375 461.757812 416.164062 C 461.941406 415.859375 462.183594 415.617188 462.367188 415.3125 C 462.488281 415.191406 462.667969 414.949219 462.789062 414.769531 C 463.15625 414.28125 463.519531 413.859375 463.882812 413.371094 C 465.945312 410.945312 468.191406 408.640625 470.558594 406.515625 C 471.164062 405.96875 471.769531 405.425781 472.4375 404.9375 C 472.679688 404.757812 472.921875 404.574219 473.164062 404.394531 C 473.347656 404.332031 473.53125 404.089844 473.652344 404.027344 C 475.046875 402.996094 476.441406 402.027344 477.898438 401.117188 C 481.113281 399.113281 484.511719 397.355469 488.03125 395.839844 C 494.582031 393.109375 501.4375 391.226562 508.417969 389.890625 C 510.359375 389.527344 512.238281 389.226562 514.179688 388.980469 C 522.976562 387.828125 531.894531 387.585938 540.753906 388.253906 C 543.058594 388.4375 545.367188 388.679688 547.671875 388.980469 C 555.921875 390.136719 563.992188 392.136719 571.695312 395.351562 C 577.519531 397.839844 583.101562 400.875 588.199219 404.695312 C 588.503906 404.878906 588.746094 405.121094 589.050781 405.304688 C 587.714844 404.332031 588.804688 405.121094 589.109375 405.363281 C 589.714844 405.847656 590.261719 406.335938 590.808594 406.820312 C 591.902344 407.789062 592.992188 408.761719 593.964844 409.792969 C 594.875 410.761719 595.785156 411.734375 596.632812 412.765625 C 596.816406 413.007812 597.058594 413.25 597.238281 413.492188 C 597.300781 413.554688 597.421875 413.675781 597.480469 413.859375 C 597.605469 414.039062 597.726562 414.222656 597.785156 414.28125 C 598.027344 414.585938 598.210938 414.890625 598.390625 415.191406 C 599.910156 417.375 601.242188 419.742188 602.335938 422.230469 C 603.367188 424.898438 604.15625 427.628906 604.582031 430.421875 C 604.882812 433.273438 604.824219 436.304688 604.519531 439.339844 Z M 438.339844 456.8125 C 432.941406 457.480469 427.480469 457.480469 422.140625 456.8125 C 416.984375 456.085938 411.886719 454.691406 407.09375 452.6875 C 404.605469 451.59375 402.121094 450.320312 399.8125 448.925781 C 398.539062 448.199219 397.324219 447.347656 396.113281 446.5 C 395.566406 446.074219 395.019531 445.710938 394.414062 445.285156 C 394.351562 445.226562 394.292969 445.164062 394.230469 445.164062 C 393.929688 444.921875 393.625 444.679688 393.320312 444.4375 C 390.957031 442.496094 388.769531 440.371094 386.707031 438.066406 C 386.222656 437.519531 385.675781 436.914062 385.191406 436.367188 C 384.949219 436.0625 384.707031 435.761719 384.464844 435.457031 C 384.402344 435.335938 384.28125 435.273438 384.222656 435.152344 C 383.371094 434 382.523438 432.847656 381.734375 431.695312 C 385.617188 430.179688 389.195312 427.992188 392.167969 425.019531 C 393.320312 423.867188 393.382812 421.804688 392.167969 420.652344 C 390.957031 419.5 389.015625 419.4375 387.800781 420.652344 C 387.132812 421.320312 386.40625 421.988281 385.617188 422.59375 C 384.039062 423.808594 382.28125 424.777344 380.460938 425.566406 C 380.277344 425.628906 380.09375 425.75 379.851562 425.808594 C 379.367188 425.992188 378.941406 426.234375 378.640625 426.539062 C 377.789062 424.960938 377.0625 423.382812 376.332031 421.746094 C 376.03125 420.957031 375.667969 420.105469 375.363281 419.316406 C 375.667969 419.257812 376.03125 419.136719 376.332031 419.015625 C 385.253906 414.707031 393.382812 408.578125 399.996094 401.175781 C 401.085938 399.964844 401.269531 397.960938 399.996094 396.808594 C 398.84375 395.714844 396.78125 395.535156 395.628906 396.808594 C 394.050781 398.566406 392.410156 400.265625 390.652344 401.90625 C 389.742188 402.753906 388.832031 403.542969 387.859375 404.332031 C 387.375 404.757812 386.890625 405.121094 386.40625 405.484375 C 386.285156 405.605469 386.101562 405.726562 385.980469 405.847656 C 385.917969 405.910156 385.554688 406.152344 385.496094 406.210938 C 381.734375 409.003906 377.730469 411.492188 373.480469 413.492188 C 372.996094 411.671875 372.511719 409.851562 372.085938 408.03125 C 375.910156 405.242188 379.671875 402.453125 383.492188 399.601562 C 384.160156 399.113281 384.707031 398.566406 384.886719 397.78125 C 385.070312 397.050781 385.007812 396.082031 384.585938 395.414062 C 383.734375 394.140625 381.734375 393.289062 380.339844 394.320312 C 377.183594 396.6875 374.027344 398.992188 370.8125 401.359375 C 370.75 401.054688 370.691406 400.8125 370.691406 400.507812 C 369.597656 392.078125 369.476562 383.582031 370.144531 375.089844 C 370.328125 372.78125 370.570312 370.476562 370.875 368.171875 C 371.964844 360.285156 373.726562 352.519531 376.332031 345.054688 C 377 343.175781 377.667969 341.355469 378.457031 339.535156 C 381.1875 333.226562 384.644531 327.21875 388.710938 321.757812 C 388.832031 321.574219 388.953125 321.394531 389.136719 321.210938 C 389.136719 321.210938 389.136719 321.152344 389.195312 321.152344 C 389.195312 321.152344 389.257812 321.089844 389.257812 321.089844 C 389.378906 320.910156 389.558594 320.726562 389.679688 320.542969 C 390.289062 319.816406 390.894531 319.089844 391.5 318.359375 C 392.59375 317.148438 393.6875 315.933594 394.839844 314.78125 C 395.992188 313.628906 397.203125 312.535156 398.417969 311.445312 C 398.964844 311.019531 399.511719 310.535156 400.054688 310.109375 C 400.117188 310.046875 400.238281 309.988281 400.238281 309.925781 C 400.601562 309.683594 400.964844 309.378906 401.332031 309.136719 C 403.9375 307.316406 406.730469 305.679688 409.640625 304.40625 C 412.554688 303.253906 415.648438 302.402344 418.742188 301.917969 C 421.835938 301.554688 424.933594 301.554688 428.027344 301.917969 C 431.546875 302.464844 434.941406 303.433594 438.28125 304.769531 C 442.648438 306.652344 446.652344 309.199219 450.472656 311.988281 C 450.535156 312.050781 450.65625 312.109375 450.71875 312.171875 C 450.960938 312.355469 451.261719 312.597656 451.507812 312.777344 C 452.113281 313.261719 452.660156 313.75 453.203125 314.234375 C 454.234375 315.144531 455.269531 316.054688 456.238281 317.023438 C 458.421875 319.148438 460.484375 321.332031 462.425781 323.636719 C 463.035156 324.304688 463.578125 325.035156 464.125 325.703125 C 464.429688 326.066406 464.671875 326.367188 464.914062 326.734375 C 465.035156 326.855469 465.15625 327.035156 465.277344 327.15625 C 466.429688 328.675781 467.523438 330.191406 468.617188 331.769531 C 473.710938 339.171875 478.082031 346.996094 481.660156 355.25 C 485.238281 363.863281 487.847656 372.84375 489.121094 382.066406 C 489.242188 383.15625 489.363281 384.25 489.488281 385.339844 C 486.332031 386.433594 483.296875 387.707031 480.265625 389.164062 C 473.347656 392.441406 466.976562 396.871094 461.457031 402.207031 C 456.480469 407.0625 452.234375 412.703125 449.019531 418.894531 C 445.925781 424.839844 443.679688 431.210938 442.527344 437.824219 C 441.433594 443.890625 441.132812 450.140625 441.675781 456.265625 C 440.644531 456.449219 439.492188 456.691406 438.339844 456.8125 Z M 399.933594 310.289062 C 399.570312 310.59375 399.691406 310.472656 399.933594 310.289062 Z M 492.945312 321.394531 C 493.1875 321.210938 493.429688 320.96875 493.734375 320.785156 C 493.613281 320.847656 493.550781 320.96875 493.492188 321.03125 C 493.613281 320.96875 493.734375 320.847656 493.792969 320.785156 C 494.402344 320.300781 495.007812 319.875 495.613281 319.390625 C 497.859375 317.753906 500.226562 316.117188 502.589844 314.597656 C 507.507812 311.445312 512.601562 308.714844 517.941406 306.40625 C 524.675781 303.617188 531.835938 301.613281 539.054688 300.582031 C 544.210938 299.914062 549.492188 299.792969 554.707031 300.460938 C 558.410156 301.007812 562.050781 301.980469 565.507812 303.375 C 567.207031 304.101562 568.84375 304.953125 570.421875 305.921875 C 571.332031 306.46875 572.183594 307.015625 572.972656 307.621094 C 572.972656 307.621094 573.03125 307.621094 573.03125 307.683594 C 573.09375 307.742188 573.152344 307.804688 573.214844 307.804688 C 573.273438 307.863281 573.335938 307.863281 573.394531 307.925781 C 573.757812 308.226562 574.183594 308.53125 574.546875 308.835938 C 576.066406 310.167969 577.519531 311.625 578.855469 313.140625 C 579.097656 313.445312 579.339844 313.75 579.585938 314.050781 C 579.160156 313.566406 579.402344 313.808594 579.585938 314.050781 C 579.644531 314.113281 579.707031 314.171875 579.707031 314.234375 C 579.707031 314.234375 579.707031 314.234375 579.765625 314.296875 C 579.886719 314.417969 579.949219 314.539062 580.070312 314.660156 C 579.949219 314.539062 579.886719 314.417969 579.828125 314.355469 C 579.949219 314.476562 580.070312 314.660156 580.191406 314.78125 C 580.796875 315.628906 581.40625 316.480469 581.949219 317.390625 C 583.101562 319.269531 584.132812 321.273438 585.042969 323.335938 C 586.863281 327.765625 588.015625 332.4375 588.746094 337.230469 C 589.714844 344.996094 589.472656 352.882812 588.503906 360.585938 C 588.382812 361.558594 588.199219 362.527344 588.078125 363.5 C 586.742188 371.507812 584.742188 379.457031 582.011719 387.101562 C 581.707031 387.890625 581.40625 388.679688 581.101562 389.527344 C 580.371094 389.164062 579.644531 388.800781 578.917969 388.496094 C 571.453125 385.039062 563.6875 382.488281 555.617188 380.972656 C 547.246094 379.394531 538.753906 378.667969 530.199219 378.730469 C 521.460938 378.789062 512.722656 379.699219 504.167969 381.457031 C 502.347656 381.824219 500.527344 382.246094 498.707031 382.734375 C 498.222656 378.425781 497.433594 374.117188 496.402344 369.929688 C 498.648438 369.628906 500.710938 369.082031 502.773438 368.109375 C 504.714844 367.199219 506.476562 365.925781 507.992188 364.410156 C 509.144531 363.257812 509.203125 361.132812 507.992188 360.042969 C 506.777344 358.890625 504.835938 358.828125 503.625 360.042969 C 503.257812 360.40625 502.835938 360.769531 502.410156 361.132812 C 501.5 361.800781 500.46875 362.40625 499.4375 362.894531 C 498.285156 363.316406 497.070312 363.683594 495.855469 363.863281 C 495.492188 363.925781 495.128906 363.984375 494.824219 364.105469 C 494.339844 362.46875 493.792969 360.832031 493.25 359.253906 C 499.738281 357.675781 505.746094 354.398438 510.660156 349.910156 C 511.875 348.816406 511.875 346.632812 510.660156 345.542969 C 509.386719 344.386719 507.566406 344.386719 506.292969 345.542969 C 505.6875 346.085938 505.140625 346.574219 504.53125 347.058594 C 504.472656 347.058594 504.289062 347.238281 504.167969 347.359375 C 504.109375 347.421875 504.046875 347.484375 504.046875 347.484375 C 503.746094 347.726562 503.441406 347.96875 503.078125 348.148438 C 501.742188 349.058594 500.40625 349.910156 498.953125 350.636719 C 498.285156 351 497.554688 351.304688 496.828125 351.667969 C 496.644531 351.730469 496.464844 351.851562 496.28125 351.910156 C 495.917969 352.03125 495.554688 352.214844 495.191406 352.335938 C 493.855469 352.820312 492.460938 353.1875 491.0625 353.550781 C 490.699219 352.578125 490.273438 351.609375 489.851562 350.699219 C 493.066406 348.453125 496.34375 346.207031 499.558594 344.023438 C 500.226562 343.539062 500.773438 342.992188 500.953125 342.203125 C 501.136719 341.476562 501.074219 340.503906 500.648438 339.839844 C 499.800781 338.503906 497.859375 337.773438 496.402344 338.746094 C 493.308594 340.871094 490.214844 342.992188 487.179688 345.117188 C 486.269531 343.296875 485.359375 341.476562 484.328125 339.65625 C 483.117188 337.472656 481.84375 335.289062 480.507812 333.164062 C 483.417969 330.191406 486.511719 327.339844 489.730469 324.609375 C 490.640625 323.214844 491.792969 322.242188 492.945312 321.394531 Z M 492.945312 321.394531 " fill-opacity="1" fill-rule="nonzero"/></g><path fill="#fdfdfd" d="M 584.984375 417.984375 C 585.53125 418.46875 585.164062 418.164062 584.984375 417.984375 Z M 584.984375 417.984375 " fill-opacity="1" fill-rule="nonzero"/><path fill="#fdfdfd" d="M 586.621094 411.613281 C 585.289062 410.761719 583.164062 411.308594 582.375 412.703125 C 581.585938 414.222656 582.011719 415.980469 583.46875 416.953125 C 583.953125 417.253906 584.5 417.621094 584.984375 417.984375 C 584.984375 417.984375 584.984375 417.984375 585.042969 417.984375 C 585.042969 417.984375 584.984375 417.921875 584.984375 417.921875 C 585.105469 418.042969 585.226562 418.105469 585.347656 418.226562 C 585.589844 418.40625 585.832031 418.589844 586.015625 418.832031 C 586.925781 419.621094 587.835938 420.53125 588.625 421.441406 C 588.804688 421.683594 589.050781 421.867188 589.230469 422.109375 C 589.292969 422.230469 589.414062 422.289062 589.472656 422.414062 C 589.472656 422.414062 589.414062 422.351562 589.414062 422.351562 C 589.414062 422.414062 589.472656 422.414062 589.472656 422.472656 C 589.714844 422.777344 589.59375 422.65625 589.472656 422.535156 C 589.777344 422.957031 590.082031 423.382812 590.382812 423.808594 C 591.113281 424.839844 591.71875 425.992188 592.265625 427.082031 C 592.992188 428.539062 595.175781 429.027344 596.511719 428.175781 C 598.027344 427.207031 598.390625 425.507812 597.605469 423.929688 C 595.238281 418.894531 591.292969 414.644531 586.621094 411.613281 Z M 586.621094 411.613281 " fill-opacity="1" fill-rule="nonzero"/><path fill="#fdfdfd" d="M 589.472656 422.351562 C 589.472656 422.414062 589.535156 422.414062 589.535156 422.472656 C 589.535156 422.472656 589.472656 422.414062 589.472656 422.351562 C 589.472656 422.414062 589.472656 422.414062 589.472656 422.351562 Z M 589.472656 422.351562 " fill-opacity="1" fill-rule="nonzero"/><path fill="#fdfdfd" d="M 459.9375 474.773438 C 460 474.710938 460 474.710938 459.9375 474.773438 C 460 474.710938 460 474.710938 459.9375 474.773438 Z M 459.9375 474.773438 " fill-opacity="1" fill-rule="nonzero"/><path fill="#fdfdfd" d="M 478.566406 494.792969 C 478.625 494.734375 478.746094 494.671875 478.808594 494.613281 C 478.503906 494.792969 478.503906 494.855469 478.566406 494.792969 Z M 478.566406 494.792969 " fill-opacity="1" fill-rule="nonzero"/><path fill="#fdfdfd" d="M 573.394531 325.945312 C 573.152344 325.578125 573.09375 325.519531 573.273438 325.824219 C 573.335938 325.945312 573.457031 326.066406 573.515625 326.1875 C 573.820312 326.671875 574.125 327.097656 574.367188 327.582031 C 574.488281 327.824219 574.609375 328.066406 574.730469 328.308594 C 574.730469 328.371094 574.792969 328.429688 574.792969 328.429688 C 574.792969 328.429688 574.792969 328.492188 574.792969 328.492188 C 574.972656 329.039062 575.15625 329.523438 575.277344 330.070312 C 575.335938 330.191406 575.703125 331.648438 575.640625 331.707031 C 575.578125 331.222656 575.578125 331.160156 575.640625 331.527344 C 575.640625 331.648438 575.640625 331.828125 575.703125 331.949219 C 575.703125 332.253906 575.761719 332.496094 575.761719 332.800781 C 575.761719 333.347656 575.761719 333.890625 575.703125 334.4375 C 575.703125 334.558594 575.703125 334.621094 575.703125 334.742188 C 575.640625 334.984375 575.640625 335.226562 575.578125 335.46875 C 575.277344 337.046875 576.066406 338.867188 577.765625 339.292969 C 579.339844 339.65625 581.222656 338.804688 581.585938 337.109375 C 582.800781 331.34375 581.222656 325.335938 577.277344 320.910156 C 576.1875 319.695312 574.003906 319.753906 572.910156 320.910156 C 571.695312 322.183594 571.757812 324.003906 572.910156 325.277344 C 573.03125 325.457031 573.394531 325.703125 573.394531 325.945312 Z M 573.394531 325.945312 " fill-opacity="1" fill-rule="nonzero"/><path fill="#fdfdfd" d="M 461.09375 348.148438 C 461.09375 348.148438 461.09375 348.210938 461.09375 348.210938 C 461.152344 348.148438 461.152344 348.148438 461.09375 348.148438 C 461.152344 348.148438 461.152344 348.148438 461.09375 348.148438 Z M 461.09375 348.148438 " fill-opacity="1" fill-rule="nonzero"/><path fill="#fdfdfd" d="M 458.363281 343.660156 C 458.542969 343.84375 458.664062 344.023438 458.847656 344.207031 C 458.90625 344.265625 458.96875 344.386719 459.03125 344.449219 C 459.695312 345.359375 460.242188 346.269531 460.726562 347.238281 C 460.847656 347.484375 460.972656 347.726562 461.09375 347.90625 C 461.09375 347.96875 461.152344 348.027344 461.152344 348.089844 C 461.09375 347.96875 461.03125 347.785156 461.152344 348.089844 C 461.152344 348.089844 461.152344 348.148438 461.152344 348.148438 C 461.152344 348.210938 461.214844 348.269531 461.214844 348.269531 C 461.214844 348.269531 461.152344 348.210938 461.152344 348.148438 C 461.335938 348.636719 461.515625 349.121094 461.699219 349.605469 C 462.0625 350.699219 462.304688 351.789062 462.425781 352.882812 C 462.546875 353.609375 463.277344 354.398438 463.824219 354.703125 C 464.488281 355.066406 465.460938 355.25 466.1875 355.007812 C 466.917969 354.761719 467.644531 354.277344 468.007812 353.609375 C 468.433594 352.820312 468.433594 352.09375 468.3125 351.246094 C 467.585938 346.269531 465.097656 341.535156 461.515625 338.019531 C 460.363281 336.863281 458.300781 336.804688 457.148438 338.019531 C 455.996094 339.230469 455.933594 341.171875 457.148438 342.386719 C 457.632812 342.8125 457.996094 343.234375 458.363281 343.660156 Z M 458.363281 343.660156 " fill-opacity="1" fill-rule="nonzero"/><g clip-path="url(#f479e3f725)"><path fill="#fefefe" d="M 1046.191406 324.144531 C 1024.59375 302.546875 995.878906 290.652344 965.335938 290.652344 C 934.792969 290.652344 906.078125 302.546875 884.480469 324.144531 C 862.882812 345.742188 850.992188 374.457031 850.992188 405 C 850.992188 435.542969 862.882812 464.257812 884.480469 485.855469 C 906.078125 507.453125 934.792969 519.34375 965.335938 519.34375 C 995.878906 519.34375 1024.59375 507.453125 1046.191406 485.855469 C 1067.789062 464.257812 1079.683594 435.542969 1079.683594 405 C 1079.683594 374.457031 1067.789062 345.742188 1046.191406 324.144531 Z M 1059.582031 412.972656 C 1059.652344 413.011719 1066.832031 416.742188 1072.78125 426.292969 C 1069.445312 443.148438 1062.234375 458.628906 1052.109375 471.753906 C 1050.789062 462.25 1047.175781 456.660156 1046.992188 456.386719 C 1046.261719 455.277344 1044.773438 454.96875 1043.664062 455.703125 C 1042.558594 456.429688 1042.246094 457.917969 1042.972656 459.027344 C 1043.015625 459.097656 1047.34375 465.878906 1047.742188 477.070312 C 1036.699219 489.6875 1022.804688 499.75 1007.078125 506.257812 C 1010.71875 497.332031 1010.375 490.65625 1010.359375 490.324219 C 1010.277344 489 1009.140625 487.988281 1007.816406 488.070312 C 1006.492188 488.140625 1005.480469 489.277344 1005.546875 490.601562 C 1005.550781 490.6875 1005.917969 498.769531 1000.621094 508.699219 C 989.542969 512.480469 977.675781 514.53125 965.335938 514.53125 C 960.425781 514.53125 955.585938 514.199219 950.84375 513.574219 C 958.464844 507.65625 961.515625 501.703125 961.664062 501.40625 C 962.253906 500.21875 961.777344 498.777344 960.59375 498.179688 C 959.410156 497.582031 957.960938 498.058594 957.359375 499.246094 C 957.324219 499.316406 953.59375 506.496094 944.042969 512.445312 C 927.179688 509.109375 911.707031 501.898438 898.578125 491.773438 C 908.085938 490.453125 913.675781 486.832031 913.949219 486.648438 C 915.058594 485.917969 915.363281 484.433594 914.632812 483.324219 C 913.90625 482.214844 912.414062 481.90625 911.304688 482.628906 C 911.234375 482.671875 904.457031 487.003906 893.261719 487.40625 C 880.648438 476.355469 870.582031 462.464844 864.078125 446.742188 C 871.433594 449.742188 877.257812 450.039062 879.265625 450.039062 C 879.695312 450.039062 879.949219 450.023438 880.011719 450.019531 C 881.335938 449.941406 882.34375 448.808594 882.265625 447.484375 C 882.195312 446.160156 881.046875 445.136719 879.730469 445.214844 C 879.652344 445.214844 871.5625 445.578125 861.636719 440.28125 C 857.855469 429.207031 855.804688 417.339844 855.804688 405 C 855.804688 400.089844 856.136719 395.25 856.765625 390.507812 C 862.675781 398.128906 868.632812 401.175781 868.929688 401.324219 C 869.277344 401.5 869.644531 401.582031 870.003906 401.582031 C 870.886719 401.582031 871.726562 401.09375 872.152344 400.257812 C 872.753906 399.074219 872.269531 397.625 871.089844 397.027344 C 871.019531 396.988281 863.839844 393.257812 857.890625 383.710938 C 861.226562 366.847656 868.4375 351.371094 878.5625 338.242188 C 879.882812 347.75 883.5 353.339844 883.683594 353.613281 C 884.148438 354.316406 884.914062 354.695312 885.695312 354.695312 C 886.152344 354.695312 886.609375 354.566406 887.019531 354.296875 C 888.128906 353.566406 888.433594 352.074219 887.703125 350.960938 C 887.660156 350.894531 883.324219 344.207031 882.929688 332.925781 C 893.980469 320.3125 907.871094 310.242188 923.597656 303.738281 C 919.953125 312.664062 920.292969 319.34375 920.316406 319.675781 C 920.394531 320.953125 921.453125 321.9375 922.714844 321.9375 C 922.761719 321.9375 922.808594 321.9375 922.863281 321.933594 C 924.1875 321.855469 925.199219 320.714844 925.121094 319.386719 C 925.117188 319.304688 924.710938 311.308594 930.054688 301.296875 C 941.128906 297.519531 952.996094 295.46875 965.335938 295.46875 C 970.246094 295.46875 975.085938 295.800781 979.828125 296.425781 C 972.207031 302.339844 969.160156 308.292969 969.011719 308.59375 C 968.414062 309.78125 968.894531 311.222656 970.078125 311.820312 C 970.425781 311.992188 970.796875 312.074219 971.15625 312.074219 C 972.039062 312.074219 972.886719 311.59375 973.308594 310.753906 C 973.347656 310.683594 977.078125 303.503906 986.625 297.554688 C 1003.488281 300.890625 1018.964844 308.101562 1032.09375 318.226562 C 1022.585938 319.546875 1016.996094 323.167969 1016.71875 323.347656 C 1015.609375 324.082031 1015.308594 325.5625 1016.035156 326.675781 C 1016.496094 327.378906 1017.265625 327.757812 1018.050781 327.757812 C 1018.503906 327.757812 1018.960938 327.632812 1019.367188 327.371094 C 1019.433594 327.328125 1026.222656 322.992188 1037.410156 322.59375 C 1050.023438 333.644531 1060.09375 347.53125 1066.597656 363.257812 C 1057.671875 359.621094 1050.996094 359.960938 1050.664062 359.976562 C 1049.339844 360.054688 1048.335938 361.191406 1048.40625 362.515625 C 1048.484375 363.839844 1049.625 364.867188 1050.945312 364.785156 C 1051.027344 364.785156 1059.105469 364.421875 1069.039062 369.714844 C 1072.8125 380.792969 1074.867188 392.660156 1074.867188 405 C 1074.867188 409.910156 1074.535156 414.75 1073.90625 419.492188 C 1067.992188 411.871094 1062.042969 408.820312 1061.738281 408.671875 C 1060.554688 408.082031 1059.113281 408.558594 1058.519531 409.742188 C 1057.921875 410.925781 1058.398438 412.375 1059.582031 412.972656 Z M 1059.582031 412.972656 " fill-opacity="1" fill-rule="nonzero"/></g><path fill="#fefefe" d="M 965.335938 325.539062 C 921.523438 325.539062 885.878906 361.1875 885.878906 405 C 885.878906 448.8125 921.523438 484.457031 965.335938 484.457031 C 1009.148438 484.457031 1044.796875 448.8125 1044.796875 405 C 1044.796875 361.1875 1009.148438 325.539062 965.335938 325.539062 Z M 965.335938 479.644531 C 924.175781 479.644531 890.691406 446.160156 890.691406 405 C 890.691406 363.839844 924.175781 330.355469 965.335938 330.355469 C 1006.496094 330.355469 1039.980469 363.839844 1039.980469 405 C 1039.980469 446.160156 1006.496094 479.644531 965.335938 479.644531 Z M 965.335938 479.644531 " fill-opacity="1" fill-rule="nonzero"/><path fill="#fefefe" d="M 1032.816406 395.351562 L 1032.816406 395.339844 C 1032.816406 395.332031 1032.8125 395.320312 1032.8125 395.3125 C 1030.304688 377.757812 1021.085938 362.335938 1007.839844 351.746094 C 1007.71875 351.617188 1007.585938 351.496094 1007.429688 351.390625 C 1007.390625 351.359375 1007.347656 351.347656 1007.308594 351.320312 C 1002.3125 347.40625 996.757812 344.171875 990.785156 341.761719 C 990.761719 341.75 990.742188 341.734375 990.71875 341.722656 C 990.632812 341.679688 990.539062 341.65625 990.449219 341.625 C 982.675781 338.535156 974.199219 336.832031 965.335938 336.832031 C 956.472656 336.832031 947.984375 338.535156 940.203125 341.636719 C 940.121094 341.664062 940.035156 341.683594 939.953125 341.722656 C 939.933594 341.730469 939.914062 341.75 939.898438 341.761719 C 933.917969 344.171875 928.351562 347.414062 923.347656 351.335938 C 923.308594 351.355469 923.273438 351.371094 923.238281 351.394531 C 923.089844 351.496094 922.953125 351.617188 922.839844 351.742188 C 909.609375 362.324219 900.394531 377.71875 897.871094 395.25 C 897.867188 395.285156 897.855469 395.3125 897.851562 395.339844 L 897.851562 395.367188 C 897.402344 398.515625 897.167969 401.730469 897.167969 405 C 897.167969 408.269531 897.402344 411.484375 897.851562 414.632812 L 897.851562 414.65625 C 897.855469 414.6875 897.867188 414.714844 897.871094 414.75 C 900.394531 432.277344 909.609375 447.675781 922.839844 458.257812 C 922.953125 458.382812 923.089844 458.503906 923.238281 458.605469 C 923.277344 458.632812 923.324219 458.652344 923.363281 458.675781 C 928.367188 462.597656 933.921875 465.828125 939.898438 468.238281 C 939.914062 468.25 939.933594 468.265625 939.953125 468.277344 C 940.035156 468.316406 940.121094 468.335938 940.203125 468.363281 C 947.984375 471.464844 956.464844 473.167969 965.335938 473.167969 C 974.210938 473.167969 982.605469 471.480469 990.351562 468.410156 C 990.476562 468.378906 990.597656 468.335938 990.71875 468.277344 C 990.742188 468.261719 990.761719 468.25 990.785156 468.238281 C 996.746094 465.828125 1002.296875 462.601562 1007.289062 458.691406 C 1007.339844 458.664062 1007.386719 458.644531 1007.429688 458.609375 C 1007.585938 458.503906 1007.71875 458.382812 1007.839844 458.253906 C 1021.085938 447.660156 1030.304688 432.238281 1032.8125 414.6875 C 1032.8125 414.675781 1032.816406 414.667969 1032.816406 414.65625 L 1032.816406 414.648438 C 1033.265625 411.496094 1033.507812 408.273438 1033.507812 405 C 1033.507812 401.726562 1033.265625 398.503906 1032.816406 395.351562 Z M 1027.601562 393.289062 C 1015.191406 393.921875 1000.695312 392.542969 997.253906 386.574219 C 993.816406 380.625 999.847656 367.394531 1006.59375 356.960938 C 1017.296875 366.160156 1024.898438 378.871094 1027.601562 393.289062 Z M 965.335938 341.644531 C 972.695312 341.644531 979.757812 342.910156 986.328125 345.226562 C 980.675781 356.289062 972.230469 368.144531 965.335938 368.144531 C 958.441406 368.144531 950.003906 356.289062 944.34375 345.226562 C 950.917969 342.910156 957.980469 341.644531 965.335938 341.644531 Z M 924.082031 356.960938 C 930.824219 367.382812 936.863281 380.609375 933.421875 386.574219 C 929.972656 392.539062 915.480469 393.921875 903.070312 393.289062 C 905.777344 378.875 913.378906 366.164062 924.082031 356.960938 Z M 903.070312 416.707031 C 915.480469 416.078125 929.972656 417.460938 933.421875 423.425781 C 936.863281 429.390625 930.824219 442.617188 924.082031 453.039062 C 913.378906 443.832031 905.777344 431.125 903.070312 416.707031 Z M 965.335938 468.355469 C 957.980469 468.355469 950.917969 467.089844 944.34375 464.773438 C 950.003906 453.707031 958.441406 441.855469 965.335938 441.855469 C 972.230469 441.855469 980.675781 453.707031 986.328125 464.773438 C 979.757812 467.089844 972.695312 468.355469 965.335938 468.355469 Z M 1006.59375 453.039062 C 999.847656 442.605469 993.816406 429.375 997.253906 423.425781 C 1000.695312 417.460938 1015.191406 416.078125 1027.601562 416.707031 C 1024.898438 431.128906 1017.296875 443.839844 1006.59375 453.039062 Z M 1028.3125 411.921875 C 1018.042969 411.351562 998.523438 411.585938 993.082031 421.015625 C 987.652344 430.425781 997.179688 447.441406 1002.804688 456.054688 C 999.097656 458.777344 995.085938 461.113281 990.824219 462.992188 C 986.1875 453.808594 976.226562 437.039062 965.335938 437.039062 C 954.445312 437.039062 944.484375 453.808594 939.847656 462.996094 C 935.585938 461.113281 931.578125 458.777344 927.863281 456.054688 C 933.5 447.445312 943.03125 430.441406 937.589844 421.015625 C 932.144531 411.589844 912.632812 411.351562 902.363281 411.921875 C 902.117188 409.648438 901.980469 407.339844 901.980469 405 C 901.980469 402.660156 902.117188 400.347656 902.363281 398.074219 C 904.234375 398.175781 906.40625 398.257812 908.75 398.257812 C 919.269531 398.257812 933.136719 396.695312 937.589844 388.980469 C 943.03125 379.558594 933.5 362.554688 927.863281 353.945312 C 931.578125 351.222656 935.585938 348.886719 939.847656 347.003906 C 944.484375 356.1875 954.449219 372.957031 965.335938 372.957031 C 976.222656 372.957031 986.1875 356.1875 990.824219 347.007812 C 995.085938 348.886719 999.097656 351.222656 1002.804688 353.945312 C 997.179688 362.558594 987.652344 379.574219 993.082031 388.980469 C 997.53125 396.695312 1011.398438 398.257812 1021.921875 398.257812 C 1024.265625 398.257812 1026.4375 398.175781 1028.3125 398.074219 C 1028.558594 400.347656 1028.691406 402.660156 1028.691406 405 C 1028.691406 407.339844 1028.558594 409.648438 1028.3125 411.921875 Z M 1028.3125 411.921875 " fill-opacity="1" fill-rule="nonzero"/><path fill="#fefefe" d="M 992.289062 399.71875 C 991.222656 394.300781 988.527344 389.300781 984.582031 385.414062 C 984.59375 384.175781 984.296875 382.925781 983.636719 381.777344 C 981.738281 378.492188 977.589844 377.300781 974.242188 379.015625 C 971.382812 378.039062 968.394531 377.542969 965.335938 377.542969 C 962.832031 377.542969 960.367188 377.878906 957.988281 378.539062 C 956.929688 377.90625 955.699219 377.542969 954.375 377.542969 C 950.570312 377.542969 947.464844 380.546875 947.285156 384.3125 C 943.113281 387.949219 940.128906 392.785156 938.746094 398.128906 C 937.648438 398.746094 936.722656 399.640625 936.078125 400.761719 C 935.125 402.40625 934.875 404.320312 935.367188 406.15625 C 935.828125 407.875 936.898438 409.324219 938.386719 410.28125 C 939.449219 415.699219 942.140625 420.699219 946.09375 424.582031 C 946.074219 425.847656 946.386719 427.097656 947.035156 428.21875 C 948.351562 430.496094 950.742188 431.773438 953.199219 431.773438 C 954.296875 431.773438 955.40625 431.511719 956.433594 430.984375 C 959.292969 431.960938 962.285156 432.457031 965.335938 432.457031 C 967.839844 432.457031 970.304688 432.121094 972.683594 431.460938 C 973.742188 432.089844 974.976562 432.457031 976.292969 432.457031 C 980.101562 432.457031 983.207031 429.453125 983.386719 425.6875 C 987.554688 422.046875 990.546875 417.21875 991.925781 411.875 C 993 411.273438 993.933594 410.382812 994.597656 409.234375 C 996.496094 405.941406 995.445312 401.753906 992.289062 399.71875 Z M 975.273438 384.738281 C 975.433594 384.148438 975.808594 383.652344 976.339844 383.347656 C 976.699219 383.140625 977.09375 383.039062 977.480469 383.039062 C 978.273438 383.039062 979.042969 383.449219 979.46875 384.1875 C 980.097656 385.277344 979.722656 386.679688 978.628906 387.316406 C 978.101562 387.617188 977.484375 387.699219 976.890625 387.542969 C 976.300781 387.382812 975.808594 387.003906 975.5 386.472656 C 975.195312 385.945312 975.113281 385.328125 975.273438 384.738281 Z M 954.375 382.355469 C 955.640625 382.355469 956.664062 383.382812 956.664062 384.644531 C 956.664062 385.90625 955.640625 386.933594 954.375 386.933594 C 953.109375 386.933594 952.085938 385.910156 952.085938 384.644531 C 952.085938 383.378906 953.113281 382.355469 954.375 382.355469 Z M 941.085938 406.300781 C 940.554688 405.992188 940.175781 405.496094 940.015625 404.90625 C 939.859375 404.316406 939.941406 403.699219 940.25 403.167969 C 940.550781 402.640625 941.046875 402.261719 941.632812 402.101562 C 941.832031 402.046875 942.035156 402.023438 942.230469 402.023438 C 942.632812 402.023438 943.019531 402.125 943.371094 402.332031 C 943.902344 402.636719 944.28125 403.132812 944.441406 403.722656 C 944.601562 404.3125 944.519531 404.925781 944.210938 405.457031 C 943.90625 405.988281 943.410156 406.367188 942.820312 406.527344 C 942.230469 406.683594 941.617188 406.601562 941.085938 406.300781 Z M 955.398438 425.257812 C 955.242188 425.851562 954.863281 426.347656 954.335938 426.652344 C 953.238281 427.28125 951.835938 426.90625 951.207031 425.8125 C 950.902344 425.28125 950.820312 424.667969 950.980469 424.074219 C 951.132812 423.488281 951.515625 422.992188 952.042969 422.683594 C 952.394531 422.480469 952.789062 422.375 953.183594 422.375 C 953.382812 422.375 953.585938 422.402344 953.78125 422.457031 C 954.375 422.617188 954.863281 422.996094 955.171875 423.527344 C 955.476562 424.054688 955.558594 424.671875 955.398438 425.257812 Z M 976.292969 427.640625 C 975.035156 427.640625 974.007812 426.617188 974.007812 425.355469 C 974.007812 424.09375 975.035156 423.0625 976.292969 423.0625 C 977.554688 423.0625 978.585938 424.089844 978.585938 425.355469 C 978.585938 426.621094 977.5625 427.640625 976.292969 427.640625 Z M 981.648438 420.699219 C 980.347656 419.203125 978.433594 418.25 976.292969 418.25 C 972.378906 418.25 969.191406 421.4375 969.191406 425.355469 C 969.191406 426.015625 969.289062 426.65625 969.460938 427.265625 C 968.109375 427.511719 966.734375 427.640625 965.335938 427.640625 C 963.488281 427.640625 961.667969 427.421875 959.894531 426.988281 C 959.953125 426.828125 960.007812 426.667969 960.050781 426.507812 C 960.542969 424.675781 960.292969 422.761719 959.34375 421.117188 C 958.394531 419.472656 956.863281 418.296875 955.027344 417.804688 C 953.195312 417.316406 951.277344 417.566406 949.636719 418.515625 C 949.066406 418.839844 948.5625 419.246094 948.113281 419.699219 C 946.027344 417.246094 944.476562 414.375 943.578125 411.289062 C 943.742188 411.257812 943.90625 411.21875 944.066406 411.175781 C 945.898438 410.683594 947.429688 409.511719 948.378906 407.863281 C 949.328125 406.222656 949.582031 404.304688 949.09375 402.476562 C 948.601562 400.640625 947.425781 399.109375 945.78125 398.164062 C 945.210938 397.832031 944.609375 397.59375 943.988281 397.4375 C 945.066406 394.402344 946.785156 391.625 949.023438 389.300781 C 950.324219 390.796875 952.242188 391.75 954.375 391.75 C 958.292969 391.75 961.480469 388.5625 961.480469 384.644531 C 961.480469 383.984375 961.382812 383.34375 961.210938 382.730469 C 962.5625 382.488281 963.941406 382.355469 965.335938 382.355469 C 967.183594 382.355469 969.011719 382.578125 970.777344 383.015625 C 970.132812 384.894531 970.261719 387.03125 971.332031 388.878906 C 972.28125 390.527344 973.816406 391.703125 975.644531 392.191406 C 976.257812 392.355469 976.878906 392.4375 977.492188 392.4375 C 978.726562 392.4375 979.945312 392.117188 981.035156 391.484375 C 981.609375 391.152344 982.117188 390.75 982.554688 390.296875 C 984.648438 392.75 986.199219 395.625 987.09375 398.714844 C 986.929688 398.75 986.765625 398.777344 986.605469 398.824219 C 984.773438 399.3125 983.242188 400.488281 982.292969 402.132812 C 980.335938 405.523438 981.5 409.875 984.894531 411.835938 C 985.464844 412.167969 986.066406 412.410156 986.683594 412.566406 C 985.605469 415.597656 983.886719 418.375 981.648438 420.699219 Z M 990.425781 406.828125 C 989.792969 407.921875 988.394531 408.300781 987.300781 407.667969 C 986.207031 407.035156 985.832031 405.636719 986.464844 404.539062 C 986.765625 404.011719 987.261719 403.632812 987.847656 403.472656 C 988.441406 403.3125 989.058594 403.394531 989.585938 403.699219 C 990.679688 404.335938 991.0625 405.734375 990.425781 406.828125 Z M 990.425781 406.828125 " fill-opacity="1" fill-rule="nonzero"/><path fill="#fefefe" d="M 965.335938 390.066406 C 957.105469 390.066406 950.402344 396.765625 950.402344 405 C 950.402344 413.230469 957.105469 419.933594 965.335938 419.933594 C 973.570312 419.933594 980.269531 413.230469 980.269531 405 C 980.269531 396.765625 973.570312 390.066406 965.335938 390.066406 Z M 965.335938 415.121094 C 959.757812 415.121094 955.214844 410.578125 955.214844 405 C 955.214844 399.417969 959.757812 394.878906 965.335938 394.878906 C 970.917969 394.878906 975.457031 399.417969 975.457031 405 C 975.457031 410.578125 970.917969 415.121094 965.335938 415.121094 Z M 965.335938 415.121094 " fill-opacity="1" fill-rule="nonzero"/><g clip-path="url(#da3c5ecaa8)"><g clip-path="url(#9764ca9936)"><path fill="#9badd6" d="M 669.082031 341.316406 L 796.449219 341.316406 L 796.449219 468.683594 L 669.082031 468.683594 Z M 669.082031 341.316406 " fill-opacity="1" fill-rule="nonzero"/></g></g></svg>