<?xml version="1.0" encoding="UTF-8" standalone="no"?>
<svg
   id="Layer_1"
   data-name="Layer 1"
   viewBox="0 0 530.00001 530.00002"
   version="1.1"
   sodipodi:docname="cinder.svg"
   width="530"
   height="530"
   inkscape:version="1.4 (e7c3feb100, 2024-10-09)"
   xmlns:inkscape="http://www.inkscape.org/namespaces/inkscape"
   xmlns:sodipodi="http://sodipodi.sourceforge.net/DTD/sodipodi-0.dtd"
   xmlns="http://www.w3.org/2000/svg"
   xmlns:svg="http://www.w3.org/2000/svg">
  <sodipodi:namedview
     id="namedview8"
     pagecolor="#505050"
     bordercolor="#eeeeee"
     borderopacity="1"
     inkscape:showpageshadow="0"
     inkscape:pageopacity="0"
     inkscape:pagecheckerboard="0"
     inkscape:deskcolor="#d1d1d1"
     inkscape:zoom="1.8247281"
     inkscape:cx="265.245"
     inkscape:cy="109.05734"
     inkscape:window-width="3840"
     inkscape:window-height="2160"
     inkscape:window-x="1920"
     inkscape:window-y="0"
     inkscape:window-maximized="1"
     inkscape:current-layer="Layer_1" />
  <defs
     id="defs1">
    <style
       id="style1">.cls-1{fill:#fff;}.cls-2{fill:#e89c3d;}</style>
  </defs>
  <path
     class="cls-1"
     d="m 81.636322,243.43039 c -19.19,0 -31,13.19 -31,32.22 0,19.03 11.81,31.78 30.65,31.78 a 59,59 0 0 0 23.759998,-5.48 l 4.76,10.45 a 65.65,65.65 0 0 1 -28.519998,6.51 c -28.34,0 -44.71,-18 -44.71,-43.18 0,-26.22 17.78,-43.53 45.24,-43.53 a 57.28,57.28 0 0 1 26.759998,6.12 l -4.92,10.79 c -5.649998,-3.77 -14.799998,-5.68 -22.019998,-5.68 z"
     id="path1" />
  <path
     class="cls-1"
     d="m 139.57632,234.55039 v 82.6 h -13.58 v -82.6 z"
     id="path2" />
  <path
     class="cls-1"
     d="m 177.21632,317.15039 h -13.56 v -82.6 h 13.56 v 10.62 c 8.09,-7.54 17.77,-13 29,-13 16.72,0 27.28,11 27.28,30.33 v 54.67 h -13.69 v -53.15 c 0,-14 -6.33,-20.56 -16.54,-20.56 -9.86,0 -18,4.8 -26.05,13 z"
     id="path3" />
  <path
     class="cls-1"
     d="m 336.15632,188.43039 v 128.7 h -12.85 l -0.53,-15.94 c -6,11 -16.54,17.65 -31.33,17.65 -23.59,0 -39.78,-17.65 -39.78,-43.18 0,-26.57 17.78,-43.53 40.13,-43.53 13.91,0 24.47,6.51 30.81,17.48 v -58.08 z m -41.89,118.78 c 17.07,0 27.81,-12.34 28.34,-30.33 v -2.75 c -0.53,-17.82 -11.44,-30.5 -28.17,-30.5 -17.25,0 -28.69,13.37 -28.69,32.05 0,18.5 11.27,31.53 28.52,31.53 z"
     id="path4" />
  <path
     class="cls-1"
     d="m 369.77632,281.33039 c 2.29,15.94 13.38,26 29.57,26 9.68,0 21.83,-2.23 31.51,-8.57 l 4.93,10.67 c -11.09,6.17 -21.48,9.42 -36.62,9.42 -26.75,0 -43.65,-17.82 -43.65,-43 0,-26.22 17.07,-43.7 40.49,-43.7 23.42,0 41.71,17.28 41.71,44.38 a 31.91,31.91 0 0 1 -0.35,4.8 z m -0.2,-10.28 h 53.69 c -1.69,-16.62 -12.48,-27.42 -26.91,-27.42 -15.14,0 -25.35,11.14 -26.78,27.42 z"
     id="path5" />
  <path
     class="cls-1"
     d="m 504.95632,246.37039 a 24.83,24.83 0 0 0 -8.8,-1.37 c -9,0 -18.66,5.48 -25.88,15.08 v 57.07 h -13.55 v -82.6 h 13.55 v 12.51 c 8.45,-10.29 16.9,-14.4 27.29,-14.4 a 30,30 0 0 1 9.5,1.54 z"
     id="path6" />
  <path
     class="cls-2"
     d="m 134.80632,176.67039 c 0.53,15.59 -24.08,16.8 -4.22,43.38 a 0.74,0.74 0 0 0 1.29,-0.6 c -0.67,-14.58 21.93,-18.63 4.22,-43.41 -0.45,-0.61 -1.32,-0.19 -1.29,0.63 z"
     id="path7" />
  <path
     class="cls-2"
     d="m 130.28632,160.80039 c 0.21,6.16 -9.52,6.64 -1.67,17.15 a 0.29,0.29 0 0 0 0.51,-0.24 c -0.26,-5.76 8.67,-7.36 1.67,-17.16 -0.17,-0.25 -0.52,-0.12 -0.51,0.25 z"
     id="path8" />
</svg>
