<?xml version="1.0" encoding="UTF-8" standalone="no"?>
<svg
   width="446"
   height="545"
   viewBox="0 0 446 545"
   fill="none"
   version="1.1"
   id="svg1"
   sodipodi:docname="logo_ruff.svg"
   inkscape:export-filename="logo_ruff.png"
   inkscape:export-xdpi="761.26"
   inkscape:export-ydpi="761.26"
   inkscape:version="1.3 (0e150ed6c4, 2023-07-21)"
   xmlns:inkscape="http://www.inkscape.org/namespaces/inkscape"
   xmlns:sodipodi="http://sodipodi.sourceforge.net/DTD/sodipodi-0.dtd"
   xmlns="http://www.w3.org/2000/svg"
   xmlns:svg="http://www.w3.org/2000/svg">
  <defs
     id="defs1" />
  <sodipodi:namedview
     id="namedview1"
     pagecolor="#505050"
     bordercolor="#eeeeee"
     borderopacity="1"
     inkscape:showpageshadow="0"
     inkscape:pageopacity="0"
     inkscape:pagecheckerboard="0"
     inkscape:deskcolor="#d1d1d1"
     inkscape:zoom="1.5963303"
     inkscape:cx="223.01149"
     inkscape:cy="272.5"
     inkscape:window-width="3840"
     inkscape:window-height="2160"
     inkscape:window-x="1920"
     inkscape:window-y="0"
     inkscape:window-maximized="1"
     inkscape:current-layer="svg1" />
  <path
     fill-rule="evenodd"
     clip-rule="evenodd"
     d="m 75.760045,198.19035 c -1.428478,0 -2.586888,1.15764 -2.586888,2.58565 v 7.75697 c 0,1.42799 -1.158126,2.58563 -2.586889,2.58563 h -7.243344 c -1.428763,0 -2.586888,1.15764 -2.586888,2.58567 v 20.68512 c 0,1.42819 -1.158411,2.58575 -2.587174,2.58575 h -7.243315 c -1.428735,0 -2.586946,1.15755 -2.586946,2.58575 v 14.22089 c 0,1.4282 -1.15821,2.58575 -2.586945,2.58575 h -7.243401 c -1.428735,0 -2.586946,1.15756 -2.586946,2.58575 v 14.2209 c 0,1.42819 -1.15821,2.58575 -2.586945,2.58575 h -6.467343 c -1.428726,0 -2.586937,1.15755 -2.586937,2.58574 v 7.75696 c 0,1.42791 1.158211,2.58546 2.586937,2.58546 H 60.49709 c 1.428763,0 2.587174,1.15784 2.587174,2.58575 v 14.22118 c 0,1.42791 -1.158411,2.58547 -2.587174,2.58547 h -7.243344 c -1.428678,0 -2.586888,1.15784 -2.586888,2.58574 v 14.22119 c 0,1.42791 -1.158211,2.58546 -2.586946,2.58546 h -7.243429 c -1.428735,0 -2.586946,1.15784 -2.586946,2.58575 v 20.68512 c 0,1.4282 1.158211,2.58575 2.586946,2.58575 h 20.695534 c 1.428763,0 2.586888,-1.15755 2.586888,-2.58575 v -10.34242 h 10.347838 c 1.428763,0 2.586889,-1.15784 2.586889,-2.58574 v -7.75696 c 0,-1.42791 1.158125,-2.58575 2.586888,-2.58575 h 7.243344 c 1.428763,0 2.587174,-1.15755 2.587174,-2.58546 v -7.75696 c 0,-1.42819 1.158125,-2.58575 2.586888,-2.58575 h 7.243344 c 1.42876,0 2.58689,-1.15755 2.58689,-2.58574 v -7.75696 c 0,-1.42791 1.15841,-2.58546 2.58689,-2.58546 h 7.24363 c 1.42876,0 2.58688,-1.15784 2.58688,-2.58575 v -7.75696 c 0,-1.42791 1.15813,-2.58575 2.58689,-2.58575 h 7.24335 c 1.42876,0 2.58717,-1.15755 2.58717,-2.58546 v -7.75696 c 0,-1.42819 1.15812,-2.58574 2.58688,-2.58574 h 7.24335 c 1.42876,0 2.58689,-1.15756 2.58689,-2.58575 v -20.68513 c 0,-1.4279 -1.15813,-2.58574 -2.58689,-2.58574 h -7.50201 c -1.42876,0 -2.58717,-1.15756 -2.58717,-2.58547 v -7.75695 c 0,-1.4282 1.15841,-2.58575 2.58717,-2.58575 h 7.24335 c 1.42876,0 2.58689,-1.15756 2.58689,-2.58575 v -7.75696 c 0,-1.4279 1.15812,-2.58554 2.58688,-2.58554 h 7.24363 c 1.42848,0 2.58689,-1.15765 2.58689,-2.58567 V 200.776 c 0,-1.42801 -1.15841,-2.58565 -2.58689,-2.58565 z m -9.571572,109.89014 c -1.428763,0 -2.586889,1.15784 -2.586889,2.58574 v 14.22119 c 0,1.42791 -1.158125,2.58546 -2.586888,2.58546 h -7.243629 c -1.428621,0 -2.586832,1.15784 -2.586832,2.58575 v 7.75696 c 0,1.4279 1.158211,2.58574 2.586832,2.58574 h 10.347838 v -10.3427 c 0,-1.42791 1.158125,-2.58575 2.586888,-2.58575 h 7.24363 c 1.428478,0 2.586888,-1.15755 2.586888,-2.58546 v -7.75696 c 0,-1.42819 1.158125,-2.58575 2.586888,-2.58575 h 7.243344 c 1.428764,0 2.586889,-1.15755 2.586889,-2.58574 v -7.75696 c 0,-1.42791 1.15841,-2.58546 2.587173,-2.58546 h 7.243344 c 1.428761,0 2.586891,-1.15784 2.586891,-2.58575 v -7.75696 c 0,-1.42791 1.15812,-2.58575 2.58689,-2.58575 h 7.24334 c 1.42876,0 2.58717,-1.15755 2.58717,-2.58546 v -7.75696 c 0,-1.42819 1.15813,-2.58574 2.58689,-2.58574 h 7.24335 c 1.42876,0 2.58688,-1.15756 2.58688,-2.58575 v -7.75696 c 0,-1.42791 -1.15812,-2.58546 -2.58688,-2.58546 h -19.91941 c -1.42877,0 -2.58689,-1.15784 -2.58689,-2.58575 v -7.75696 c 0,-1.4279 1.15812,-2.58574 2.58689,-2.58574 h 7.24334 c 1.42876,0 2.58717,-1.15756 2.58717,-2.58547 v -7.75695 c 0,-1.4282 1.15813,-2.58575 2.58689,-2.58575 h 7.24335 c 1.42875,0 2.58688,-1.15756 2.58688,-2.58575 v -7.75696 c 0,-1.4279 1.15813,-2.58554 2.58689,-2.58554 h 7.24363 c 1.42876,0 2.58689,-1.15765 2.58689,-2.58567 v -7.75695 c 0,-1.42803 -1.15813,-2.58567 -2.58689,-2.58567 H 76.277651 c -1.428763,0 -2.587174,1.15764 -2.587174,2.58567 v 20.68512 c 0,1.42819 -1.158125,2.58575 -2.586888,2.58575 h -7.243344 c -1.428763,0 -2.586889,1.15755 -2.586889,2.58575 v 14.22089 c 0,1.4282 -1.15841,2.58575 -2.586888,2.58575 h -7.243544 c -1.428706,0 -2.586917,1.15756 -2.586917,2.58575 v 14.2209 c 0,1.42819 1.158211,2.58575 2.586917,2.58575 h 21.988893 c 1.428763,0 2.586888,1.15755 2.586888,2.58574 v 27.14935 c 0,1.42791 -1.158125,2.58547 -2.586888,2.58547 z"
     fill="#d7ff64"
     id="path1"
     style="stroke-width:0.285182" />
  <text
     xml:space="preserve"
     style="font-size:134.533px;line-height:1.25;font-family:'Twitter Color Emoji';-inkscape-font-specification:'Twitter Color Emoji, Normal';letter-spacing:0px;word-spacing:0px;stroke-width:3.36331"
     x="150.53838"
     y="330.79111"
     id="text1"><tspan
       sodipodi:role="line"
       id="tspan1"
       x="150.53838"
       y="330.79111"
       style="fill:#f9f9f9;stroke-width:3.36331">Ruff</tspan></text>
</svg>
